<?xml version="1.0" encoding="utf-8" standalone="no"?>
<!DOCTYPE svg PUBLIC "-//W3C//DTD SVG 1.1//EN"
  "http://www.w3.org/Graphics/SVG/1.1/DTD/svg11.dtd">
<!-- Created with matplotlib (https://matplotlib.org/) -->
<svg height="595.44pt" version="1.1" viewBox="0 0 1263.6 595.44" width="1263.6pt" xmlns="http://www.w3.org/2000/svg" xmlns:xlink="http://www.w3.org/1999/xlink">
 <metadata>
  <rdf:RDF xmlns:cc="http://creativecommons.org/ns#" xmlns:dc="http://purl.org/dc/elements/1.1/" xmlns:rdf="http://www.w3.org/1999/02/22-rdf-syntax-ns#">
   <cc:Work>
    <dc:type rdf:resource="http://purl.org/dc/dcmitype/StillImage"/>
    <dc:date>2021-05-14T14:38:49.980969</dc:date>
    <dc:format>image/svg+xml</dc:format>
    <dc:creator>
     <cc:Agent>
      <dc:title>Matplotlib v3.3.4, https://matplotlib.org/</dc:title>
     </cc:Agent>
    </dc:creator>
   </cc:Work>
  </rdf:RDF>
 </metadata>
 <defs>
  <style type="text/css">*{stroke-linecap:butt;stroke-linejoin:round;}</style>
 </defs>
 <g id="figure_1">
  <g id="patch_1">
   <path d="M 0 595.44 
L 1263.6 595.44 
L 1263.6 0 
L 0 0 
z
" style="fill:#ffffff;"/>
  </g>
  <g id="axes_1">
   <g id="patch_2">
    <path d="M 42.71 475.710371 
L 1250.64 475.710371 
L 1250.64 12.96 
L 42.71 12.96 
z
" style="fill:#eaeaf2;"/>
   </g>
   <g id="matplotlib.axis_1">
    <g id="xtick_1">
     <g id="text_1">
      <!-- clay -->
      <g style="fill:#262626;" transform="translate(35.292563 503.318675)rotate(-30)scale(0.12 -0.12)">
       <defs>
        <path d="M 40.4375 19 
L 49.078125 17.875 
Q 47.65625 8.9375 41.8125 3.875 
Q 35.984375 -1.171875 27.484375 -1.171875 
Q 16.84375 -1.171875 10.375 5.78125 
Q 3.90625 12.75 3.90625 25.734375 
Q 3.90625 34.125 6.6875 40.421875 
Q 9.46875 46.734375 15.15625 49.875 
Q 20.84375 53.03125 27.546875 53.03125 
Q 35.984375 53.03125 41.359375 48.75 
Q 46.734375 44.484375 48.25 36.625 
L 39.703125 35.296875 
Q 38.484375 40.53125 35.375 43.15625 
Q 32.28125 45.796875 27.875 45.796875 
Q 21.234375 45.796875 17.078125 41.03125 
Q 12.9375 36.28125 12.9375 25.984375 
Q 12.9375 15.53125 16.9375 10.796875 
Q 20.953125 6.0625 27.390625 6.0625 
Q 32.5625 6.0625 36.03125 9.234375 
Q 39.5 12.40625 40.4375 19 
z
" id="ArialMT-99"/>
        <path d="M 6.390625 0 
L 6.390625 71.578125 
L 15.1875 71.578125 
L 15.1875 0 
z
" id="ArialMT-108"/>
        <path d="M 40.4375 6.390625 
Q 35.546875 2.25 31.03125 0.53125 
Q 26.515625 -1.171875 21.34375 -1.171875 
Q 12.796875 -1.171875 8.203125 3 
Q 3.609375 7.171875 3.609375 13.671875 
Q 3.609375 17.484375 5.34375 20.625 
Q 7.078125 23.78125 9.890625 25.6875 
Q 12.703125 27.59375 16.21875 28.5625 
Q 18.796875 29.25 24.03125 29.890625 
Q 34.671875 31.15625 39.703125 32.90625 
Q 39.75 34.71875 39.75 35.203125 
Q 39.75 40.578125 37.25 42.78125 
Q 33.890625 45.75 27.25 45.75 
Q 21.046875 45.75 18.09375 43.578125 
Q 15.140625 41.40625 13.71875 35.890625 
L 5.125 37.0625 
Q 6.296875 42.578125 8.984375 45.96875 
Q 11.671875 49.359375 16.75 51.1875 
Q 21.828125 53.03125 28.515625 53.03125 
Q 35.15625 53.03125 39.296875 51.46875 
Q 43.453125 49.90625 45.40625 47.53125 
Q 47.359375 45.171875 48.140625 41.546875 
Q 48.578125 39.3125 48.578125 33.453125 
L 48.578125 21.734375 
Q 48.578125 9.46875 49.140625 6.21875 
Q 49.703125 2.984375 51.375 0 
L 42.1875 0 
Q 40.828125 2.734375 40.4375 6.390625 
z
M 39.703125 26.03125 
Q 34.90625 24.078125 25.34375 22.703125 
Q 19.921875 21.921875 17.671875 20.9375 
Q 15.4375 19.96875 14.203125 18.09375 
Q 12.984375 16.21875 12.984375 13.921875 
Q 12.984375 10.40625 15.640625 8.0625 
Q 18.3125 5.71875 23.4375 5.71875 
Q 28.515625 5.71875 32.46875 7.9375 
Q 36.421875 10.15625 38.28125 14.015625 
Q 39.703125 17 39.703125 22.796875 
z
" id="ArialMT-97"/>
        <path d="M 6.203125 -19.96875 
L 5.21875 -11.71875 
Q 8.109375 -12.5 10.25 -12.5 
Q 13.1875 -12.5 14.9375 -11.515625 
Q 16.703125 -10.546875 17.828125 -8.796875 
Q 18.65625 -7.46875 20.515625 -2.25 
Q 20.75 -1.515625 21.296875 -0.09375 
L 1.609375 51.859375 
L 11.078125 51.859375 
L 21.875 21.828125 
Q 23.96875 16.109375 25.640625 9.8125 
Q 27.15625 15.875 29.25 21.625 
L 40.328125 51.859375 
L 49.125 51.859375 
L 29.390625 -0.875 
Q 26.21875 -9.421875 24.46875 -12.640625 
Q 22.125 -17 19.09375 -19.015625 
Q 16.0625 -21.046875 11.859375 -21.046875 
Q 9.328125 -21.046875 6.203125 -19.96875 
z
" id="ArialMT-121"/>
       </defs>
       <use xlink:href="#ArialMT-99"/>
       <use x="50" xlink:href="#ArialMT-108"/>
       <use x="72.216797" xlink:href="#ArialMT-97"/>
       <use x="127.832031" xlink:href="#ArialMT-121"/>
      </g>
     </g>
    </g>
    <g id="xtick_2">
     <g id="text_2">
      <!-- human liver -->
      <g style="fill:#262626;" transform="translate(24.781347 523.66055)rotate(-30)scale(0.12 -0.12)">
       <defs>
        <path d="M 6.59375 0 
L 6.59375 71.578125 
L 15.375 71.578125 
L 15.375 45.90625 
Q 21.53125 53.03125 30.90625 53.03125 
Q 36.671875 53.03125 40.921875 50.75 
Q 45.171875 48.484375 47 44.484375 
Q 48.828125 40.484375 48.828125 32.859375 
L 48.828125 0 
L 40.046875 0 
L 40.046875 32.859375 
Q 40.046875 39.453125 37.1875 42.453125 
Q 34.328125 45.453125 29.109375 45.453125 
Q 25.203125 45.453125 21.75 43.421875 
Q 18.3125 41.40625 16.84375 37.9375 
Q 15.375 34.46875 15.375 28.375 
L 15.375 0 
z
" id="ArialMT-104"/>
        <path d="M 40.578125 0 
L 40.578125 7.625 
Q 34.515625 -1.171875 24.125 -1.171875 
Q 19.53125 -1.171875 15.546875 0.578125 
Q 11.578125 2.34375 9.640625 5 
Q 7.71875 7.671875 6.9375 11.53125 
Q 6.390625 14.109375 6.390625 19.734375 
L 6.390625 51.859375 
L 15.1875 51.859375 
L 15.1875 23.09375 
Q 15.1875 16.21875 15.71875 13.8125 
Q 16.546875 10.359375 19.234375 8.375 
Q 21.921875 6.390625 25.875 6.390625 
Q 29.828125 6.390625 33.296875 8.421875 
Q 36.765625 10.453125 38.203125 13.9375 
Q 39.65625 17.4375 39.65625 24.078125 
L 39.65625 51.859375 
L 48.4375 51.859375 
L 48.4375 0 
z
" id="ArialMT-117"/>
        <path d="M 6.59375 0 
L 6.59375 51.859375 
L 14.453125 51.859375 
L 14.453125 44.578125 
Q 16.890625 48.390625 20.9375 50.703125 
Q 25 53.03125 30.171875 53.03125 
Q 35.9375 53.03125 39.625 50.640625 
Q 43.3125 48.25 44.828125 43.953125 
Q 50.984375 53.03125 60.84375 53.03125 
Q 68.5625 53.03125 72.703125 48.75 
Q 76.859375 44.484375 76.859375 35.59375 
L 76.859375 0 
L 68.109375 0 
L 68.109375 32.671875 
Q 68.109375 37.9375 67.25 40.25 
Q 66.40625 42.578125 64.15625 43.984375 
Q 61.921875 45.40625 58.890625 45.40625 
Q 53.421875 45.40625 49.796875 41.765625 
Q 46.1875 38.140625 46.1875 30.125 
L 46.1875 0 
L 37.40625 0 
L 37.40625 33.6875 
Q 37.40625 39.546875 35.25 42.46875 
Q 33.109375 45.40625 28.21875 45.40625 
Q 24.515625 45.40625 21.359375 43.453125 
Q 18.21875 41.5 16.796875 37.734375 
Q 15.375 33.984375 15.375 26.90625 
L 15.375 0 
z
" id="ArialMT-109"/>
        <path d="M 6.59375 0 
L 6.59375 51.859375 
L 14.5 51.859375 
L 14.5 44.484375 
Q 20.21875 53.03125 31 53.03125 
Q 35.6875 53.03125 39.625 51.34375 
Q 43.5625 49.65625 45.515625 46.921875 
Q 47.46875 44.1875 48.25 40.4375 
Q 48.734375 37.984375 48.734375 31.890625 
L 48.734375 0 
L 39.9375 0 
L 39.9375 31.546875 
Q 39.9375 36.921875 38.90625 39.578125 
Q 37.890625 42.234375 35.28125 43.8125 
Q 32.671875 45.40625 29.15625 45.40625 
Q 23.53125 45.40625 19.453125 41.84375 
Q 15.375 38.28125 15.375 28.328125 
L 15.375 0 
z
" id="ArialMT-110"/>
        <path id="ArialMT-32"/>
        <path d="M 6.640625 61.46875 
L 6.640625 71.578125 
L 15.4375 71.578125 
L 15.4375 61.46875 
z
M 6.640625 0 
L 6.640625 51.859375 
L 15.4375 51.859375 
L 15.4375 0 
z
" id="ArialMT-105"/>
        <path d="M 21 0 
L 1.265625 51.859375 
L 10.546875 51.859375 
L 21.6875 20.796875 
Q 23.484375 15.765625 25 10.359375 
Q 26.171875 14.453125 28.265625 20.21875 
L 39.796875 51.859375 
L 48.828125 51.859375 
L 29.203125 0 
z
" id="ArialMT-118"/>
        <path d="M 42.09375 16.703125 
L 51.171875 15.578125 
Q 49.03125 7.625 43.21875 3.21875 
Q 37.40625 -1.171875 28.375 -1.171875 
Q 17 -1.171875 10.328125 5.828125 
Q 3.65625 12.84375 3.65625 25.484375 
Q 3.65625 38.578125 10.390625 45.796875 
Q 17.140625 53.03125 27.875 53.03125 
Q 38.28125 53.03125 44.875 45.953125 
Q 51.46875 38.875 51.46875 26.03125 
Q 51.46875 25.25 51.421875 23.6875 
L 12.75 23.6875 
Q 13.234375 15.140625 17.578125 10.59375 
Q 21.921875 6.0625 28.421875 6.0625 
Q 33.25 6.0625 36.671875 8.59375 
Q 40.09375 11.140625 42.09375 16.703125 
z
M 13.234375 30.90625 
L 42.1875 30.90625 
Q 41.609375 37.453125 38.875 40.71875 
Q 34.671875 45.796875 27.984375 45.796875 
Q 21.921875 45.796875 17.796875 41.75 
Q 13.671875 37.703125 13.234375 30.90625 
z
" id="ArialMT-101"/>
        <path d="M 6.5 0 
L 6.5 51.859375 
L 14.40625 51.859375 
L 14.40625 44 
Q 17.4375 49.515625 20 51.265625 
Q 22.5625 53.03125 25.640625 53.03125 
Q 30.078125 53.03125 34.671875 50.203125 
L 31.640625 42.046875 
Q 28.421875 43.953125 25.203125 43.953125 
Q 22.3125 43.953125 20.015625 42.21875 
Q 17.71875 40.484375 16.75 37.40625 
Q 15.28125 32.71875 15.28125 27.15625 
L 15.28125 0 
z
" id="ArialMT-114"/>
       </defs>
       <use xlink:href="#ArialMT-104"/>
       <use x="55.615234" xlink:href="#ArialMT-117"/>
       <use x="111.230469" xlink:href="#ArialMT-109"/>
       <use x="194.53125" xlink:href="#ArialMT-97"/>
       <use x="250.146484" xlink:href="#ArialMT-110"/>
       <use x="305.761719" xlink:href="#ArialMT-32"/>
       <use x="333.544922" xlink:href="#ArialMT-108"/>
       <use x="355.761719" xlink:href="#ArialMT-105"/>
       <use x="377.978516" xlink:href="#ArialMT-118"/>
       <use x="427.978516" xlink:href="#ArialMT-101"/>
       <use x="483.59375" xlink:href="#ArialMT-114"/>
      </g>
     </g>
    </g>
    <g id="xtick_3">
     <g id="text_3">
      <!-- waste water -->
      <g style="fill:#262626;" transform="translate(47.702011 524.659925)rotate(-30)scale(0.12 -0.12)">
       <defs>
        <path d="M 16.15625 0 
L 0.296875 51.859375 
L 9.375 51.859375 
L 17.625 21.921875 
L 20.703125 10.796875 
Q 20.90625 11.625 23.390625 21.484375 
L 31.640625 51.859375 
L 40.671875 51.859375 
L 48.4375 21.78125 
L 51.03125 11.859375 
L 54 21.875 
L 62.890625 51.859375 
L 71.4375 51.859375 
L 55.21875 0 
L 46.09375 0 
L 37.84375 31.0625 
L 35.84375 39.890625 
L 25.34375 0 
z
" id="ArialMT-119"/>
        <path d="M 3.078125 15.484375 
L 11.765625 16.84375 
Q 12.5 11.625 15.84375 8.84375 
Q 19.1875 6.0625 25.203125 6.0625 
Q 31.25 6.0625 34.171875 8.515625 
Q 37.109375 10.984375 37.109375 14.3125 
Q 37.109375 17.28125 34.515625 19 
Q 32.71875 20.171875 25.53125 21.96875 
Q 15.875 24.421875 12.140625 26.203125 
Q 8.40625 27.984375 6.46875 31.125 
Q 4.546875 34.28125 4.546875 38.09375 
Q 4.546875 41.546875 6.125 44.5 
Q 7.71875 47.46875 10.453125 49.421875 
Q 12.5 50.921875 16.03125 51.96875 
Q 19.578125 53.03125 23.640625 53.03125 
Q 29.734375 53.03125 34.34375 51.265625 
Q 38.96875 49.515625 41.15625 46.5 
Q 43.359375 43.5 44.1875 38.484375 
L 35.59375 37.3125 
Q 35.015625 41.3125 32.203125 43.546875 
Q 29.390625 45.796875 24.265625 45.796875 
Q 18.21875 45.796875 15.625 43.796875 
Q 13.03125 41.796875 13.03125 39.109375 
Q 13.03125 37.40625 14.109375 36.03125 
Q 15.1875 34.625 17.484375 33.6875 
Q 18.796875 33.203125 25.25 31.453125 
Q 34.578125 28.953125 38.25 27.359375 
Q 41.9375 25.78125 44.03125 22.75 
Q 46.140625 19.734375 46.140625 15.234375 
Q 46.140625 10.84375 43.578125 6.953125 
Q 41.015625 3.078125 36.171875 0.953125 
Q 31.34375 -1.171875 25.25 -1.171875 
Q 15.140625 -1.171875 9.84375 3.03125 
Q 4.546875 7.234375 3.078125 15.484375 
z
" id="ArialMT-115"/>
        <path d="M 25.78125 7.859375 
L 27.046875 0.09375 
Q 23.34375 -0.6875 20.40625 -0.6875 
Q 15.625 -0.6875 12.984375 0.828125 
Q 10.359375 2.34375 9.28125 4.8125 
Q 8.203125 7.28125 8.203125 15.1875 
L 8.203125 45.015625 
L 1.765625 45.015625 
L 1.765625 51.859375 
L 8.203125 51.859375 
L 8.203125 64.703125 
L 16.9375 69.96875 
L 16.9375 51.859375 
L 25.78125 51.859375 
L 25.78125 45.015625 
L 16.9375 45.015625 
L 16.9375 14.703125 
Q 16.9375 10.9375 17.40625 9.859375 
Q 17.875 8.796875 18.921875 8.15625 
Q 19.96875 7.515625 21.921875 7.515625 
Q 23.390625 7.515625 25.78125 7.859375 
z
" id="ArialMT-116"/>
       </defs>
       <use xlink:href="#ArialMT-119"/>
       <use x="72.216797" xlink:href="#ArialMT-97"/>
       <use x="127.832031" xlink:href="#ArialMT-115"/>
       <use x="177.832031" xlink:href="#ArialMT-116"/>
       <use x="205.615234" xlink:href="#ArialMT-101"/>
       <use x="261.230469" xlink:href="#ArialMT-32"/>
       <use x="289.013672" xlink:href="#ArialMT-119"/>
       <use x="361.230469" xlink:href="#ArialMT-97"/>
       <use x="416.845703" xlink:href="#ArialMT-116"/>
       <use x="444.628906" xlink:href="#ArialMT-101"/>
       <use x="500.244141" xlink:href="#ArialMT-114"/>
      </g>
     </g>
    </g>
    <g id="xtick_4">
     <g id="text_4">
      <!-- human urogenital -->
      <g style="fill:#262626;" transform="translate(47.427861 539.010238)rotate(-30)scale(0.12 -0.12)">
       <defs>
        <path d="M 3.328125 25.921875 
Q 3.328125 40.328125 11.328125 47.265625 
Q 18.015625 53.03125 27.640625 53.03125 
Q 38.328125 53.03125 45.109375 46.015625 
Q 51.90625 39.015625 51.90625 26.65625 
Q 51.90625 16.65625 48.90625 10.90625 
Q 45.90625 5.171875 40.15625 2 
Q 34.421875 -1.171875 27.640625 -1.171875 
Q 16.75 -1.171875 10.03125 5.8125 
Q 3.328125 12.796875 3.328125 25.921875 
z
M 12.359375 25.921875 
Q 12.359375 15.96875 16.703125 11.015625 
Q 21.046875 6.0625 27.640625 6.0625 
Q 34.1875 6.0625 38.53125 11.03125 
Q 42.875 16.015625 42.875 26.21875 
Q 42.875 35.84375 38.5 40.796875 
Q 34.125 45.75 27.640625 45.75 
Q 21.046875 45.75 16.703125 40.8125 
Q 12.359375 35.890625 12.359375 25.921875 
z
" id="ArialMT-111"/>
        <path d="M 4.984375 -4.296875 
L 13.53125 -5.5625 
Q 14.0625 -9.515625 16.5 -11.328125 
Q 19.78125 -13.765625 25.4375 -13.765625 
Q 31.546875 -13.765625 34.859375 -11.328125 
Q 38.1875 -8.890625 39.359375 -4.5 
Q 40.046875 -1.8125 39.984375 6.78125 
Q 34.234375 0 25.640625 0 
Q 14.9375 0 9.078125 7.71875 
Q 3.21875 15.4375 3.21875 26.21875 
Q 3.21875 33.640625 5.90625 39.90625 
Q 8.59375 46.1875 13.6875 49.609375 
Q 18.796875 53.03125 25.6875 53.03125 
Q 34.859375 53.03125 40.828125 45.609375 
L 40.828125 51.859375 
L 48.921875 51.859375 
L 48.921875 7.03125 
Q 48.921875 -5.078125 46.453125 -10.125 
Q 44 -15.1875 38.640625 -18.109375 
Q 33.296875 -21.046875 25.484375 -21.046875 
Q 16.21875 -21.046875 10.5 -16.875 
Q 4.78125 -12.703125 4.984375 -4.296875 
z
M 12.25 26.859375 
Q 12.25 16.65625 16.296875 11.96875 
Q 20.359375 7.28125 26.46875 7.28125 
Q 32.515625 7.28125 36.609375 11.9375 
Q 40.71875 16.609375 40.71875 26.5625 
Q 40.71875 36.078125 36.5 40.90625 
Q 32.28125 45.75 26.3125 45.75 
Q 20.453125 45.75 16.34375 40.984375 
Q 12.25 36.234375 12.25 26.859375 
z
" id="ArialMT-103"/>
       </defs>
       <use xlink:href="#ArialMT-104"/>
       <use x="55.615234" xlink:href="#ArialMT-117"/>
       <use x="111.230469" xlink:href="#ArialMT-109"/>
       <use x="194.53125" xlink:href="#ArialMT-97"/>
       <use x="250.146484" xlink:href="#ArialMT-110"/>
       <use x="305.761719" xlink:href="#ArialMT-32"/>
       <use x="333.544922" xlink:href="#ArialMT-117"/>
       <use x="389.160156" xlink:href="#ArialMT-114"/>
       <use x="422.460938" xlink:href="#ArialMT-111"/>
       <use x="478.076172" xlink:href="#ArialMT-103"/>
       <use x="533.691406" xlink:href="#ArialMT-101"/>
       <use x="589.306641" xlink:href="#ArialMT-110"/>
       <use x="644.921875" xlink:href="#ArialMT-105"/>
       <use x="667.138672" xlink:href="#ArialMT-116"/>
       <use x="694.921875" xlink:href="#ArialMT-97"/>
       <use x="750.537109" xlink:href="#ArialMT-108"/>
      </g>
     </g>
    </g>
    <g id="xtick_5">
     <g id="text_5">
      <!-- human gut -->
      <g style="fill:#262626;" transform="translate(103.27427 520.999925)rotate(-30)scale(0.12 -0.12)">
       <use xlink:href="#ArialMT-104"/>
       <use x="55.615234" xlink:href="#ArialMT-117"/>
       <use x="111.230469" xlink:href="#ArialMT-109"/>
       <use x="194.53125" xlink:href="#ArialMT-97"/>
       <use x="250.146484" xlink:href="#ArialMT-110"/>
       <use x="305.761719" xlink:href="#ArialMT-32"/>
       <use x="333.544922" xlink:href="#ArialMT-103"/>
       <use x="389.160156" xlink:href="#ArialMT-117"/>
       <use x="444.775391" xlink:href="#ArialMT-116"/>
      </g>
     </g>
    </g>
    <g id="xtick_6">
     <g id="text_6">
      <!-- bone -->
      <g style="fill:#262626;" transform="translate(153.985097 505.995238)rotate(-30)scale(0.12 -0.12)">
       <defs>
        <path d="M 14.703125 0 
L 6.546875 0 
L 6.546875 71.578125 
L 15.328125 71.578125 
L 15.328125 46.046875 
Q 20.90625 53.03125 29.546875 53.03125 
Q 34.328125 53.03125 38.59375 51.09375 
Q 42.875 49.171875 45.625 45.671875 
Q 48.390625 42.1875 49.953125 37.25 
Q 51.515625 32.328125 51.515625 26.703125 
Q 51.515625 13.375 44.921875 6.09375 
Q 38.328125 -1.171875 29.109375 -1.171875 
Q 19.921875 -1.171875 14.703125 6.5 
z
M 14.59375 26.3125 
Q 14.59375 17 17.140625 12.84375 
Q 21.296875 6.0625 28.375 6.0625 
Q 34.125 6.0625 38.328125 11.0625 
Q 42.53125 16.0625 42.53125 25.984375 
Q 42.53125 36.140625 38.5 40.96875 
Q 34.46875 45.796875 28.765625 45.796875 
Q 23 45.796875 18.796875 40.796875 
Q 14.59375 35.796875 14.59375 26.3125 
z
" id="ArialMT-98"/>
       </defs>
       <use xlink:href="#ArialMT-98"/>
       <use x="55.615234" xlink:href="#ArialMT-111"/>
       <use x="111.230469" xlink:href="#ArialMT-110"/>
       <use x="166.845703" xlink:href="#ArialMT-101"/>
      </g>
     </g>
    </g>
    <g id="xtick_7">
     <g id="text_7">
      <!-- mine drainage -->
      <g style="fill:#262626;" transform="translate(135.828063 530.670238)rotate(-30)scale(0.12 -0.12)">
       <defs>
        <path d="M 40.234375 0 
L 40.234375 6.546875 
Q 35.296875 -1.171875 25.734375 -1.171875 
Q 19.53125 -1.171875 14.328125 2.25 
Q 9.125 5.671875 6.265625 11.796875 
Q 3.421875 17.921875 3.421875 25.875 
Q 3.421875 33.640625 6 39.96875 
Q 8.59375 46.296875 13.765625 49.65625 
Q 18.953125 53.03125 25.34375 53.03125 
Q 30.03125 53.03125 33.6875 51.046875 
Q 37.359375 49.078125 39.65625 45.90625 
L 39.65625 71.578125 
L 48.390625 71.578125 
L 48.390625 0 
z
M 12.453125 25.875 
Q 12.453125 15.921875 16.640625 10.984375 
Q 20.84375 6.0625 26.5625 6.0625 
Q 32.328125 6.0625 36.34375 10.765625 
Q 40.375 15.484375 40.375 25.140625 
Q 40.375 35.796875 36.265625 40.765625 
Q 32.171875 45.75 26.171875 45.75 
Q 20.3125 45.75 16.375 40.96875 
Q 12.453125 36.1875 12.453125 25.875 
z
" id="ArialMT-100"/>
       </defs>
       <use xlink:href="#ArialMT-109"/>
       <use x="83.300781" xlink:href="#ArialMT-105"/>
       <use x="105.517578" xlink:href="#ArialMT-110"/>
       <use x="161.132812" xlink:href="#ArialMT-101"/>
       <use x="216.748047" xlink:href="#ArialMT-32"/>
       <use x="244.53125" xlink:href="#ArialMT-100"/>
       <use x="300.146484" xlink:href="#ArialMT-114"/>
       <use x="333.447266" xlink:href="#ArialMT-97"/>
       <use x="389.0625" xlink:href="#ArialMT-105"/>
       <use x="411.279297" xlink:href="#ArialMT-110"/>
       <use x="466.894531" xlink:href="#ArialMT-97"/>
       <use x="522.509766" xlink:href="#ArialMT-103"/>
       <use x="578.125" xlink:href="#ArialMT-101"/>
      </g>
     </g>
    </g>
    <g id="xtick_8">
     <g id="text_8">
      <!-- plant -->
      <g style="fill:#262626;" transform="translate(203.871305 505.658675)rotate(-30)scale(0.12 -0.12)">
       <defs>
        <path d="M 6.59375 -19.875 
L 6.59375 51.859375 
L 14.59375 51.859375 
L 14.59375 45.125 
Q 17.4375 49.078125 21 51.046875 
Q 24.5625 53.03125 29.640625 53.03125 
Q 36.28125 53.03125 41.359375 49.609375 
Q 46.4375 46.1875 49.015625 39.953125 
Q 51.609375 33.734375 51.609375 26.3125 
Q 51.609375 18.359375 48.75 11.984375 
Q 45.90625 5.609375 40.453125 2.21875 
Q 35.015625 -1.171875 29 -1.171875 
Q 24.609375 -1.171875 21.109375 0.6875 
Q 17.625 2.546875 15.375 5.375 
L 15.375 -19.875 
z
M 14.546875 25.640625 
Q 14.546875 15.625 18.59375 10.84375 
Q 22.65625 6.0625 28.421875 6.0625 
Q 34.28125 6.0625 38.453125 11.015625 
Q 42.625 15.96875 42.625 26.375 
Q 42.625 36.28125 38.546875 41.203125 
Q 34.46875 46.140625 28.8125 46.140625 
Q 23.1875 46.140625 18.859375 40.890625 
Q 14.546875 35.640625 14.546875 25.640625 
z
" id="ArialMT-112"/>
       </defs>
       <use xlink:href="#ArialMT-112"/>
       <use x="55.615234" xlink:href="#ArialMT-108"/>
       <use x="77.832031" xlink:href="#ArialMT-97"/>
       <use x="133.447266" xlink:href="#ArialMT-110"/>
       <use x="189.0625" xlink:href="#ArialMT-116"/>
      </g>
     </g>
    </g>
    <g id="xtick_9">
     <g id="text_9">
      <!-- soil -->
      <g style="fill:#262626;" transform="translate(235.463049 501.6518)rotate(-30)scale(0.12 -0.12)">
       <use xlink:href="#ArialMT-115"/>
       <use x="50" xlink:href="#ArialMT-111"/>
       <use x="105.615234" xlink:href="#ArialMT-105"/>
       <use x="127.832031" xlink:href="#ArialMT-108"/>
      </g>
     </g>
    </g>
    <g id="xtick_10">
     <g id="text_10">
      <!-- human wound -->
      <g style="fill:#262626;" transform="translate(210.426474 530.3393)rotate(-30)scale(0.12 -0.12)">
       <use xlink:href="#ArialMT-104"/>
       <use x="55.615234" xlink:href="#ArialMT-117"/>
       <use x="111.230469" xlink:href="#ArialMT-109"/>
       <use x="194.53125" xlink:href="#ArialMT-97"/>
       <use x="250.146484" xlink:href="#ArialMT-110"/>
       <use x="305.761719" xlink:href="#ArialMT-32"/>
       <use x="333.544922" xlink:href="#ArialMT-119"/>
       <use x="405.761719" xlink:href="#ArialMT-111"/>
       <use x="461.376953" xlink:href="#ArialMT-117"/>
       <use x="516.992188" xlink:href="#ArialMT-110"/>
       <use x="572.607422" xlink:href="#ArialMT-100"/>
      </g>
     </g>
    </g>
    <g id="xtick_11">
     <g id="text_11">
      <!-- built environment -->
      <g style="fill:#262626;" transform="translate(221.225489 538.337113)rotate(-30)scale(0.12 -0.12)">
       <use xlink:href="#ArialMT-98"/>
       <use x="55.615234" xlink:href="#ArialMT-117"/>
       <use x="111.230469" xlink:href="#ArialMT-105"/>
       <use x="133.447266" xlink:href="#ArialMT-108"/>
       <use x="155.664062" xlink:href="#ArialMT-116"/>
       <use x="183.447266" xlink:href="#ArialMT-32"/>
       <use x="211.230469" xlink:href="#ArialMT-101"/>
       <use x="266.845703" xlink:href="#ArialMT-110"/>
       <use x="322.460938" xlink:href="#ArialMT-118"/>
       <use x="372.460938" xlink:href="#ArialMT-105"/>
       <use x="394.677734" xlink:href="#ArialMT-114"/>
       <use x="427.978516" xlink:href="#ArialMT-111"/>
       <use x="483.59375" xlink:href="#ArialMT-110"/>
       <use x="539.208984" xlink:href="#ArialMT-109"/>
       <use x="622.509766" xlink:href="#ArialMT-101"/>
       <use x="678.125" xlink:href="#ArialMT-110"/>
       <use x="733.740234" xlink:href="#ArialMT-116"/>
      </g>
     </g>
    </g>
    <g id="xtick_12">
     <g id="text_12">
      <!-- human other -->
      <g style="fill:#262626;" transform="translate(266.666603 526.3343)rotate(-30)scale(0.12 -0.12)">
       <use xlink:href="#ArialMT-104"/>
       <use x="55.615234" xlink:href="#ArialMT-117"/>
       <use x="111.230469" xlink:href="#ArialMT-109"/>
       <use x="194.53125" xlink:href="#ArialMT-97"/>
       <use x="250.146484" xlink:href="#ArialMT-110"/>
       <use x="305.761719" xlink:href="#ArialMT-32"/>
       <use x="333.544922" xlink:href="#ArialMT-111"/>
       <use x="389.160156" xlink:href="#ArialMT-116"/>
       <use x="416.943359" xlink:href="#ArialMT-104"/>
       <use x="472.558594" xlink:href="#ArialMT-101"/>
       <use x="528.173828" xlink:href="#ArialMT-114"/>
      </g>
     </g>
    </g>
    <g id="xtick_13">
     <g id="text_13">
      <!-- human bone -->
      <g style="fill:#262626;" transform="translate(291.886565 526.006175)rotate(-30)scale(0.12 -0.12)">
       <use xlink:href="#ArialMT-104"/>
       <use x="55.615234" xlink:href="#ArialMT-117"/>
       <use x="111.230469" xlink:href="#ArialMT-109"/>
       <use x="194.53125" xlink:href="#ArialMT-97"/>
       <use x="250.146484" xlink:href="#ArialMT-110"/>
       <use x="305.761719" xlink:href="#ArialMT-32"/>
       <use x="333.544922" xlink:href="#ArialMT-98"/>
       <use x="389.160156" xlink:href="#ArialMT-111"/>
       <use x="444.775391" xlink:href="#ArialMT-110"/>
       <use x="500.390625" xlink:href="#ArialMT-101"/>
      </g>
     </g>
    </g>
    <g id="xtick_14">
     <g id="text_14">
      <!-- mud -->
      <g style="fill:#262626;" transform="translate(354.099884 504.319925)rotate(-30)scale(0.12 -0.12)">
       <use xlink:href="#ArialMT-109"/>
       <use x="83.300781" xlink:href="#ArialMT-117"/>
       <use x="138.916016" xlink:href="#ArialMT-100"/>
      </g>
     </g>
    </g>
    <g id="xtick_15">
     <g id="text_15">
      <!-- food -->
      <g style="fill:#262626;" transform="translate(378.741774 504.32555)rotate(-30)scale(0.12 -0.12)">
       <defs>
        <path d="M 8.6875 0 
L 8.6875 45.015625 
L 0.921875 45.015625 
L 0.921875 51.859375 
L 8.6875 51.859375 
L 8.6875 57.375 
Q 8.6875 62.59375 9.625 65.140625 
Q 10.890625 68.5625 14.078125 70.671875 
Q 17.28125 72.796875 23.046875 72.796875 
Q 26.765625 72.796875 31.25 71.921875 
L 29.9375 64.265625 
Q 27.203125 64.75 24.75 64.75 
Q 20.75 64.75 19.09375 63.03125 
Q 17.4375 61.328125 17.4375 56.640625 
L 17.4375 51.859375 
L 27.546875 51.859375 
L 27.546875 45.015625 
L 17.4375 45.015625 
L 17.4375 0 
z
" id="ArialMT-102"/>
       </defs>
       <use xlink:href="#ArialMT-102"/>
       <use x="27.783203" xlink:href="#ArialMT-111"/>
       <use x="83.398438" xlink:href="#ArialMT-111"/>
       <use x="139.013672" xlink:href="#ArialMT-100"/>
      </g>
     </g>
    </g>
    <g id="xtick_16">
     <g id="text_16">
      <!-- human ear -->
      <g style="fill:#262626;" transform="translate(373.939341 521.330863)rotate(-30)scale(0.12 -0.12)">
       <use xlink:href="#ArialMT-104"/>
       <use x="55.615234" xlink:href="#ArialMT-117"/>
       <use x="111.230469" xlink:href="#ArialMT-109"/>
       <use x="194.53125" xlink:href="#ArialMT-97"/>
       <use x="250.146484" xlink:href="#ArialMT-110"/>
       <use x="305.761719" xlink:href="#ArialMT-32"/>
       <use x="333.544922" xlink:href="#ArialMT-101"/>
       <use x="389.160156" xlink:href="#ArialMT-97"/>
       <use x="444.775391" xlink:href="#ArialMT-114"/>
      </g>
     </g>
    </g>
    <g id="xtick_17">
     <g id="text_17">
      <!-- animal -->
      <g style="fill:#262626;" transform="translate(417.657606 510.322738)rotate(-30)scale(0.12 -0.12)">
       <use xlink:href="#ArialMT-97"/>
       <use x="55.615234" xlink:href="#ArialMT-110"/>
       <use x="111.230469" xlink:href="#ArialMT-105"/>
       <use x="133.447266" xlink:href="#ArialMT-109"/>
       <use x="216.748047" xlink:href="#ArialMT-97"/>
       <use x="272.363281" xlink:href="#ArialMT-108"/>
      </g>
     </g>
    </g>
    <g id="xtick_18">
     <g id="text_18">
      <!-- sludge -->
      <g style="fill:#262626;" transform="translate(442.229183 510.328363)rotate(-30)scale(0.12 -0.12)">
       <use xlink:href="#ArialMT-115"/>
       <use x="50" xlink:href="#ArialMT-108"/>
       <use x="72.216797" xlink:href="#ArialMT-117"/>
       <use x="127.832031" xlink:href="#ArialMT-100"/>
       <use x="183.447266" xlink:href="#ArialMT-103"/>
       <use x="239.0625" xlink:href="#ArialMT-101"/>
      </g>
     </g>
    </g>
    <g id="xtick_19">
     <g id="text_19">
      <!-- marine benthic -->
      <g style="fill:#262626;" transform="translate(429.413798 532.00055)rotate(-30)scale(0.12 -0.12)">
       <use xlink:href="#ArialMT-109"/>
       <use x="83.300781" xlink:href="#ArialMT-97"/>
       <use x="138.916016" xlink:href="#ArialMT-114"/>
       <use x="172.216797" xlink:href="#ArialMT-105"/>
       <use x="194.433594" xlink:href="#ArialMT-110"/>
       <use x="250.048828" xlink:href="#ArialMT-101"/>
       <use x="305.664062" xlink:href="#ArialMT-32"/>
       <use x="333.447266" xlink:href="#ArialMT-98"/>
       <use x="389.0625" xlink:href="#ArialMT-101"/>
       <use x="444.677734" xlink:href="#ArialMT-110"/>
       <use x="500.292969" xlink:href="#ArialMT-116"/>
       <use x="528.076172" xlink:href="#ArialMT-104"/>
       <use x="583.691406" xlink:href="#ArialMT-105"/>
       <use x="605.908203" xlink:href="#ArialMT-99"/>
      </g>
     </g>
    </g>
    <g id="xtick_20">
     <g id="text_20">
      <!-- human blood -->
      <g style="fill:#262626;" transform="translate(462.138953 527.3393)rotate(-30)scale(0.12 -0.12)">
       <use xlink:href="#ArialMT-104"/>
       <use x="55.615234" xlink:href="#ArialMT-117"/>
       <use x="111.230469" xlink:href="#ArialMT-109"/>
       <use x="194.53125" xlink:href="#ArialMT-97"/>
       <use x="250.146484" xlink:href="#ArialMT-110"/>
       <use x="305.761719" xlink:href="#ArialMT-32"/>
       <use x="333.544922" xlink:href="#ArialMT-98"/>
       <use x="389.160156" xlink:href="#ArialMT-108"/>
       <use x="411.376953" xlink:href="#ArialMT-111"/>
       <use x="466.992188" xlink:href="#ArialMT-111"/>
       <use x="522.607422" xlink:href="#ArialMT-100"/>
      </g>
     </g>
    </g>
    <g id="xtick_21">
     <g id="text_21">
      <!-- human brain -->
      <g style="fill:#262626;" transform="translate(489.109369 526.00055)rotate(-30)scale(0.12 -0.12)">
       <use xlink:href="#ArialMT-104"/>
       <use x="55.615234" xlink:href="#ArialMT-117"/>
       <use x="111.230469" xlink:href="#ArialMT-109"/>
       <use x="194.53125" xlink:href="#ArialMT-97"/>
       <use x="250.146484" xlink:href="#ArialMT-110"/>
       <use x="305.761719" xlink:href="#ArialMT-32"/>
       <use x="333.544922" xlink:href="#ArialMT-98"/>
       <use x="389.160156" xlink:href="#ArialMT-114"/>
       <use x="422.460938" xlink:href="#ArialMT-97"/>
       <use x="478.076172" xlink:href="#ArialMT-105"/>
       <use x="500.292969" xlink:href="#ArialMT-110"/>
      </g>
     </g>
    </g>
    <g id="xtick_22">
     <g id="text_22">
      <!-- coal mine -->
      <g style="fill:#262626;" transform="translate(527.053409 518.326175)rotate(-30)scale(0.12 -0.12)">
       <use xlink:href="#ArialMT-99"/>
       <use x="50" xlink:href="#ArialMT-111"/>
       <use x="105.615234" xlink:href="#ArialMT-97"/>
       <use x="161.230469" xlink:href="#ArialMT-108"/>
       <use x="183.447266" xlink:href="#ArialMT-32"/>
       <use x="211.230469" xlink:href="#ArialMT-109"/>
       <use x="294.53125" xlink:href="#ArialMT-105"/>
       <use x="316.748047" xlink:href="#ArialMT-110"/>
       <use x="372.363281" xlink:href="#ArialMT-101"/>
      </g>
     </g>
    </g>
    <g id="xtick_23">
     <g id="text_23">
      <!-- human respiratory -->
      <g style="fill:#262626;" transform="translate(512.363183 540.999613)rotate(-30)scale(0.12 -0.12)">
       <use xlink:href="#ArialMT-104"/>
       <use x="55.615234" xlink:href="#ArialMT-117"/>
       <use x="111.230469" xlink:href="#ArialMT-109"/>
       <use x="194.53125" xlink:href="#ArialMT-97"/>
       <use x="250.146484" xlink:href="#ArialMT-110"/>
       <use x="305.761719" xlink:href="#ArialMT-32"/>
       <use x="333.544922" xlink:href="#ArialMT-114"/>
       <use x="366.845703" xlink:href="#ArialMT-101"/>
       <use x="422.460938" xlink:href="#ArialMT-115"/>
       <use x="472.460938" xlink:href="#ArialMT-112"/>
       <use x="528.076172" xlink:href="#ArialMT-105"/>
       <use x="550.292969" xlink:href="#ArialMT-114"/>
       <use x="583.59375" xlink:href="#ArialMT-97"/>
       <use x="639.208984" xlink:href="#ArialMT-116"/>
       <use x="666.992188" xlink:href="#ArialMT-111"/>
       <use x="722.607422" xlink:href="#ArialMT-114"/>
       <use x="755.908203" xlink:href="#ArialMT-121"/>
      </g>
     </g>
    </g>
    <g id="xtick_24">
     <g id="text_24">
      <!-- mine -->
      <g style="fill:#262626;" transform="translate(598.30717 505.65305)rotate(-30)scale(0.12 -0.12)">
       <use xlink:href="#ArialMT-109"/>
       <use x="83.300781" xlink:href="#ArialMT-105"/>
       <use x="105.517578" xlink:href="#ArialMT-110"/>
       <use x="161.132812" xlink:href="#ArialMT-101"/>
      </g>
     </g>
    </g>
    <g id="xtick_25">
     <g id="text_25">
      <!-- human vagina -->
      <g style="fill:#262626;" transform="translate(580.130651 530.3393)rotate(-30)scale(0.12 -0.12)">
       <use xlink:href="#ArialMT-104"/>
       <use x="55.615234" xlink:href="#ArialMT-117"/>
       <use x="111.230469" xlink:href="#ArialMT-109"/>
       <use x="194.53125" xlink:href="#ArialMT-97"/>
       <use x="250.146484" xlink:href="#ArialMT-110"/>
       <use x="305.761719" xlink:href="#ArialMT-32"/>
       <use x="333.544922" xlink:href="#ArialMT-118"/>
       <use x="383.544922" xlink:href="#ArialMT-97"/>
       <use x="439.160156" xlink:href="#ArialMT-103"/>
       <use x="494.775391" xlink:href="#ArialMT-105"/>
       <use x="516.992188" xlink:href="#ArialMT-110"/>
       <use x="572.607422" xlink:href="#ArialMT-97"/>
      </g>
     </g>
    </g>
    <g id="xtick_26">
     <g id="text_26">
      <!-- human eye -->
      <g style="fill:#262626;" transform="translate(618.649516 522.33305)rotate(-30)scale(0.12 -0.12)">
       <use xlink:href="#ArialMT-104"/>
       <use x="55.615234" xlink:href="#ArialMT-117"/>
       <use x="111.230469" xlink:href="#ArialMT-109"/>
       <use x="194.53125" xlink:href="#ArialMT-97"/>
       <use x="250.146484" xlink:href="#ArialMT-110"/>
       <use x="305.761719" xlink:href="#ArialMT-32"/>
       <use x="333.544922" xlink:href="#ArialMT-101"/>
       <use x="389.160156" xlink:href="#ArialMT-121"/>
       <use x="439.160156" xlink:href="#ArialMT-101"/>
      </g>
     </g>
    </g>
    <g id="xtick_27">
     <g id="text_27">
      <!-- fresh water -->
      <g style="fill:#262626;" transform="translate(643.386075 522.324613)rotate(-30)scale(0.12 -0.12)">
       <use xlink:href="#ArialMT-102"/>
       <use x="27.783203" xlink:href="#ArialMT-114"/>
       <use x="61.083984" xlink:href="#ArialMT-101"/>
       <use x="116.699219" xlink:href="#ArialMT-115"/>
       <use x="166.699219" xlink:href="#ArialMT-104"/>
       <use x="222.314453" xlink:href="#ArialMT-32"/>
       <use x="250.097656" xlink:href="#ArialMT-119"/>
       <use x="322.314453" xlink:href="#ArialMT-97"/>
       <use x="377.929688" xlink:href="#ArialMT-116"/>
       <use x="405.712891" xlink:href="#ArialMT-101"/>
       <use x="461.328125" xlink:href="#ArialMT-114"/>
      </g>
     </g>
    </g>
    <g id="xtick_28">
     <g id="text_28">
      <!-- sand -->
      <g style="fill:#262626;" transform="translate(696.903958 505.658675)rotate(-30)scale(0.12 -0.12)">
       <use xlink:href="#ArialMT-115"/>
       <use x="50" xlink:href="#ArialMT-97"/>
       <use x="105.615234" xlink:href="#ArialMT-110"/>
       <use x="161.230469" xlink:href="#ArialMT-100"/>
      </g>
     </g>
    </g>
    <g id="xtick_29">
     <g id="text_29">
      <!-- solid environmental material -->
      <g style="fill:#262626;" transform="translate(614.71133 567.345238)rotate(-30)scale(0.12 -0.12)">
       <use xlink:href="#ArialMT-115"/>
       <use x="50" xlink:href="#ArialMT-111"/>
       <use x="105.615234" xlink:href="#ArialMT-108"/>
       <use x="127.832031" xlink:href="#ArialMT-105"/>
       <use x="150.048828" xlink:href="#ArialMT-100"/>
       <use x="205.664062" xlink:href="#ArialMT-32"/>
       <use x="233.447266" xlink:href="#ArialMT-101"/>
       <use x="289.0625" xlink:href="#ArialMT-110"/>
       <use x="344.677734" xlink:href="#ArialMT-118"/>
       <use x="394.677734" xlink:href="#ArialMT-105"/>
       <use x="416.894531" xlink:href="#ArialMT-114"/>
       <use x="450.195312" xlink:href="#ArialMT-111"/>
       <use x="505.810547" xlink:href="#ArialMT-110"/>
       <use x="561.425781" xlink:href="#ArialMT-109"/>
       <use x="644.726562" xlink:href="#ArialMT-101"/>
       <use x="700.341797" xlink:href="#ArialMT-110"/>
       <use x="755.957031" xlink:href="#ArialMT-116"/>
       <use x="783.740234" xlink:href="#ArialMT-97"/>
       <use x="839.355469" xlink:href="#ArialMT-108"/>
       <use x="861.572266" xlink:href="#ArialMT-32"/>
       <use x="889.355469" xlink:href="#ArialMT-109"/>
       <use x="972.65625" xlink:href="#ArialMT-97"/>
       <use x="1028.271484" xlink:href="#ArialMT-116"/>
       <use x="1056.054688" xlink:href="#ArialMT-101"/>
       <use x="1111.669922" xlink:href="#ArialMT-114"/>
       <use x="1144.970703" xlink:href="#ArialMT-105"/>
       <use x="1167.1875" xlink:href="#ArialMT-97"/>
       <use x="1222.802734" xlink:href="#ArialMT-108"/>
      </g>
     </g>
    </g>
    <g id="xtick_30">
     <g id="text_30">
      <!-- contaminated water -->
      <g style="fill:#262626;" transform="translate(678.053189 545.007425)rotate(-30)scale(0.12 -0.12)">
       <use xlink:href="#ArialMT-99"/>
       <use x="50" xlink:href="#ArialMT-111"/>
       <use x="105.615234" xlink:href="#ArialMT-110"/>
       <use x="161.230469" xlink:href="#ArialMT-116"/>
       <use x="189.013672" xlink:href="#ArialMT-97"/>
       <use x="244.628906" xlink:href="#ArialMT-109"/>
       <use x="327.929688" xlink:href="#ArialMT-105"/>
       <use x="350.146484" xlink:href="#ArialMT-110"/>
       <use x="405.761719" xlink:href="#ArialMT-97"/>
       <use x="461.376953" xlink:href="#ArialMT-116"/>
       <use x="489.160156" xlink:href="#ArialMT-101"/>
       <use x="544.775391" xlink:href="#ArialMT-100"/>
       <use x="600.390625" xlink:href="#ArialMT-32"/>
       <use x="628.173828" xlink:href="#ArialMT-119"/>
       <use x="700.390625" xlink:href="#ArialMT-97"/>
       <use x="756.005859" xlink:href="#ArialMT-116"/>
       <use x="783.789062" xlink:href="#ArialMT-101"/>
       <use x="839.404297" xlink:href="#ArialMT-114"/>
      </g>
     </g>
    </g>
    <g id="xtick_31">
     <g id="text_31">
      <!-- human skin -->
      <g style="fill:#262626;" transform="translate(740.251895 523.329613)rotate(-30)scale(0.12 -0.12)">
       <defs>
        <path d="M 6.640625 0 
L 6.640625 71.578125 
L 15.4375 71.578125 
L 15.4375 30.765625 
L 36.234375 51.859375 
L 47.609375 51.859375 
L 27.78125 32.625 
L 49.609375 0 
L 38.765625 0 
L 21.625 26.515625 
L 15.4375 20.5625 
L 15.4375 0 
z
" id="ArialMT-107"/>
       </defs>
       <use xlink:href="#ArialMT-104"/>
       <use x="55.615234" xlink:href="#ArialMT-117"/>
       <use x="111.230469" xlink:href="#ArialMT-109"/>
       <use x="194.53125" xlink:href="#ArialMT-97"/>
       <use x="250.146484" xlink:href="#ArialMT-110"/>
       <use x="305.761719" xlink:href="#ArialMT-32"/>
       <use x="333.544922" xlink:href="#ArialMT-115"/>
       <use x="383.544922" xlink:href="#ArialMT-107"/>
       <use x="433.544922" xlink:href="#ArialMT-105"/>
       <use x="455.761719" xlink:href="#ArialMT-110"/>
      </g>
     </g>
    </g>
    <g id="xtick_32">
     <g id="text_32">
      <!-- chemical vessel -->
      <g style="fill:#262626;" transform="translate(744.69699 534.995863)rotate(-30)scale(0.12 -0.12)">
       <use xlink:href="#ArialMT-99"/>
       <use x="50" xlink:href="#ArialMT-104"/>
       <use x="105.615234" xlink:href="#ArialMT-101"/>
       <use x="161.230469" xlink:href="#ArialMT-109"/>
       <use x="244.53125" xlink:href="#ArialMT-105"/>
       <use x="266.748047" xlink:href="#ArialMT-99"/>
       <use x="316.748047" xlink:href="#ArialMT-97"/>
       <use x="372.363281" xlink:href="#ArialMT-108"/>
       <use x="394.580078" xlink:href="#ArialMT-32"/>
       <use x="422.363281" xlink:href="#ArialMT-118"/>
       <use x="472.363281" xlink:href="#ArialMT-101"/>
       <use x="527.978516" xlink:href="#ArialMT-115"/>
       <use x="577.978516" xlink:href="#ArialMT-115"/>
       <use x="627.978516" xlink:href="#ArialMT-101"/>
       <use x="683.59375" xlink:href="#ArialMT-108"/>
      </g>
     </g>
    </g>
    <g id="xtick_33">
     <g id="text_33">
      <!-- marine surface -->
      <g style="fill:#262626;" transform="translate(773.968326 532.328675)rotate(-30)scale(0.12 -0.12)">
       <use xlink:href="#ArialMT-109"/>
       <use x="83.300781" xlink:href="#ArialMT-97"/>
       <use x="138.916016" xlink:href="#ArialMT-114"/>
       <use x="172.216797" xlink:href="#ArialMT-105"/>
       <use x="194.433594" xlink:href="#ArialMT-110"/>
       <use x="250.048828" xlink:href="#ArialMT-101"/>
       <use x="305.664062" xlink:href="#ArialMT-32"/>
       <use x="333.447266" xlink:href="#ArialMT-115"/>
       <use x="383.447266" xlink:href="#ArialMT-117"/>
       <use x="439.0625" xlink:href="#ArialMT-114"/>
       <use x="472.363281" xlink:href="#ArialMT-102"/>
       <use x="500.146484" xlink:href="#ArialMT-97"/>
       <use x="555.761719" xlink:href="#ArialMT-99"/>
       <use x="605.761719" xlink:href="#ArialMT-101"/>
      </g>
     </g>
    </g>
    <g id="xtick_34">
     <g id="text_34">
      <!-- hypersaline lake -->
      <g style="fill:#262626;" transform="translate(792.181112 536.00555)rotate(-30)scale(0.12 -0.12)">
       <use xlink:href="#ArialMT-104"/>
       <use x="55.615234" xlink:href="#ArialMT-121"/>
       <use x="105.615234" xlink:href="#ArialMT-112"/>
       <use x="161.230469" xlink:href="#ArialMT-101"/>
       <use x="216.845703" xlink:href="#ArialMT-114"/>
       <use x="250.146484" xlink:href="#ArialMT-115"/>
       <use x="300.146484" xlink:href="#ArialMT-97"/>
       <use x="355.761719" xlink:href="#ArialMT-108"/>
       <use x="377.978516" xlink:href="#ArialMT-105"/>
       <use x="400.195312" xlink:href="#ArialMT-110"/>
       <use x="455.810547" xlink:href="#ArialMT-101"/>
       <use x="511.425781" xlink:href="#ArialMT-32"/>
       <use x="539.208984" xlink:href="#ArialMT-108"/>
       <use x="561.425781" xlink:href="#ArialMT-97"/>
       <use x="617.041016" xlink:href="#ArialMT-107"/>
       <use x="667.041016" xlink:href="#ArialMT-101"/>
      </g>
     </g>
    </g>
    <g id="xtick_35">
     <g id="text_35">
      <!-- spring -->
      <g style="fill:#262626;" transform="translate(863.625721 508.989613)rotate(-30)scale(0.12 -0.12)">
       <use xlink:href="#ArialMT-115"/>
       <use x="50" xlink:href="#ArialMT-112"/>
       <use x="105.615234" xlink:href="#ArialMT-114"/>
       <use x="138.916016" xlink:href="#ArialMT-105"/>
       <use x="161.132812" xlink:href="#ArialMT-110"/>
       <use x="216.748047" xlink:href="#ArialMT-103"/>
      </g>
     </g>
    </g>
    <g id="xtick_36">
     <g id="text_36">
      <!-- marine coastal -->
      <g style="fill:#262626;" transform="translate(849.074497 531.663988)rotate(-30)scale(0.12 -0.12)">
       <use xlink:href="#ArialMT-109"/>
       <use x="83.300781" xlink:href="#ArialMT-97"/>
       <use x="138.916016" xlink:href="#ArialMT-114"/>
       <use x="172.216797" xlink:href="#ArialMT-105"/>
       <use x="194.433594" xlink:href="#ArialMT-110"/>
       <use x="250.048828" xlink:href="#ArialMT-101"/>
       <use x="305.664062" xlink:href="#ArialMT-32"/>
       <use x="333.447266" xlink:href="#ArialMT-99"/>
       <use x="383.447266" xlink:href="#ArialMT-111"/>
       <use x="439.0625" xlink:href="#ArialMT-97"/>
       <use x="494.677734" xlink:href="#ArialMT-115"/>
       <use x="544.677734" xlink:href="#ArialMT-116"/>
       <use x="572.460938" xlink:href="#ArialMT-97"/>
       <use x="628.076172" xlink:href="#ArialMT-108"/>
      </g>
     </g>
    </g>
    <g id="xtick_37">
     <g id="text_37">
      <!-- air -->
      <g style="fill:#262626;" transform="translate(929.753643 499.316488)rotate(-30)scale(0.12 -0.12)">
       <use xlink:href="#ArialMT-97"/>
       <use x="55.615234" xlink:href="#ArialMT-105"/>
       <use x="77.832031" xlink:href="#ArialMT-114"/>
      </g>
     </g>
    </g>
    <g id="xtick_38">
     <g id="text_38">
      <!-- oil -->
      <g style="fill:#262626;" transform="translate(955.556548 498.6518)rotate(-30)scale(0.12 -0.12)">
       <use xlink:href="#ArialMT-111"/>
       <use x="55.615234" xlink:href="#ArialMT-105"/>
       <use x="77.832031" xlink:href="#ArialMT-108"/>
      </g>
     </g>
    </g>
    <g id="xtick_39">
     <g id="text_39">
      <!-- biofilm -->
      <g style="fill:#262626;" transform="translate(960.576468 509.986175)rotate(-30)scale(0.12 -0.12)">
       <use xlink:href="#ArialMT-98"/>
       <use x="55.615234" xlink:href="#ArialMT-105"/>
       <use x="77.832031" xlink:href="#ArialMT-111"/>
       <use x="133.447266" xlink:href="#ArialMT-102"/>
       <use x="161.230469" xlink:href="#ArialMT-105"/>
       <use x="183.447266" xlink:href="#ArialMT-108"/>
       <use x="205.664062" xlink:href="#ArialMT-109"/>
      </g>
     </g>
    </g>
    <g id="xtick_40">
     <g id="text_40">
      <!-- marine deep -->
      <g style="fill:#262626;" transform="translate(957.490389 526.00055)rotate(-30)scale(0.12 -0.12)">
       <use xlink:href="#ArialMT-109"/>
       <use x="83.300781" xlink:href="#ArialMT-97"/>
       <use x="138.916016" xlink:href="#ArialMT-114"/>
       <use x="172.216797" xlink:href="#ArialMT-105"/>
       <use x="194.433594" xlink:href="#ArialMT-110"/>
       <use x="250.048828" xlink:href="#ArialMT-101"/>
       <use x="305.664062" xlink:href="#ArialMT-32"/>
       <use x="333.447266" xlink:href="#ArialMT-100"/>
       <use x="389.0625" xlink:href="#ArialMT-101"/>
       <use x="444.677734" xlink:href="#ArialMT-101"/>
       <use x="500.292969" xlink:href="#ArialMT-112"/>
      </g>
     </g>
    </g>
    <g id="xtick_41">
     <g id="text_41">
      <!-- rock -->
      <g style="fill:#262626;" transform="translate(1020.276909 503.983363)rotate(-30)scale(0.12 -0.12)">
       <use xlink:href="#ArialMT-114"/>
       <use x="33.300781" xlink:href="#ArialMT-111"/>
       <use x="88.916016" xlink:href="#ArialMT-99"/>
       <use x="138.916016" xlink:href="#ArialMT-107"/>
      </g>
     </g>
    </g>
    <g id="xtick_42">
     <g id="text_42">
      <!-- microbial mat -->
      <g style="fill:#262626;" transform="translate(1002.773131 528.3218)rotate(-30)scale(0.12 -0.12)">
       <use xlink:href="#ArialMT-109"/>
       <use x="83.300781" xlink:href="#ArialMT-105"/>
       <use x="105.517578" xlink:href="#ArialMT-99"/>
       <use x="155.517578" xlink:href="#ArialMT-114"/>
       <use x="188.818359" xlink:href="#ArialMT-111"/>
       <use x="244.433594" xlink:href="#ArialMT-98"/>
       <use x="300.048828" xlink:href="#ArialMT-105"/>
       <use x="322.265625" xlink:href="#ArialMT-97"/>
       <use x="377.880859" xlink:href="#ArialMT-108"/>
       <use x="400.097656" xlink:href="#ArialMT-32"/>
       <use x="427.880859" xlink:href="#ArialMT-109"/>
       <use x="511.181641" xlink:href="#ArialMT-97"/>
       <use x="566.796875" xlink:href="#ArialMT-116"/>
      </g>
     </g>
    </g>
    <g id="xtick_43">
     <g id="text_43">
      <!-- biogas material -->
      <g style="fill:#262626;" transform="translate(1018.673629 533.333675)rotate(-30)scale(0.12 -0.12)">
       <use xlink:href="#ArialMT-98"/>
       <use x="55.615234" xlink:href="#ArialMT-105"/>
       <use x="77.832031" xlink:href="#ArialMT-111"/>
       <use x="133.447266" xlink:href="#ArialMT-103"/>
       <use x="189.0625" xlink:href="#ArialMT-97"/>
       <use x="244.677734" xlink:href="#ArialMT-115"/>
       <use x="294.677734" xlink:href="#ArialMT-32"/>
       <use x="322.460938" xlink:href="#ArialMT-109"/>
       <use x="405.761719" xlink:href="#ArialMT-97"/>
       <use x="461.376953" xlink:href="#ArialMT-116"/>
       <use x="489.160156" xlink:href="#ArialMT-101"/>
       <use x="544.775391" xlink:href="#ArialMT-114"/>
       <use x="578.076172" xlink:href="#ArialMT-105"/>
       <use x="600.292969" xlink:href="#ArialMT-97"/>
       <use x="655.908203" xlink:href="#ArialMT-108"/>
      </g>
     </g>
    </g>
    <g id="xtick_44">
     <g id="text_44">
      <!-- sediment -->
      <g style="fill:#262626;" transform="translate(1071.698367 516.99305)rotate(-30)scale(0.12 -0.12)">
       <use xlink:href="#ArialMT-115"/>
       <use x="50" xlink:href="#ArialMT-101"/>
       <use x="105.615234" xlink:href="#ArialMT-100"/>
       <use x="161.230469" xlink:href="#ArialMT-105"/>
       <use x="183.447266" xlink:href="#ArialMT-109"/>
       <use x="266.748047" xlink:href="#ArialMT-101"/>
       <use x="322.363281" xlink:href="#ArialMT-110"/>
       <use x="377.978516" xlink:href="#ArialMT-116"/>
      </g>
     </g>
    </g>
    <g id="xtick_45">
     <g id="text_45">
      <!-- saltern -->
      <g style="fill:#262626;" transform="translate(1107.325248 510.656488)rotate(-30)scale(0.12 -0.12)">
       <use xlink:href="#ArialMT-115"/>
       <use x="50" xlink:href="#ArialMT-97"/>
       <use x="105.615234" xlink:href="#ArialMT-108"/>
       <use x="127.832031" xlink:href="#ArialMT-116"/>
       <use x="155.615234" xlink:href="#ArialMT-101"/>
       <use x="211.230469" xlink:href="#ArialMT-114"/>
       <use x="244.53125" xlink:href="#ArialMT-110"/>
      </g>
     </g>
    </g>
    <g id="xtick_46">
     <g id="text_46">
      <!-- hot spring -->
      <g style="fill:#262626;" transform="translate(1117.461265 518.996488)rotate(-30)scale(0.12 -0.12)">
       <use xlink:href="#ArialMT-104"/>
       <use x="55.615234" xlink:href="#ArialMT-111"/>
       <use x="111.230469" xlink:href="#ArialMT-116"/>
       <use x="139.013672" xlink:href="#ArialMT-32"/>
       <use x="166.796875" xlink:href="#ArialMT-115"/>
       <use x="216.796875" xlink:href="#ArialMT-112"/>
       <use x="272.412109" xlink:href="#ArialMT-114"/>
       <use x="305.712891" xlink:href="#ArialMT-105"/>
       <use x="327.929688" xlink:href="#ArialMT-110"/>
       <use x="383.544922" xlink:href="#ArialMT-103"/>
      </g>
     </g>
    </g>
    <g id="xtick_47">
     <g id="text_47">
      <!-- other water -->
      <g style="fill:#262626;" transform="translate(1135.835785 522.661175)rotate(-30)scale(0.12 -0.12)">
       <use xlink:href="#ArialMT-111"/>
       <use x="55.615234" xlink:href="#ArialMT-116"/>
       <use x="83.398438" xlink:href="#ArialMT-104"/>
       <use x="139.013672" xlink:href="#ArialMT-101"/>
       <use x="194.628906" xlink:href="#ArialMT-114"/>
       <use x="227.929688" xlink:href="#ArialMT-32"/>
       <use x="255.712891" xlink:href="#ArialMT-119"/>
       <use x="327.929688" xlink:href="#ArialMT-97"/>
       <use x="383.544922" xlink:href="#ArialMT-116"/>
       <use x="411.328125" xlink:href="#ArialMT-101"/>
       <use x="466.943359" xlink:href="#ArialMT-114"/>
      </g>
     </g>
    </g>
    <g id="xtick_48">
     <g id="text_48">
      <!-- marine -->
      <g style="fill:#262626;" transform="translate(1180.706946 510.987425)rotate(-30)scale(0.12 -0.12)">
       <use xlink:href="#ArialMT-109"/>
       <use x="83.300781" xlink:href="#ArialMT-97"/>
       <use x="138.916016" xlink:href="#ArialMT-114"/>
       <use x="172.216797" xlink:href="#ArialMT-105"/>
       <use x="194.433594" xlink:href="#ArialMT-110"/>
       <use x="250.048828" xlink:href="#ArialMT-101"/>
      </g>
     </g>
    </g>
    <g id="xtick_49">
     <g id="text_49">
      <!-- human mouth -->
      <g style="fill:#262626;" transform="translate(1173.580859 529.3343)rotate(-30)scale(0.12 -0.12)">
       <use xlink:href="#ArialMT-104"/>
       <use x="55.615234" xlink:href="#ArialMT-117"/>
       <use x="111.230469" xlink:href="#ArialMT-109"/>
       <use x="194.53125" xlink:href="#ArialMT-97"/>
       <use x="250.146484" xlink:href="#ArialMT-110"/>
       <use x="305.761719" xlink:href="#ArialMT-32"/>
       <use x="333.544922" xlink:href="#ArialMT-109"/>
       <use x="416.845703" xlink:href="#ArialMT-111"/>
       <use x="472.460938" xlink:href="#ArialMT-117"/>
       <use x="528.076172" xlink:href="#ArialMT-116"/>
       <use x="555.859375" xlink:href="#ArialMT-104"/>
      </g>
     </g>
    </g>
    <g id="text_50">
     <!-- Category -->
     <g style="fill:#262626;" transform="translate(622.330938 582.146334)scale(0.12 -0.12)">
      <defs>
       <path d="M 58.796875 25.09375 
L 68.265625 22.703125 
Q 65.28125 11.03125 57.546875 4.90625 
Q 49.8125 -1.21875 38.625 -1.21875 
Q 27.046875 -1.21875 19.796875 3.484375 
Q 12.546875 8.203125 8.765625 17.140625 
Q 4.984375 26.078125 4.984375 36.328125 
Q 4.984375 47.515625 9.25 55.828125 
Q 13.53125 64.15625 21.40625 68.46875 
Q 29.296875 72.796875 38.765625 72.796875 
Q 49.515625 72.796875 56.828125 67.328125 
Q 64.15625 61.859375 67.046875 51.953125 
L 57.71875 49.75 
Q 55.21875 57.5625 50.484375 61.125 
Q 45.75 64.703125 38.578125 64.703125 
Q 30.328125 64.703125 24.78125 60.734375 
Q 19.234375 56.78125 16.984375 50.109375 
Q 14.75 43.453125 14.75 36.375 
Q 14.75 27.25 17.40625 20.4375 
Q 20.0625 13.625 25.671875 10.25 
Q 31.296875 6.890625 37.84375 6.890625 
Q 45.796875 6.890625 51.3125 11.46875 
Q 56.84375 16.0625 58.796875 25.09375 
z
" id="ArialMT-67"/>
      </defs>
      <use xlink:href="#ArialMT-67"/>
      <use x="72.216797" xlink:href="#ArialMT-97"/>
      <use x="127.832031" xlink:href="#ArialMT-116"/>
      <use x="155.615234" xlink:href="#ArialMT-101"/>
      <use x="211.230469" xlink:href="#ArialMT-103"/>
      <use x="266.845703" xlink:href="#ArialMT-111"/>
      <use x="322.460938" xlink:href="#ArialMT-114"/>
      <use x="355.761719" xlink:href="#ArialMT-121"/>
     </g>
    </g>
   </g>
   <g id="matplotlib.axis_2">
    <g id="ytick_1">
     <g id="line2d_1">
      <path clip-path="url(#pfe8fb54d8e)" d="M 42.71 475.710371 
L 1250.64 475.710371 
" style="fill:none;stroke:#ffffff;stroke-linecap:round;"/>
     </g>
     <g id="text_51">
      <!-- 0 -->
      <g style="fill:#262626;" transform="translate(27.092969 479.647168)scale(0.11 -0.11)">
       <defs>
        <path d="M 4.15625 35.296875 
Q 4.15625 48 6.765625 55.734375 
Q 9.375 63.484375 14.515625 67.671875 
Q 19.671875 71.875 27.484375 71.875 
Q 33.25 71.875 37.59375 69.546875 
Q 41.9375 67.234375 44.765625 62.859375 
Q 47.609375 58.5 49.21875 52.21875 
Q 50.828125 45.953125 50.828125 35.296875 
Q 50.828125 22.703125 48.234375 14.96875 
Q 45.65625 7.234375 40.5 3 
Q 35.359375 -1.21875 27.484375 -1.21875 
Q 17.140625 -1.21875 11.234375 6.203125 
Q 4.15625 15.140625 4.15625 35.296875 
z
M 13.1875 35.296875 
Q 13.1875 17.671875 17.3125 11.828125 
Q 21.4375 6 27.484375 6 
Q 33.546875 6 37.671875 11.859375 
Q 41.796875 17.71875 41.796875 35.296875 
Q 41.796875 52.984375 37.671875 58.78125 
Q 33.546875 64.59375 27.390625 64.59375 
Q 21.34375 64.59375 17.71875 59.46875 
Q 13.1875 52.9375 13.1875 35.296875 
z
" id="ArialMT-48"/>
       </defs>
       <use xlink:href="#ArialMT-48"/>
      </g>
     </g>
    </g>
    <g id="ytick_2">
     <g id="line2d_2">
      <path clip-path="url(#pfe8fb54d8e)" d="M 42.71 412.751137 
L 1250.64 412.751137 
" style="fill:none;stroke:#ffffff;stroke-linecap:round;"/>
     </g>
     <g id="text_52">
      <!-- 1 -->
      <g style="fill:#262626;" transform="translate(27.092969 416.687934)scale(0.11 -0.11)">
       <defs>
        <path d="M 37.25 0 
L 28.46875 0 
L 28.46875 56 
Q 25.296875 52.984375 20.140625 49.953125 
Q 14.984375 46.921875 10.890625 45.40625 
L 10.890625 53.90625 
Q 18.265625 57.375 23.78125 62.296875 
Q 29.296875 67.234375 31.59375 71.875 
L 37.25 71.875 
z
" id="ArialMT-49"/>
       </defs>
       <use xlink:href="#ArialMT-49"/>
      </g>
     </g>
    </g>
    <g id="ytick_3">
     <g id="line2d_3">
      <path clip-path="url(#pfe8fb54d8e)" d="M 42.71 349.791903 
L 1250.64 349.791903 
" style="fill:none;stroke:#ffffff;stroke-linecap:round;"/>
     </g>
     <g id="text_53">
      <!-- 2 -->
      <g style="fill:#262626;" transform="translate(27.092969 353.7287)scale(0.11 -0.11)">
       <defs>
        <path d="M 50.34375 8.453125 
L 50.34375 0 
L 3.03125 0 
Q 2.9375 3.171875 4.046875 6.109375 
Q 5.859375 10.9375 9.828125 15.625 
Q 13.8125 20.3125 21.34375 26.46875 
Q 33.015625 36.03125 37.109375 41.625 
Q 41.21875 47.21875 41.21875 52.203125 
Q 41.21875 57.421875 37.46875 61 
Q 33.734375 64.59375 27.734375 64.59375 
Q 21.390625 64.59375 17.578125 60.78125 
Q 13.765625 56.984375 13.71875 50.25 
L 4.6875 51.171875 
Q 5.609375 61.28125 11.65625 66.578125 
Q 17.71875 71.875 27.9375 71.875 
Q 38.234375 71.875 44.234375 66.15625 
Q 50.25 60.453125 50.25 52 
Q 50.25 47.703125 48.484375 43.546875 
Q 46.734375 39.40625 42.65625 34.8125 
Q 38.578125 30.21875 29.109375 22.21875 
Q 21.1875 15.578125 18.9375 13.203125 
Q 16.703125 10.84375 15.234375 8.453125 
z
" id="ArialMT-50"/>
       </defs>
       <use xlink:href="#ArialMT-50"/>
      </g>
     </g>
    </g>
    <g id="ytick_4">
     <g id="line2d_4">
      <path clip-path="url(#pfe8fb54d8e)" d="M 42.71 286.832669 
L 1250.64 286.832669 
" style="fill:none;stroke:#ffffff;stroke-linecap:round;"/>
     </g>
     <g id="text_54">
      <!-- 3 -->
      <g style="fill:#262626;" transform="translate(27.092969 290.769465)scale(0.11 -0.11)">
       <defs>
        <path d="M 4.203125 18.890625 
L 12.984375 20.0625 
Q 14.5 12.59375 18.140625 9.296875 
Q 21.78125 6 27 6 
Q 33.203125 6 37.46875 10.296875 
Q 41.75 14.59375 41.75 20.953125 
Q 41.75 27 37.796875 30.921875 
Q 33.84375 34.859375 27.734375 34.859375 
Q 25.25 34.859375 21.53125 33.890625 
L 22.515625 41.609375 
Q 23.390625 41.5 23.921875 41.5 
Q 29.546875 41.5 34.03125 44.421875 
Q 38.53125 47.359375 38.53125 53.46875 
Q 38.53125 58.296875 35.25 61.46875 
Q 31.984375 64.65625 26.8125 64.65625 
Q 21.6875 64.65625 18.265625 61.421875 
Q 14.84375 58.203125 13.875 51.765625 
L 5.078125 53.328125 
Q 6.6875 62.15625 12.390625 67.015625 
Q 18.109375 71.875 26.609375 71.875 
Q 32.46875 71.875 37.390625 69.359375 
Q 42.328125 66.84375 44.9375 62.5 
Q 47.5625 58.15625 47.5625 53.265625 
Q 47.5625 48.640625 45.0625 44.828125 
Q 42.578125 41.015625 37.703125 38.765625 
Q 44.046875 37.3125 47.5625 32.6875 
Q 51.078125 28.078125 51.078125 21.140625 
Q 51.078125 11.765625 44.234375 5.25 
Q 37.40625 -1.265625 26.953125 -1.265625 
Q 17.53125 -1.265625 11.296875 4.34375 
Q 5.078125 9.96875 4.203125 18.890625 
z
" id="ArialMT-51"/>
       </defs>
       <use xlink:href="#ArialMT-51"/>
      </g>
     </g>
    </g>
    <g id="ytick_5">
     <g id="line2d_5">
      <path clip-path="url(#pfe8fb54d8e)" d="M 42.71 223.873434 
L 1250.64 223.873434 
" style="fill:none;stroke:#ffffff;stroke-linecap:round;"/>
     </g>
     <g id="text_55">
      <!-- 4 -->
      <g style="fill:#262626;" transform="translate(27.092969 227.810231)scale(0.11 -0.11)">
       <defs>
        <path d="M 32.328125 0 
L 32.328125 17.140625 
L 1.265625 17.140625 
L 1.265625 25.203125 
L 33.9375 71.578125 
L 41.109375 71.578125 
L 41.109375 25.203125 
L 50.78125 25.203125 
L 50.78125 17.140625 
L 41.109375 17.140625 
L 41.109375 0 
z
M 32.328125 25.203125 
L 32.328125 57.46875 
L 9.90625 25.203125 
z
" id="ArialMT-52"/>
       </defs>
       <use xlink:href="#ArialMT-52"/>
      </g>
     </g>
    </g>
    <g id="ytick_6">
     <g id="line2d_6">
      <path clip-path="url(#pfe8fb54d8e)" d="M 42.71 160.9142 
L 1250.64 160.9142 
" style="fill:none;stroke:#ffffff;stroke-linecap:round;"/>
     </g>
     <g id="text_56">
      <!-- 5 -->
      <g style="fill:#262626;" transform="translate(27.092969 164.850997)scale(0.11 -0.11)">
       <defs>
        <path d="M 4.15625 18.75 
L 13.375 19.53125 
Q 14.40625 12.796875 18.140625 9.390625 
Q 21.875 6 27.15625 6 
Q 33.5 6 37.890625 10.78125 
Q 42.28125 15.578125 42.28125 23.484375 
Q 42.28125 31 38.0625 35.34375 
Q 33.84375 39.703125 27 39.703125 
Q 22.75 39.703125 19.328125 37.765625 
Q 15.921875 35.84375 13.96875 32.765625 
L 5.71875 33.84375 
L 12.640625 70.609375 
L 48.25 70.609375 
L 48.25 62.203125 
L 19.671875 62.203125 
L 15.828125 42.96875 
Q 22.265625 47.46875 29.34375 47.46875 
Q 38.71875 47.46875 45.15625 40.96875 
Q 51.609375 34.46875 51.609375 24.265625 
Q 51.609375 14.546875 45.953125 7.46875 
Q 39.0625 -1.21875 27.15625 -1.21875 
Q 17.390625 -1.21875 11.203125 4.25 
Q 5.03125 9.71875 4.15625 18.75 
z
" id="ArialMT-53"/>
       </defs>
       <use xlink:href="#ArialMT-53"/>
      </g>
     </g>
    </g>
    <g id="ytick_7">
     <g id="line2d_7">
      <path clip-path="url(#pfe8fb54d8e)" d="M 42.71 97.954966 
L 1250.64 97.954966 
" style="fill:none;stroke:#ffffff;stroke-linecap:round;"/>
     </g>
     <g id="text_57">
      <!-- 6 -->
      <g style="fill:#262626;" transform="translate(27.092969 101.891763)scale(0.11 -0.11)">
       <defs>
        <path d="M 49.75 54.046875 
L 41.015625 53.375 
Q 39.84375 58.546875 37.703125 60.890625 
Q 34.125 64.65625 28.90625 64.65625 
Q 24.703125 64.65625 21.53125 62.3125 
Q 17.390625 59.28125 14.984375 53.46875 
Q 12.59375 47.65625 12.5 36.921875 
Q 15.671875 41.75 20.265625 44.09375 
Q 24.859375 46.4375 29.890625 46.4375 
Q 38.671875 46.4375 44.84375 39.96875 
Q 51.03125 33.5 51.03125 23.25 
Q 51.03125 16.5 48.125 10.71875 
Q 45.21875 4.9375 40.140625 1.859375 
Q 35.0625 -1.21875 28.609375 -1.21875 
Q 17.625 -1.21875 10.6875 6.859375 
Q 3.765625 14.9375 3.765625 33.5 
Q 3.765625 54.25 11.421875 63.671875 
Q 18.109375 71.875 29.4375 71.875 
Q 37.890625 71.875 43.28125 67.140625 
Q 48.6875 62.40625 49.75 54.046875 
z
M 13.875 23.1875 
Q 13.875 18.65625 15.796875 14.5 
Q 17.71875 10.359375 21.1875 8.171875 
Q 24.65625 6 28.46875 6 
Q 34.03125 6 38.03125 10.484375 
Q 42.046875 14.984375 42.046875 22.703125 
Q 42.046875 30.125 38.078125 34.390625 
Q 34.125 38.671875 28.125 38.671875 
Q 22.171875 38.671875 18.015625 34.390625 
Q 13.875 30.125 13.875 23.1875 
z
" id="ArialMT-54"/>
       </defs>
       <use xlink:href="#ArialMT-54"/>
      </g>
     </g>
    </g>
    <g id="ytick_8">
     <g id="line2d_8">
      <path clip-path="url(#pfe8fb54d8e)" d="M 42.71 34.995732 
L 1250.64 34.995732 
" style="fill:none;stroke:#ffffff;stroke-linecap:round;"/>
     </g>
     <g id="text_58">
      <!-- 7 -->
      <g style="fill:#262626;" transform="translate(27.092969 38.932529)scale(0.11 -0.11)">
       <defs>
        <path d="M 4.734375 62.203125 
L 4.734375 70.65625 
L 51.078125 70.65625 
L 51.078125 63.8125 
Q 44.234375 56.546875 37.515625 44.484375 
Q 30.8125 32.421875 27.15625 19.671875 
Q 24.515625 10.6875 23.78125 0 
L 14.75 0 
Q 14.890625 8.453125 18.0625 20.40625 
Q 21.234375 32.375 27.171875 43.484375 
Q 33.109375 54.59375 39.796875 62.203125 
z
" id="ArialMT-55"/>
       </defs>
       <use xlink:href="#ArialMT-55"/>
      </g>
     </g>
    </g>
    <g id="text_59">
     <!-- Mean number of prophages per genome -->
     <g style="fill:#262626;" transform="translate(20.567344 351.727685)rotate(-90)scale(0.12 -0.12)">
      <defs>
       <path d="M 7.421875 0 
L 7.421875 71.578125 
L 21.6875 71.578125 
L 38.625 20.90625 
Q 40.96875 13.8125 42.046875 10.296875 
Q 43.265625 14.203125 45.84375 21.78125 
L 62.984375 71.578125 
L 75.734375 71.578125 
L 75.734375 0 
L 66.609375 0 
L 66.609375 59.90625 
L 45.796875 0 
L 37.25 0 
L 16.546875 60.9375 
L 16.546875 0 
z
" id="ArialMT-77"/>
      </defs>
      <use xlink:href="#ArialMT-77"/>
      <use x="83.300781" xlink:href="#ArialMT-101"/>
      <use x="138.916016" xlink:href="#ArialMT-97"/>
      <use x="194.53125" xlink:href="#ArialMT-110"/>
      <use x="250.146484" xlink:href="#ArialMT-32"/>
      <use x="277.929688" xlink:href="#ArialMT-110"/>
      <use x="333.544922" xlink:href="#ArialMT-117"/>
      <use x="389.160156" xlink:href="#ArialMT-109"/>
      <use x="472.460938" xlink:href="#ArialMT-98"/>
      <use x="528.076172" xlink:href="#ArialMT-101"/>
      <use x="583.691406" xlink:href="#ArialMT-114"/>
      <use x="616.992188" xlink:href="#ArialMT-32"/>
      <use x="644.775391" xlink:href="#ArialMT-111"/>
      <use x="700.390625" xlink:href="#ArialMT-102"/>
      <use x="728.173828" xlink:href="#ArialMT-32"/>
      <use x="755.957031" xlink:href="#ArialMT-112"/>
      <use x="811.572266" xlink:href="#ArialMT-114"/>
      <use x="844.873047" xlink:href="#ArialMT-111"/>
      <use x="900.488281" xlink:href="#ArialMT-112"/>
      <use x="956.103516" xlink:href="#ArialMT-104"/>
      <use x="1011.71875" xlink:href="#ArialMT-97"/>
      <use x="1067.333984" xlink:href="#ArialMT-103"/>
      <use x="1122.949219" xlink:href="#ArialMT-101"/>
      <use x="1178.564453" xlink:href="#ArialMT-115"/>
      <use x="1228.564453" xlink:href="#ArialMT-32"/>
      <use x="1256.347656" xlink:href="#ArialMT-112"/>
      <use x="1311.962891" xlink:href="#ArialMT-101"/>
      <use x="1367.578125" xlink:href="#ArialMT-114"/>
      <use x="1400.878906" xlink:href="#ArialMT-32"/>
      <use x="1428.662109" xlink:href="#ArialMT-103"/>
      <use x="1484.277344" xlink:href="#ArialMT-101"/>
      <use x="1539.892578" xlink:href="#ArialMT-110"/>
      <use x="1595.507812" xlink:href="#ArialMT-111"/>
      <use x="1651.123047" xlink:href="#ArialMT-109"/>
      <use x="1734.423828" xlink:href="#ArialMT-101"/>
     </g>
    </g>
   </g>
   <g id="patch_3">
    <path clip-path="url(#pfe8fb54d8e)" d="M 45.175163 475.710371 
L 64.896469 475.710371 
L 64.896469 34.995732 
L 45.175163 34.995732 
z
" style="fill:#ea96a3;stroke:#ffffff;stroke-linejoin:miter;"/>
   </g>
   <g id="patch_4">
    <path clip-path="url(#pfe8fb54d8e)" d="M 69.826796 475.710371 
L 89.548102 475.710371 
L 89.548102 97.954966 
L 69.826796 97.954966 
z
" style="fill:#ea9799;stroke:#ffffff;stroke-linejoin:miter;"/>
   </g>
   <g id="patch_5">
    <path clip-path="url(#pfe8fb54d8e)" d="M 94.478429 475.710371 
L 114.199735 475.710371 
L 114.199735 119.587113 
L 94.478429 119.587113 
z
" style="fill:#e8968b;stroke:#ffffff;stroke-linejoin:miter;"/>
   </g>
   <g id="patch_6">
    <path clip-path="url(#pfe8fb54d8e)" d="M 119.130061 475.710371 
L 138.851367 475.710371 
L 138.851367 131.307651 
L 119.130061 131.307651 
z
" style="fill:#e69577;stroke:#ffffff;stroke-linejoin:miter;"/>
   </g>
   <g id="patch_7">
    <path clip-path="url(#pfe8fb54d8e)" d="M 143.781694 475.710371 
L 163.503 475.710371 
L 163.503 178.342636 
L 143.781694 178.342636 
z
" style="fill:#e19257;stroke:#ffffff;stroke-linejoin:miter;"/>
   </g>
   <g id="patch_8">
    <path clip-path="url(#pfe8fb54d8e)" d="M 168.433327 475.710371 
L 188.154633 475.710371 
L 188.154633 195.255601 
L 168.433327 195.255601 
z
" style="fill:#d6944e;stroke:#ffffff;stroke-linejoin:miter;"/>
   </g>
   <g id="patch_9">
    <path clip-path="url(#pfe8fb54d8e)" d="M 193.084959 475.710371 
L 212.806265 475.710371 
L 212.806265 206.702734 
L 193.084959 206.702734 
z
" style="fill:#cb974c;stroke:#ffffff;stroke-linejoin:miter;"/>
   </g>
   <g id="patch_10">
    <path clip-path="url(#pfe8fb54d8e)" d="M 217.736592 475.710371 
L 237.457898 475.710371 
L 237.457898 206.837406 
L 217.736592 206.837406 
z
" style="fill:#c29a4b;stroke:#ffffff;stroke-linejoin:miter;"/>
   </g>
   <g id="patch_11">
    <path clip-path="url(#pfe8fb54d8e)" d="M 242.388224 475.710371 
L 262.109531 475.710371 
L 262.109531 212.889892 
L 242.388224 212.889892 
z
" style="fill:#ba9b49;stroke:#ffffff;stroke-linejoin:miter;"/>
   </g>
   <g id="patch_12">
    <path clip-path="url(#pfe8fb54d8e)" d="M 267.039857 475.710371 
L 286.761163 475.710371 
L 286.761163 216.177015 
L 267.039857 216.177015 
z
" style="fill:#b29d48;stroke:#ffffff;stroke-linejoin:miter;"/>
   </g>
   <g id="patch_13">
    <path clip-path="url(#pfe8fb54d8e)" d="M 291.69149 475.710371 
L 311.412796 475.710371 
L 311.412796 218.521899 
L 291.69149 218.521899 
z
" style="fill:#aa9e47;stroke:#ffffff;stroke-linejoin:miter;"/>
   </g>
   <g id="patch_14">
    <path clip-path="url(#pfe8fb54d8e)" d="M 316.343122 475.710371 
L 336.064429 475.710371 
L 336.064429 223.484911 
L 316.343122 223.484911 
z
" style="fill:#a19f46;stroke:#ffffff;stroke-linejoin:miter;"/>
   </g>
   <g id="patch_15">
    <path clip-path="url(#pfe8fb54d8e)" d="M 340.994755 475.710371 
L 360.716061 475.710371 
L 360.716061 223.873434 
L 340.994755 223.873434 
z
" style="fill:#9aa146;stroke:#ffffff;stroke-linejoin:miter;"/>
   </g>
   <g id="patch_16">
    <path clip-path="url(#pfe8fb54d8e)" d="M 365.646388 475.710371 
L 385.367694 475.710371 
L 385.367694 223.873434 
L 365.646388 223.873434 
z
" style="fill:#92a446;stroke:#ffffff;stroke-linejoin:miter;"/>
   </g>
   <g id="patch_17">
    <path clip-path="url(#pfe8fb54d8e)" d="M 390.29802 475.710371 
L 410.019327 475.710371 
L 410.019327 224.315612 
L 390.29802 224.315612 
z
" style="fill:#88a746;stroke:#ffffff;stroke-linejoin:miter;"/>
   </g>
   <g id="patch_18">
    <path clip-path="url(#pfe8fb54d8e)" d="M 414.949653 475.710371 
L 434.670959 475.710371 
L 434.670959 230.169358 
L 414.949653 230.169358 
z
" style="fill:#7baa47;stroke:#ffffff;stroke-linejoin:miter;"/>
   </g>
   <g id="patch_19">
    <path clip-path="url(#pfe8fb54d8e)" d="M 439.601286 475.710371 
L 459.322592 475.710371 
L 459.322592 235.183668 
L 439.601286 235.183668 
z
" style="fill:#69ad47;stroke:#ffffff;stroke-linejoin:miter;"/>
   </g>
   <g id="patch_20">
    <path clip-path="url(#pfe8fb54d8e)" d="M 464.252918 475.710371 
L 483.974224 475.710371 
L 483.974224 238.074765 
L 464.252918 238.074765 
z
" style="fill:#48b14b;stroke:#ffffff;stroke-linejoin:miter;"/>
   </g>
   <g id="patch_21">
    <path clip-path="url(#pfe8fb54d8e)" d="M 488.904551 475.710371 
L 508.625857 475.710371 
L 508.625857 238.687372 
L 488.904551 238.687372 
z
" style="fill:#48af6b;stroke:#ffffff;stroke-linejoin:miter;"/>
   </g>
   <g id="patch_22">
    <path clip-path="url(#pfe8fb54d8e)" d="M 513.556184 475.710371 
L 533.27749 475.710371 
L 533.27749 243.354094 
L 513.556184 243.354094 
z
" style="fill:#49af7b;stroke:#ffffff;stroke-linejoin:miter;"/>
   </g>
   <g id="patch_23">
    <path clip-path="url(#pfe8fb54d8e)" d="M 538.207816 475.710371 
L 557.929122 475.710371 
L 557.929122 246.803032 
L 538.207816 246.803032 
z
" style="fill:#49ae87;stroke:#ffffff;stroke-linejoin:miter;"/>
   </g>
   <g id="patch_24">
    <path clip-path="url(#pfe8fb54d8e)" d="M 562.859449 475.710371 
L 582.580755 475.710371 
L 582.580755 255.353051 
L 562.859449 255.353051 
z
" style="fill:#4aad8f;stroke:#ffffff;stroke-linejoin:miter;"/>
   </g>
   <g id="patch_25">
    <path clip-path="url(#pfe8fb54d8e)" d="M 587.511082 475.710371 
L 607.232388 475.710371 
L 607.232388 256.736324 
L 587.511082 256.736324 
z
" style="fill:#4aad96;stroke:#ffffff;stroke-linejoin:miter;"/>
   </g>
   <g id="patch_26">
    <path clip-path="url(#pfe8fb54d8e)" d="M 612.162714 475.710371 
L 631.88402 475.710371 
L 631.88402 268.844316 
L 612.162714 268.844316 
z
" style="fill:#4aac9c;stroke:#ffffff;stroke-linejoin:miter;"/>
   </g>
   <g id="patch_27">
    <path clip-path="url(#pfe8fb54d8e)" d="M 636.814347 475.710371 
L 656.535653 475.710371 
L 656.535653 271.019652 
L 636.814347 271.019652 
z
" style="fill:#4baba2;stroke:#ffffff;stroke-linejoin:miter;"/>
   </g>
   <g id="patch_28">
    <path clip-path="url(#pfe8fb54d8e)" d="M 661.46598 475.710371 
L 681.187286 475.710371 
L 681.187286 271.09286 
L 661.46598 271.09286 
z
" style="fill:#4baba7;stroke:#ffffff;stroke-linejoin:miter;"/>
   </g>
   <g id="patch_29">
    <path clip-path="url(#pfe8fb54d8e)" d="M 686.117612 475.710371 
L 705.838918 475.710371 
L 705.838918 274.17192 
L 686.117612 274.17192 
z
" style="fill:#4cabac;stroke:#ffffff;stroke-linejoin:miter;"/>
   </g>
   <g id="patch_30">
    <path clip-path="url(#pfe8fb54d8e)" d="M 710.769245 475.710371 
L 730.490551 475.710371 
L 730.490551 297.325874 
L 710.769245 297.325874 
z
" style="fill:#4dabb2;stroke:#ffffff;stroke-linejoin:miter;"/>
   </g>
   <g id="patch_31">
    <path clip-path="url(#pfe8fb54d8e)" d="M 735.420878 475.710371 
L 755.142184 475.710371 
L 755.142184 302.709345 
L 735.420878 302.709345 
z
" style="fill:#4eabb8;stroke:#ffffff;stroke-linejoin:miter;"/>
   </g>
   <g id="patch_32">
    <path clip-path="url(#pfe8fb54d8e)" d="M 760.07251 475.710371 
L 779.793816 475.710371 
L 779.793816 305.720439 
L 760.07251 305.720439 
z
" style="fill:#50acbf;stroke:#ffffff;stroke-linejoin:miter;"/>
   </g>
   <g id="patch_33">
    <path clip-path="url(#pfe8fb54d8e)" d="M 784.724143 475.710371 
L 804.445449 475.710371 
L 804.445449 310.081766 
L 784.724143 310.081766 
z
" style="fill:#52acc7;stroke:#ffffff;stroke-linejoin:miter;"/>
   </g>
   <g id="patch_34">
    <path clip-path="url(#pfe8fb54d8e)" d="M 809.375776 475.710371 
L 829.097082 475.710371 
L 829.097082 326.068133 
L 809.375776 326.068133 
z
" style="fill:#54acd1;stroke:#ffffff;stroke-linejoin:miter;"/>
   </g>
   <g id="patch_35">
    <path clip-path="url(#pfe8fb54d8e)" d="M 834.027408 475.710371 
L 853.748714 475.710371 
L 853.748714 327.451529 
L 834.027408 327.451529 
z
" style="fill:#56addd;stroke:#ffffff;stroke-linejoin:miter;"/>
   </g>
   <g id="patch_36">
    <path clip-path="url(#pfe8fb54d8e)" d="M 858.679041 475.710371 
L 878.400347 475.710371 
L 878.400347 335.262849 
L 858.679041 335.262849 
z
" style="fill:#77aee4;stroke:#ffffff;stroke-linejoin:miter;"/>
   </g>
   <g id="patch_37">
    <path clip-path="url(#pfe8fb54d8e)" d="M 883.330673 475.710371 
L 903.05198 475.710371 
L 903.05198 335.800962 
L 883.330673 335.800962 
z
" style="fill:#8eaee7;stroke:#ffffff;stroke-linejoin:miter;"/>
   </g>
   <g id="patch_38">
    <path clip-path="url(#pfe8fb54d8e)" d="M 907.982306 475.710371 
L 927.703612 475.710371 
L 927.703612 336.243713 
L 907.982306 336.243713 
z
" style="fill:#a0adea;stroke:#ffffff;stroke-linejoin:miter;"/>
   </g>
   <g id="patch_39">
    <path clip-path="url(#pfe8fb54d8e)" d="M 932.633939 475.710371 
L 952.355245 475.710371 
L 952.355245 336.300638 
L 932.633939 336.300638 
z
" style="fill:#aeabeb;stroke:#ffffff;stroke-linejoin:miter;"/>
   </g>
   <g id="patch_40">
    <path clip-path="url(#pfe8fb54d8e)" d="M 957.285571 475.710371 
L 977.006878 475.710371 
L 977.006878 338.59915 
L 957.285571 338.59915 
z
" style="fill:#b9a7eb;stroke:#ffffff;stroke-linejoin:miter;"/>
   </g>
   <g id="patch_41">
    <path clip-path="url(#pfe8fb54d8e)" d="M 981.937204 475.710371 
L 1001.65851 475.710371 
L 1001.65851 339.582297 
L 981.937204 339.582297 
z
" style="fill:#c2a2ea;stroke:#ffffff;stroke-linejoin:miter;"/>
   </g>
   <g id="patch_42">
    <path clip-path="url(#pfe8fb54d8e)" d="M 1006.588837 475.710371 
L 1026.310143 475.710371 
L 1026.310143 347.543359 
L 1006.588837 347.543359 
z
" style="fill:#cc9ce9;stroke:#ffffff;stroke-linejoin:miter;"/>
   </g>
   <g id="patch_43">
    <path clip-path="url(#pfe8fb54d8e)" d="M 1031.240469 475.710371 
L 1050.961776 475.710371 
L 1050.961776 364.988959 
L 1031.240469 364.988959 
z
" style="fill:#d696e8;stroke:#ffffff;stroke-linejoin:miter;"/>
   </g>
   <g id="patch_44">
    <path clip-path="url(#pfe8fb54d8e)" d="M 1055.892102 475.710371 
L 1075.613408 475.710371 
L 1075.613408 366.962603 
L 1055.892102 366.962603 
z
" style="fill:#e08ee7;stroke:#ffffff;stroke-linejoin:miter;"/>
   </g>
   <g id="patch_45">
    <path clip-path="url(#pfe8fb54d8e)" d="M 1080.543735 475.710371 
L 1100.265041 475.710371 
L 1100.265041 370.778314 
L 1080.543735 370.778314 
z
" style="fill:#e78ae0;stroke:#ffffff;stroke-linejoin:miter;"/>
   </g>
   <g id="patch_46">
    <path clip-path="url(#pfe8fb54d8e)" d="M 1105.195367 475.710371 
L 1124.916673 475.710371 
L 1124.916673 370.792513 
L 1105.195367 370.792513 
z
" style="fill:#e78cd6;stroke:#ffffff;stroke-linejoin:miter;"/>
   </g>
   <g id="patch_47">
    <path clip-path="url(#pfe8fb54d8e)" d="M 1129.847 475.710371 
L 1149.568306 475.710371 
L 1149.568306 378.409736 
L 1129.847 378.409736 
z
" style="fill:#e88fcd;stroke:#ffffff;stroke-linejoin:miter;"/>
   </g>
   <g id="patch_48">
    <path clip-path="url(#pfe8fb54d8e)" d="M 1154.498633 475.710371 
L 1174.219939 475.710371 
L 1174.219939 388.097197 
L 1154.498633 388.097197 
z
" style="fill:#e890c5;stroke:#ffffff;stroke-linejoin:miter;"/>
   </g>
   <g id="patch_49">
    <path clip-path="url(#pfe8fb54d8e)" d="M 1179.150265 475.710371 
L 1198.871571 475.710371 
L 1198.871571 412.751137 
L 1179.150265 412.751137 
z
" style="fill:#e992bd;stroke:#ffffff;stroke-linejoin:miter;"/>
   </g>
   <g id="patch_50">
    <path clip-path="url(#pfe8fb54d8e)" d="M 1203.801898 475.710371 
L 1223.523204 475.710371 
L 1223.523204 418.027826 
L 1203.801898 418.027826 
z
" style="fill:#e993b5;stroke:#ffffff;stroke-linejoin:miter;"/>
   </g>
   <g id="patch_51">
    <path clip-path="url(#pfe8fb54d8e)" d="M 1228.453531 475.710371 
L 1248.174837 475.710371 
L 1248.174837 444.230754 
L 1228.453531 444.230754 
z
" style="fill:#e994ad;stroke:#ffffff;stroke-linejoin:miter;"/>
   </g>
   <g id="line2d_9">
    <path clip-path="url(#pfe8fb54d8e)" style="fill:none;stroke:#424242;stroke-linecap:round;stroke-width:2.7;"/>
   </g>
   <g id="line2d_10">
    <path clip-path="url(#pfe8fb54d8e)" style="fill:none;stroke:#424242;stroke-linecap:round;stroke-width:2.7;"/>
   </g>
   <g id="line2d_11">
    <path clip-path="url(#pfe8fb54d8e)" style="fill:none;stroke:#424242;stroke-linecap:round;stroke-width:2.7;"/>
   </g>
   <g id="line2d_12">
    <path clip-path="url(#pfe8fb54d8e)" style="fill:none;stroke:#424242;stroke-linecap:round;stroke-width:2.7;"/>
   </g>
   <g id="line2d_13">
    <path clip-path="url(#pfe8fb54d8e)" style="fill:none;stroke:#424242;stroke-linecap:round;stroke-width:2.7;"/>
   </g>
   <g id="line2d_14">
    <path clip-path="url(#pfe8fb54d8e)" style="fill:none;stroke:#424242;stroke-linecap:round;stroke-width:2.7;"/>
   </g>
   <g id="line2d_15">
    <path clip-path="url(#pfe8fb54d8e)" style="fill:none;stroke:#424242;stroke-linecap:round;stroke-width:2.7;"/>
   </g>
   <g id="line2d_16">
    <path clip-path="url(#pfe8fb54d8e)" style="fill:none;stroke:#424242;stroke-linecap:round;stroke-width:2.7;"/>
   </g>
   <g id="line2d_17">
    <path clip-path="url(#pfe8fb54d8e)" style="fill:none;stroke:#424242;stroke-linecap:round;stroke-width:2.7;"/>
   </g>
   <g id="line2d_18">
    <path clip-path="url(#pfe8fb54d8e)" style="fill:none;stroke:#424242;stroke-linecap:round;stroke-width:2.7;"/>
   </g>
   <g id="line2d_19">
    <path clip-path="url(#pfe8fb54d8e)" style="fill:none;stroke:#424242;stroke-linecap:round;stroke-width:2.7;"/>
   </g>
   <g id="line2d_20">
    <path clip-path="url(#pfe8fb54d8e)" style="fill:none;stroke:#424242;stroke-linecap:round;stroke-width:2.7;"/>
   </g>
   <g id="line2d_21">
    <path clip-path="url(#pfe8fb54d8e)" style="fill:none;stroke:#424242;stroke-linecap:round;stroke-width:2.7;"/>
   </g>
   <g id="line2d_22">
    <path clip-path="url(#pfe8fb54d8e)" style="fill:none;stroke:#424242;stroke-linecap:round;stroke-width:2.7;"/>
   </g>
   <g id="line2d_23">
    <path clip-path="url(#pfe8fb54d8e)" style="fill:none;stroke:#424242;stroke-linecap:round;stroke-width:2.7;"/>
   </g>
   <g id="line2d_24">
    <path clip-path="url(#pfe8fb54d8e)" style="fill:none;stroke:#424242;stroke-linecap:round;stroke-width:2.7;"/>
   </g>
   <g id="line2d_25">
    <path clip-path="url(#pfe8fb54d8e)" style="fill:none;stroke:#424242;stroke-linecap:round;stroke-width:2.7;"/>
   </g>
   <g id="line2d_26">
    <path clip-path="url(#pfe8fb54d8e)" style="fill:none;stroke:#424242;stroke-linecap:round;stroke-width:2.7;"/>
   </g>
   <g id="line2d_27">
    <path clip-path="url(#pfe8fb54d8e)" style="fill:none;stroke:#424242;stroke-linecap:round;stroke-width:2.7;"/>
   </g>
   <g id="line2d_28">
    <path clip-path="url(#pfe8fb54d8e)" style="fill:none;stroke:#424242;stroke-linecap:round;stroke-width:2.7;"/>
   </g>
   <g id="line2d_29">
    <path clip-path="url(#pfe8fb54d8e)" style="fill:none;stroke:#424242;stroke-linecap:round;stroke-width:2.7;"/>
   </g>
   <g id="line2d_30">
    <path clip-path="url(#pfe8fb54d8e)" style="fill:none;stroke:#424242;stroke-linecap:round;stroke-width:2.7;"/>
   </g>
   <g id="line2d_31">
    <path clip-path="url(#pfe8fb54d8e)" style="fill:none;stroke:#424242;stroke-linecap:round;stroke-width:2.7;"/>
   </g>
   <g id="line2d_32">
    <path clip-path="url(#pfe8fb54d8e)" style="fill:none;stroke:#424242;stroke-linecap:round;stroke-width:2.7;"/>
   </g>
   <g id="line2d_33">
    <path clip-path="url(#pfe8fb54d8e)" style="fill:none;stroke:#424242;stroke-linecap:round;stroke-width:2.7;"/>
   </g>
   <g id="line2d_34">
    <path clip-path="url(#pfe8fb54d8e)" style="fill:none;stroke:#424242;stroke-linecap:round;stroke-width:2.7;"/>
   </g>
   <g id="line2d_35">
    <path clip-path="url(#pfe8fb54d8e)" style="fill:none;stroke:#424242;stroke-linecap:round;stroke-width:2.7;"/>
   </g>
   <g id="line2d_36">
    <path clip-path="url(#pfe8fb54d8e)" style="fill:none;stroke:#424242;stroke-linecap:round;stroke-width:2.7;"/>
   </g>
   <g id="line2d_37">
    <path clip-path="url(#pfe8fb54d8e)" style="fill:none;stroke:#424242;stroke-linecap:round;stroke-width:2.7;"/>
   </g>
   <g id="line2d_38">
    <path clip-path="url(#pfe8fb54d8e)" style="fill:none;stroke:#424242;stroke-linecap:round;stroke-width:2.7;"/>
   </g>
   <g id="line2d_39">
    <path clip-path="url(#pfe8fb54d8e)" style="fill:none;stroke:#424242;stroke-linecap:round;stroke-width:2.7;"/>
   </g>
   <g id="line2d_40">
    <path clip-path="url(#pfe8fb54d8e)" style="fill:none;stroke:#424242;stroke-linecap:round;stroke-width:2.7;"/>
   </g>
   <g id="line2d_41">
    <path clip-path="url(#pfe8fb54d8e)" style="fill:none;stroke:#424242;stroke-linecap:round;stroke-width:2.7;"/>
   </g>
   <g id="line2d_42">
    <path clip-path="url(#pfe8fb54d8e)" style="fill:none;stroke:#424242;stroke-linecap:round;stroke-width:2.7;"/>
   </g>
   <g id="line2d_43">
    <path clip-path="url(#pfe8fb54d8e)" style="fill:none;stroke:#424242;stroke-linecap:round;stroke-width:2.7;"/>
   </g>
   <g id="line2d_44">
    <path clip-path="url(#pfe8fb54d8e)" style="fill:none;stroke:#424242;stroke-linecap:round;stroke-width:2.7;"/>
   </g>
   <g id="line2d_45">
    <path clip-path="url(#pfe8fb54d8e)" style="fill:none;stroke:#424242;stroke-linecap:round;stroke-width:2.7;"/>
   </g>
   <g id="line2d_46">
    <path clip-path="url(#pfe8fb54d8e)" style="fill:none;stroke:#424242;stroke-linecap:round;stroke-width:2.7;"/>
   </g>
   <g id="line2d_47">
    <path clip-path="url(#pfe8fb54d8e)" style="fill:none;stroke:#424242;stroke-linecap:round;stroke-width:2.7;"/>
   </g>
   <g id="line2d_48">
    <path clip-path="url(#pfe8fb54d8e)" style="fill:none;stroke:#424242;stroke-linecap:round;stroke-width:2.7;"/>
   </g>
   <g id="line2d_49">
    <path clip-path="url(#pfe8fb54d8e)" style="fill:none;stroke:#424242;stroke-linecap:round;stroke-width:2.7;"/>
   </g>
   <g id="line2d_50">
    <path clip-path="url(#pfe8fb54d8e)" style="fill:none;stroke:#424242;stroke-linecap:round;stroke-width:2.7;"/>
   </g>
   <g id="line2d_51">
    <path clip-path="url(#pfe8fb54d8e)" style="fill:none;stroke:#424242;stroke-linecap:round;stroke-width:2.7;"/>
   </g>
   <g id="line2d_52">
    <path clip-path="url(#pfe8fb54d8e)" style="fill:none;stroke:#424242;stroke-linecap:round;stroke-width:2.7;"/>
   </g>
   <g id="line2d_53">
    <path clip-path="url(#pfe8fb54d8e)" style="fill:none;stroke:#424242;stroke-linecap:round;stroke-width:2.7;"/>
   </g>
   <g id="line2d_54">
    <path clip-path="url(#pfe8fb54d8e)" style="fill:none;stroke:#424242;stroke-linecap:round;stroke-width:2.7;"/>
   </g>
   <g id="line2d_55">
    <path clip-path="url(#pfe8fb54d8e)" style="fill:none;stroke:#424242;stroke-linecap:round;stroke-width:2.7;"/>
   </g>
   <g id="line2d_56">
    <path clip-path="url(#pfe8fb54d8e)" style="fill:none;stroke:#424242;stroke-linecap:round;stroke-width:2.7;"/>
   </g>
   <g id="line2d_57">
    <path clip-path="url(#pfe8fb54d8e)" style="fill:none;stroke:#424242;stroke-linecap:round;stroke-width:2.7;"/>
   </g>
   <g id="patch_52">
    <path d="M 42.71 475.710371 
L 42.71 12.96 
" style="fill:none;stroke:#ffffff;stroke-linecap:square;stroke-linejoin:miter;stroke-width:1.25;"/>
   </g>
   <g id="patch_53">
    <path d="M 1250.64 475.710371 
L 1250.64 12.96 
" style="fill:none;stroke:#ffffff;stroke-linecap:square;stroke-linejoin:miter;stroke-width:1.25;"/>
   </g>
   <g id="patch_54">
    <path d="M 42.71 475.710371 
L 1250.64 475.710371 
" style="fill:none;stroke:#ffffff;stroke-linecap:square;stroke-linejoin:miter;stroke-width:1.25;"/>
   </g>
   <g id="patch_55">
    <path d="M 42.71 12.96 
L 1250.64 12.96 
" style="fill:none;stroke:#ffffff;stroke-linecap:square;stroke-linejoin:miter;stroke-width:1.25;"/>
   </g>
  </g>
 </g>
 <defs>
  <clipPath id="pfe8fb54d8e">
   <rect height="462.750371" width="1207.93" x="42.71" y="12.96"/>
  </clipPath>
 </defs>
</svg>
