<?xml version="1.0" encoding="utf-8" standalone="no"?>
<!DOCTYPE svg PUBLIC "-//W3C//DTD SVG 1.1//EN"
  "http://www.w3.org/Graphics/SVG/1.1/DTD/svg11.dtd">
<!-- Created with matplotlib (https://matplotlib.org/) -->
<svg height="576pt" version="1.1" viewBox="0 0 792 576" width="792pt" xmlns="http://www.w3.org/2000/svg" xmlns:xlink="http://www.w3.org/1999/xlink">
 <metadata>
  <rdf:RDF xmlns:cc="http://creativecommons.org/ns#" xmlns:dc="http://purl.org/dc/elements/1.1/" xmlns:rdf="http://www.w3.org/1999/02/22-rdf-syntax-ns#">
   <cc:Work>
    <dc:type rdf:resource="http://purl.org/dc/dcmitype/StillImage"/>
    <dc:date>2021-05-04T15:17:22.948312</dc:date>
    <dc:format>image/svg+xml</dc:format>
    <dc:creator>
     <cc:Agent>
      <dc:title>Matplotlib v3.3.4, https://matplotlib.org/</dc:title>
     </cc:Agent>
    </dc:creator>
   </cc:Work>
  </rdf:RDF>
 </metadata>
 <defs>
  <style type="text/css">*{stroke-linecap:butt;stroke-linejoin:round;}</style>
 </defs>
 <g id="figure_1">
  <g id="patch_1">
   <path d="M 0 576 
L 792 576 
L 792 0 
L 0 0 
z
" style="fill:#ffffff;"/>
  </g>
  <g id="axes_1">
   <g id="patch_2">
    <path d="M 29.675753 548.376856 
L 632.375 548.376856 
L 632.375 12.96 
L 29.675753 12.96 
z
" style="fill:#eaeaf2;"/>
   </g>
   <g id="matplotlib.axis_1">
    <g id="xtick_1">
     <g id="line2d_1">
      <path clip-path="url(#p34bf25ca70)" d="M 51.480271 548.376856 
L 51.480271 12.96 
" style="fill:none;stroke:#ffffff;stroke-linecap:round;"/>
     </g>
     <g id="text_1">
      <!-- 0 -->
      <g style="fill:#262626;" transform="translate(48.421755 542.501121)scale(0.11 -0.11)">
       <defs>
        <path d="M 4.15625 35.296875 
Q 4.15625 48 6.765625 55.734375 
Q 9.375 63.484375 14.515625 67.671875 
Q 19.671875 71.875 27.484375 71.875 
Q 33.25 71.875 37.59375 69.546875 
Q 41.9375 67.234375 44.765625 62.859375 
Q 47.609375 58.5 49.21875 52.21875 
Q 50.828125 45.953125 50.828125 35.296875 
Q 50.828125 22.703125 48.234375 14.96875 
Q 45.65625 7.234375 40.5 3 
Q 35.359375 -1.21875 27.484375 -1.21875 
Q 17.140625 -1.21875 11.234375 6.203125 
Q 4.15625 15.140625 4.15625 35.296875 
z
M 13.1875 35.296875 
Q 13.1875 17.671875 17.3125 11.828125 
Q 21.4375 6 27.484375 6 
Q 33.546875 6 37.671875 11.859375 
Q 41.796875 17.71875 41.796875 35.296875 
Q 41.796875 52.984375 37.671875 58.78125 
Q 33.546875 64.59375 27.390625 64.59375 
Q 21.34375 64.59375 17.71875 59.46875 
Q 13.1875 52.9375 13.1875 35.296875 
z
" id="ArialMT-48"/>
       </defs>
       <use xlink:href="#ArialMT-48"/>
      </g>
     </g>
    </g>
    <g id="xtick_2">
     <g id="line2d_2">
      <path clip-path="url(#p34bf25ca70)" d="M 163.298313 548.376856 
L 163.298313 12.96 
" style="fill:none;stroke:#ffffff;stroke-linecap:round;"/>
     </g>
     <g id="text_2">
      <!-- 20 -->
      <g style="fill:#262626;" transform="translate(157.181282 542.501121)scale(0.11 -0.11)">
       <defs>
        <path d="M 50.34375 8.453125 
L 50.34375 0 
L 3.03125 0 
Q 2.9375 3.171875 4.046875 6.109375 
Q 5.859375 10.9375 9.828125 15.625 
Q 13.8125 20.3125 21.34375 26.46875 
Q 33.015625 36.03125 37.109375 41.625 
Q 41.21875 47.21875 41.21875 52.203125 
Q 41.21875 57.421875 37.46875 61 
Q 33.734375 64.59375 27.734375 64.59375 
Q 21.390625 64.59375 17.578125 60.78125 
Q 13.765625 56.984375 13.71875 50.25 
L 4.6875 51.171875 
Q 5.609375 61.28125 11.65625 66.578125 
Q 17.71875 71.875 27.9375 71.875 
Q 38.234375 71.875 44.234375 66.15625 
Q 50.25 60.453125 50.25 52 
Q 50.25 47.703125 48.484375 43.546875 
Q 46.734375 39.40625 42.65625 34.8125 
Q 38.578125 30.21875 29.109375 22.21875 
Q 21.1875 15.578125 18.9375 13.203125 
Q 16.703125 10.84375 15.234375 8.453125 
z
" id="ArialMT-50"/>
       </defs>
       <use xlink:href="#ArialMT-50"/>
       <use x="55.615234" xlink:href="#ArialMT-48"/>
      </g>
     </g>
    </g>
    <g id="xtick_3">
     <g id="line2d_3">
      <path clip-path="url(#p34bf25ca70)" d="M 275.116355 548.376856 
L 275.116355 12.96 
" style="fill:none;stroke:#ffffff;stroke-linecap:round;"/>
     </g>
     <g id="text_3">
      <!-- 40 -->
      <g style="fill:#262626;" transform="translate(268.999324 542.501121)scale(0.11 -0.11)">
       <defs>
        <path d="M 32.328125 0 
L 32.328125 17.140625 
L 1.265625 17.140625 
L 1.265625 25.203125 
L 33.9375 71.578125 
L 41.109375 71.578125 
L 41.109375 25.203125 
L 50.78125 25.203125 
L 50.78125 17.140625 
L 41.109375 17.140625 
L 41.109375 0 
z
M 32.328125 25.203125 
L 32.328125 57.46875 
L 9.90625 25.203125 
z
" id="ArialMT-52"/>
       </defs>
       <use xlink:href="#ArialMT-52"/>
       <use x="55.615234" xlink:href="#ArialMT-48"/>
      </g>
     </g>
    </g>
    <g id="xtick_4">
     <g id="line2d_4">
      <path clip-path="url(#p34bf25ca70)" d="M 386.934397 548.376856 
L 386.934397 12.96 
" style="fill:none;stroke:#ffffff;stroke-linecap:round;"/>
     </g>
     <g id="text_4">
      <!-- 60 -->
      <g style="fill:#262626;" transform="translate(380.817366 542.501121)scale(0.11 -0.11)">
       <defs>
        <path d="M 49.75 54.046875 
L 41.015625 53.375 
Q 39.84375 58.546875 37.703125 60.890625 
Q 34.125 64.65625 28.90625 64.65625 
Q 24.703125 64.65625 21.53125 62.3125 
Q 17.390625 59.28125 14.984375 53.46875 
Q 12.59375 47.65625 12.5 36.921875 
Q 15.671875 41.75 20.265625 44.09375 
Q 24.859375 46.4375 29.890625 46.4375 
Q 38.671875 46.4375 44.84375 39.96875 
Q 51.03125 33.5 51.03125 23.25 
Q 51.03125 16.5 48.125 10.71875 
Q 45.21875 4.9375 40.140625 1.859375 
Q 35.0625 -1.21875 28.609375 -1.21875 
Q 17.625 -1.21875 10.6875 6.859375 
Q 3.765625 14.9375 3.765625 33.5 
Q 3.765625 54.25 11.421875 63.671875 
Q 18.109375 71.875 29.4375 71.875 
Q 37.890625 71.875 43.28125 67.140625 
Q 48.6875 62.40625 49.75 54.046875 
z
M 13.875 23.1875 
Q 13.875 18.65625 15.796875 14.5 
Q 17.71875 10.359375 21.1875 8.171875 
Q 24.65625 6 28.46875 6 
Q 34.03125 6 38.03125 10.484375 
Q 42.046875 14.984375 42.046875 22.703125 
Q 42.046875 30.125 38.078125 34.390625 
Q 34.125 38.671875 28.125 38.671875 
Q 22.171875 38.671875 18.015625 34.390625 
Q 13.875 30.125 13.875 23.1875 
z
" id="ArialMT-54"/>
       </defs>
       <use xlink:href="#ArialMT-54"/>
       <use x="55.615234" xlink:href="#ArialMT-48"/>
      </g>
     </g>
    </g>
    <g id="xtick_5">
     <g id="line2d_5">
      <path clip-path="url(#p34bf25ca70)" d="M 498.75244 548.376856 
L 498.75244 12.96 
" style="fill:none;stroke:#ffffff;stroke-linecap:round;"/>
     </g>
     <g id="text_5">
      <!-- 80 -->
      <g style="fill:#262626;" transform="translate(492.635408 542.501121)scale(0.11 -0.11)">
       <defs>
        <path d="M 17.671875 38.8125 
Q 12.203125 40.828125 9.5625 44.53125 
Q 6.9375 48.25 6.9375 53.421875 
Q 6.9375 61.234375 12.546875 66.546875 
Q 18.171875 71.875 27.484375 71.875 
Q 36.859375 71.875 42.578125 66.421875 
Q 48.296875 60.984375 48.296875 53.171875 
Q 48.296875 48.1875 45.671875 44.5 
Q 43.0625 40.828125 37.75 38.8125 
Q 44.34375 36.671875 47.78125 31.875 
Q 51.21875 27.09375 51.21875 20.453125 
Q 51.21875 11.28125 44.71875 5.03125 
Q 38.234375 -1.21875 27.640625 -1.21875 
Q 17.046875 -1.21875 10.546875 5.046875 
Q 4.046875 11.328125 4.046875 20.703125 
Q 4.046875 27.6875 7.59375 32.390625 
Q 11.140625 37.109375 17.671875 38.8125 
z
M 15.921875 53.71875 
Q 15.921875 48.640625 19.1875 45.40625 
Q 22.46875 42.1875 27.6875 42.1875 
Q 32.765625 42.1875 36.015625 45.375 
Q 39.265625 48.578125 39.265625 53.21875 
Q 39.265625 58.0625 35.90625 61.359375 
Q 32.5625 64.65625 27.59375 64.65625 
Q 22.5625 64.65625 19.234375 61.421875 
Q 15.921875 58.203125 15.921875 53.71875 
z
M 13.09375 20.65625 
Q 13.09375 16.890625 14.875 13.375 
Q 16.65625 9.859375 20.171875 7.921875 
Q 23.6875 6 27.734375 6 
Q 34.03125 6 38.125 10.046875 
Q 42.234375 14.109375 42.234375 20.359375 
Q 42.234375 26.703125 38.015625 30.859375 
Q 33.796875 35.015625 27.4375 35.015625 
Q 21.234375 35.015625 17.15625 30.90625 
Q 13.09375 26.8125 13.09375 20.65625 
z
" id="ArialMT-56"/>
       </defs>
       <use xlink:href="#ArialMT-56"/>
       <use x="55.615234" xlink:href="#ArialMT-48"/>
      </g>
     </g>
    </g>
    <g id="xtick_6">
     <g id="line2d_6">
      <path clip-path="url(#p34bf25ca70)" d="M 610.570482 548.376856 
L 610.570482 12.96 
" style="fill:none;stroke:#ffffff;stroke-linecap:round;"/>
     </g>
     <g id="text_6">
      <!-- 100 -->
      <g style="fill:#262626;" transform="translate(601.394935 542.501121)scale(0.11 -0.11)">
       <defs>
        <path d="M 37.25 0 
L 28.46875 0 
L 28.46875 56 
Q 25.296875 52.984375 20.140625 49.953125 
Q 14.984375 46.921875 10.890625 45.40625 
L 10.890625 53.90625 
Q 18.265625 57.375 23.78125 62.296875 
Q 29.296875 67.234375 31.59375 71.875 
L 37.25 71.875 
z
" id="ArialMT-49"/>
       </defs>
       <use xlink:href="#ArialMT-49"/>
       <use x="55.615234" xlink:href="#ArialMT-48"/>
       <use x="111.230469" xlink:href="#ArialMT-48"/>
      </g>
     </g>
    </g>
    <g id="text_7">
     <!-- Number of contigs in genome -->
     <g style="fill:#262626;" transform="translate(252.656001 557.422996)scale(0.12 -0.12)">
      <defs>
       <path d="M 7.625 0 
L 7.625 71.578125 
L 17.328125 71.578125 
L 54.9375 15.375 
L 54.9375 71.578125 
L 64.015625 71.578125 
L 64.015625 0 
L 54.296875 0 
L 16.703125 56.25 
L 16.703125 0 
z
" id="ArialMT-78"/>
       <path d="M 40.578125 0 
L 40.578125 7.625 
Q 34.515625 -1.171875 24.125 -1.171875 
Q 19.53125 -1.171875 15.546875 0.578125 
Q 11.578125 2.34375 9.640625 5 
Q 7.71875 7.671875 6.9375 11.53125 
Q 6.390625 14.109375 6.390625 19.734375 
L 6.390625 51.859375 
L 15.1875 51.859375 
L 15.1875 23.09375 
Q 15.1875 16.21875 15.71875 13.8125 
Q 16.546875 10.359375 19.234375 8.375 
Q 21.921875 6.390625 25.875 6.390625 
Q 29.828125 6.390625 33.296875 8.421875 
Q 36.765625 10.453125 38.203125 13.9375 
Q 39.65625 17.4375 39.65625 24.078125 
L 39.65625 51.859375 
L 48.4375 51.859375 
L 48.4375 0 
z
" id="ArialMT-117"/>
       <path d="M 6.59375 0 
L 6.59375 51.859375 
L 14.453125 51.859375 
L 14.453125 44.578125 
Q 16.890625 48.390625 20.9375 50.703125 
Q 25 53.03125 30.171875 53.03125 
Q 35.9375 53.03125 39.625 50.640625 
Q 43.3125 48.25 44.828125 43.953125 
Q 50.984375 53.03125 60.84375 53.03125 
Q 68.5625 53.03125 72.703125 48.75 
Q 76.859375 44.484375 76.859375 35.59375 
L 76.859375 0 
L 68.109375 0 
L 68.109375 32.671875 
Q 68.109375 37.9375 67.25 40.25 
Q 66.40625 42.578125 64.15625 43.984375 
Q 61.921875 45.40625 58.890625 45.40625 
Q 53.421875 45.40625 49.796875 41.765625 
Q 46.1875 38.140625 46.1875 30.125 
L 46.1875 0 
L 37.40625 0 
L 37.40625 33.6875 
Q 37.40625 39.546875 35.25 42.46875 
Q 33.109375 45.40625 28.21875 45.40625 
Q 24.515625 45.40625 21.359375 43.453125 
Q 18.21875 41.5 16.796875 37.734375 
Q 15.375 33.984375 15.375 26.90625 
L 15.375 0 
z
" id="ArialMT-109"/>
       <path d="M 14.703125 0 
L 6.546875 0 
L 6.546875 71.578125 
L 15.328125 71.578125 
L 15.328125 46.046875 
Q 20.90625 53.03125 29.546875 53.03125 
Q 34.328125 53.03125 38.59375 51.09375 
Q 42.875 49.171875 45.625 45.671875 
Q 48.390625 42.1875 49.953125 37.25 
Q 51.515625 32.328125 51.515625 26.703125 
Q 51.515625 13.375 44.921875 6.09375 
Q 38.328125 -1.171875 29.109375 -1.171875 
Q 19.921875 -1.171875 14.703125 6.5 
z
M 14.59375 26.3125 
Q 14.59375 17 17.140625 12.84375 
Q 21.296875 6.0625 28.375 6.0625 
Q 34.125 6.0625 38.328125 11.0625 
Q 42.53125 16.0625 42.53125 25.984375 
Q 42.53125 36.140625 38.5 40.96875 
Q 34.46875 45.796875 28.765625 45.796875 
Q 23 45.796875 18.796875 40.796875 
Q 14.59375 35.796875 14.59375 26.3125 
z
" id="ArialMT-98"/>
       <path d="M 42.09375 16.703125 
L 51.171875 15.578125 
Q 49.03125 7.625 43.21875 3.21875 
Q 37.40625 -1.171875 28.375 -1.171875 
Q 17 -1.171875 10.328125 5.828125 
Q 3.65625 12.84375 3.65625 25.484375 
Q 3.65625 38.578125 10.390625 45.796875 
Q 17.140625 53.03125 27.875 53.03125 
Q 38.28125 53.03125 44.875 45.953125 
Q 51.46875 38.875 51.46875 26.03125 
Q 51.46875 25.25 51.421875 23.6875 
L 12.75 23.6875 
Q 13.234375 15.140625 17.578125 10.59375 
Q 21.921875 6.0625 28.421875 6.0625 
Q 33.25 6.0625 36.671875 8.59375 
Q 40.09375 11.140625 42.09375 16.703125 
z
M 13.234375 30.90625 
L 42.1875 30.90625 
Q 41.609375 37.453125 38.875 40.71875 
Q 34.671875 45.796875 27.984375 45.796875 
Q 21.921875 45.796875 17.796875 41.75 
Q 13.671875 37.703125 13.234375 30.90625 
z
" id="ArialMT-101"/>
       <path d="M 6.5 0 
L 6.5 51.859375 
L 14.40625 51.859375 
L 14.40625 44 
Q 17.4375 49.515625 20 51.265625 
Q 22.5625 53.03125 25.640625 53.03125 
Q 30.078125 53.03125 34.671875 50.203125 
L 31.640625 42.046875 
Q 28.421875 43.953125 25.203125 43.953125 
Q 22.3125 43.953125 20.015625 42.21875 
Q 17.71875 40.484375 16.75 37.40625 
Q 15.28125 32.71875 15.28125 27.15625 
L 15.28125 0 
z
" id="ArialMT-114"/>
       <path id="ArialMT-32"/>
       <path d="M 3.328125 25.921875 
Q 3.328125 40.328125 11.328125 47.265625 
Q 18.015625 53.03125 27.640625 53.03125 
Q 38.328125 53.03125 45.109375 46.015625 
Q 51.90625 39.015625 51.90625 26.65625 
Q 51.90625 16.65625 48.90625 10.90625 
Q 45.90625 5.171875 40.15625 2 
Q 34.421875 -1.171875 27.640625 -1.171875 
Q 16.75 -1.171875 10.03125 5.8125 
Q 3.328125 12.796875 3.328125 25.921875 
z
M 12.359375 25.921875 
Q 12.359375 15.96875 16.703125 11.015625 
Q 21.046875 6.0625 27.640625 6.0625 
Q 34.1875 6.0625 38.53125 11.03125 
Q 42.875 16.015625 42.875 26.21875 
Q 42.875 35.84375 38.5 40.796875 
Q 34.125 45.75 27.640625 45.75 
Q 21.046875 45.75 16.703125 40.8125 
Q 12.359375 35.890625 12.359375 25.921875 
z
" id="ArialMT-111"/>
       <path d="M 8.6875 0 
L 8.6875 45.015625 
L 0.921875 45.015625 
L 0.921875 51.859375 
L 8.6875 51.859375 
L 8.6875 57.375 
Q 8.6875 62.59375 9.625 65.140625 
Q 10.890625 68.5625 14.078125 70.671875 
Q 17.28125 72.796875 23.046875 72.796875 
Q 26.765625 72.796875 31.25 71.921875 
L 29.9375 64.265625 
Q 27.203125 64.75 24.75 64.75 
Q 20.75 64.75 19.09375 63.03125 
Q 17.4375 61.328125 17.4375 56.640625 
L 17.4375 51.859375 
L 27.546875 51.859375 
L 27.546875 45.015625 
L 17.4375 45.015625 
L 17.4375 0 
z
" id="ArialMT-102"/>
       <path d="M 40.4375 19 
L 49.078125 17.875 
Q 47.65625 8.9375 41.8125 3.875 
Q 35.984375 -1.171875 27.484375 -1.171875 
Q 16.84375 -1.171875 10.375 5.78125 
Q 3.90625 12.75 3.90625 25.734375 
Q 3.90625 34.125 6.6875 40.421875 
Q 9.46875 46.734375 15.15625 49.875 
Q 20.84375 53.03125 27.546875 53.03125 
Q 35.984375 53.03125 41.359375 48.75 
Q 46.734375 44.484375 48.25 36.625 
L 39.703125 35.296875 
Q 38.484375 40.53125 35.375 43.15625 
Q 32.28125 45.796875 27.875 45.796875 
Q 21.234375 45.796875 17.078125 41.03125 
Q 12.9375 36.28125 12.9375 25.984375 
Q 12.9375 15.53125 16.9375 10.796875 
Q 20.953125 6.0625 27.390625 6.0625 
Q 32.5625 6.0625 36.03125 9.234375 
Q 39.5 12.40625 40.4375 19 
z
" id="ArialMT-99"/>
       <path d="M 6.59375 0 
L 6.59375 51.859375 
L 14.5 51.859375 
L 14.5 44.484375 
Q 20.21875 53.03125 31 53.03125 
Q 35.6875 53.03125 39.625 51.34375 
Q 43.5625 49.65625 45.515625 46.921875 
Q 47.46875 44.1875 48.25 40.4375 
Q 48.734375 37.984375 48.734375 31.890625 
L 48.734375 0 
L 39.9375 0 
L 39.9375 31.546875 
Q 39.9375 36.921875 38.90625 39.578125 
Q 37.890625 42.234375 35.28125 43.8125 
Q 32.671875 45.40625 29.15625 45.40625 
Q 23.53125 45.40625 19.453125 41.84375 
Q 15.375 38.28125 15.375 28.328125 
L 15.375 0 
z
" id="ArialMT-110"/>
       <path d="M 25.78125 7.859375 
L 27.046875 0.09375 
Q 23.34375 -0.6875 20.40625 -0.6875 
Q 15.625 -0.6875 12.984375 0.828125 
Q 10.359375 2.34375 9.28125 4.8125 
Q 8.203125 7.28125 8.203125 15.1875 
L 8.203125 45.015625 
L 1.765625 45.015625 
L 1.765625 51.859375 
L 8.203125 51.859375 
L 8.203125 64.703125 
L 16.9375 69.96875 
L 16.9375 51.859375 
L 25.78125 51.859375 
L 25.78125 45.015625 
L 16.9375 45.015625 
L 16.9375 14.703125 
Q 16.9375 10.9375 17.40625 9.859375 
Q 17.875 8.796875 18.921875 8.15625 
Q 19.96875 7.515625 21.921875 7.515625 
Q 23.390625 7.515625 25.78125 7.859375 
z
" id="ArialMT-116"/>
       <path d="M 6.640625 61.46875 
L 6.640625 71.578125 
L 15.4375 71.578125 
L 15.4375 61.46875 
z
M 6.640625 0 
L 6.640625 51.859375 
L 15.4375 51.859375 
L 15.4375 0 
z
" id="ArialMT-105"/>
       <path d="M 4.984375 -4.296875 
L 13.53125 -5.5625 
Q 14.0625 -9.515625 16.5 -11.328125 
Q 19.78125 -13.765625 25.4375 -13.765625 
Q 31.546875 -13.765625 34.859375 -11.328125 
Q 38.1875 -8.890625 39.359375 -4.5 
Q 40.046875 -1.8125 39.984375 6.78125 
Q 34.234375 0 25.640625 0 
Q 14.9375 0 9.078125 7.71875 
Q 3.21875 15.4375 3.21875 26.21875 
Q 3.21875 33.640625 5.90625 39.90625 
Q 8.59375 46.1875 13.6875 49.609375 
Q 18.796875 53.03125 25.6875 53.03125 
Q 34.859375 53.03125 40.828125 45.609375 
L 40.828125 51.859375 
L 48.921875 51.859375 
L 48.921875 7.03125 
Q 48.921875 -5.078125 46.453125 -10.125 
Q 44 -15.1875 38.640625 -18.109375 
Q 33.296875 -21.046875 25.484375 -21.046875 
Q 16.21875 -21.046875 10.5 -16.875 
Q 4.78125 -12.703125 4.984375 -4.296875 
z
M 12.25 26.859375 
Q 12.25 16.65625 16.296875 11.96875 
Q 20.359375 7.28125 26.46875 7.28125 
Q 32.515625 7.28125 36.609375 11.9375 
Q 40.71875 16.609375 40.71875 26.5625 
Q 40.71875 36.078125 36.5 40.90625 
Q 32.28125 45.75 26.3125 45.75 
Q 20.453125 45.75 16.34375 40.984375 
Q 12.25 36.234375 12.25 26.859375 
z
" id="ArialMT-103"/>
       <path d="M 3.078125 15.484375 
L 11.765625 16.84375 
Q 12.5 11.625 15.84375 8.84375 
Q 19.1875 6.0625 25.203125 6.0625 
Q 31.25 6.0625 34.171875 8.515625 
Q 37.109375 10.984375 37.109375 14.3125 
Q 37.109375 17.28125 34.515625 19 
Q 32.71875 20.171875 25.53125 21.96875 
Q 15.875 24.421875 12.140625 26.203125 
Q 8.40625 27.984375 6.46875 31.125 
Q 4.546875 34.28125 4.546875 38.09375 
Q 4.546875 41.546875 6.125 44.5 
Q 7.71875 47.46875 10.453125 49.421875 
Q 12.5 50.921875 16.03125 51.96875 
Q 19.578125 53.03125 23.640625 53.03125 
Q 29.734375 53.03125 34.34375 51.265625 
Q 38.96875 49.515625 41.15625 46.5 
Q 43.359375 43.5 44.1875 38.484375 
L 35.59375 37.3125 
Q 35.015625 41.3125 32.203125 43.546875 
Q 29.390625 45.796875 24.265625 45.796875 
Q 18.21875 45.796875 15.625 43.796875 
Q 13.03125 41.796875 13.03125 39.109375 
Q 13.03125 37.40625 14.109375 36.03125 
Q 15.1875 34.625 17.484375 33.6875 
Q 18.796875 33.203125 25.25 31.453125 
Q 34.578125 28.953125 38.25 27.359375 
Q 41.9375 25.78125 44.03125 22.75 
Q 46.140625 19.734375 46.140625 15.234375 
Q 46.140625 10.84375 43.578125 6.953125 
Q 41.015625 3.078125 36.171875 0.953125 
Q 31.34375 -1.171875 25.25 -1.171875 
Q 15.140625 -1.171875 9.84375 3.03125 
Q 4.546875 7.234375 3.078125 15.484375 
z
" id="ArialMT-115"/>
      </defs>
      <use xlink:href="#ArialMT-78"/>
      <use x="72.216797" xlink:href="#ArialMT-117"/>
      <use x="127.832031" xlink:href="#ArialMT-109"/>
      <use x="211.132812" xlink:href="#ArialMT-98"/>
      <use x="266.748047" xlink:href="#ArialMT-101"/>
      <use x="322.363281" xlink:href="#ArialMT-114"/>
      <use x="355.664062" xlink:href="#ArialMT-32"/>
      <use x="383.447266" xlink:href="#ArialMT-111"/>
      <use x="439.0625" xlink:href="#ArialMT-102"/>
      <use x="466.845703" xlink:href="#ArialMT-32"/>
      <use x="494.628906" xlink:href="#ArialMT-99"/>
      <use x="544.628906" xlink:href="#ArialMT-111"/>
      <use x="600.244141" xlink:href="#ArialMT-110"/>
      <use x="655.859375" xlink:href="#ArialMT-116"/>
      <use x="683.642578" xlink:href="#ArialMT-105"/>
      <use x="705.859375" xlink:href="#ArialMT-103"/>
      <use x="761.474609" xlink:href="#ArialMT-115"/>
      <use x="811.474609" xlink:href="#ArialMT-32"/>
      <use x="839.257812" xlink:href="#ArialMT-105"/>
      <use x="861.474609" xlink:href="#ArialMT-110"/>
      <use x="917.089844" xlink:href="#ArialMT-32"/>
      <use x="944.873047" xlink:href="#ArialMT-103"/>
      <use x="1000.488281" xlink:href="#ArialMT-101"/>
      <use x="1056.103516" xlink:href="#ArialMT-110"/>
      <use x="1111.71875" xlink:href="#ArialMT-111"/>
      <use x="1167.333984" xlink:href="#ArialMT-109"/>
      <use x="1250.634766" xlink:href="#ArialMT-101"/>
     </g>
    </g>
   </g>
   <g id="matplotlib.axis_2">
    <g id="ytick_1">
     <g id="line2d_7">
      <path clip-path="url(#p34bf25ca70)" d="M 29.675753 525.127528 
L 632.375 525.127528 
" style="fill:none;stroke:#ffffff;stroke-linecap:round;"/>
     </g>
     <g id="text_8">
      <!-- 0.0 -->
      <g style="fill:#262626;" transform="translate(26.690271 529.064325)scale(0.11 -0.11)">
       <defs>
        <path d="M 9.078125 0 
L 9.078125 10.015625 
L 19.09375 10.015625 
L 19.09375 0 
z
" id="ArialMT-46"/>
       </defs>
       <use xlink:href="#ArialMT-48"/>
       <use x="55.615234" xlink:href="#ArialMT-46"/>
       <use x="83.398438" xlink:href="#ArialMT-48"/>
      </g>
     </g>
    </g>
    <g id="ytick_2">
     <g id="line2d_8">
      <path clip-path="url(#p34bf25ca70)" d="M 29.675753 457.35278 
L 632.375 457.35278 
" style="fill:none;stroke:#ffffff;stroke-linecap:round;"/>
     </g>
     <g id="text_9">
      <!-- 0.5 -->
      <g style="fill:#262626;" transform="translate(26.690271 461.289577)scale(0.11 -0.11)">
       <defs>
        <path d="M 4.15625 18.75 
L 13.375 19.53125 
Q 14.40625 12.796875 18.140625 9.390625 
Q 21.875 6 27.15625 6 
Q 33.5 6 37.890625 10.78125 
Q 42.28125 15.578125 42.28125 23.484375 
Q 42.28125 31 38.0625 35.34375 
Q 33.84375 39.703125 27 39.703125 
Q 22.75 39.703125 19.328125 37.765625 
Q 15.921875 35.84375 13.96875 32.765625 
L 5.71875 33.84375 
L 12.640625 70.609375 
L 48.25 70.609375 
L 48.25 62.203125 
L 19.671875 62.203125 
L 15.828125 42.96875 
Q 22.265625 47.46875 29.34375 47.46875 
Q 38.71875 47.46875 45.15625 40.96875 
Q 51.609375 34.46875 51.609375 24.265625 
Q 51.609375 14.546875 45.953125 7.46875 
Q 39.0625 -1.21875 27.15625 -1.21875 
Q 17.390625 -1.21875 11.203125 4.25 
Q 5.03125 9.71875 4.15625 18.75 
z
" id="ArialMT-53"/>
       </defs>
       <use xlink:href="#ArialMT-48"/>
       <use x="55.615234" xlink:href="#ArialMT-46"/>
       <use x="83.398438" xlink:href="#ArialMT-53"/>
      </g>
     </g>
    </g>
    <g id="ytick_3">
     <g id="line2d_9">
      <path clip-path="url(#p34bf25ca70)" d="M 29.675753 389.578033 
L 632.375 389.578033 
" style="fill:none;stroke:#ffffff;stroke-linecap:round;"/>
     </g>
     <g id="text_10">
      <!-- 1.0 -->
      <g style="fill:#262626;" transform="translate(26.690271 393.514829)scale(0.11 -0.11)">
       <use xlink:href="#ArialMT-49"/>
       <use x="55.615234" xlink:href="#ArialMT-46"/>
       <use x="83.398438" xlink:href="#ArialMT-48"/>
      </g>
     </g>
    </g>
    <g id="ytick_4">
     <g id="line2d_10">
      <path clip-path="url(#p34bf25ca70)" d="M 29.675753 321.803285 
L 632.375 321.803285 
" style="fill:none;stroke:#ffffff;stroke-linecap:round;"/>
     </g>
     <g id="text_11">
      <!-- 1.5 -->
      <g style="fill:#262626;" transform="translate(26.690271 325.740082)scale(0.11 -0.11)">
       <use xlink:href="#ArialMT-49"/>
       <use x="55.615234" xlink:href="#ArialMT-46"/>
       <use x="83.398438" xlink:href="#ArialMT-53"/>
      </g>
     </g>
    </g>
    <g id="ytick_5">
     <g id="line2d_11">
      <path clip-path="url(#p34bf25ca70)" d="M 29.675753 254.028537 
L 632.375 254.028537 
" style="fill:none;stroke:#ffffff;stroke-linecap:round;"/>
     </g>
     <g id="text_12">
      <!-- 2.0 -->
      <g style="fill:#262626;" transform="translate(26.690271 257.965334)scale(0.11 -0.11)">
       <use xlink:href="#ArialMT-50"/>
       <use x="55.615234" xlink:href="#ArialMT-46"/>
       <use x="83.398438" xlink:href="#ArialMT-48"/>
      </g>
     </g>
    </g>
    <g id="ytick_6">
     <g id="line2d_12">
      <path clip-path="url(#p34bf25ca70)" d="M 29.675753 186.25379 
L 632.375 186.25379 
" style="fill:none;stroke:#ffffff;stroke-linecap:round;"/>
     </g>
     <g id="text_13">
      <!-- 2.5 -->
      <g style="fill:#262626;" transform="translate(26.690271 190.190587)scale(0.11 -0.11)">
       <use xlink:href="#ArialMT-50"/>
       <use x="55.615234" xlink:href="#ArialMT-46"/>
       <use x="83.398438" xlink:href="#ArialMT-53"/>
      </g>
     </g>
    </g>
    <g id="ytick_7">
     <g id="line2d_13">
      <path clip-path="url(#p34bf25ca70)" d="M 29.675753 118.479042 
L 632.375 118.479042 
" style="fill:none;stroke:#ffffff;stroke-linecap:round;"/>
     </g>
     <g id="text_14">
      <!-- 3.0 -->
      <g style="fill:#262626;" transform="translate(26.690271 122.415839)scale(0.11 -0.11)">
       <defs>
        <path d="M 4.203125 18.890625 
L 12.984375 20.0625 
Q 14.5 12.59375 18.140625 9.296875 
Q 21.78125 6 27 6 
Q 33.203125 6 37.46875 10.296875 
Q 41.75 14.59375 41.75 20.953125 
Q 41.75 27 37.796875 30.921875 
Q 33.84375 34.859375 27.734375 34.859375 
Q 25.25 34.859375 21.53125 33.890625 
L 22.515625 41.609375 
Q 23.390625 41.5 23.921875 41.5 
Q 29.546875 41.5 34.03125 44.421875 
Q 38.53125 47.359375 38.53125 53.46875 
Q 38.53125 58.296875 35.25 61.46875 
Q 31.984375 64.65625 26.8125 64.65625 
Q 21.6875 64.65625 18.265625 61.421875 
Q 14.84375 58.203125 13.875 51.765625 
L 5.078125 53.328125 
Q 6.6875 62.15625 12.390625 67.015625 
Q 18.109375 71.875 26.609375 71.875 
Q 32.46875 71.875 37.390625 69.359375 
Q 42.328125 66.84375 44.9375 62.5 
Q 47.5625 58.15625 47.5625 53.265625 
Q 47.5625 48.640625 45.0625 44.828125 
Q 42.578125 41.015625 37.703125 38.765625 
Q 44.046875 37.3125 47.5625 32.6875 
Q 51.078125 28.078125 51.078125 21.140625 
Q 51.078125 11.765625 44.234375 5.25 
Q 37.40625 -1.265625 26.953125 -1.265625 
Q 17.53125 -1.265625 11.296875 4.34375 
Q 5.078125 9.96875 4.203125 18.890625 
z
" id="ArialMT-51"/>
       </defs>
       <use xlink:href="#ArialMT-51"/>
       <use x="55.615234" xlink:href="#ArialMT-46"/>
       <use x="83.398438" xlink:href="#ArialMT-48"/>
      </g>
     </g>
    </g>
    <g id="ytick_8">
     <g id="line2d_14">
      <path clip-path="url(#p34bf25ca70)" d="M 29.675753 50.704295 
L 632.375 50.704295 
" style="fill:none;stroke:#ffffff;stroke-linecap:round;"/>
     </g>
     <g id="text_15">
      <!-- 3.5 -->
      <g style="fill:#262626;" transform="translate(26.690271 54.641092)scale(0.11 -0.11)">
       <use xlink:href="#ArialMT-51"/>
       <use x="55.615234" xlink:href="#ArialMT-46"/>
       <use x="83.398438" xlink:href="#ArialMT-53"/>
      </g>
     </g>
    </g>
    <g id="text_16">
     <!-- Number of predicted prophage -->
     <g style="fill:#262626;" transform="translate(20.164646 362.045303)rotate(-90)scale(0.12 -0.12)">
      <defs>
       <path d="M 6.59375 -19.875 
L 6.59375 51.859375 
L 14.59375 51.859375 
L 14.59375 45.125 
Q 17.4375 49.078125 21 51.046875 
Q 24.5625 53.03125 29.640625 53.03125 
Q 36.28125 53.03125 41.359375 49.609375 
Q 46.4375 46.1875 49.015625 39.953125 
Q 51.609375 33.734375 51.609375 26.3125 
Q 51.609375 18.359375 48.75 11.984375 
Q 45.90625 5.609375 40.453125 2.21875 
Q 35.015625 -1.171875 29 -1.171875 
Q 24.609375 -1.171875 21.109375 0.6875 
Q 17.625 2.546875 15.375 5.375 
L 15.375 -19.875 
z
M 14.546875 25.640625 
Q 14.546875 15.625 18.59375 10.84375 
Q 22.65625 6.0625 28.421875 6.0625 
Q 34.28125 6.0625 38.453125 11.015625 
Q 42.625 15.96875 42.625 26.375 
Q 42.625 36.28125 38.546875 41.203125 
Q 34.46875 46.140625 28.8125 46.140625 
Q 23.1875 46.140625 18.859375 40.890625 
Q 14.546875 35.640625 14.546875 25.640625 
z
" id="ArialMT-112"/>
       <path d="M 40.234375 0 
L 40.234375 6.546875 
Q 35.296875 -1.171875 25.734375 -1.171875 
Q 19.53125 -1.171875 14.328125 2.25 
Q 9.125 5.671875 6.265625 11.796875 
Q 3.421875 17.921875 3.421875 25.875 
Q 3.421875 33.640625 6 39.96875 
Q 8.59375 46.296875 13.765625 49.65625 
Q 18.953125 53.03125 25.34375 53.03125 
Q 30.03125 53.03125 33.6875 51.046875 
Q 37.359375 49.078125 39.65625 45.90625 
L 39.65625 71.578125 
L 48.390625 71.578125 
L 48.390625 0 
z
M 12.453125 25.875 
Q 12.453125 15.921875 16.640625 10.984375 
Q 20.84375 6.0625 26.5625 6.0625 
Q 32.328125 6.0625 36.34375 10.765625 
Q 40.375 15.484375 40.375 25.140625 
Q 40.375 35.796875 36.265625 40.765625 
Q 32.171875 45.75 26.171875 45.75 
Q 20.3125 45.75 16.375 40.96875 
Q 12.453125 36.1875 12.453125 25.875 
z
" id="ArialMT-100"/>
       <path d="M 6.59375 0 
L 6.59375 71.578125 
L 15.375 71.578125 
L 15.375 45.90625 
Q 21.53125 53.03125 30.90625 53.03125 
Q 36.671875 53.03125 40.921875 50.75 
Q 45.171875 48.484375 47 44.484375 
Q 48.828125 40.484375 48.828125 32.859375 
L 48.828125 0 
L 40.046875 0 
L 40.046875 32.859375 
Q 40.046875 39.453125 37.1875 42.453125 
Q 34.328125 45.453125 29.109375 45.453125 
Q 25.203125 45.453125 21.75 43.421875 
Q 18.3125 41.40625 16.84375 37.9375 
Q 15.375 34.46875 15.375 28.375 
L 15.375 0 
z
" id="ArialMT-104"/>
       <path d="M 40.4375 6.390625 
Q 35.546875 2.25 31.03125 0.53125 
Q 26.515625 -1.171875 21.34375 -1.171875 
Q 12.796875 -1.171875 8.203125 3 
Q 3.609375 7.171875 3.609375 13.671875 
Q 3.609375 17.484375 5.34375 20.625 
Q 7.078125 23.78125 9.890625 25.6875 
Q 12.703125 27.59375 16.21875 28.5625 
Q 18.796875 29.25 24.03125 29.890625 
Q 34.671875 31.15625 39.703125 32.90625 
Q 39.75 34.71875 39.75 35.203125 
Q 39.75 40.578125 37.25 42.78125 
Q 33.890625 45.75 27.25 45.75 
Q 21.046875 45.75 18.09375 43.578125 
Q 15.140625 41.40625 13.71875 35.890625 
L 5.125 37.0625 
Q 6.296875 42.578125 8.984375 45.96875 
Q 11.671875 49.359375 16.75 51.1875 
Q 21.828125 53.03125 28.515625 53.03125 
Q 35.15625 53.03125 39.296875 51.46875 
Q 43.453125 49.90625 45.40625 47.53125 
Q 47.359375 45.171875 48.140625 41.546875 
Q 48.578125 39.3125 48.578125 33.453125 
L 48.578125 21.734375 
Q 48.578125 9.46875 49.140625 6.21875 
Q 49.703125 2.984375 51.375 0 
L 42.1875 0 
Q 40.828125 2.734375 40.4375 6.390625 
z
M 39.703125 26.03125 
Q 34.90625 24.078125 25.34375 22.703125 
Q 19.921875 21.921875 17.671875 20.9375 
Q 15.4375 19.96875 14.203125 18.09375 
Q 12.984375 16.21875 12.984375 13.921875 
Q 12.984375 10.40625 15.640625 8.0625 
Q 18.3125 5.71875 23.4375 5.71875 
Q 28.515625 5.71875 32.46875 7.9375 
Q 36.421875 10.15625 38.28125 14.015625 
Q 39.703125 17 39.703125 22.796875 
z
" id="ArialMT-97"/>
      </defs>
      <use xlink:href="#ArialMT-78"/>
      <use x="72.216797" xlink:href="#ArialMT-117"/>
      <use x="127.832031" xlink:href="#ArialMT-109"/>
      <use x="211.132812" xlink:href="#ArialMT-98"/>
      <use x="266.748047" xlink:href="#ArialMT-101"/>
      <use x="322.363281" xlink:href="#ArialMT-114"/>
      <use x="355.664062" xlink:href="#ArialMT-32"/>
      <use x="383.447266" xlink:href="#ArialMT-111"/>
      <use x="439.0625" xlink:href="#ArialMT-102"/>
      <use x="466.845703" xlink:href="#ArialMT-32"/>
      <use x="494.628906" xlink:href="#ArialMT-112"/>
      <use x="550.244141" xlink:href="#ArialMT-114"/>
      <use x="583.544922" xlink:href="#ArialMT-101"/>
      <use x="639.160156" xlink:href="#ArialMT-100"/>
      <use x="694.775391" xlink:href="#ArialMT-105"/>
      <use x="716.992188" xlink:href="#ArialMT-99"/>
      <use x="766.992188" xlink:href="#ArialMT-116"/>
      <use x="794.775391" xlink:href="#ArialMT-101"/>
      <use x="850.390625" xlink:href="#ArialMT-100"/>
      <use x="906.005859" xlink:href="#ArialMT-32"/>
      <use x="933.789062" xlink:href="#ArialMT-112"/>
      <use x="989.404297" xlink:href="#ArialMT-114"/>
      <use x="1022.705078" xlink:href="#ArialMT-111"/>
      <use x="1078.320312" xlink:href="#ArialMT-112"/>
      <use x="1133.935547" xlink:href="#ArialMT-104"/>
      <use x="1189.550781" xlink:href="#ArialMT-97"/>
      <use x="1245.166016" xlink:href="#ArialMT-103"/>
      <use x="1300.78125" xlink:href="#ArialMT-101"/>
     </g>
    </g>
   </g>
   <g id="PolyCollection_1">
    <defs>
     <path d="M 57.071173 -243.457742 
L 57.071173 -230.655975 
L 62.662075 -184.219186 
L 68.252977 -184.800386 
L 73.843879 -180.203706 
L 79.434781 -184.137137 
L 85.025683 -160.778256 
L 90.616586 -149.996773 
L 96.207488 -152.135686 
L 101.79839 -162.287841 
L 107.389292 -172.285766 
L 112.980194 -169.186707 
L 118.571096 -162.78441 
L 124.161998 -165.234048 
L 129.7529 -161.838116 
L 135.343802 -161.57562 
L 140.934705 -153.256204 
L 146.525607 -153.863724 
L 152.116509 -142.580448 
L 157.707411 -140.81653 
L 163.298313 -141.189183 
L 168.889215 -148.530928 
L 174.480117 -142.618531 
L 180.071019 -145.355199 
L 185.661921 -142.070993 
L 191.252824 -141.797043 
L 196.843726 -147.464255 
L 202.434628 -145.051903 
L 208.02553 -145.128374 
L 213.616432 -147.513139 
L 219.207334 -150.088769 
L 224.798236 -152.31627 
L 230.389138 -151.43651 
L 235.98004 -152.455786 
L 241.570943 -155.587404 
L 247.161845 -153.134252 
L 252.752747 -154.158475 
L 258.343649 -151.718667 
L 263.934551 -147.648147 
L 269.525453 -149.245748 
L 275.116355 -149.351469 
L 280.707257 -149.01346 
L 286.298159 -149.442987 
L 291.889062 -149.970445 
L 297.479964 -149.108197 
L 303.070866 -146.503122 
L 308.661768 -148.895051 
L 314.25267 -146.106149 
L 319.843572 -148.831081 
L 325.434474 -147.499576 
L 331.025376 -147.495783 
L 336.616278 -149.050282 
L 342.20718 -151.550877 
L 347.798083 -148.368056 
L 353.388985 -155.339116 
L 358.979887 -151.641343 
L 364.570789 -155.784892 
L 370.161691 -153.431768 
L 375.752593 -154.292535 
L 381.343495 -155.10114 
L 386.934397 -154.871407 
L 392.525299 -156.085437 
L 398.116202 -153.202435 
L 403.707104 -155.311393 
L 409.298006 -154.653902 
L 414.888908 -152.184587 
L 420.47981 -155.564253 
L 426.070712 -152.1438 
L 431.661614 -153.905797 
L 437.252516 -156.498242 
L 442.843418 -153.413554 
L 448.434321 -150.454141 
L 454.025223 -152.482585 
L 459.616125 -152.17171 
L 465.207027 -152.609178 
L 470.797929 -153.129928 
L 476.388831 -151.942215 
L 481.979733 -148.417728 
L 487.570635 -149.617842 
L 493.161537 -146.736537 
L 498.75244 -148.889965 
L 504.343342 -149.865109 
L 509.934244 -147.081048 
L 515.525146 -154.399829 
L 521.116048 -147.758712 
L 526.70695 -148.355914 
L 532.297852 -148.269613 
L 537.888754 -150.724801 
L 543.479656 -148.241877 
L 549.070559 -143.085978 
L 554.661461 -147.830481 
L 560.252363 -151.373144 
L 565.843265 -147.177146 
L 571.434167 -146.693072 
L 577.025069 -150.128796 
L 582.615971 -147.482538 
L 588.206873 -147.005158 
L 593.797775 -147.0809 
L 599.388678 -145.977378 
L 604.97958 -154.735073 
L 604.97958 -169.661973 
L 604.97958 -169.661973 
L 599.388678 -159.053896 
L 593.797775 -161.336046 
L 588.206873 -160.216518 
L 582.615971 -160.844469 
L 577.025069 -163.809191 
L 571.434167 -160.699635 
L 565.843265 -160.090053 
L 560.252363 -164.230597 
L 554.661461 -159.658139 
L 549.070559 -155.85017 
L 543.479656 -160.615186 
L 537.888754 -162.928695 
L 532.297852 -160.255371 
L 526.70695 -160.262289 
L 521.116048 -159.108202 
L 515.525146 -166.981316 
L 509.934244 -157.622917 
L 504.343342 -161.21203 
L 498.75244 -160.296642 
L 493.161537 -157.722728 
L 487.570635 -160.039763 
L 481.979733 -159.216104 
L 476.388831 -162.49034 
L 470.797929 -163.915989 
L 465.207027 -162.512723 
L 459.616125 -162.697517 
L 454.025223 -162.151143 
L 448.434321 -159.4571 
L 442.843418 -162.761424 
L 437.252516 -166.341573 
L 431.661614 -163.143679 
L 426.070712 -161.485624 
L 420.47981 -164.602723 
L 414.888908 -161.129785 
L 409.298006 -163.783369 
L 403.707104 -164.373381 
L 398.116202 -161.987561 
L 392.525299 -165.211404 
L 386.934397 -162.824047 
L 381.343495 -163.100704 
L 375.752593 -162.365054 
L 370.161691 -161.040015 
L 364.570789 -164.183002 
L 358.979887 -159.012639 
L 353.388985 -163.399418 
L 347.798083 -155.846043 
L 342.20718 -159.36122 
L 336.616278 -157.30639 
L 331.025376 -155.044193 
L 325.434474 -154.47869 
L 319.843572 -156.276637 
L 314.25267 -153.049461 
L 308.661768 -156.81104 
L 303.070866 -153.206058 
L 297.479964 -156.02458 
L 291.889062 -156.980067 
L 286.298159 -156.420755 
L 280.707257 -156.284411 
L 275.116355 -156.265423 
L 269.525453 -156.187958 
L 263.934551 -154.195343 
L 258.343649 -158.575973 
L 252.752747 -161.225037 
L 247.161845 -159.873264 
L 241.570943 -163.086827 
L 235.98004 -159.283627 
L 230.389138 -158.246691 
L 224.798236 -158.759769 
L 219.207334 -156.727856 
L 213.616432 -154.232834 
L 208.02553 -151.97671 
L 202.434628 -151.933279 
L 196.843726 -154.273343 
L 191.252824 -148.986758 
L 185.661921 -149.323746 
L 180.071019 -153.008874 
L 174.480117 -150.147967 
L 168.889215 -156.887161 
L 163.298313 -149.765496 
L 157.707411 -150.119722 
L 152.116509 -151.971968 
L 146.525607 -164.270606 
L 140.934705 -165.144376 
L 135.343802 -174.7599 
L 129.7529 -175.220151 
L 124.161998 -179.773039 
L 118.571096 -180.4025 
L 112.980194 -190.572037 
L 107.389292 -201.629496 
L 101.79839 -192.745991 
L 96.207488 -178.846678 
L 90.616586 -171.795908 
L 85.025683 -184.091604 
L 79.434781 -209.019255 
L 73.843879 -205.929911 
L 68.252977 -204.631594 
L 62.662075 -199.585674 
L 57.071173 -243.457742 
z
" id="me97f18808d" style="stroke:#4c72b0;stroke-opacity:0.2;"/>
    </defs>
    <g clip-path="url(#p34bf25ca70)">
     <use style="fill:#4c72b0;fill-opacity:0.2;stroke:#4c72b0;stroke-opacity:0.2;" x="0" xlink:href="#me97f18808d" y="576"/>
    </g>
   </g>
   <g id="PolyCollection_2">
    <defs>
     <path d="M 57.071173 -215.28981 
L 57.071173 -207.962905 
L 62.662075 -224.933959 
L 68.252977 -235.143129 
L 73.843879 -239.951113 
L 79.434781 -244.495456 
L 85.025683 -224.222411 
L 90.616586 -213.886415 
L 96.207488 -198.420784 
L 101.79839 -186.741812 
L 107.389292 -166.663197 
L 112.980194 -163.614404 
L 118.571096 -154.203881 
L 124.161998 -151.222538 
L 129.7529 -149.5819 
L 135.343802 -156.175386 
L 140.934705 -162.197094 
L 146.525607 -177.665915 
L 152.116509 -187.892368 
L 157.707411 -198.058876 
L 163.298313 -214.077078 
L 168.889215 -218.875613 
L 174.480117 -227.503229 
L 180.071019 -238.605657 
L 185.661921 -237.914345 
L 191.252824 -242.383477 
L 196.843726 -251.057847 
L 202.434628 -252.91825 
L 208.02553 -259.036911 
L 213.616432 -259.520768 
L 219.207334 -266.896711 
L 224.798236 -272.900563 
L 230.389138 -278.870599 
L 235.98004 -286.205736 
L 241.570943 -290.545786 
L 247.161845 -300.525971 
L 252.752747 -299.03369 
L 258.343649 -311.967849 
L 263.934551 -310.948397 
L 269.525453 -319.119572 
L 275.116355 -322.566846 
L 280.707257 -329.986239 
L 286.298159 -337.006654 
L 291.889062 -342.152836 
L 297.479964 -347.726854 
L 303.070866 -358.512659 
L 308.661768 -359.418606 
L 314.25267 -366.760389 
L 319.843572 -371.573461 
L 325.434474 -380.525183 
L 331.025376 -387.377272 
L 336.616278 -391.005992 
L 342.20718 -390.454131 
L 347.798083 -403.164851 
L 353.388985 -408.538234 
L 358.979887 -403.390413 
L 364.570789 -405.877322 
L 370.161691 -427.004966 
L 375.752593 -424.688044 
L 381.343495 -421.721271 
L 386.934397 -429.914913 
L 392.525299 -436.927047 
L 398.116202 -434.142385 
L 403.707104 -447.093219 
L 409.298006 -439.120976 
L 414.888908 -444.233189 
L 420.47981 -442.199089 
L 426.070712 -448.997939 
L 431.661614 -448.434486 
L 437.252516 -451.079523 
L 442.843418 -452.39581 
L 448.434321 -446.194493 
L 454.025223 -448.463249 
L 459.616125 -454.447962 
L 465.207027 -467.028879 
L 470.797929 -455.464135 
L 476.388831 -453.453527 
L 481.979733 -469.165019 
L 487.570635 -476.351392 
L 493.161537 -466.374952 
L 498.75244 -470.339914 
L 504.343342 -462.263128 
L 509.934244 -473.902464 
L 515.525146 -478.538209 
L 521.116048 -482.041901 
L 526.70695 -485.283418 
L 532.297852 -481.59977 
L 537.888754 -485.933079 
L 543.479656 -488.81945 
L 549.070559 -486.971996 
L 554.661461 -493.10806 
L 560.252363 -489.870704 
L 565.843265 -480.582061 
L 571.434167 -488.935911 
L 577.025069 -505.430693 
L 582.615971 -482.494223 
L 588.206873 -487.834325 
L 593.797775 -504.48223 
L 599.388678 -489.366423 
L 604.97958 -490.432467 
L 604.97958 -524.26435 
L 604.97958 -524.26435 
L 599.388678 -524.113168 
L 593.797775 -537.484114 
L 588.206873 -519.168356 
L 582.615971 -512.982789 
L 577.025069 -538.70287 
L 571.434167 -520.750117 
L 565.843265 -511.115092 
L 560.252363 -519.598175 
L 554.661461 -522.447512 
L 549.070559 -517.609171 
L 543.479656 -521.698722 
L 537.888754 -511.919811 
L 532.297852 -509.565049 
L 526.70695 -513.390762 
L 521.116048 -508.957914 
L 515.525146 -505.555527 
L 509.934244 -501.034537 
L 504.343342 -487.123751 
L 498.75244 -496.321452 
L 493.161537 -491.534871 
L 487.570635 -502.450406 
L 481.979733 -493.368401 
L 476.388831 -476.724197 
L 470.797929 -479.187632 
L 465.207027 -490.427922 
L 459.616125 -477.91368 
L 454.025223 -470.984127 
L 448.434321 -467.484126 
L 442.843418 -473.557331 
L 437.252516 -471.169027 
L 431.661614 -467.781801 
L 426.070712 -469.062391 
L 420.47981 -462.333149 
L 414.888908 -463.220805 
L 409.298006 -458.92245 
L 403.707104 -466.654737 
L 398.116202 -451.909935 
L 392.525299 -455.372857 
L 386.934397 -447.698231 
L 381.343495 -439.12644 
L 375.752593 -441.167312 
L 370.161691 -446.354951 
L 364.570789 -422.972238 
L 358.979887 -420.496771 
L 353.388985 -425.405656 
L 347.798083 -419.554171 
L 342.20718 -406.45984 
L 336.616278 -405.774322 
L 331.025376 -402.960325 
L 325.434474 -396.607259 
L 319.843572 -385.893799 
L 314.25267 -380.569237 
L 308.661768 -373.614289 
L 303.070866 -371.278485 
L 297.479964 -359.902602 
L 291.889062 -354.734003 
L 286.298159 -348.171924 
L 280.707257 -341.904292 
L 275.116355 -334.296907 
L 269.525453 -330.362399 
L 263.934551 -321.663233 
L 258.343649 -322.300768 
L 252.752747 -309.694205 
L 247.161845 -311.435782 
L 241.570943 -301.085643 
L 235.98004 -296.752952 
L 230.389138 -289.071335 
L 224.798236 -282.74519 
L 219.207334 -276.420828 
L 213.616432 -268.696985 
L 208.02553 -268.478294 
L 202.434628 -261.854366 
L 196.843726 -260.107247 
L 191.252824 -251.787691 
L 185.661921 -248.37523 
L 180.071019 -248.695211 
L 174.480117 -238.628475 
L 168.889215 -229.055914 
L 163.298313 -224.946325 
L 157.707411 -209.977849 
L 152.116509 -200.230099 
L 146.525607 -190.533926 
L 140.934705 -174.763013 
L 135.343802 -168.302025 
L 129.7529 -164.320934 
L 124.161998 -168.42775 
L 118.571096 -174.720234 
L 112.980194 -183.830199 
L 107.389292 -188.853349 
L 101.79839 -212.349655 
L 96.207488 -225.127826 
L 90.616586 -238.824238 
L 85.025683 -249.471255 
L 79.434781 -269.260623 
L 73.843879 -261.079341 
L 68.252977 -252.910506 
L 62.662075 -238.139439 
L 57.071173 -215.28981 
z
" id="m66c6c5afc6" style="stroke:#dd8452;stroke-opacity:0.2;"/>
    </defs>
    <g clip-path="url(#p34bf25ca70)">
     <use style="fill:#dd8452;fill-opacity:0.2;stroke:#dd8452;stroke-opacity:0.2;" x="0" xlink:href="#m66c6c5afc6" y="576"/>
    </g>
   </g>
   <g id="PolyCollection_3">
    <defs>
     <path d="M 57.071173 -144.256976 
L 57.071173 -138.608302 
L 62.662075 -165.432377 
L 68.252977 -184.431844 
L 73.843879 -178.679013 
L 79.434781 -170.676319 
L 85.025683 -168.423144 
L 90.616586 -178.957788 
L 96.207488 -170.145759 
L 101.79839 -156.461804 
L 107.389292 -154.658253 
L 112.980194 -133.679478 
L 118.571096 -131.683826 
L 124.161998 -128.975223 
L 129.7529 -123.872228 
L 135.343802 -121.513726 
L 140.934705 -129.597299 
L 146.525607 -136.496747 
L 152.116509 -146.259154 
L 157.707411 -153.920176 
L 163.298313 -164.750727 
L 168.889215 -171.667824 
L 174.480117 -179.438931 
L 180.071019 -182.58116 
L 185.661921 -191.147596 
L 191.252824 -196.161125 
L 196.843726 -200.963627 
L 202.434628 -204.574254 
L 208.02553 -205.902253 
L 213.616432 -202.550785 
L 219.207334 -204.717279 
L 224.798236 -205.232027 
L 230.389138 -208.370932 
L 235.98004 -206.87527 
L 241.570943 -206.600573 
L 247.161845 -211.409462 
L 252.752747 -212.831753 
L 258.343649 -215.63097 
L 263.934551 -214.721346 
L 269.525453 -221.260361 
L 275.116355 -219.010107 
L 280.707257 -223.420649 
L 286.298159 -228.429319 
L 291.889062 -227.923786 
L 297.479964 -227.042983 
L 303.070866 -232.894056 
L 308.661768 -234.335906 
L 314.25267 -231.18454 
L 319.843572 -233.519474 
L 325.434474 -237.335276 
L 331.025376 -237.465374 
L 336.616278 -238.751054 
L 342.20718 -238.385565 
L 347.798083 -244.54201 
L 353.388985 -241.908045 
L 358.979887 -248.120309 
L 364.570789 -251.066798 
L 370.161691 -246.483584 
L 375.752593 -248.820111 
L 381.343495 -247.172903 
L 386.934397 -246.784747 
L 392.525299 -249.142935 
L 398.116202 -247.047759 
L 403.707104 -244.845851 
L 409.298006 -248.478445 
L 414.888908 -247.265166 
L 420.47981 -243.616324 
L 426.070712 -249.097791 
L 431.661614 -247.742878 
L 437.252516 -245.773456 
L 442.843418 -239.922172 
L 448.434321 -245.714869 
L 454.025223 -242.020512 
L 459.616125 -242.507709 
L 465.207027 -243.495439 
L 470.797929 -238.902455 
L 476.388831 -241.710649 
L 481.979733 -238.434588 
L 487.570635 -239.378756 
L 493.161537 -241.288384 
L 498.75244 -242.911891 
L 504.343342 -236.79415 
L 509.934244 -234.056032 
L 515.525146 -240.008675 
L 521.116048 -236.20376 
L 526.70695 -229.636955 
L 532.297852 -233.570719 
L 537.888754 -235.077725 
L 543.479656 -224.535797 
L 549.070559 -233.928112 
L 554.661461 -233.76782 
L 560.252363 -228.303125 
L 565.843265 -234.507971 
L 571.434167 -234.855877 
L 577.025069 -225.73957 
L 582.615971 -231.202311 
L 588.206873 -226.704488 
L 593.797775 -232.886154 
L 599.388678 -236.900975 
L 604.97958 -232.49808 
L 604.97958 -248.037288 
L 604.97958 -248.037288 
L 599.388678 -252.068147 
L 593.797775 -246.998766 
L 588.206873 -241.67085 
L 582.615971 -245.771028 
L 577.025069 -240.038598 
L 571.434167 -249.255147 
L 565.843265 -248.20869 
L 560.252363 -242.035192 
L 554.661461 -247.249267 
L 549.070559 -247.876883 
L 543.479656 -237.099999 
L 537.888754 -248.694826 
L 532.297852 -246.686057 
L 526.70695 -242.406256 
L 521.116048 -249.208414 
L 515.525146 -253.352594 
L 509.934244 -247.050105 
L 504.343342 -249.326936 
L 498.75244 -255.343354 
L 493.161537 -254.19798 
L 487.570635 -251.808109 
L 481.979733 -251.055086 
L 476.388831 -253.960237 
L 470.797929 -250.764787 
L 465.207027 -254.695027 
L 459.616125 -254.174789 
L 454.025223 -253.361513 
L 448.434321 -257.15936 
L 442.843418 -250.797223 
L 437.252516 -257.436664 
L 431.661614 -259.06075 
L 426.070712 -259.966501 
L 420.47981 -254.381305 
L 414.888908 -257.741308 
L 409.298006 -258.725513 
L 403.707104 -254.761647 
L 398.116202 -256.922564 
L 392.525299 -259.377573 
L 386.934397 -256.99628 
L 381.343495 -256.708076 
L 375.752593 -258.749546 
L 370.161691 -255.994081 
L 364.570789 -259.978033 
L 358.979887 -257.133429 
L 353.388985 -251.377084 
L 347.798083 -253.677479 
L 342.20718 -247.507304 
L 336.616278 -247.314662 
L 331.025376 -246.016001 
L 325.434474 -246.198127 
L 319.843572 -242.115726 
L 314.25267 -239.644813 
L 308.661768 -242.378254 
L 303.070866 -240.755114 
L 297.479964 -235.317577 
L 291.889062 -236.318866 
L 286.298159 -236.541478 
L 280.707257 -231.171836 
L 275.116355 -226.639236 
L 269.525453 -229.043182 
L 263.934551 -222.411013 
L 258.343649 -223.192087 
L 252.752747 -219.756151 
L 247.161845 -218.637992 
L 241.570943 -213.768783 
L 235.98004 -214.036118 
L 230.389138 -215.641424 
L 224.798236 -212.833231 
L 219.207334 -211.988493 
L 213.616432 -209.676724 
L 208.02553 -212.892913 
L 202.434628 -212.027088 
L 196.843726 -208.405596 
L 191.252824 -203.813321 
L 185.661921 -198.426829 
L 180.071019 -190.605948 
L 174.480117 -187.177707 
L 168.889215 -180.091186 
L 163.298313 -172.863431 
L 157.707411 -162.792848 
L 152.116509 -155.262246 
L 146.525607 -145.932482 
L 140.934705 -139.616359 
L 135.343802 -131.731008 
L 129.7529 -135.299584 
L 124.161998 -142.363949 
L 118.571096 -147.744101 
L 112.980194 -152.988153 
L 107.389292 -176.852204 
L 101.79839 -178.486573 
L 96.207488 -192.741291 
L 90.616586 -204.343462 
L 85.025683 -190.050214 
L 79.434781 -190.075985 
L 73.843879 -197.032683 
L 68.252977 -200.207255 
L 62.662075 -176.52066 
L 57.071173 -144.256976 
z
" id="m4fd1a8631a" style="stroke:#55a868;stroke-opacity:0.2;"/>
    </defs>
    <g clip-path="url(#p34bf25ca70)">
     <use style="fill:#55a868;fill-opacity:0.2;stroke:#55a868;stroke-opacity:0.2;" x="0" xlink:href="#m4fd1a8631a" y="576"/>
    </g>
   </g>
   <g id="PolyCollection_4">
    <defs>
     <path d="M 57.071173 -137.770353 
L 57.071173 -132.046245 
L 62.662075 -190.046062 
L 68.252977 -187.748716 
L 73.843879 -184.796903 
L 79.434781 -175.351522 
L 85.025683 -167.257962 
L 90.616586 -171.642893 
L 96.207488 -156.085264 
L 101.79839 -156.461804 
L 107.389292 -140.833572 
L 112.980194 -142.877016 
L 118.571096 -147.404112 
L 124.161998 -158.937512 
L 129.7529 -162.663216 
L 135.343802 -161.837559 
L 140.934705 -165.820708 
L 146.525607 -164.312935 
L 152.116509 -163.657269 
L 157.707411 -164.213069 
L 163.298313 -162.782408 
L 168.889215 -161.393047 
L 174.480117 -159.937821 
L 180.071019 -156.387581 
L 185.661921 -157.198436 
L 191.252824 -158.801922 
L 196.843726 -158.772205 
L 202.434628 -159.860835 
L 208.02553 -162.737438 
L 213.616432 -159.211401 
L 219.207334 -155.273027 
L 224.798236 -156.799576 
L 230.389138 -157.180101 
L 235.98004 -158.287566 
L 241.570943 -154.125827 
L 247.161845 -155.23218 
L 252.752747 -153.58744 
L 258.343649 -154.652481 
L 263.934551 -158.955046 
L 269.525453 -158.427644 
L 275.116355 -158.958653 
L 280.707257 -159.557001 
L 286.298159 -161.062976 
L 291.889062 -158.860773 
L 297.479964 -157.700736 
L 303.070866 -157.789262 
L 308.661768 -157.448582 
L 314.25267 -154.513714 
L 319.843572 -155.675821 
L 325.434474 -152.514032 
L 331.025376 -152.500781 
L 336.616278 -153.731352 
L 342.20718 -151.524253 
L 347.798083 -153.173978 
L 353.388985 -153.382857 
L 358.979887 -152.87937 
L 364.570789 -147.628298 
L 370.161691 -150.473885 
L 375.752593 -147.806654 
L 381.343495 -145.983461 
L 386.934397 -144.630455 
L 392.525299 -141.455215 
L 398.116202 -142.867818 
L 403.707104 -140.372744 
L 409.298006 -139.84839 
L 414.888908 -140.823189 
L 420.47981 -141.312271 
L 426.070712 -142.317206 
L 431.661614 -138.536771 
L 437.252516 -136.825751 
L 442.843418 -140.390477 
L 448.434321 -136.811172 
L 454.025223 -134.534412 
L 459.616125 -138.752705 
L 465.207027 -136.396205 
L 470.797929 -133.84576 
L 476.388831 -137.092545 
L 481.979733 -137.718914 
L 487.570635 -137.861217 
L 493.161537 -136.259037 
L 498.75244 -135.389849 
L 504.343342 -137.131242 
L 509.934244 -134.769158 
L 515.525146 -135.174292 
L 521.116048 -133.101746 
L 526.70695 -137.707437 
L 532.297852 -135.993263 
L 537.888754 -130.899947 
L 543.479656 -131.331321 
L 549.070559 -132.999153 
L 554.661461 -131.601905 
L 560.252363 -133.067379 
L 565.843265 -126.671108 
L 571.434167 -129.019603 
L 577.025069 -127.100161 
L 582.615971 -131.836273 
L 588.206873 -133.601792 
L 593.797775 -132.116649 
L 599.388678 -126.697502 
L 604.97958 -127.332414 
L 604.97958 -136.827002 
L 604.97958 -136.827002 
L 599.388678 -136.016981 
L 593.797775 -141.454385 
L 588.206873 -143.577682 
L 582.615971 -140.904796 
L 577.025069 -137.274965 
L 571.434167 -137.857156 
L 565.843265 -135.125754 
L 560.252363 -142.161484 
L 554.661461 -140.913659 
L 549.070559 -142.776213 
L 543.479656 -139.915176 
L 537.888754 -139.840887 
L 532.297852 -144.815306 
L 526.70695 -146.524164 
L 521.116048 -141.542938 
L 515.525146 -143.99808 
L 509.934244 -143.535787 
L 504.343342 -145.330465 
L 498.75244 -143.04223 
L 493.161537 -144.815662 
L 487.570635 -145.748755 
L 481.979733 -146.216548 
L 476.388831 -145.274703 
L 470.797929 -142.06371 
L 465.207027 -143.962764 
L 459.616125 -146.691187 
L 454.025223 -141.797303 
L 448.434321 -144.092757 
L 442.843418 -147.587389 
L 437.252516 -144.073884 
L 431.661614 -145.69277 
L 426.070712 -149.317061 
L 420.47981 -148.366171 
L 414.888908 -147.308546 
L 409.298006 -146.605202 
L 403.707104 -147.108341 
L 398.116202 -149.406719 
L 392.525299 -147.87508 
L 386.934397 -151.088298 
L 381.343495 -152.799326 
L 375.752593 -154.720409 
L 370.161691 -157.446792 
L 364.570789 -154.370411 
L 358.979887 -159.502811 
L 353.388985 -159.88765 
L 347.798083 -159.834818 
L 342.20718 -157.58698 
L 336.616278 -160.325989 
L 331.025376 -158.696672 
L 325.434474 -159.148236 
L 319.843572 -162.180969 
L 314.25267 -160.890737 
L 308.661768 -163.831023 
L 303.070866 -164.419507 
L 297.479964 -164.222003 
L 291.889062 -164.730086 
L 286.298159 -167.655797 
L 280.707257 -165.672496 
L 275.116355 -164.895797 
L 269.525453 -164.247673 
L 263.934551 -164.929816 
L 258.343649 -160.383339 
L 252.752747 -159.417353 
L 247.161845 -160.990994 
L 241.570943 -159.854266 
L 235.98004 -163.956991 
L 230.389138 -163.28528 
L 224.798236 -162.632948 
L 219.207334 -161.559108 
L 213.616432 -165.097166 
L 208.02553 -168.719223 
L 202.434628 -165.546748 
L 196.843726 -164.29243 
L 191.252824 -164.908864 
L 185.661921 -163.391318 
L 180.071019 -162.665701 
L 174.480117 -166.500666 
L 168.889215 -168.290689 
L 163.298313 -169.565263 
L 157.707411 -172.170268 
L 152.116509 -171.319798 
L 146.525607 -173.216534 
L 140.934705 -175.498772 
L 135.343802 -172.848896 
L 129.7529 -174.169511 
L 124.161998 -172.148934 
L 118.571096 -161.452324 
L 112.980194 -158.301279 
L 107.389292 -159.072729 
L 101.79839 -181.081771 
L 96.207488 -178.048863 
L 90.616586 -196.573251 
L 85.025683 -188.367174 
L 79.434781 -195.895029 
L 73.843879 -203.346536 
L 68.252977 -204.408626 
L 62.662075 -202.112453 
L 57.071173 -137.770353 
z
" id="mac6eff2216" style="stroke:#c44e52;stroke-opacity:0.2;"/>
    </defs>
    <g clip-path="url(#p34bf25ca70)">
     <use style="fill:#c44e52;fill-opacity:0.2;stroke:#c44e52;stroke-opacity:0.2;" x="0" xlink:href="#mac6eff2216" y="576"/>
    </g>
   </g>
   <g id="PolyCollection_5">
    <defs>
     <path d="M 57.071173 -57.483135 
L 57.071173 -56.346945 
L 62.662075 -58.004511 
L 68.252977 -57.063966 
L 73.843879 -55.93885 
L 79.434781 -56.34922 
L 85.025683 -54.885877 
L 90.616586 -55.052413 
L 96.207488 -54.190117 
L 101.79839 -53.949462 
L 107.389292 -55.279351 
L 112.980194 -53.853006 
L 118.571096 -53.547791 
L 124.161998 -53.886653 
L 129.7529 -52.526432 
L 135.343802 -52.51989 
L 140.934705 -52.796766 
L 146.525607 -53.291271 
L 152.116509 -52.993138 
L 157.707411 -52.535171 
L 163.298313 -52.414846 
L 168.889215 -52.596261 
L 174.480117 -52.383952 
L 180.071019 -52.821175 
L 185.661921 -52.637793 
L 191.252824 -52.36684 
L 196.843726 -52.331563 
L 202.434628 -52.878844 
L 208.02553 -52.505888 
L 213.616432 -52.373548 
L 219.207334 -52.397082 
L 224.798236 -52.500459 
L 230.389138 -52.713111 
L 235.98004 -52.484182 
L 241.570943 -52.593362 
L 247.161845 -52.480884 
L 252.752747 -52.680751 
L 258.343649 -52.633465 
L 263.934551 -52.467172 
L 269.525453 -52.414082 
L 275.116355 -52.731927 
L 280.707257 -52.774161 
L 286.298159 -52.869385 
L 291.889062 -52.605842 
L 297.479964 -52.502326 
L 303.070866 -52.695898 
L 308.661768 -52.710432 
L 314.25267 -52.826524 
L 319.843572 -52.596555 
L 325.434474 -53.021525 
L 331.025376 -52.549596 
L 336.616278 -52.340717 
L 342.20718 -52.538169 
L 347.798083 -52.277713 
L 353.388985 -52.627997 
L 358.979887 -52.657534 
L 364.570789 -52.286954 
L 370.161691 -52.531754 
L 375.752593 -52.181982 
L 381.343495 -52.024179 
L 386.934397 -52.780724 
L 392.525299 -52.566841 
L 398.116202 -52.358399 
L 403.707104 -52.274119 
L 409.298006 -52.489579 
L 414.888908 -52.048066 
L 420.47981 -52.121438 
L 426.070712 -52.212336 
L 431.661614 -52.689388 
L 437.252516 -53.301675 
L 442.843418 -52.788781 
L 448.434321 -52.79289 
L 454.025223 -53.238368 
L 459.616125 -52.274671 
L 465.207027 -52.774921 
L 470.797929 -52.179874 
L 476.388831 -51.960274 
L 481.979733 -52.743775 
L 487.570635 -53.118885 
L 493.161537 -52.288453 
L 498.75244 -52.968347 
L 504.343342 -53.294472 
L 509.934244 -52.750756 
L 515.525146 -53.323146 
L 521.116048 -52.58181 
L 526.70695 -52.818707 
L 532.297852 -53.674067 
L 537.888754 -53.003381 
L 543.479656 -52.828727 
L 549.070559 -53.736633 
L 554.661461 -52.955022 
L 560.252363 -52.690666 
L 565.843265 -52.706878 
L 571.434167 -52.312399 
L 577.025069 -52.522162 
L 582.615971 -52.550896 
L 588.206873 -52.691477 
L 593.797775 -52.796677 
L 599.388678 -52.966737 
L 604.97958 -53.627855 
L 604.97958 -55.77093 
L 604.97958 -55.77093 
L 599.388678 -54.773944 
L 593.797775 -54.364547 
L 588.206873 -54.37574 
L 582.615971 -54.029587 
L 577.025069 -54.103114 
L 571.434167 -53.817778 
L 565.843265 -54.344741 
L 560.252363 -54.259642 
L 554.661461 -54.608812 
L 549.070559 -55.543855 
L 543.479656 -54.469456 
L 537.888754 -54.601563 
L 532.297852 -55.581536 
L 526.70695 -54.251192 
L 521.116048 -54.065898 
L 515.525146 -54.956929 
L 509.934244 -54.315993 
L 504.343342 -54.790982 
L 498.75244 -54.333103 
L 493.161537 -53.504501 
L 487.570635 -54.600561 
L 481.979733 -54.183239 
L 476.388831 -53.000779 
L 470.797929 -53.347196 
L 465.207027 -54.029889 
L 459.616125 -53.50365 
L 454.025223 -54.543689 
L 448.434321 -54.073169 
L 442.843418 -53.962031 
L 437.252516 -54.637736 
L 431.661614 -53.900665 
L 426.070712 -53.180945 
L 420.47981 -53.039795 
L 414.888908 -53.045539 
L 409.298006 -53.531715 
L 403.707104 -53.265528 
L 398.116202 -53.382037 
L 392.525299 -53.576945 
L 386.934397 -53.830263 
L 381.343495 -52.951943 
L 375.752593 -53.156501 
L 370.161691 -53.558713 
L 364.570789 -53.15972 
L 358.979887 -53.66523 
L 353.388985 -53.664044 
L 347.798083 -53.177067 
L 342.20718 -53.467273 
L 336.616278 -53.254908 
L 331.025376 -53.49636 
L 325.434474 -54.082785 
L 319.843572 -53.563087 
L 314.25267 -53.829261 
L 308.661768 -53.705993 
L 303.070866 -53.60761 
L 297.479964 -53.416032 
L 291.889062 -53.546814 
L 286.298159 -53.759576 
L 280.707257 -53.71297 
L 275.116355 -53.613976 
L 269.525453 -53.20913 
L 263.934551 -53.347827 
L 258.343649 -53.502222 
L 252.752747 -53.609278 
L 247.161845 -53.320056 
L 241.570943 -53.489167 
L 235.98004 -53.33744 
L 230.389138 -53.585885 
L 224.798236 -53.397946 
L 219.207334 -53.242067 
L 213.616432 -53.207479 
L 208.02553 -53.395259 
L 202.434628 -53.81097 
L 196.843726 -53.207017 
L 191.252824 -53.269258 
L 185.661921 -53.561192 
L 180.071019 -53.853558 
L 174.480117 -53.321825 
L 168.889215 -53.723354 
L 163.298313 -53.49092 
L 157.707411 -53.604048 
L 152.116509 -54.334784 
L 146.525607 -54.742551 
L 140.934705 -54.324881 
L 135.343802 -54.167307 
L 129.7529 -54.180391 
L 124.161998 -56.280268 
L 118.571096 -56.22311 
L 112.980194 -56.703952 
L 107.389292 -58.926422 
L 101.79839 -57.674239 
L 96.207488 -57.507762 
L 90.616586 -58.635219 
L 85.025683 -58.251958 
L 79.434781 -60.228582 
L 73.843879 -59.188979 
L 68.252977 -60.159713 
L 62.662075 -60.1645 
L 57.071173 -57.483135 
z
" id="m36c9f3282f" style="stroke:#8172b3;stroke-opacity:0.2;"/>
    </defs>
    <g clip-path="url(#p34bf25ca70)">
     <use style="fill:#8172b3;fill-opacity:0.2;stroke:#8172b3;stroke-opacity:0.2;" x="0" xlink:href="#m36c9f3282f" y="576"/>
    </g>
   </g>
   <g id="line2d_15">
    <path clip-path="url(#p34bf25ca70)" d="M 57.071173 338.873345 
L 62.662075 383.95391 
L 68.252977 381.838665 
L 73.843879 382.982183 
L 79.434781 379.993725 
L 85.025683 403.819145 
L 90.616586 415.105526 
L 96.207488 411.221716 
L 101.79839 398.809002 
L 107.389292 389.426071 
L 112.980194 396.446219 
L 118.571096 404.180815 
L 124.161998 403.762414 
L 129.7529 407.771586 
L 135.343802 408.029106 
L 140.934705 417.08411 
L 146.525607 417.103965 
L 152.116509 428.702152 
L 157.707411 430.749608 
L 163.298313 430.540595 
L 168.889215 423.490269 
L 174.480117 429.511325 
L 180.071019 426.861308 
L 185.661921 430.31621 
L 191.252824 430.647391 
L 196.843726 424.960974 
L 202.434628 427.531891 
L 208.02553 427.290722 
L 213.616432 425.151138 
L 219.207334 422.650327 
L 224.798236 420.473782 
L 230.389138 421.145681 
L 235.98004 420.390123 
L 241.570943 416.805801 
L 247.161845 419.53179 
L 252.752747 418.39152 
L 258.343649 420.735867 
L 263.934551 425.018454 
L 269.525453 423.272632 
L 275.116355 423.215095 
L 280.707257 423.254776 
L 286.298159 423.140607 
L 291.889062 422.313954 
L 297.479964 423.508622 
L 303.070866 426.021898 
L 308.661768 422.916571 
L 314.25267 426.370773 
L 319.843572 423.511121 
L 325.434474 424.97107 
L 331.025376 424.770588 
L 336.616278 422.793615 
L 342.20718 420.54361 
L 347.798083 423.950214 
L 353.388985 416.659152 
L 358.979887 420.787814 
L 364.570789 416.061948 
L 370.161691 418.855033 
L 375.752593 417.869536 
L 381.343495 416.995053 
L 386.934397 416.961448 
L 392.525299 415.580075 
L 398.116202 418.537084 
L 403.707104 416.243507 
L 409.298006 416.961043 
L 414.888908 419.537855 
L 420.47981 416.210386 
L 426.070712 419.092242 
L 431.661614 417.437409 
L 437.252516 414.963198 
L 442.843418 417.931577 
L 448.434321 421.144901 
L 454.025223 418.662231 
L 459.616125 418.652544 
L 465.207027 418.503906 
L 470.797929 417.640467 
L 476.388831 418.995962 
L 481.979733 422.397804 
L 487.570635 421.123402 
L 493.161537 423.845026 
L 498.75244 421.357346 
L 504.343342 420.358956 
L 509.934244 423.804541 
L 515.525146 415.555176 
L 521.116048 422.595768 
L 526.70695 421.919867 
L 532.297852 421.766567 
L 537.888754 419.173992 
L 543.479656 421.509152 
L 549.070559 427.061173 
L 554.661461 422.225064 
L 560.252363 418.418351 
L 565.843265 422.46631 
L 571.434167 422.369098 
L 577.025069 419.341182 
L 582.615971 421.870904 
L 588.206873 422.387478 
L 593.797775 422.004436 
L 599.388678 423.664 
L 604.97958 413.99378 
" style="fill:none;stroke:#4c72b0;stroke-linecap:round;stroke-width:1.5;"/>
   </g>
   <g id="line2d_16">
    <path clip-path="url(#p34bf25ca70)" d="M 57.071173 364.4901 
L 62.662075 344.544301 
L 68.252977 331.864463 
L 73.843879 325.913742 
L 79.434781 319.293109 
L 85.025683 340.122534 
L 90.616586 350.167166 
L 96.207488 365.090653 
L 101.79839 376.784233 
L 107.389292 398.391789 
L 112.980194 402.536875 
L 118.571096 411.760886 
L 124.161998 415.907791 
L 129.7529 419.574843 
L 135.343802 414.157499 
L 140.934705 407.802224 
L 146.525607 391.996831 
L 152.116509 382.177342 
L 157.707411 371.921761 
L 163.298313 356.363205 
L 168.889215 351.98617 
L 174.480117 342.843082 
L 180.071019 332.349208 
L 185.661921 332.87049 
L 191.252824 328.875769 
L 196.843726 320.514422 
L 202.434628 318.375734 
L 208.02553 312.134904 
L 213.616432 311.974815 
L 219.207334 304.762844 
L 224.798236 298.23613 
L 230.389138 291.774045 
L 235.98004 284.674716 
L 241.570943 280.289779 
L 247.161845 270.112656 
L 252.752747 271.468906 
L 258.343649 258.912358 
L 263.934551 259.383873 
L 269.525453 251.69188 
L 275.116355 247.734998 
L 280.707257 239.777907 
L 286.298159 233.36169 
L 291.889062 227.854658 
L 297.479964 222.246391 
L 303.070866 211.10412 
L 308.661768 209.50908 
L 314.25267 202.117606 
L 319.843572 197.342778 
L 325.434474 187.75282 
L 331.025376 180.830187 
L 336.616278 177.846009 
L 342.20718 177.543014 
L 347.798083 164.823873 
L 353.388985 159.287786 
L 358.979887 164.170854 
L 364.570789 161.695977 
L 370.161691 139.54641 
L 375.752593 143.207461 
L 381.343495 145.544153 
L 386.934397 137.211715 
L 392.525299 129.655359 
L 398.116202 132.842996 
L 403.707104 119.128586 
L 409.298006 126.852062 
L 414.888908 122.540183 
L 420.47981 124.136121 
L 426.070712 117.064742 
L 431.661614 117.759846 
L 437.252516 114.916212 
L 442.843418 113.473175 
L 448.434321 119.999373 
L 454.025223 116.684225 
L 459.616125 109.620745 
L 465.207027 97.162965 
L 470.797929 108.533454 
L 476.388831 110.438772 
L 481.979733 95.111749 
L 487.570635 87.124857 
L 493.161537 97.068498 
L 498.75244 92.402458 
L 504.343342 101.361343 
L 509.934244 88.322149 
L 515.525146 84.224067 
L 521.116048 80.15794 
L 526.70695 77.092942 
L 532.297852 80.806535 
L 537.888754 77.103891 
L 543.479656 70.645468 
L 549.070559 74.582674 
L 554.661461 68.865354 
L 560.252363 71.644873 
L 565.843265 80.28409 
L 571.434167 71.026901 
L 577.025069 53.659989 
L 582.615971 77.659779 
L 588.206873 73.003938 
L 593.797775 55.265371 
L 599.388678 69.877652 
L 604.97958 68.958702 
" style="fill:none;stroke:#dd8452;stroke-linecap:round;stroke-width:1.5;"/>
   </g>
   <g id="line2d_17">
    <path clip-path="url(#p34bf25ca70)" d="M 57.071173 434.605662 
L 62.662075 405.146255 
L 68.252977 383.828788 
L 73.843879 388.430928 
L 79.434781 395.625274 
L 85.025683 397.345912 
L 90.616586 383.905256 
L 96.207488 394.791475 
L 101.79839 408.525811 
L 107.389292 411.004578 
L 112.980194 432.60139 
L 118.571096 436.73053 
L 124.161998 440.553153 
L 129.7529 446.564454 
L 135.343802 449.609919 
L 140.934705 441.420762 
L 146.525607 434.809574 
L 152.116509 425.28312 
L 157.707411 417.408434 
L 163.298313 407.261521 
L 168.889215 399.987067 
L 174.480117 392.540533 
L 180.071019 389.377431 
L 185.661921 381.158809 
L 191.252824 376.077189 
L 196.843726 371.315085 
L 202.434628 367.818457 
L 208.02553 366.590106 
L 213.616432 369.968745 
L 219.207334 367.740936 
L 224.798236 366.966781 
L 230.389138 363.849067 
L 235.98004 365.615707 
L 241.570943 365.768469 
L 247.161845 361.022894 
L 252.752747 359.527302 
L 258.343649 356.565285 
L 263.934551 357.46982 
L 269.525453 350.976452 
L 275.116355 353.032592 
L 280.707257 348.655613 
L 286.298159 343.552796 
L 291.889062 343.74279 
L 297.479964 344.954615 
L 303.070866 339.335273 
L 308.661768 337.78332 
L 314.25267 340.726735 
L 319.843572 338.14289 
L 325.434474 334.25983 
L 331.025376 334.178838 
L 336.616278 332.842826 
L 342.20718 332.971646 
L 347.798083 326.707574 
L 353.388985 329.51608 
L 358.979887 323.329224 
L 364.570789 320.388803 
L 370.161691 324.806441 
L 375.752593 322.123049 
L 381.343495 324.026719 
L 386.934397 323.775145 
L 392.525299 321.705533 
L 398.116202 324.065195 
L 403.707104 326.127878 
L 409.298006 322.270449 
L 414.888908 323.566675 
L 420.47981 327.350161 
L 426.070712 321.170572 
L 431.661614 322.389997 
L 437.252516 324.353947 
L 442.843418 330.837311 
L 448.434321 324.603894 
L 454.025223 328.105541 
L 459.616125 327.789214 
L 465.207027 326.970164 
L 470.797929 331.071826 
L 476.388831 328.235501 
L 481.979733 331.471683 
L 487.570635 330.024199 
L 493.161537 328.180894 
L 498.75244 326.701783 
L 504.343342 333.275237 
L 509.934244 335.525193 
L 515.525146 329.618212 
L 521.116048 333.179862 
L 526.70695 340.235269 
L 532.297852 336.049692 
L 537.888754 333.819245 
L 543.479656 344.899707 
L 549.070559 335.221253 
L 554.661461 335.615491 
L 560.252363 340.674884 
L 565.843265 335.004456 
L 571.434167 334.140842 
L 577.025069 343.524198 
L 582.615971 337.815447 
L 588.206873 342.149183 
L 593.797775 335.914116 
L 599.388678 331.299693 
L 604.97958 335.84808 
" style="fill:none;stroke:#55a868;stroke-linecap:round;stroke-width:1.5;"/>
   </g>
   <g id="line2d_18">
    <path clip-path="url(#p34bf25ca70)" d="M 57.071173 440.951524 
L 62.662075 379.756196 
L 68.252977 379.406292 
L 73.843879 381.835078 
L 79.434781 390.262626 
L 85.025683 398.770023 
L 90.616586 391.96657 
L 96.207488 409.483902 
L 101.79839 407.392184 
L 107.389292 425.744826 
L 112.980194 425.085262 
L 118.571096 421.793332 
L 124.161998 410.588648 
L 129.7529 407.621227 
L 135.343802 408.55628 
L 140.934705 405.708139 
L 146.525607 407.138513 
L 152.116509 408.534188 
L 157.707411 407.986477 
L 163.298313 409.844099 
L 168.889215 411.291146 
L 174.480117 412.76413 
L 180.071019 416.458672 
L 185.661921 415.78626 
L 191.252824 414.132047 
L 196.843726 414.406887 
L 202.434628 413.320094 
L 208.02553 410.211918 
L 213.616432 413.785852 
L 219.207334 417.583933 
L 224.798236 416.225321 
L 230.389138 415.718856 
L 235.98004 414.986156 
L 241.570943 418.951019 
L 247.161845 418.01662 
L 252.752747 419.486004 
L 258.343649 418.622676 
L 263.934551 414.093569 
L 269.525453 414.697099 
L 275.116355 414.156212 
L 280.707257 413.337108 
L 286.298159 411.71249 
L 291.889062 414.266167 
L 297.479964 415.038322 
L 303.070866 415.007423 
L 308.661768 415.360517 
L 314.25267 418.554565 
L 319.843572 417.16336 
L 325.434474 420.274992 
L 331.025376 420.361374 
L 336.616278 419.136854 
L 342.20718 421.581257 
L 347.798083 419.48155 
L 353.388985 419.393166 
L 358.979887 419.924075 
L 364.570789 425.00027 
L 370.161691 421.994011 
L 375.752593 424.660715 
L 381.343495 426.688586 
L 386.934397 428.156526 
L 392.525299 431.318153 
L 398.116202 430.028247 
L 403.707104 432.208605 
L 409.298006 432.700884 
L 414.888908 432.006271 
L 420.47981 431.08777 
L 426.070712 430.146113 
L 431.661614 433.865357 
L 437.252516 435.368498 
L 442.843418 431.932361 
L 448.434321 435.548035 
L 454.025223 437.793351 
L 459.616125 433.343285 
L 465.207027 435.842135 
L 470.797929 437.905186 
L 476.388831 434.650841 
L 481.979733 434.249388 
L 487.570635 434.123917 
L 493.161537 435.436077 
L 498.75244 436.954555 
L 504.343342 434.640892 
L 509.934244 436.900354 
L 515.525146 436.630971 
L 521.116048 438.505869 
L 526.70695 434.112453 
L 532.297852 435.655324 
L 537.888754 440.542275 
L 543.479656 440.566856 
L 549.070559 438.206492 
L 554.661461 439.681732 
L 560.252363 438.293092 
L 565.843265 445.396384 
L 571.434167 442.397174 
L 577.025069 444.017789 
L 582.615971 439.796469 
L 588.206873 437.545846 
L 593.797775 439.607341 
L 599.388678 444.895514 
L 604.97958 443.920292 
" style="fill:none;stroke:#c44e52;stroke-linecap:round;stroke-width:1.5;"/>
   </g>
   <g id="line2d_19">
    <path clip-path="url(#p34bf25ca70)" d="M 57.071173 519.077183 
L 62.662075 517.01738 
L 68.252977 517.461868 
L 73.843879 518.436086 
L 79.434781 517.825198 
L 85.025683 519.431083 
L 90.616586 519.156184 
L 96.207488 520.230052 
L 101.79839 520.269123 
L 107.389292 519.049075 
L 112.980194 520.721521 
L 118.571096 521.114549 
L 124.161998 520.960866 
L 129.7529 522.721768 
L 135.343802 522.68935 
L 140.934705 522.524072 
L 146.525607 522.031465 
L 152.116509 522.357678 
L 157.707411 522.950185 
L 163.298313 523.047117 
L 168.889215 522.873342 
L 174.480117 523.132375 
L 180.071019 522.691649 
L 185.661921 522.927666 
L 191.252824 523.195155 
L 196.843726 523.23071 
L 202.434628 522.667334 
L 208.02553 523.061737 
L 213.616432 523.2214 
L 219.207334 523.180719 
L 224.798236 523.097708 
L 230.389138 522.850199 
L 235.98004 523.112891 
L 241.570943 522.958736 
L 247.161845 523.12284 
L 252.752747 522.86718 
L 258.343649 522.943896 
L 263.934551 523.080599 
L 269.525453 523.211469 
L 275.116355 522.838968 
L 280.707257 522.768471 
L 286.298159 522.697549 
L 291.889062 522.89891 
L 297.479964 523.053168 
L 303.070866 522.860566 
L 308.661768 522.804551 
L 314.25267 522.684963 
L 319.843572 522.907118 
L 325.434474 522.474376 
L 331.025376 522.963497 
L 336.616278 523.216039 
L 342.20718 522.99762 
L 347.798083 523.27261 
L 353.388985 522.85398 
L 358.979887 522.881805 
L 364.570789 523.291711 
L 370.161691 522.984572 
L 375.752593 523.330758 
L 381.343495 523.527935 
L 386.934397 522.710409 
L 392.525299 522.911815 
L 398.116202 523.146293 
L 403.707104 523.24727 
L 409.298006 523.007321 
L 414.888908 523.453197 
L 420.47981 523.437751 
L 426.070712 523.303825 
L 431.661614 522.742826 
L 437.252516 522.050538 
L 442.843418 522.663702 
L 448.434321 522.606979 
L 454.025223 522.108971 
L 459.616125 523.154145 
L 465.207027 522.619754 
L 470.797929 523.259812 
L 476.388831 523.519474 
L 481.979733 522.536493 
L 487.570635 522.164175 
L 493.161537 523.153506 
L 498.75244 522.398016 
L 504.343342 521.982408 
L 509.934244 522.5188 
L 515.525146 521.914422 
L 521.116048 522.732459 
L 526.70695 522.437145 
L 532.297852 521.372199 
L 537.888754 522.227124 
L 543.479656 522.350909 
L 549.070559 521.329402 
L 554.661461 522.248709 
L 560.252363 522.556978 
L 565.843265 522.506948 
L 571.434167 522.967637 
L 577.025069 522.72173 
L 582.615971 522.710598 
L 588.206873 522.500077 
L 593.797775 522.419388 
L 599.388678 522.16667 
L 604.97958 521.377146 
" style="fill:none;stroke:#8172b3;stroke-linecap:round;stroke-width:1.5;"/>
   </g>
   <g id="patch_3">
    <path d="M 51.480271 548.376856 
L 51.480271 12.96 
" style="fill:none;stroke:#808080;stroke-linecap:square;stroke-linejoin:miter;stroke-width:1.25;"/>
   </g>
   <g id="patch_4">
    <path d="M 632.375 548.376856 
L 632.375 12.96 
" style="fill:none;"/>
   </g>
   <g id="patch_5">
    <path d="M 29.675753 525.127528 
L 632.375 525.127528 
" style="fill:none;stroke:#808080;stroke-linecap:square;stroke-linejoin:miter;stroke-width:1.25;"/>
   </g>
   <g id="patch_6">
    <path d="M 29.675753 12.96 
L 632.375 12.96 
" style="fill:none;"/>
   </g>
   <g id="legend_1">
    <g id="patch_7">
     <path d="M 664.709962 111.34125 
L 775.71715 111.34125 
Q 777.91715 111.34125 777.91715 109.14125 
L 777.91715 15.16 
Q 777.91715 12.96 775.71715 12.96 
L 664.709962 12.96 
Q 662.509962 12.96 662.509962 15.16 
L 662.509962 109.14125 
Q 662.509962 111.34125 664.709962 111.34125 
z
" style="fill:#eaeaf2;opacity:0.8;stroke:#cccccc;stroke-linejoin:miter;"/>
    </g>
    <g id="text_17">
     <!-- CheckV quality -->
     <g style="fill:#262626;" transform="translate(680.195431 26.095625)scale(0.12 -0.12)">
      <defs>
       <path d="M 58.796875 25.09375 
L 68.265625 22.703125 
Q 65.28125 11.03125 57.546875 4.90625 
Q 49.8125 -1.21875 38.625 -1.21875 
Q 27.046875 -1.21875 19.796875 3.484375 
Q 12.546875 8.203125 8.765625 17.140625 
Q 4.984375 26.078125 4.984375 36.328125 
Q 4.984375 47.515625 9.25 55.828125 
Q 13.53125 64.15625 21.40625 68.46875 
Q 29.296875 72.796875 38.765625 72.796875 
Q 49.515625 72.796875 56.828125 67.328125 
Q 64.15625 61.859375 67.046875 51.953125 
L 57.71875 49.75 
Q 55.21875 57.5625 50.484375 61.125 
Q 45.75 64.703125 38.578125 64.703125 
Q 30.328125 64.703125 24.78125 60.734375 
Q 19.234375 56.78125 16.984375 50.109375 
Q 14.75 43.453125 14.75 36.375 
Q 14.75 27.25 17.40625 20.4375 
Q 20.0625 13.625 25.671875 10.25 
Q 31.296875 6.890625 37.84375 6.890625 
Q 45.796875 6.890625 51.3125 11.46875 
Q 56.84375 16.0625 58.796875 25.09375 
z
" id="ArialMT-67"/>
       <path d="M 6.640625 0 
L 6.640625 71.578125 
L 15.4375 71.578125 
L 15.4375 30.765625 
L 36.234375 51.859375 
L 47.609375 51.859375 
L 27.78125 32.625 
L 49.609375 0 
L 38.765625 0 
L 21.625 26.515625 
L 15.4375 20.5625 
L 15.4375 0 
z
" id="ArialMT-107"/>
       <path d="M 28.171875 0 
L 0.4375 71.578125 
L 10.6875 71.578125 
L 29.296875 19.578125 
Q 31.546875 13.328125 33.0625 7.859375 
Q 34.71875 13.71875 36.921875 19.578125 
L 56.25 71.578125 
L 65.921875 71.578125 
L 37.890625 0 
z
" id="ArialMT-86"/>
       <path d="M 39.65625 -19.875 
L 39.65625 5.515625 
Q 37.59375 2.640625 33.90625 0.734375 
Q 30.21875 -1.171875 26.078125 -1.171875 
Q 16.84375 -1.171875 10.171875 6.203125 
Q 3.515625 13.578125 3.515625 26.421875 
Q 3.515625 34.234375 6.21875 40.421875 
Q 8.9375 46.625 14.078125 49.828125 
Q 19.234375 53.03125 25.390625 53.03125 
Q 35.015625 53.03125 40.53125 44.921875 
L 40.53125 51.859375 
L 48.4375 51.859375 
L 48.4375 -19.875 
z
M 12.546875 26.078125 
Q 12.546875 16.0625 16.75 11.0625 
Q 20.953125 6.0625 26.8125 6.0625 
Q 32.421875 6.0625 36.46875 10.8125 
Q 40.53125 15.578125 40.53125 25.296875 
Q 40.53125 35.640625 36.25 40.859375 
Q 31.984375 46.09375 26.21875 46.09375 
Q 20.515625 46.09375 16.53125 41.234375 
Q 12.546875 36.375 12.546875 26.078125 
z
" id="ArialMT-113"/>
       <path d="M 6.390625 0 
L 6.390625 71.578125 
L 15.1875 71.578125 
L 15.1875 0 
z
" id="ArialMT-108"/>
       <path d="M 6.203125 -19.96875 
L 5.21875 -11.71875 
Q 8.109375 -12.5 10.25 -12.5 
Q 13.1875 -12.5 14.9375 -11.515625 
Q 16.703125 -10.546875 17.828125 -8.796875 
Q 18.65625 -7.46875 20.515625 -2.25 
Q 20.75 -1.515625 21.296875 -0.09375 
L 1.609375 51.859375 
L 11.078125 51.859375 
L 21.875 21.828125 
Q 23.96875 16.109375 25.640625 9.8125 
Q 27.15625 15.875 29.25 21.625 
L 40.328125 51.859375 
L 49.125 51.859375 
L 29.390625 -0.875 
Q 26.21875 -9.421875 24.46875 -12.640625 
Q 22.125 -17 19.09375 -19.015625 
Q 16.0625 -21.046875 11.859375 -21.046875 
Q 9.328125 -21.046875 6.203125 -19.96875 
z
" id="ArialMT-121"/>
      </defs>
      <use xlink:href="#ArialMT-67"/>
      <use x="72.216797" xlink:href="#ArialMT-104"/>
      <use x="127.832031" xlink:href="#ArialMT-101"/>
      <use x="183.447266" xlink:href="#ArialMT-99"/>
      <use x="233.447266" xlink:href="#ArialMT-107"/>
      <use x="283.447266" xlink:href="#ArialMT-86"/>
      <use x="350.146484" xlink:href="#ArialMT-32"/>
      <use x="377.929688" xlink:href="#ArialMT-113"/>
      <use x="433.544922" xlink:href="#ArialMT-117"/>
      <use x="489.160156" xlink:href="#ArialMT-97"/>
      <use x="544.775391" xlink:href="#ArialMT-108"/>
      <use x="566.992188" xlink:href="#ArialMT-105"/>
      <use x="589.208984" xlink:href="#ArialMT-116"/>
      <use x="616.992188" xlink:href="#ArialMT-121"/>
     </g>
    </g>
    <g id="line2d_20">
     <path d="M 666.909962 38.144844 
L 688.909962 38.144844 
" style="fill:none;stroke:#4c72b0;stroke-linecap:round;stroke-width:1.5;"/>
    </g>
    <g id="line2d_21"/>
    <g id="text_18">
     <!-- Not-determined -->
     <g style="fill:#262626;" transform="translate(697.709962 41.994844)scale(0.11 -0.11)">
      <defs>
       <path d="M 3.171875 21.484375 
L 3.171875 30.328125 
L 30.171875 30.328125 
L 30.171875 21.484375 
z
" id="ArialMT-45"/>
      </defs>
      <use xlink:href="#ArialMT-78"/>
      <use x="72.216797" xlink:href="#ArialMT-111"/>
      <use x="127.832031" xlink:href="#ArialMT-116"/>
      <use x="155.615234" xlink:href="#ArialMT-45"/>
      <use x="188.916016" xlink:href="#ArialMT-100"/>
      <use x="244.53125" xlink:href="#ArialMT-101"/>
      <use x="300.146484" xlink:href="#ArialMT-116"/>
      <use x="327.929688" xlink:href="#ArialMT-101"/>
      <use x="383.544922" xlink:href="#ArialMT-114"/>
      <use x="416.845703" xlink:href="#ArialMT-109"/>
      <use x="500.146484" xlink:href="#ArialMT-105"/>
      <use x="522.363281" xlink:href="#ArialMT-110"/>
      <use x="577.978516" xlink:href="#ArialMT-101"/>
      <use x="633.59375" xlink:href="#ArialMT-100"/>
     </g>
    </g>
    <g id="line2d_22">
     <path d="M 666.909962 53.704688 
L 688.909962 53.704688 
" style="fill:none;stroke:#dd8452;stroke-linecap:round;stroke-width:1.5;"/>
    </g>
    <g id="line2d_23"/>
    <g id="text_19">
     <!-- Low-quality -->
     <g style="fill:#262626;" transform="translate(697.709962 57.554688)scale(0.11 -0.11)">
      <defs>
       <path d="M 7.328125 0 
L 7.328125 71.578125 
L 16.796875 71.578125 
L 16.796875 8.453125 
L 52.046875 8.453125 
L 52.046875 0 
z
" id="ArialMT-76"/>
       <path d="M 16.15625 0 
L 0.296875 51.859375 
L 9.375 51.859375 
L 17.625 21.921875 
L 20.703125 10.796875 
Q 20.90625 11.625 23.390625 21.484375 
L 31.640625 51.859375 
L 40.671875 51.859375 
L 48.4375 21.78125 
L 51.03125 11.859375 
L 54 21.875 
L 62.890625 51.859375 
L 71.4375 51.859375 
L 55.21875 0 
L 46.09375 0 
L 37.84375 31.0625 
L 35.84375 39.890625 
L 25.34375 0 
z
" id="ArialMT-119"/>
      </defs>
      <use xlink:href="#ArialMT-76"/>
      <use x="55.615234" xlink:href="#ArialMT-111"/>
      <use x="111.230469" xlink:href="#ArialMT-119"/>
      <use x="183.447266" xlink:href="#ArialMT-45"/>
      <use x="216.748047" xlink:href="#ArialMT-113"/>
      <use x="272.363281" xlink:href="#ArialMT-117"/>
      <use x="327.978516" xlink:href="#ArialMT-97"/>
      <use x="383.59375" xlink:href="#ArialMT-108"/>
      <use x="405.810547" xlink:href="#ArialMT-105"/>
      <use x="428.027344" xlink:href="#ArialMT-116"/>
      <use x="455.810547" xlink:href="#ArialMT-121"/>
     </g>
    </g>
    <g id="line2d_24">
     <path d="M 666.909962 69.393438 
L 688.909962 69.393438 
" style="fill:none;stroke:#55a868;stroke-linecap:round;stroke-width:1.5;"/>
    </g>
    <g id="line2d_25"/>
    <g id="text_20">
     <!-- Medium-quality -->
     <g style="fill:#262626;" transform="translate(697.709962 73.243438)scale(0.11 -0.11)">
      <defs>
       <path d="M 7.421875 0 
L 7.421875 71.578125 
L 21.6875 71.578125 
L 38.625 20.90625 
Q 40.96875 13.8125 42.046875 10.296875 
Q 43.265625 14.203125 45.84375 21.78125 
L 62.984375 71.578125 
L 75.734375 71.578125 
L 75.734375 0 
L 66.609375 0 
L 66.609375 59.90625 
L 45.796875 0 
L 37.25 0 
L 16.546875 60.9375 
L 16.546875 0 
z
" id="ArialMT-77"/>
      </defs>
      <use xlink:href="#ArialMT-77"/>
      <use x="83.300781" xlink:href="#ArialMT-101"/>
      <use x="138.916016" xlink:href="#ArialMT-100"/>
      <use x="194.53125" xlink:href="#ArialMT-105"/>
      <use x="216.748047" xlink:href="#ArialMT-117"/>
      <use x="272.363281" xlink:href="#ArialMT-109"/>
      <use x="355.664062" xlink:href="#ArialMT-45"/>
      <use x="388.964844" xlink:href="#ArialMT-113"/>
      <use x="444.580078" xlink:href="#ArialMT-117"/>
      <use x="500.195312" xlink:href="#ArialMT-97"/>
      <use x="555.810547" xlink:href="#ArialMT-108"/>
      <use x="578.027344" xlink:href="#ArialMT-105"/>
      <use x="600.244141" xlink:href="#ArialMT-116"/>
      <use x="628.027344" xlink:href="#ArialMT-121"/>
     </g>
    </g>
    <g id="line2d_26">
     <path d="M 666.909962 85.082188 
L 688.909962 85.082188 
" style="fill:none;stroke:#c44e52;stroke-linecap:round;stroke-width:1.5;"/>
    </g>
    <g id="line2d_27"/>
    <g id="text_21">
     <!-- High-quality -->
     <g style="fill:#262626;" transform="translate(697.709962 88.932188)scale(0.11 -0.11)">
      <defs>
       <path d="M 8.015625 0 
L 8.015625 71.578125 
L 17.484375 71.578125 
L 17.484375 42.1875 
L 54.6875 42.1875 
L 54.6875 71.578125 
L 64.15625 71.578125 
L 64.15625 0 
L 54.6875 0 
L 54.6875 33.734375 
L 17.484375 33.734375 
L 17.484375 0 
z
" id="ArialMT-72"/>
      </defs>
      <use xlink:href="#ArialMT-72"/>
      <use x="72.216797" xlink:href="#ArialMT-105"/>
      <use x="94.433594" xlink:href="#ArialMT-103"/>
      <use x="150.048828" xlink:href="#ArialMT-104"/>
      <use x="205.664062" xlink:href="#ArialMT-45"/>
      <use x="238.964844" xlink:href="#ArialMT-113"/>
      <use x="294.580078" xlink:href="#ArialMT-117"/>
      <use x="350.195312" xlink:href="#ArialMT-97"/>
      <use x="405.810547" xlink:href="#ArialMT-108"/>
      <use x="428.027344" xlink:href="#ArialMT-105"/>
      <use x="450.244141" xlink:href="#ArialMT-116"/>
      <use x="478.027344" xlink:href="#ArialMT-121"/>
     </g>
    </g>
    <g id="line2d_28">
     <path d="M 666.909962 100.905 
L 688.909962 100.905 
" style="fill:none;stroke:#8172b3;stroke-linecap:round;stroke-width:1.5;"/>
    </g>
    <g id="line2d_29"/>
    <g id="text_22">
     <!-- Complete -->
     <g style="fill:#262626;" transform="translate(697.709962 104.755)scale(0.11 -0.11)">
      <use xlink:href="#ArialMT-67"/>
      <use x="72.216797" xlink:href="#ArialMT-111"/>
      <use x="127.832031" xlink:href="#ArialMT-109"/>
      <use x="211.132812" xlink:href="#ArialMT-112"/>
      <use x="266.748047" xlink:href="#ArialMT-108"/>
      <use x="288.964844" xlink:href="#ArialMT-101"/>
      <use x="344.580078" xlink:href="#ArialMT-116"/>
      <use x="372.363281" xlink:href="#ArialMT-101"/>
     </g>
    </g>
   </g>
  </g>
 </g>
 <defs>
  <clipPath id="p34bf25ca70">
   <rect height="535.416856" width="602.699247" x="29.675753" y="12.96"/>
  </clipPath>
 </defs>
</svg>
