<?xml version="1.0" encoding="utf-8" standalone="no"?>
<!DOCTYPE svg PUBLIC "-//W3C//DTD SVG 1.1//EN"
  "http://www.w3.org/Graphics/SVG/1.1/DTD/svg11.dtd">
<!-- Created with matplotlib (https://matplotlib.org/) -->
<svg height="576pt" version="1.1" viewBox="0 0 792 576" width="792pt" xmlns="http://www.w3.org/2000/svg" xmlns:xlink="http://www.w3.org/1999/xlink">
 <metadata>
  <rdf:RDF xmlns:cc="http://creativecommons.org/ns#" xmlns:dc="http://purl.org/dc/elements/1.1/" xmlns:rdf="http://www.w3.org/1999/02/22-rdf-syntax-ns#">
   <cc:Work>
    <dc:type rdf:resource="http://purl.org/dc/dcmitype/StillImage"/>
    <dc:date>2021-05-05T08:20:09.602505</dc:date>
    <dc:format>image/svg+xml</dc:format>
    <dc:creator>
     <cc:Agent>
      <dc:title>Matplotlib v3.3.4, https://matplotlib.org/</dc:title>
     </cc:Agent>
    </dc:creator>
   </cc:Work>
  </rdf:RDF>
 </metadata>
 <defs>
  <style type="text/css">*{stroke-linecap:butt;stroke-linejoin:round;}</style>
 </defs>
 <g id="figure_1">
  <g id="patch_1">
   <path d="M 0 576 
L 792 576 
L 792 0 
L 0 0 
z
" style="fill:#ffffff;"/>
  </g>
  <g id="axes_1">
   <g id="patch_2">
    <path d="M 73.335 529.493125 
L 772.915 529.493125 
L 772.915 12.96 
L 73.335 12.96 
z
" style="fill:#eaeaf2;"/>
   </g>
   <g id="matplotlib.axis_1">
    <g id="xtick_1">
     <g id="text_1">
      <!-- 0 -->
      <g style="fill:#262626;" transform="translate(70.276484 546.866719)scale(0.11 -0.11)">
       <defs>
        <path d="M 4.15625 35.296875 
Q 4.15625 48 6.765625 55.734375 
Q 9.375 63.484375 14.515625 67.671875 
Q 19.671875 71.875 27.484375 71.875 
Q 33.25 71.875 37.59375 69.546875 
Q 41.9375 67.234375 44.765625 62.859375 
Q 47.609375 58.5 49.21875 52.21875 
Q 50.828125 45.953125 50.828125 35.296875 
Q 50.828125 22.703125 48.234375 14.96875 
Q 45.65625 7.234375 40.5 3 
Q 35.359375 -1.21875 27.484375 -1.21875 
Q 17.140625 -1.21875 11.234375 6.203125 
Q 4.15625 15.140625 4.15625 35.296875 
z
M 13.1875 35.296875 
Q 13.1875 17.671875 17.3125 11.828125 
Q 21.4375 6 27.484375 6 
Q 33.546875 6 37.671875 11.859375 
Q 41.796875 17.71875 41.796875 35.296875 
Q 41.796875 52.984375 37.671875 58.78125 
Q 33.546875 64.59375 27.390625 64.59375 
Q 21.34375 64.59375 17.71875 59.46875 
Q 13.1875 52.9375 13.1875 35.296875 
z
" id="ArialMT-48"/>
       </defs>
       <use xlink:href="#ArialMT-48"/>
      </g>
     </g>
    </g>
    <g id="xtick_2">
     <g id="text_2">
      <!-- 5 -->
      <g style="fill:#262626;" transform="translate(84.268084 546.866719)scale(0.11 -0.11)">
       <defs>
        <path d="M 4.15625 18.75 
L 13.375 19.53125 
Q 14.40625 12.796875 18.140625 9.390625 
Q 21.875 6 27.15625 6 
Q 33.5 6 37.890625 10.78125 
Q 42.28125 15.578125 42.28125 23.484375 
Q 42.28125 31 38.0625 35.34375 
Q 33.84375 39.703125 27 39.703125 
Q 22.75 39.703125 19.328125 37.765625 
Q 15.921875 35.84375 13.96875 32.765625 
L 5.71875 33.84375 
L 12.640625 70.609375 
L 48.25 70.609375 
L 48.25 62.203125 
L 19.671875 62.203125 
L 15.828125 42.96875 
Q 22.265625 47.46875 29.34375 47.46875 
Q 38.71875 47.46875 45.15625 40.96875 
Q 51.609375 34.46875 51.609375 24.265625 
Q 51.609375 14.546875 45.953125 7.46875 
Q 39.0625 -1.21875 27.15625 -1.21875 
Q 17.390625 -1.21875 11.203125 4.25 
Q 5.03125 9.71875 4.15625 18.75 
z
" id="ArialMT-53"/>
       </defs>
       <use xlink:href="#ArialMT-53"/>
      </g>
     </g>
    </g>
    <g id="xtick_3">
     <g id="text_3">
      <!-- 10 -->
      <g style="fill:#262626;" transform="translate(95.201169 546.866719)scale(0.11 -0.11)">
       <defs>
        <path d="M 37.25 0 
L 28.46875 0 
L 28.46875 56 
Q 25.296875 52.984375 20.140625 49.953125 
Q 14.984375 46.921875 10.890625 45.40625 
L 10.890625 53.90625 
Q 18.265625 57.375 23.78125 62.296875 
Q 29.296875 67.234375 31.59375 71.875 
L 37.25 71.875 
z
" id="ArialMT-49"/>
       </defs>
       <use xlink:href="#ArialMT-49"/>
       <use x="55.615234" xlink:href="#ArialMT-48"/>
      </g>
     </g>
    </g>
    <g id="xtick_4">
     <g id="text_4">
      <!-- 11 -->
      <g style="fill:#262626;" transform="translate(109.598394 546.866719)scale(0.11 -0.11)">
       <use xlink:href="#ArialMT-49"/>
       <use x="48.240234" xlink:href="#ArialMT-49"/>
      </g>
     </g>
    </g>
    <g id="xtick_5">
     <g id="text_5">
      <!-- 12 -->
      <g style="fill:#262626;" transform="translate(123.184369 546.866719)scale(0.11 -0.11)">
       <defs>
        <path d="M 50.34375 8.453125 
L 50.34375 0 
L 3.03125 0 
Q 2.9375 3.171875 4.046875 6.109375 
Q 5.859375 10.9375 9.828125 15.625 
Q 13.8125 20.3125 21.34375 26.46875 
Q 33.015625 36.03125 37.109375 41.625 
Q 41.21875 47.21875 41.21875 52.203125 
Q 41.21875 57.421875 37.46875 61 
Q 33.734375 64.59375 27.734375 64.59375 
Q 21.390625 64.59375 17.578125 60.78125 
Q 13.765625 56.984375 13.71875 50.25 
L 4.6875 51.171875 
Q 5.609375 61.28125 11.65625 66.578125 
Q 17.71875 71.875 27.9375 71.875 
Q 38.234375 71.875 44.234375 66.15625 
Q 50.25 60.453125 50.25 52 
Q 50.25 47.703125 48.484375 43.546875 
Q 46.734375 39.40625 42.65625 34.8125 
Q 38.578125 30.21875 29.109375 22.21875 
Q 21.1875 15.578125 18.9375 13.203125 
Q 16.703125 10.84375 15.234375 8.453125 
z
" id="ArialMT-50"/>
       </defs>
       <use xlink:href="#ArialMT-49"/>
       <use x="55.615234" xlink:href="#ArialMT-50"/>
      </g>
     </g>
    </g>
    <g id="xtick_6">
     <g id="text_6">
      <!-- 13 -->
      <g style="fill:#262626;" transform="translate(137.175969 546.866719)scale(0.11 -0.11)">
       <defs>
        <path d="M 4.203125 18.890625 
L 12.984375 20.0625 
Q 14.5 12.59375 18.140625 9.296875 
Q 21.78125 6 27 6 
Q 33.203125 6 37.46875 10.296875 
Q 41.75 14.59375 41.75 20.953125 
Q 41.75 27 37.796875 30.921875 
Q 33.84375 34.859375 27.734375 34.859375 
Q 25.25 34.859375 21.53125 33.890625 
L 22.515625 41.609375 
Q 23.390625 41.5 23.921875 41.5 
Q 29.546875 41.5 34.03125 44.421875 
Q 38.53125 47.359375 38.53125 53.46875 
Q 38.53125 58.296875 35.25 61.46875 
Q 31.984375 64.65625 26.8125 64.65625 
Q 21.6875 64.65625 18.265625 61.421875 
Q 14.84375 58.203125 13.875 51.765625 
L 5.078125 53.328125 
Q 6.6875 62.15625 12.390625 67.015625 
Q 18.109375 71.875 26.609375 71.875 
Q 32.46875 71.875 37.390625 69.359375 
Q 42.328125 66.84375 44.9375 62.5 
Q 47.5625 58.15625 47.5625 53.265625 
Q 47.5625 48.640625 45.0625 44.828125 
Q 42.578125 41.015625 37.703125 38.765625 
Q 44.046875 37.3125 47.5625 32.6875 
Q 51.078125 28.078125 51.078125 21.140625 
Q 51.078125 11.765625 44.234375 5.25 
Q 37.40625 -1.265625 26.953125 -1.265625 
Q 17.53125 -1.265625 11.296875 4.34375 
Q 5.078125 9.96875 4.203125 18.890625 
z
" id="ArialMT-51"/>
       </defs>
       <use xlink:href="#ArialMT-49"/>
       <use x="55.615234" xlink:href="#ArialMT-51"/>
      </g>
     </g>
    </g>
    <g id="xtick_7">
     <g id="text_7">
      <!-- 14 -->
      <g style="fill:#262626;" transform="translate(151.167569 546.866719)scale(0.11 -0.11)">
       <defs>
        <path d="M 32.328125 0 
L 32.328125 17.140625 
L 1.265625 17.140625 
L 1.265625 25.203125 
L 33.9375 71.578125 
L 41.109375 71.578125 
L 41.109375 25.203125 
L 50.78125 25.203125 
L 50.78125 17.140625 
L 41.109375 17.140625 
L 41.109375 0 
z
M 32.328125 25.203125 
L 32.328125 57.46875 
L 9.90625 25.203125 
z
" id="ArialMT-52"/>
       </defs>
       <use xlink:href="#ArialMT-49"/>
       <use x="55.615234" xlink:href="#ArialMT-52"/>
      </g>
     </g>
    </g>
    <g id="xtick_8">
     <g id="text_8">
      <!-- 15 -->
      <g style="fill:#262626;" transform="translate(165.159169 546.866719)scale(0.11 -0.11)">
       <use xlink:href="#ArialMT-49"/>
       <use x="55.615234" xlink:href="#ArialMT-53"/>
      </g>
     </g>
    </g>
    <g id="xtick_9">
     <g id="text_9">
      <!-- 16 -->
      <g style="fill:#262626;" transform="translate(179.150769 546.866719)scale(0.11 -0.11)">
       <defs>
        <path d="M 49.75 54.046875 
L 41.015625 53.375 
Q 39.84375 58.546875 37.703125 60.890625 
Q 34.125 64.65625 28.90625 64.65625 
Q 24.703125 64.65625 21.53125 62.3125 
Q 17.390625 59.28125 14.984375 53.46875 
Q 12.59375 47.65625 12.5 36.921875 
Q 15.671875 41.75 20.265625 44.09375 
Q 24.859375 46.4375 29.890625 46.4375 
Q 38.671875 46.4375 44.84375 39.96875 
Q 51.03125 33.5 51.03125 23.25 
Q 51.03125 16.5 48.125 10.71875 
Q 45.21875 4.9375 40.140625 1.859375 
Q 35.0625 -1.21875 28.609375 -1.21875 
Q 17.625 -1.21875 10.6875 6.859375 
Q 3.765625 14.9375 3.765625 33.5 
Q 3.765625 54.25 11.421875 63.671875 
Q 18.109375 71.875 29.4375 71.875 
Q 37.890625 71.875 43.28125 67.140625 
Q 48.6875 62.40625 49.75 54.046875 
z
M 13.875 23.1875 
Q 13.875 18.65625 15.796875 14.5 
Q 17.71875 10.359375 21.1875 8.171875 
Q 24.65625 6 28.46875 6 
Q 34.03125 6 38.03125 10.484375 
Q 42.046875 14.984375 42.046875 22.703125 
Q 42.046875 30.125 38.078125 34.390625 
Q 34.125 38.671875 28.125 38.671875 
Q 22.171875 38.671875 18.015625 34.390625 
Q 13.875 30.125 13.875 23.1875 
z
" id="ArialMT-54"/>
       </defs>
       <use xlink:href="#ArialMT-49"/>
       <use x="55.615234" xlink:href="#ArialMT-54"/>
      </g>
     </g>
    </g>
    <g id="xtick_10">
     <g id="text_10">
      <!-- 17 -->
      <g style="fill:#262626;" transform="translate(193.142369 546.866719)scale(0.11 -0.11)">
       <defs>
        <path d="M 4.734375 62.203125 
L 4.734375 70.65625 
L 51.078125 70.65625 
L 51.078125 63.8125 
Q 44.234375 56.546875 37.515625 44.484375 
Q 30.8125 32.421875 27.15625 19.671875 
Q 24.515625 10.6875 23.78125 0 
L 14.75 0 
Q 14.890625 8.453125 18.0625 20.40625 
Q 21.234375 32.375 27.171875 43.484375 
Q 33.109375 54.59375 39.796875 62.203125 
z
" id="ArialMT-55"/>
       </defs>
       <use xlink:href="#ArialMT-49"/>
       <use x="55.615234" xlink:href="#ArialMT-55"/>
      </g>
     </g>
    </g>
    <g id="xtick_11">
     <g id="text_11">
      <!-- 18 -->
      <g style="fill:#262626;" transform="translate(207.133969 546.866719)scale(0.11 -0.11)">
       <defs>
        <path d="M 17.671875 38.8125 
Q 12.203125 40.828125 9.5625 44.53125 
Q 6.9375 48.25 6.9375 53.421875 
Q 6.9375 61.234375 12.546875 66.546875 
Q 18.171875 71.875 27.484375 71.875 
Q 36.859375 71.875 42.578125 66.421875 
Q 48.296875 60.984375 48.296875 53.171875 
Q 48.296875 48.1875 45.671875 44.5 
Q 43.0625 40.828125 37.75 38.8125 
Q 44.34375 36.671875 47.78125 31.875 
Q 51.21875 27.09375 51.21875 20.453125 
Q 51.21875 11.28125 44.71875 5.03125 
Q 38.234375 -1.21875 27.640625 -1.21875 
Q 17.046875 -1.21875 10.546875 5.046875 
Q 4.046875 11.328125 4.046875 20.703125 
Q 4.046875 27.6875 7.59375 32.390625 
Q 11.140625 37.109375 17.671875 38.8125 
z
M 15.921875 53.71875 
Q 15.921875 48.640625 19.1875 45.40625 
Q 22.46875 42.1875 27.6875 42.1875 
Q 32.765625 42.1875 36.015625 45.375 
Q 39.265625 48.578125 39.265625 53.21875 
Q 39.265625 58.0625 35.90625 61.359375 
Q 32.5625 64.65625 27.59375 64.65625 
Q 22.5625 64.65625 19.234375 61.421875 
Q 15.921875 58.203125 15.921875 53.71875 
z
M 13.09375 20.65625 
Q 13.09375 16.890625 14.875 13.375 
Q 16.65625 9.859375 20.171875 7.921875 
Q 23.6875 6 27.734375 6 
Q 34.03125 6 38.125 10.046875 
Q 42.234375 14.109375 42.234375 20.359375 
Q 42.234375 26.703125 38.015625 30.859375 
Q 33.796875 35.015625 27.4375 35.015625 
Q 21.234375 35.015625 17.15625 30.90625 
Q 13.09375 26.8125 13.09375 20.65625 
z
" id="ArialMT-56"/>
       </defs>
       <use xlink:href="#ArialMT-49"/>
       <use x="55.615234" xlink:href="#ArialMT-56"/>
      </g>
     </g>
    </g>
    <g id="xtick_12">
     <g id="text_12">
      <!-- 19 -->
      <g style="fill:#262626;" transform="translate(221.125569 546.866719)scale(0.11 -0.11)">
       <defs>
        <path d="M 5.46875 16.546875 
L 13.921875 17.328125 
Q 14.984375 11.375 18.015625 8.6875 
Q 21.046875 6 25.78125 6 
Q 29.828125 6 32.875 7.859375 
Q 35.9375 9.71875 37.890625 12.8125 
Q 39.84375 15.921875 41.15625 21.1875 
Q 42.484375 26.46875 42.484375 31.9375 
Q 42.484375 32.515625 42.4375 33.6875 
Q 39.796875 29.5 35.234375 26.875 
Q 30.671875 24.265625 25.34375 24.265625 
Q 16.453125 24.265625 10.296875 30.703125 
Q 4.15625 37.15625 4.15625 47.703125 
Q 4.15625 58.59375 10.578125 65.234375 
Q 17 71.875 26.65625 71.875 
Q 33.640625 71.875 39.421875 68.109375 
Q 45.21875 64.359375 48.21875 57.390625 
Q 51.21875 50.4375 51.21875 37.25 
Q 51.21875 23.53125 48.234375 15.40625 
Q 45.265625 7.28125 39.375 3.03125 
Q 33.5 -1.21875 25.59375 -1.21875 
Q 17.1875 -1.21875 11.859375 3.4375 
Q 6.546875 8.109375 5.46875 16.546875 
z
M 41.453125 48.140625 
Q 41.453125 55.71875 37.421875 60.15625 
Q 33.40625 64.59375 27.734375 64.59375 
Q 21.875 64.59375 17.53125 59.8125 
Q 13.1875 55.03125 13.1875 47.40625 
Q 13.1875 40.578125 17.3125 36.296875 
Q 21.4375 32.03125 27.484375 32.03125 
Q 33.59375 32.03125 37.515625 36.296875 
Q 41.453125 40.578125 41.453125 48.140625 
z
" id="ArialMT-57"/>
       </defs>
       <use xlink:href="#ArialMT-49"/>
       <use x="55.615234" xlink:href="#ArialMT-57"/>
      </g>
     </g>
    </g>
    <g id="xtick_13">
     <g id="text_13">
      <!-- 20 -->
      <g style="fill:#262626;" transform="translate(235.117169 546.866719)scale(0.11 -0.11)">
       <use xlink:href="#ArialMT-50"/>
       <use x="55.615234" xlink:href="#ArialMT-48"/>
      </g>
     </g>
    </g>
    <g id="xtick_14">
     <g id="text_14">
      <!-- 21 -->
      <g style="fill:#262626;" transform="translate(249.108769 546.866719)scale(0.11 -0.11)">
       <use xlink:href="#ArialMT-50"/>
       <use x="55.615234" xlink:href="#ArialMT-49"/>
      </g>
     </g>
    </g>
    <g id="xtick_15">
     <g id="text_15">
      <!-- 22 -->
      <g style="fill:#262626;" transform="translate(263.100369 546.866719)scale(0.11 -0.11)">
       <use xlink:href="#ArialMT-50"/>
       <use x="55.615234" xlink:href="#ArialMT-50"/>
      </g>
     </g>
    </g>
    <g id="xtick_16">
     <g id="text_16">
      <!-- 23 -->
      <g style="fill:#262626;" transform="translate(277.091969 546.866719)scale(0.11 -0.11)">
       <use xlink:href="#ArialMT-50"/>
       <use x="55.615234" xlink:href="#ArialMT-51"/>
      </g>
     </g>
    </g>
    <g id="xtick_17">
     <g id="text_17">
      <!-- 24 -->
      <g style="fill:#262626;" transform="translate(291.083569 546.866719)scale(0.11 -0.11)">
       <use xlink:href="#ArialMT-50"/>
       <use x="55.615234" xlink:href="#ArialMT-52"/>
      </g>
     </g>
    </g>
    <g id="xtick_18">
     <g id="text_18">
      <!-- 25 -->
      <g style="fill:#262626;" transform="translate(305.075169 546.866719)scale(0.11 -0.11)">
       <use xlink:href="#ArialMT-50"/>
       <use x="55.615234" xlink:href="#ArialMT-53"/>
      </g>
     </g>
    </g>
    <g id="xtick_19">
     <g id="text_19">
      <!-- 26 -->
      <g style="fill:#262626;" transform="translate(319.066769 546.866719)scale(0.11 -0.11)">
       <use xlink:href="#ArialMT-50"/>
       <use x="55.615234" xlink:href="#ArialMT-54"/>
      </g>
     </g>
    </g>
    <g id="xtick_20">
     <g id="text_20">
      <!-- 27 -->
      <g style="fill:#262626;" transform="translate(333.058369 546.866719)scale(0.11 -0.11)">
       <use xlink:href="#ArialMT-50"/>
       <use x="55.615234" xlink:href="#ArialMT-55"/>
      </g>
     </g>
    </g>
    <g id="xtick_21">
     <g id="text_21">
      <!-- 28 -->
      <g style="fill:#262626;" transform="translate(347.049969 546.866719)scale(0.11 -0.11)">
       <use xlink:href="#ArialMT-50"/>
       <use x="55.615234" xlink:href="#ArialMT-56"/>
      </g>
     </g>
    </g>
    <g id="xtick_22">
     <g id="text_22">
      <!-- 29 -->
      <g style="fill:#262626;" transform="translate(361.041569 546.866719)scale(0.11 -0.11)">
       <use xlink:href="#ArialMT-50"/>
       <use x="55.615234" xlink:href="#ArialMT-57"/>
      </g>
     </g>
    </g>
    <g id="xtick_23">
     <g id="text_23">
      <!-- 30 -->
      <g style="fill:#262626;" transform="translate(375.033169 546.866719)scale(0.11 -0.11)">
       <use xlink:href="#ArialMT-51"/>
       <use x="55.615234" xlink:href="#ArialMT-48"/>
      </g>
     </g>
    </g>
    <g id="xtick_24">
     <g id="text_24">
      <!-- 31 -->
      <g style="fill:#262626;" transform="translate(389.024769 546.866719)scale(0.11 -0.11)">
       <use xlink:href="#ArialMT-51"/>
       <use x="55.615234" xlink:href="#ArialMT-49"/>
      </g>
     </g>
    </g>
    <g id="xtick_25">
     <g id="text_25">
      <!-- 32 -->
      <g style="fill:#262626;" transform="translate(403.016369 546.866719)scale(0.11 -0.11)">
       <use xlink:href="#ArialMT-51"/>
       <use x="55.615234" xlink:href="#ArialMT-50"/>
      </g>
     </g>
    </g>
    <g id="xtick_26">
     <g id="text_26">
      <!-- 33 -->
      <g style="fill:#262626;" transform="translate(417.007969 546.866719)scale(0.11 -0.11)">
       <use xlink:href="#ArialMT-51"/>
       <use x="55.615234" xlink:href="#ArialMT-51"/>
      </g>
     </g>
    </g>
    <g id="xtick_27">
     <g id="text_27">
      <!-- 34 -->
      <g style="fill:#262626;" transform="translate(430.999569 546.866719)scale(0.11 -0.11)">
       <use xlink:href="#ArialMT-51"/>
       <use x="55.615234" xlink:href="#ArialMT-52"/>
      </g>
     </g>
    </g>
    <g id="xtick_28">
     <g id="text_28">
      <!-- 35 -->
      <g style="fill:#262626;" transform="translate(444.991169 546.866719)scale(0.11 -0.11)">
       <use xlink:href="#ArialMT-51"/>
       <use x="55.615234" xlink:href="#ArialMT-53"/>
      </g>
     </g>
    </g>
    <g id="xtick_29">
     <g id="text_29">
      <!-- 36 -->
      <g style="fill:#262626;" transform="translate(458.982769 546.866719)scale(0.11 -0.11)">
       <use xlink:href="#ArialMT-51"/>
       <use x="55.615234" xlink:href="#ArialMT-54"/>
      </g>
     </g>
    </g>
    <g id="xtick_30">
     <g id="text_30">
      <!-- 37 -->
      <g style="fill:#262626;" transform="translate(472.974369 546.866719)scale(0.11 -0.11)">
       <use xlink:href="#ArialMT-51"/>
       <use x="55.615234" xlink:href="#ArialMT-55"/>
      </g>
     </g>
    </g>
    <g id="xtick_31">
     <g id="text_31">
      <!-- 38 -->
      <g style="fill:#262626;" transform="translate(486.965969 546.866719)scale(0.11 -0.11)">
       <use xlink:href="#ArialMT-51"/>
       <use x="55.615234" xlink:href="#ArialMT-56"/>
      </g>
     </g>
    </g>
    <g id="xtick_32">
     <g id="text_32">
      <!-- 39 -->
      <g style="fill:#262626;" transform="translate(500.957569 546.866719)scale(0.11 -0.11)">
       <use xlink:href="#ArialMT-51"/>
       <use x="55.615234" xlink:href="#ArialMT-57"/>
      </g>
     </g>
    </g>
    <g id="xtick_33">
     <g id="text_33">
      <!-- 40 -->
      <g style="fill:#262626;" transform="translate(514.949169 546.866719)scale(0.11 -0.11)">
       <use xlink:href="#ArialMT-52"/>
       <use x="55.615234" xlink:href="#ArialMT-48"/>
      </g>
     </g>
    </g>
    <g id="xtick_34">
     <g id="text_34">
      <!-- 41 -->
      <g style="fill:#262626;" transform="translate(528.940769 546.866719)scale(0.11 -0.11)">
       <use xlink:href="#ArialMT-52"/>
       <use x="55.615234" xlink:href="#ArialMT-49"/>
      </g>
     </g>
    </g>
    <g id="xtick_35">
     <g id="text_35">
      <!-- 42 -->
      <g style="fill:#262626;" transform="translate(542.932369 546.866719)scale(0.11 -0.11)">
       <use xlink:href="#ArialMT-52"/>
       <use x="55.615234" xlink:href="#ArialMT-50"/>
      </g>
     </g>
    </g>
    <g id="xtick_36">
     <g id="text_36">
      <!-- 43 -->
      <g style="fill:#262626;" transform="translate(556.923969 546.866719)scale(0.11 -0.11)">
       <use xlink:href="#ArialMT-52"/>
       <use x="55.615234" xlink:href="#ArialMT-51"/>
      </g>
     </g>
    </g>
    <g id="xtick_37">
     <g id="text_37">
      <!-- 44 -->
      <g style="fill:#262626;" transform="translate(570.915569 546.866719)scale(0.11 -0.11)">
       <use xlink:href="#ArialMT-52"/>
       <use x="55.615234" xlink:href="#ArialMT-52"/>
      </g>
     </g>
    </g>
    <g id="xtick_38">
     <g id="text_38">
      <!-- 45 -->
      <g style="fill:#262626;" transform="translate(584.907169 546.866719)scale(0.11 -0.11)">
       <use xlink:href="#ArialMT-52"/>
       <use x="55.615234" xlink:href="#ArialMT-53"/>
      </g>
     </g>
    </g>
    <g id="xtick_39">
     <g id="text_39">
      <!-- 46 -->
      <g style="fill:#262626;" transform="translate(598.898769 546.866719)scale(0.11 -0.11)">
       <use xlink:href="#ArialMT-52"/>
       <use x="55.615234" xlink:href="#ArialMT-54"/>
      </g>
     </g>
    </g>
    <g id="xtick_40">
     <g id="text_40">
      <!-- 47 -->
      <g style="fill:#262626;" transform="translate(612.890369 546.866719)scale(0.11 -0.11)">
       <use xlink:href="#ArialMT-52"/>
       <use x="55.615234" xlink:href="#ArialMT-55"/>
      </g>
     </g>
    </g>
    <g id="xtick_41">
     <g id="text_41">
      <!-- 48 -->
      <g style="fill:#262626;" transform="translate(626.881969 546.866719)scale(0.11 -0.11)">
       <use xlink:href="#ArialMT-52"/>
       <use x="55.615234" xlink:href="#ArialMT-56"/>
      </g>
     </g>
    </g>
    <g id="xtick_42">
     <g id="text_42">
      <!-- 49 -->
      <g style="fill:#262626;" transform="translate(640.873569 546.866719)scale(0.11 -0.11)">
       <use xlink:href="#ArialMT-52"/>
       <use x="55.615234" xlink:href="#ArialMT-57"/>
      </g>
     </g>
    </g>
    <g id="xtick_43">
     <g id="text_43">
      <!-- 50 -->
      <g style="fill:#262626;" transform="translate(654.865169 546.866719)scale(0.11 -0.11)">
       <use xlink:href="#ArialMT-53"/>
       <use x="55.615234" xlink:href="#ArialMT-48"/>
      </g>
     </g>
    </g>
    <g id="xtick_44">
     <g id="text_44">
      <!-- 51 -->
      <g style="fill:#262626;" transform="translate(668.856769 546.866719)scale(0.11 -0.11)">
       <use xlink:href="#ArialMT-53"/>
       <use x="55.615234" xlink:href="#ArialMT-49"/>
      </g>
     </g>
    </g>
    <g id="xtick_45">
     <g id="text_45">
      <!-- 52 -->
      <g style="fill:#262626;" transform="translate(682.848369 546.866719)scale(0.11 -0.11)">
       <use xlink:href="#ArialMT-53"/>
       <use x="55.615234" xlink:href="#ArialMT-50"/>
      </g>
     </g>
    </g>
    <g id="xtick_46">
     <g id="text_46">
      <!-- 53 -->
      <g style="fill:#262626;" transform="translate(696.839969 546.866719)scale(0.11 -0.11)">
       <use xlink:href="#ArialMT-53"/>
       <use x="55.615234" xlink:href="#ArialMT-51"/>
      </g>
     </g>
    </g>
    <g id="xtick_47">
     <g id="text_47">
      <!-- 54 -->
      <g style="fill:#262626;" transform="translate(710.831569 546.866719)scale(0.11 -0.11)">
       <use xlink:href="#ArialMT-53"/>
       <use x="55.615234" xlink:href="#ArialMT-52"/>
      </g>
     </g>
    </g>
    <g id="xtick_48">
     <g id="text_48">
      <!-- 55 -->
      <g style="fill:#262626;" transform="translate(724.823169 546.866719)scale(0.11 -0.11)">
       <use xlink:href="#ArialMT-53"/>
       <use x="55.615234" xlink:href="#ArialMT-53"/>
      </g>
     </g>
    </g>
    <g id="xtick_49">
     <g id="text_49">
      <!-- 56 -->
      <g style="fill:#262626;" transform="translate(738.814769 546.866719)scale(0.11 -0.11)">
       <use xlink:href="#ArialMT-53"/>
       <use x="55.615234" xlink:href="#ArialMT-54"/>
      </g>
     </g>
    </g>
    <g id="xtick_50">
     <g id="text_50">
      <!-- 57 -->
      <g style="fill:#262626;" transform="translate(752.806369 546.866719)scale(0.11 -0.11)">
       <use xlink:href="#ArialMT-53"/>
       <use x="55.615234" xlink:href="#ArialMT-55"/>
      </g>
     </g>
    </g>
    <g id="xtick_51">
     <g id="text_51">
      <!-- 58 -->
      <g style="fill:#262626;" transform="translate(766.797969 546.866719)scale(0.11 -0.11)">
       <use xlink:href="#ArialMT-53"/>
       <use x="55.615234" xlink:href="#ArialMT-56"/>
      </g>
     </g>
    </g>
    <g id="text_52">
     <!-- Core Duplication Length (bp) -->
     <g style="fill:#262626;" transform="translate(346.419687 561.788594)scale(0.12 -0.12)">
      <defs>
       <path d="M 58.796875 25.09375 
L 68.265625 22.703125 
Q 65.28125 11.03125 57.546875 4.90625 
Q 49.8125 -1.21875 38.625 -1.21875 
Q 27.046875 -1.21875 19.796875 3.484375 
Q 12.546875 8.203125 8.765625 17.140625 
Q 4.984375 26.078125 4.984375 36.328125 
Q 4.984375 47.515625 9.25 55.828125 
Q 13.53125 64.15625 21.40625 68.46875 
Q 29.296875 72.796875 38.765625 72.796875 
Q 49.515625 72.796875 56.828125 67.328125 
Q 64.15625 61.859375 67.046875 51.953125 
L 57.71875 49.75 
Q 55.21875 57.5625 50.484375 61.125 
Q 45.75 64.703125 38.578125 64.703125 
Q 30.328125 64.703125 24.78125 60.734375 
Q 19.234375 56.78125 16.984375 50.109375 
Q 14.75 43.453125 14.75 36.375 
Q 14.75 27.25 17.40625 20.4375 
Q 20.0625 13.625 25.671875 10.25 
Q 31.296875 6.890625 37.84375 6.890625 
Q 45.796875 6.890625 51.3125 11.46875 
Q 56.84375 16.0625 58.796875 25.09375 
z
" id="ArialMT-67"/>
       <path d="M 3.328125 25.921875 
Q 3.328125 40.328125 11.328125 47.265625 
Q 18.015625 53.03125 27.640625 53.03125 
Q 38.328125 53.03125 45.109375 46.015625 
Q 51.90625 39.015625 51.90625 26.65625 
Q 51.90625 16.65625 48.90625 10.90625 
Q 45.90625 5.171875 40.15625 2 
Q 34.421875 -1.171875 27.640625 -1.171875 
Q 16.75 -1.171875 10.03125 5.8125 
Q 3.328125 12.796875 3.328125 25.921875 
z
M 12.359375 25.921875 
Q 12.359375 15.96875 16.703125 11.015625 
Q 21.046875 6.0625 27.640625 6.0625 
Q 34.1875 6.0625 38.53125 11.03125 
Q 42.875 16.015625 42.875 26.21875 
Q 42.875 35.84375 38.5 40.796875 
Q 34.125 45.75 27.640625 45.75 
Q 21.046875 45.75 16.703125 40.8125 
Q 12.359375 35.890625 12.359375 25.921875 
z
" id="ArialMT-111"/>
       <path d="M 6.5 0 
L 6.5 51.859375 
L 14.40625 51.859375 
L 14.40625 44 
Q 17.4375 49.515625 20 51.265625 
Q 22.5625 53.03125 25.640625 53.03125 
Q 30.078125 53.03125 34.671875 50.203125 
L 31.640625 42.046875 
Q 28.421875 43.953125 25.203125 43.953125 
Q 22.3125 43.953125 20.015625 42.21875 
Q 17.71875 40.484375 16.75 37.40625 
Q 15.28125 32.71875 15.28125 27.15625 
L 15.28125 0 
z
" id="ArialMT-114"/>
       <path d="M 42.09375 16.703125 
L 51.171875 15.578125 
Q 49.03125 7.625 43.21875 3.21875 
Q 37.40625 -1.171875 28.375 -1.171875 
Q 17 -1.171875 10.328125 5.828125 
Q 3.65625 12.84375 3.65625 25.484375 
Q 3.65625 38.578125 10.390625 45.796875 
Q 17.140625 53.03125 27.875 53.03125 
Q 38.28125 53.03125 44.875 45.953125 
Q 51.46875 38.875 51.46875 26.03125 
Q 51.46875 25.25 51.421875 23.6875 
L 12.75 23.6875 
Q 13.234375 15.140625 17.578125 10.59375 
Q 21.921875 6.0625 28.421875 6.0625 
Q 33.25 6.0625 36.671875 8.59375 
Q 40.09375 11.140625 42.09375 16.703125 
z
M 13.234375 30.90625 
L 42.1875 30.90625 
Q 41.609375 37.453125 38.875 40.71875 
Q 34.671875 45.796875 27.984375 45.796875 
Q 21.921875 45.796875 17.796875 41.75 
Q 13.671875 37.703125 13.234375 30.90625 
z
" id="ArialMT-101"/>
       <path id="ArialMT-32"/>
       <path d="M 7.71875 0 
L 7.71875 71.578125 
L 32.375 71.578125 
Q 40.71875 71.578125 45.125 70.5625 
Q 51.265625 69.140625 55.609375 65.4375 
Q 61.28125 60.640625 64.078125 53.1875 
Q 66.890625 45.75 66.890625 36.1875 
Q 66.890625 28.03125 64.984375 21.734375 
Q 63.09375 15.4375 60.109375 11.296875 
Q 57.125 7.171875 53.578125 4.796875 
Q 50.046875 2.4375 45.046875 1.21875 
Q 40.046875 0 33.546875 0 
z
M 17.1875 8.453125 
L 32.46875 8.453125 
Q 39.546875 8.453125 43.578125 9.765625 
Q 47.609375 11.078125 50 13.484375 
Q 53.375 16.84375 55.25 22.53125 
Q 57.125 28.21875 57.125 36.328125 
Q 57.125 47.5625 53.4375 53.59375 
Q 49.75 59.625 44.484375 61.671875 
Q 40.671875 63.140625 32.234375 63.140625 
L 17.1875 63.140625 
z
" id="ArialMT-68"/>
       <path d="M 40.578125 0 
L 40.578125 7.625 
Q 34.515625 -1.171875 24.125 -1.171875 
Q 19.53125 -1.171875 15.546875 0.578125 
Q 11.578125 2.34375 9.640625 5 
Q 7.71875 7.671875 6.9375 11.53125 
Q 6.390625 14.109375 6.390625 19.734375 
L 6.390625 51.859375 
L 15.1875 51.859375 
L 15.1875 23.09375 
Q 15.1875 16.21875 15.71875 13.8125 
Q 16.546875 10.359375 19.234375 8.375 
Q 21.921875 6.390625 25.875 6.390625 
Q 29.828125 6.390625 33.296875 8.421875 
Q 36.765625 10.453125 38.203125 13.9375 
Q 39.65625 17.4375 39.65625 24.078125 
L 39.65625 51.859375 
L 48.4375 51.859375 
L 48.4375 0 
z
" id="ArialMT-117"/>
       <path d="M 6.59375 -19.875 
L 6.59375 51.859375 
L 14.59375 51.859375 
L 14.59375 45.125 
Q 17.4375 49.078125 21 51.046875 
Q 24.5625 53.03125 29.640625 53.03125 
Q 36.28125 53.03125 41.359375 49.609375 
Q 46.4375 46.1875 49.015625 39.953125 
Q 51.609375 33.734375 51.609375 26.3125 
Q 51.609375 18.359375 48.75 11.984375 
Q 45.90625 5.609375 40.453125 2.21875 
Q 35.015625 -1.171875 29 -1.171875 
Q 24.609375 -1.171875 21.109375 0.6875 
Q 17.625 2.546875 15.375 5.375 
L 15.375 -19.875 
z
M 14.546875 25.640625 
Q 14.546875 15.625 18.59375 10.84375 
Q 22.65625 6.0625 28.421875 6.0625 
Q 34.28125 6.0625 38.453125 11.015625 
Q 42.625 15.96875 42.625 26.375 
Q 42.625 36.28125 38.546875 41.203125 
Q 34.46875 46.140625 28.8125 46.140625 
Q 23.1875 46.140625 18.859375 40.890625 
Q 14.546875 35.640625 14.546875 25.640625 
z
" id="ArialMT-112"/>
       <path d="M 6.390625 0 
L 6.390625 71.578125 
L 15.1875 71.578125 
L 15.1875 0 
z
" id="ArialMT-108"/>
       <path d="M 6.640625 61.46875 
L 6.640625 71.578125 
L 15.4375 71.578125 
L 15.4375 61.46875 
z
M 6.640625 0 
L 6.640625 51.859375 
L 15.4375 51.859375 
L 15.4375 0 
z
" id="ArialMT-105"/>
       <path d="M 40.4375 19 
L 49.078125 17.875 
Q 47.65625 8.9375 41.8125 3.875 
Q 35.984375 -1.171875 27.484375 -1.171875 
Q 16.84375 -1.171875 10.375 5.78125 
Q 3.90625 12.75 3.90625 25.734375 
Q 3.90625 34.125 6.6875 40.421875 
Q 9.46875 46.734375 15.15625 49.875 
Q 20.84375 53.03125 27.546875 53.03125 
Q 35.984375 53.03125 41.359375 48.75 
Q 46.734375 44.484375 48.25 36.625 
L 39.703125 35.296875 
Q 38.484375 40.53125 35.375 43.15625 
Q 32.28125 45.796875 27.875 45.796875 
Q 21.234375 45.796875 17.078125 41.03125 
Q 12.9375 36.28125 12.9375 25.984375 
Q 12.9375 15.53125 16.9375 10.796875 
Q 20.953125 6.0625 27.390625 6.0625 
Q 32.5625 6.0625 36.03125 9.234375 
Q 39.5 12.40625 40.4375 19 
z
" id="ArialMT-99"/>
       <path d="M 40.4375 6.390625 
Q 35.546875 2.25 31.03125 0.53125 
Q 26.515625 -1.171875 21.34375 -1.171875 
Q 12.796875 -1.171875 8.203125 3 
Q 3.609375 7.171875 3.609375 13.671875 
Q 3.609375 17.484375 5.34375 20.625 
Q 7.078125 23.78125 9.890625 25.6875 
Q 12.703125 27.59375 16.21875 28.5625 
Q 18.796875 29.25 24.03125 29.890625 
Q 34.671875 31.15625 39.703125 32.90625 
Q 39.75 34.71875 39.75 35.203125 
Q 39.75 40.578125 37.25 42.78125 
Q 33.890625 45.75 27.25 45.75 
Q 21.046875 45.75 18.09375 43.578125 
Q 15.140625 41.40625 13.71875 35.890625 
L 5.125 37.0625 
Q 6.296875 42.578125 8.984375 45.96875 
Q 11.671875 49.359375 16.75 51.1875 
Q 21.828125 53.03125 28.515625 53.03125 
Q 35.15625 53.03125 39.296875 51.46875 
Q 43.453125 49.90625 45.40625 47.53125 
Q 47.359375 45.171875 48.140625 41.546875 
Q 48.578125 39.3125 48.578125 33.453125 
L 48.578125 21.734375 
Q 48.578125 9.46875 49.140625 6.21875 
Q 49.703125 2.984375 51.375 0 
L 42.1875 0 
Q 40.828125 2.734375 40.4375 6.390625 
z
M 39.703125 26.03125 
Q 34.90625 24.078125 25.34375 22.703125 
Q 19.921875 21.921875 17.671875 20.9375 
Q 15.4375 19.96875 14.203125 18.09375 
Q 12.984375 16.21875 12.984375 13.921875 
Q 12.984375 10.40625 15.640625 8.0625 
Q 18.3125 5.71875 23.4375 5.71875 
Q 28.515625 5.71875 32.46875 7.9375 
Q 36.421875 10.15625 38.28125 14.015625 
Q 39.703125 17 39.703125 22.796875 
z
" id="ArialMT-97"/>
       <path d="M 25.78125 7.859375 
L 27.046875 0.09375 
Q 23.34375 -0.6875 20.40625 -0.6875 
Q 15.625 -0.6875 12.984375 0.828125 
Q 10.359375 2.34375 9.28125 4.8125 
Q 8.203125 7.28125 8.203125 15.1875 
L 8.203125 45.015625 
L 1.765625 45.015625 
L 1.765625 51.859375 
L 8.203125 51.859375 
L 8.203125 64.703125 
L 16.9375 69.96875 
L 16.9375 51.859375 
L 25.78125 51.859375 
L 25.78125 45.015625 
L 16.9375 45.015625 
L 16.9375 14.703125 
Q 16.9375 10.9375 17.40625 9.859375 
Q 17.875 8.796875 18.921875 8.15625 
Q 19.96875 7.515625 21.921875 7.515625 
Q 23.390625 7.515625 25.78125 7.859375 
z
" id="ArialMT-116"/>
       <path d="M 6.59375 0 
L 6.59375 51.859375 
L 14.5 51.859375 
L 14.5 44.484375 
Q 20.21875 53.03125 31 53.03125 
Q 35.6875 53.03125 39.625 51.34375 
Q 43.5625 49.65625 45.515625 46.921875 
Q 47.46875 44.1875 48.25 40.4375 
Q 48.734375 37.984375 48.734375 31.890625 
L 48.734375 0 
L 39.9375 0 
L 39.9375 31.546875 
Q 39.9375 36.921875 38.90625 39.578125 
Q 37.890625 42.234375 35.28125 43.8125 
Q 32.671875 45.40625 29.15625 45.40625 
Q 23.53125 45.40625 19.453125 41.84375 
Q 15.375 38.28125 15.375 28.328125 
L 15.375 0 
z
" id="ArialMT-110"/>
       <path d="M 7.328125 0 
L 7.328125 71.578125 
L 16.796875 71.578125 
L 16.796875 8.453125 
L 52.046875 8.453125 
L 52.046875 0 
z
" id="ArialMT-76"/>
       <path d="M 4.984375 -4.296875 
L 13.53125 -5.5625 
Q 14.0625 -9.515625 16.5 -11.328125 
Q 19.78125 -13.765625 25.4375 -13.765625 
Q 31.546875 -13.765625 34.859375 -11.328125 
Q 38.1875 -8.890625 39.359375 -4.5 
Q 40.046875 -1.8125 39.984375 6.78125 
Q 34.234375 0 25.640625 0 
Q 14.9375 0 9.078125 7.71875 
Q 3.21875 15.4375 3.21875 26.21875 
Q 3.21875 33.640625 5.90625 39.90625 
Q 8.59375 46.1875 13.6875 49.609375 
Q 18.796875 53.03125 25.6875 53.03125 
Q 34.859375 53.03125 40.828125 45.609375 
L 40.828125 51.859375 
L 48.921875 51.859375 
L 48.921875 7.03125 
Q 48.921875 -5.078125 46.453125 -10.125 
Q 44 -15.1875 38.640625 -18.109375 
Q 33.296875 -21.046875 25.484375 -21.046875 
Q 16.21875 -21.046875 10.5 -16.875 
Q 4.78125 -12.703125 4.984375 -4.296875 
z
M 12.25 26.859375 
Q 12.25 16.65625 16.296875 11.96875 
Q 20.359375 7.28125 26.46875 7.28125 
Q 32.515625 7.28125 36.609375 11.9375 
Q 40.71875 16.609375 40.71875 26.5625 
Q 40.71875 36.078125 36.5 40.90625 
Q 32.28125 45.75 26.3125 45.75 
Q 20.453125 45.75 16.34375 40.984375 
Q 12.25 36.234375 12.25 26.859375 
z
" id="ArialMT-103"/>
       <path d="M 6.59375 0 
L 6.59375 71.578125 
L 15.375 71.578125 
L 15.375 45.90625 
Q 21.53125 53.03125 30.90625 53.03125 
Q 36.671875 53.03125 40.921875 50.75 
Q 45.171875 48.484375 47 44.484375 
Q 48.828125 40.484375 48.828125 32.859375 
L 48.828125 0 
L 40.046875 0 
L 40.046875 32.859375 
Q 40.046875 39.453125 37.1875 42.453125 
Q 34.328125 45.453125 29.109375 45.453125 
Q 25.203125 45.453125 21.75 43.421875 
Q 18.3125 41.40625 16.84375 37.9375 
Q 15.375 34.46875 15.375 28.375 
L 15.375 0 
z
" id="ArialMT-104"/>
       <path d="M 23.390625 -21.046875 
Q 16.109375 -11.859375 11.078125 0.4375 
Q 6.0625 12.75 6.0625 25.921875 
Q 6.0625 37.546875 9.8125 48.1875 
Q 14.203125 60.546875 23.390625 72.796875 
L 29.6875 72.796875 
Q 23.78125 62.640625 21.875 58.296875 
Q 18.890625 51.5625 17.1875 44.234375 
Q 15.09375 35.109375 15.09375 25.875 
Q 15.09375 2.390625 29.6875 -21.046875 
z
" id="ArialMT-40"/>
       <path d="M 14.703125 0 
L 6.546875 0 
L 6.546875 71.578125 
L 15.328125 71.578125 
L 15.328125 46.046875 
Q 20.90625 53.03125 29.546875 53.03125 
Q 34.328125 53.03125 38.59375 51.09375 
Q 42.875 49.171875 45.625 45.671875 
Q 48.390625 42.1875 49.953125 37.25 
Q 51.515625 32.328125 51.515625 26.703125 
Q 51.515625 13.375 44.921875 6.09375 
Q 38.328125 -1.171875 29.109375 -1.171875 
Q 19.921875 -1.171875 14.703125 6.5 
z
M 14.59375 26.3125 
Q 14.59375 17 17.140625 12.84375 
Q 21.296875 6.0625 28.375 6.0625 
Q 34.125 6.0625 38.328125 11.0625 
Q 42.53125 16.0625 42.53125 25.984375 
Q 42.53125 36.140625 38.5 40.96875 
Q 34.46875 45.796875 28.765625 45.796875 
Q 23 45.796875 18.796875 40.796875 
Q 14.59375 35.796875 14.59375 26.3125 
z
" id="ArialMT-98"/>
       <path d="M 12.359375 -21.046875 
L 6.0625 -21.046875 
Q 20.65625 2.390625 20.65625 25.875 
Q 20.65625 35.0625 18.5625 44.09375 
Q 16.890625 51.421875 13.921875 58.15625 
Q 12.015625 62.546875 6.0625 72.796875 
L 12.359375 72.796875 
Q 21.53125 60.546875 25.921875 48.1875 
Q 29.6875 37.546875 29.6875 25.921875 
Q 29.6875 12.75 24.625 0.4375 
Q 19.578125 -11.859375 12.359375 -21.046875 
z
" id="ArialMT-41"/>
      </defs>
      <use xlink:href="#ArialMT-67"/>
      <use x="72.216797" xlink:href="#ArialMT-111"/>
      <use x="127.832031" xlink:href="#ArialMT-114"/>
      <use x="161.132812" xlink:href="#ArialMT-101"/>
      <use x="216.748047" xlink:href="#ArialMT-32"/>
      <use x="244.53125" xlink:href="#ArialMT-68"/>
      <use x="316.748047" xlink:href="#ArialMT-117"/>
      <use x="372.363281" xlink:href="#ArialMT-112"/>
      <use x="427.978516" xlink:href="#ArialMT-108"/>
      <use x="450.195312" xlink:href="#ArialMT-105"/>
      <use x="472.412109" xlink:href="#ArialMT-99"/>
      <use x="522.412109" xlink:href="#ArialMT-97"/>
      <use x="578.027344" xlink:href="#ArialMT-116"/>
      <use x="605.810547" xlink:href="#ArialMT-105"/>
      <use x="628.027344" xlink:href="#ArialMT-111"/>
      <use x="683.642578" xlink:href="#ArialMT-110"/>
      <use x="739.257812" xlink:href="#ArialMT-32"/>
      <use x="767.041016" xlink:href="#ArialMT-76"/>
      <use x="822.65625" xlink:href="#ArialMT-101"/>
      <use x="878.271484" xlink:href="#ArialMT-110"/>
      <use x="933.886719" xlink:href="#ArialMT-103"/>
      <use x="989.501953" xlink:href="#ArialMT-116"/>
      <use x="1017.285156" xlink:href="#ArialMT-104"/>
      <use x="1072.900391" xlink:href="#ArialMT-32"/>
      <use x="1100.683594" xlink:href="#ArialMT-40"/>
      <use x="1133.984375" xlink:href="#ArialMT-98"/>
      <use x="1189.599609" xlink:href="#ArialMT-112"/>
      <use x="1245.214844" xlink:href="#ArialMT-41"/>
     </g>
    </g>
   </g>
   <g id="matplotlib.axis_2">
    <g id="ytick_1">
     <g id="line2d_1">
      <path clip-path="url(#p1f730ff1fa)" d="M 73.335 529.493125 
L 772.915 529.493125 
" style="fill:none;stroke:#ffffff;stroke-linecap:round;"/>
     </g>
     <g id="text_53">
      <!-- 0 -->
      <g style="fill:#262626;" transform="translate(57.717969 533.429922)scale(0.11 -0.11)">
       <use xlink:href="#ArialMT-48"/>
      </g>
     </g>
    </g>
    <g id="ytick_2">
     <g id="line2d_2">
      <path clip-path="url(#p1f730ff1fa)" d="M 73.335 421.529133 
L 772.915 421.529133 
" style="fill:none;stroke:#ffffff;stroke-linecap:round;"/>
     </g>
     <g id="text_54">
      <!-- 200000 -->
      <g style="fill:#262626;" transform="translate(27.132812 425.46593)scale(0.11 -0.11)">
       <use xlink:href="#ArialMT-50"/>
       <use x="55.615234" xlink:href="#ArialMT-48"/>
       <use x="111.230469" xlink:href="#ArialMT-48"/>
       <use x="166.845703" xlink:href="#ArialMT-48"/>
       <use x="222.460938" xlink:href="#ArialMT-48"/>
       <use x="278.076172" xlink:href="#ArialMT-48"/>
      </g>
     </g>
    </g>
    <g id="ytick_3">
     <g id="line2d_3">
      <path clip-path="url(#p1f730ff1fa)" d="M 73.335 313.565141 
L 772.915 313.565141 
" style="fill:none;stroke:#ffffff;stroke-linecap:round;"/>
     </g>
     <g id="text_55">
      <!-- 400000 -->
      <g style="fill:#262626;" transform="translate(27.132812 317.501938)scale(0.11 -0.11)">
       <use xlink:href="#ArialMT-52"/>
       <use x="55.615234" xlink:href="#ArialMT-48"/>
       <use x="111.230469" xlink:href="#ArialMT-48"/>
       <use x="166.845703" xlink:href="#ArialMT-48"/>
       <use x="222.460938" xlink:href="#ArialMT-48"/>
       <use x="278.076172" xlink:href="#ArialMT-48"/>
      </g>
     </g>
    </g>
    <g id="ytick_4">
     <g id="line2d_4">
      <path clip-path="url(#p1f730ff1fa)" d="M 73.335 205.601149 
L 772.915 205.601149 
" style="fill:none;stroke:#ffffff;stroke-linecap:round;"/>
     </g>
     <g id="text_56">
      <!-- 600000 -->
      <g style="fill:#262626;" transform="translate(27.132812 209.537946)scale(0.11 -0.11)">
       <use xlink:href="#ArialMT-54"/>
       <use x="55.615234" xlink:href="#ArialMT-48"/>
       <use x="111.230469" xlink:href="#ArialMT-48"/>
       <use x="166.845703" xlink:href="#ArialMT-48"/>
       <use x="222.460938" xlink:href="#ArialMT-48"/>
       <use x="278.076172" xlink:href="#ArialMT-48"/>
      </g>
     </g>
    </g>
    <g id="ytick_5">
     <g id="line2d_5">
      <path clip-path="url(#p1f730ff1fa)" d="M 73.335 97.637157 
L 772.915 97.637157 
" style="fill:none;stroke:#ffffff;stroke-linecap:round;"/>
     </g>
     <g id="text_57">
      <!-- 800000 -->
      <g style="fill:#262626;" transform="translate(27.132812 101.573954)scale(0.11 -0.11)">
       <use xlink:href="#ArialMT-56"/>
       <use x="55.615234" xlink:href="#ArialMT-48"/>
       <use x="111.230469" xlink:href="#ArialMT-48"/>
       <use x="166.845703" xlink:href="#ArialMT-48"/>
       <use x="222.460938" xlink:href="#ArialMT-48"/>
       <use x="278.076172" xlink:href="#ArialMT-48"/>
      </g>
     </g>
    </g>
    <g id="text_58">
     <!-- Number of prophages -->
     <g style="fill:#262626;" transform="translate(20.607187 329.255938)rotate(-90)scale(0.12 -0.12)">
      <defs>
       <path d="M 7.625 0 
L 7.625 71.578125 
L 17.328125 71.578125 
L 54.9375 15.375 
L 54.9375 71.578125 
L 64.015625 71.578125 
L 64.015625 0 
L 54.296875 0 
L 16.703125 56.25 
L 16.703125 0 
z
" id="ArialMT-78"/>
       <path d="M 6.59375 0 
L 6.59375 51.859375 
L 14.453125 51.859375 
L 14.453125 44.578125 
Q 16.890625 48.390625 20.9375 50.703125 
Q 25 53.03125 30.171875 53.03125 
Q 35.9375 53.03125 39.625 50.640625 
Q 43.3125 48.25 44.828125 43.953125 
Q 50.984375 53.03125 60.84375 53.03125 
Q 68.5625 53.03125 72.703125 48.75 
Q 76.859375 44.484375 76.859375 35.59375 
L 76.859375 0 
L 68.109375 0 
L 68.109375 32.671875 
Q 68.109375 37.9375 67.25 40.25 
Q 66.40625 42.578125 64.15625 43.984375 
Q 61.921875 45.40625 58.890625 45.40625 
Q 53.421875 45.40625 49.796875 41.765625 
Q 46.1875 38.140625 46.1875 30.125 
L 46.1875 0 
L 37.40625 0 
L 37.40625 33.6875 
Q 37.40625 39.546875 35.25 42.46875 
Q 33.109375 45.40625 28.21875 45.40625 
Q 24.515625 45.40625 21.359375 43.453125 
Q 18.21875 41.5 16.796875 37.734375 
Q 15.375 33.984375 15.375 26.90625 
L 15.375 0 
z
" id="ArialMT-109"/>
       <path d="M 8.6875 0 
L 8.6875 45.015625 
L 0.921875 45.015625 
L 0.921875 51.859375 
L 8.6875 51.859375 
L 8.6875 57.375 
Q 8.6875 62.59375 9.625 65.140625 
Q 10.890625 68.5625 14.078125 70.671875 
Q 17.28125 72.796875 23.046875 72.796875 
Q 26.765625 72.796875 31.25 71.921875 
L 29.9375 64.265625 
Q 27.203125 64.75 24.75 64.75 
Q 20.75 64.75 19.09375 63.03125 
Q 17.4375 61.328125 17.4375 56.640625 
L 17.4375 51.859375 
L 27.546875 51.859375 
L 27.546875 45.015625 
L 17.4375 45.015625 
L 17.4375 0 
z
" id="ArialMT-102"/>
       <path d="M 3.078125 15.484375 
L 11.765625 16.84375 
Q 12.5 11.625 15.84375 8.84375 
Q 19.1875 6.0625 25.203125 6.0625 
Q 31.25 6.0625 34.171875 8.515625 
Q 37.109375 10.984375 37.109375 14.3125 
Q 37.109375 17.28125 34.515625 19 
Q 32.71875 20.171875 25.53125 21.96875 
Q 15.875 24.421875 12.140625 26.203125 
Q 8.40625 27.984375 6.46875 31.125 
Q 4.546875 34.28125 4.546875 38.09375 
Q 4.546875 41.546875 6.125 44.5 
Q 7.71875 47.46875 10.453125 49.421875 
Q 12.5 50.921875 16.03125 51.96875 
Q 19.578125 53.03125 23.640625 53.03125 
Q 29.734375 53.03125 34.34375 51.265625 
Q 38.96875 49.515625 41.15625 46.5 
Q 43.359375 43.5 44.1875 38.484375 
L 35.59375 37.3125 
Q 35.015625 41.3125 32.203125 43.546875 
Q 29.390625 45.796875 24.265625 45.796875 
Q 18.21875 45.796875 15.625 43.796875 
Q 13.03125 41.796875 13.03125 39.109375 
Q 13.03125 37.40625 14.109375 36.03125 
Q 15.1875 34.625 17.484375 33.6875 
Q 18.796875 33.203125 25.25 31.453125 
Q 34.578125 28.953125 38.25 27.359375 
Q 41.9375 25.78125 44.03125 22.75 
Q 46.140625 19.734375 46.140625 15.234375 
Q 46.140625 10.84375 43.578125 6.953125 
Q 41.015625 3.078125 36.171875 0.953125 
Q 31.34375 -1.171875 25.25 -1.171875 
Q 15.140625 -1.171875 9.84375 3.03125 
Q 4.546875 7.234375 3.078125 15.484375 
z
" id="ArialMT-115"/>
      </defs>
      <use xlink:href="#ArialMT-78"/>
      <use x="72.216797" xlink:href="#ArialMT-117"/>
      <use x="127.832031" xlink:href="#ArialMT-109"/>
      <use x="211.132812" xlink:href="#ArialMT-98"/>
      <use x="266.748047" xlink:href="#ArialMT-101"/>
      <use x="322.363281" xlink:href="#ArialMT-114"/>
      <use x="355.664062" xlink:href="#ArialMT-32"/>
      <use x="383.447266" xlink:href="#ArialMT-111"/>
      <use x="439.0625" xlink:href="#ArialMT-102"/>
      <use x="466.845703" xlink:href="#ArialMT-32"/>
      <use x="494.628906" xlink:href="#ArialMT-112"/>
      <use x="550.244141" xlink:href="#ArialMT-114"/>
      <use x="583.544922" xlink:href="#ArialMT-111"/>
      <use x="639.160156" xlink:href="#ArialMT-112"/>
      <use x="694.775391" xlink:href="#ArialMT-104"/>
      <use x="750.390625" xlink:href="#ArialMT-97"/>
      <use x="806.005859" xlink:href="#ArialMT-103"/>
      <use x="861.621094" xlink:href="#ArialMT-101"/>
      <use x="917.236328" xlink:href="#ArialMT-115"/>
     </g>
    </g>
   </g>
   <g id="patch_3">
    <path clip-path="url(#p1f730ff1fa)" d="M 67.73836 529.493125 
L 78.93164 529.493125 
L 78.93164 529.487187 
L 67.73836 529.487187 
z
" style="fill:#ea96a3;stroke:#ffffff;stroke-linejoin:miter;"/>
   </g>
   <g id="patch_4">
    <path clip-path="url(#p1f730ff1fa)" d="M 81.72996 529.493125 
L 92.92324 529.493125 
L 92.92324 529.489886 
L 81.72996 529.489886 
z
" style="fill:#ea96a0;stroke:#ffffff;stroke-linejoin:miter;"/>
   </g>
   <g id="patch_5">
    <path clip-path="url(#p1f730ff1fa)" d="M 95.72156 529.493125 
L 106.91484 529.493125 
L 106.91484 524.606135 
L 95.72156 524.606135 
z
" style="fill:#ea979c;stroke:#ffffff;stroke-linejoin:miter;"/>
   </g>
   <g id="patch_6">
    <path clip-path="url(#p1f730ff1fa)" d="M 109.71316 529.493125 
L 120.90644 529.493125 
L 120.90644 347.348154 
L 109.71316 347.348154 
z
" style="fill:#ea9799;stroke:#ffffff;stroke-linejoin:miter;"/>
   </g>
   <g id="patch_7">
    <path clip-path="url(#p1f730ff1fa)" d="M 123.70476 529.493125 
L 134.89804 529.493125 
L 134.89804 37.556815 
L 123.70476 37.556815 
z
" style="fill:#ea9794;stroke:#ffffff;stroke-linejoin:miter;"/>
   </g>
   <g id="patch_8">
    <path clip-path="url(#p1f730ff1fa)" d="M 137.69636 529.493125 
L 148.88964 529.493125 
L 148.88964 135.521182 
L 137.69636 135.521182 
z
" style="fill:#e9978f;stroke:#ffffff;stroke-linejoin:miter;"/>
   </g>
   <g id="patch_9">
    <path clip-path="url(#p1f730ff1fa)" d="M 151.68796 529.493125 
L 162.88124 529.493125 
L 162.88124 339.836019 
L 151.68796 339.836019 
z
" style="fill:#e8968a;stroke:#ffffff;stroke-linejoin:miter;"/>
   </g>
   <g id="patch_10">
    <path clip-path="url(#p1f730ff1fa)" d="M 165.67956 529.493125 
L 176.87284 529.493125 
L 176.87284 464.337396 
L 165.67956 464.337396 
z
" style="fill:#e79684;stroke:#ffffff;stroke-linejoin:miter;"/>
   </g>
   <g id="patch_11">
    <path clip-path="url(#p1f730ff1fa)" d="M 179.67116 529.493125 
L 190.86444 529.493125 
L 190.86444 482.036473 
L 179.67116 482.036473 
z
" style="fill:#e6957d;stroke:#ffffff;stroke-linejoin:miter;"/>
   </g>
   <g id="patch_12">
    <path clip-path="url(#p1f730ff1fa)" d="M 193.66276 529.493125 
L 204.85604 529.493125 
L 204.85604 514.886677 
L 193.66276 514.886677 
z
" style="fill:#e59575;stroke:#ffffff;stroke-linejoin:miter;"/>
   </g>
   <g id="patch_13">
    <path clip-path="url(#p1f730ff1fa)" d="M 207.65436 529.493125 
L 218.84764 529.493125 
L 218.84764 521.970194 
L 207.65436 521.970194 
z
" style="fill:#e4946b;stroke:#ffffff;stroke-linejoin:miter;"/>
   </g>
   <g id="patch_14">
    <path clip-path="url(#p1f730ff1fa)" d="M 221.64596 529.493125 
L 232.83924 529.493125 
L 232.83924 524.451207 
L 221.64596 524.451207 
z
" style="fill:#e39360;stroke:#ffffff;stroke-linejoin:miter;"/>
   </g>
   <g id="patch_15">
    <path clip-path="url(#p1f730ff1fa)" d="M 235.63756 529.493125 
L 246.83084 529.493125 
L 246.83084 524.271447 
L 235.63756 524.271447 
z
" style="fill:#e0914f;stroke:#ffffff;stroke-linejoin:miter;"/>
   </g>
   <g id="patch_16">
    <path clip-path="url(#p1f730ff1fa)" d="M 249.62916 529.493125 
L 260.82244 529.493125 
L 260.82244 518.752867 
L 249.62916 518.752867 
z
" style="fill:#dc924e;stroke:#ffffff;stroke-linejoin:miter;"/>
   </g>
   <g id="patch_17">
    <path clip-path="url(#p1f730ff1fa)" d="M 263.62076 529.493125 
L 274.81404 529.493125 
L 274.81404 523.372106 
L 263.62076 523.372106 
z
" style="fill:#d8944e;stroke:#ffffff;stroke-linejoin:miter;"/>
   </g>
   <g id="patch_18">
    <path clip-path="url(#p1f730ff1fa)" d="M 277.61236 529.493125 
L 288.80564 529.493125 
L 288.80564 525.623696 
L 277.61236 525.623696 
z
" style="fill:#d4954d;stroke:#ffffff;stroke-linejoin:miter;"/>
   </g>
   <g id="patch_19">
    <path clip-path="url(#p1f730ff1fa)" d="M 291.60396 529.493125 
L 302.79724 529.493125 
L 302.79724 526.584035 
L 291.60396 526.584035 
z
" style="fill:#d0964d;stroke:#ffffff;stroke-linejoin:miter;"/>
   </g>
   <g id="patch_20">
    <path clip-path="url(#p1f730ff1fa)" d="M 305.59556 529.493125 
L 316.78884 529.493125 
L 316.78884 526.947334 
L 305.59556 526.947334 
z
" style="fill:#cd974c;stroke:#ffffff;stroke-linejoin:miter;"/>
   </g>
   <g id="patch_21">
    <path clip-path="url(#p1f730ff1fa)" d="M 319.58716 529.493125 
L 330.78044 529.493125 
L 330.78044 523.674406 
L 319.58716 523.674406 
z
" style="fill:#c9984c;stroke:#ffffff;stroke-linejoin:miter;"/>
   </g>
   <g id="patch_22">
    <path clip-path="url(#p1f730ff1fa)" d="M 333.57876 529.493125 
L 344.77204 529.493125 
L 344.77204 525.993472 
L 333.57876 525.993472 
z
" style="fill:#c6994b;stroke:#ffffff;stroke-linejoin:miter;"/>
   </g>
   <g id="patch_23">
    <path clip-path="url(#p1f730ff1fa)" d="M 347.57036 529.493125 
L 358.76364 529.493125 
L 358.76364 528.160849 
L 347.57036 528.160849 
z
" style="fill:#c3994b;stroke:#ffffff;stroke-linejoin:miter;"/>
   </g>
   <g id="patch_24">
    <path clip-path="url(#p1f730ff1fa)" d="M 361.56196 529.493125 
L 372.75524 529.493125 
L 372.75524 526.32924 
L 361.56196 526.32924 
z
" style="fill:#c09a4a;stroke:#ffffff;stroke-linejoin:miter;"/>
   </g>
   <g id="patch_25">
    <path clip-path="url(#p1f730ff1fa)" d="M 375.55356 529.493125 
L 386.74684 529.493125 
L 386.74684 527.945461 
L 375.55356 527.945461 
z
" style="fill:#bd9b4a;stroke:#ffffff;stroke-linejoin:miter;"/>
   </g>
   <g id="patch_26">
    <path clip-path="url(#p1f730ff1fa)" d="M 389.54516 529.493125 
L 400.73844 529.493125 
L 400.73844 528.184601 
L 389.54516 528.184601 
z
" style="fill:#ba9b49;stroke:#ffffff;stroke-linejoin:miter;"/>
   </g>
   <g id="patch_27">
    <path clip-path="url(#p1f730ff1fa)" d="M 403.53676 529.493125 
L 414.73004 529.493125 
L 414.73004 522.793959 
L 403.53676 522.793959 
z
" style="fill:#b89c49;stroke:#ffffff;stroke-linejoin:miter;"/>
   </g>
   <g id="patch_28">
    <path clip-path="url(#p1f730ff1fa)" d="M 417.52836 529.493125 
L 428.72164 529.493125 
L 428.72164 528.478263 
L 417.52836 528.478263 
z
" style="fill:#b59c49;stroke:#ffffff;stroke-linejoin:miter;"/>
   </g>
   <g id="patch_29">
    <path clip-path="url(#p1f730ff1fa)" d="M 431.51996 529.493125 
L 442.71324 529.493125 
L 442.71324 528.328733 
L 431.51996 528.328733 
z
" style="fill:#b29d48;stroke:#ffffff;stroke-linejoin:miter;"/>
   </g>
   <g id="patch_30">
    <path clip-path="url(#p1f730ff1fa)" d="M 445.51156 529.493125 
L 456.70484 529.493125 
L 456.70484 528.267734 
L 445.51156 528.267734 
z
" style="fill:#af9d48;stroke:#ffffff;stroke-linejoin:miter;"/>
   </g>
   <g id="patch_31">
    <path clip-path="url(#p1f730ff1fa)" d="M 459.50316 529.493125 
L 470.69644 529.493125 
L 470.69644 528.736837 
L 459.50316 528.736837 
z
" style="fill:#ac9e47;stroke:#ffffff;stroke-linejoin:miter;"/>
   </g>
   <g id="patch_32">
    <path clip-path="url(#p1f730ff1fa)" d="M 473.49476 529.493125 
L 484.68804 529.493125 
L 484.68804 528.045868 
L 473.49476 528.045868 
z
" style="fill:#aa9e47;stroke:#ffffff;stroke-linejoin:miter;"/>
   </g>
   <g id="patch_33">
    <path clip-path="url(#p1f730ff1fa)" d="M 487.48636 529.493125 
L 498.67964 529.493125 
L 498.67964 527.914691 
L 487.48636 527.914691 
z
" style="fill:#a79f46;stroke:#ffffff;stroke-linejoin:miter;"/>
   </g>
   <g id="patch_34">
    <path clip-path="url(#p1f730ff1fa)" d="M 501.47796 529.493125 
L 512.67124 529.493125 
L 512.67124 528.48906 
L 501.47796 528.48906 
z
" style="fill:#a49f46;stroke:#ffffff;stroke-linejoin:miter;"/>
   </g>
   <g id="patch_35">
    <path clip-path="url(#p1f730ff1fa)" d="M 515.46956 529.493125 
L 526.66284 529.493125 
L 526.66284 527.057997 
L 515.46956 527.057997 
z
" style="fill:#a19f46;stroke:#ffffff;stroke-linejoin:miter;"/>
   </g>
   <g id="patch_36">
    <path clip-path="url(#p1f730ff1fa)" d="M 529.46116 529.493125 
L 540.65444 529.493125 
L 540.65444 528.002682 
L 529.46116 528.002682 
z
" style="fill:#9ea045;stroke:#ffffff;stroke-linejoin:miter;"/>
   </g>
   <g id="patch_37">
    <path clip-path="url(#p1f730ff1fa)" d="M 543.45276 529.493125 
L 554.64604 529.493125 
L 554.64604 528.876111 
L 543.45276 528.876111 
z
" style="fill:#9ca145;stroke:#ffffff;stroke-linejoin:miter;"/>
   </g>
   <g id="patch_38">
    <path clip-path="url(#p1f730ff1fa)" d="M 557.44436 529.493125 
L 568.63764 529.493125 
L 568.63764 527.144368 
L 557.44436 527.144368 
z
" style="fill:#99a246;stroke:#ffffff;stroke-linejoin:miter;"/>
   </g>
   <g id="patch_39">
    <path clip-path="url(#p1f730ff1fa)" d="M 571.43596 529.493125 
L 582.62924 529.493125 
L 582.62924 526.589973 
L 571.43596 526.589973 
z
" style="fill:#96a346;stroke:#ffffff;stroke-linejoin:miter;"/>
   </g>
   <g id="patch_40">
    <path clip-path="url(#p1f730ff1fa)" d="M 585.42756 529.493125 
L 596.62084 529.493125 
L 596.62084 524.724355 
L 585.42756 524.724355 
z
" style="fill:#94a346;stroke:#ffffff;stroke-linejoin:miter;"/>
   </g>
   <g id="patch_41">
    <path clip-path="url(#p1f730ff1fa)" d="M 599.41916 529.493125 
L 610.61244 529.493125 
L 610.61244 521.724576 
L 599.41916 521.724576 
z
" style="fill:#90a446;stroke:#ffffff;stroke-linejoin:miter;"/>
   </g>
   <g id="patch_42">
    <path clip-path="url(#p1f730ff1fa)" d="M 613.41076 529.493125 
L 624.60404 529.493125 
L 624.60404 528.575431 
L 613.41076 528.575431 
z
" style="fill:#8da546;stroke:#ffffff;stroke-linejoin:miter;"/>
   </g>
   <g id="patch_43">
    <path clip-path="url(#p1f730ff1fa)" d="M 627.40236 529.493125 
L 638.59564 529.493125 
L 638.59564 527.095245 
L 627.40236 527.095245 
z
" style="fill:#8aa646;stroke:#ffffff;stroke-linejoin:miter;"/>
   </g>
   <g id="patch_44">
    <path clip-path="url(#p1f730ff1fa)" d="M 641.39396 529.493125 
L 652.58724 529.493125 
L 652.58724 528.606201 
L 641.39396 528.606201 
z
" style="fill:#86a746;stroke:#ffffff;stroke-linejoin:miter;"/>
   </g>
   <g id="patch_45">
    <path clip-path="url(#p1f730ff1fa)" d="M 655.38556 529.493125 
L 666.57884 529.493125 
L 666.57884 528.437237 
L 655.38556 528.437237 
z
" style="fill:#82a846;stroke:#ffffff;stroke-linejoin:miter;"/>
   </g>
   <g id="patch_46">
    <path clip-path="url(#p1f730ff1fa)" d="M 669.37716 529.493125 
L 680.57044 529.493125 
L 680.57044 528.859916 
L 669.37716 528.859916 
z
" style="fill:#7da947;stroke:#ffffff;stroke-linejoin:miter;"/>
   </g>
   <g id="patch_47">
    <path clip-path="url(#p1f730ff1fa)" d="M 683.36876 529.493125 
L 694.56204 529.493125 
L 694.56204 528.374078 
L 683.36876 528.374078 
z
" style="fill:#78aa47;stroke:#ffffff;stroke-linejoin:miter;"/>
   </g>
   <g id="patch_48">
    <path clip-path="url(#p1f730ff1fa)" d="M 697.36036 529.493125 
L 708.55364 529.493125 
L 708.55364 528.852359 
L 697.36036 528.852359 
z
" style="fill:#72ab47;stroke:#ffffff;stroke-linejoin:miter;"/>
   </g>
   <g id="patch_49">
    <path clip-path="url(#p1f730ff1fa)" d="M 711.35196 529.493125 
L 722.54524 529.493125 
L 722.54524 529.157357 
L 711.35196 529.157357 
z
" style="fill:#6bad47;stroke:#ffffff;stroke-linejoin:miter;"/>
   </g>
   <g id="patch_50">
    <path clip-path="url(#p1f730ff1fa)" d="M 725.34356 529.493125 
L 736.53684 529.493125 
L 736.53684 528.485281 
L 725.34356 528.485281 
z
" style="fill:#63ae47;stroke:#ffffff;stroke-linejoin:miter;"/>
   </g>
   <g id="patch_51">
    <path clip-path="url(#p1f730ff1fa)" d="M 739.33516 529.493125 
L 750.52844 529.493125 
L 750.52844 529.086641 
L 739.33516 529.086641 
z
" style="fill:#59af47;stroke:#ffffff;stroke-linejoin:miter;"/>
   </g>
   <g id="patch_52">
    <path clip-path="url(#p1f730ff1fa)" d="M 753.32676 529.493125 
L 764.52004 529.493125 
L 764.52004 527.0499 
L 753.32676 527.0499 
z
" style="fill:#49b147;stroke:#ffffff;stroke-linejoin:miter;"/>
   </g>
   <g id="patch_53">
    <path clip-path="url(#p1f730ff1fa)" d="M 767.31836 529.493125 
L 778.51164 529.493125 
L 778.51164 528.412405 
L 767.31836 528.412405 
z
" style="fill:#48b056;stroke:#ffffff;stroke-linejoin:miter;"/>
   </g>
   <g id="patch_54">
    <path clip-path="url(#p1f730ff1fa)" d="M 781.30996 529.493125 
L 792.50324 529.493125 
L 792.50324 529.225374 
L 781.30996 529.225374 
z
" style="fill:#48b061;stroke:#ffffff;stroke-linejoin:miter;"/>
   </g>
   <g id="patch_55">
    <path clip-path="url(#p1f730ff1fa)" d="M 795.30156 529.493125 
L 806.49484 529.493125 
L 806.49484 528.886907 
L 795.30156 528.886907 
z
" style="fill:#48b06a;stroke:#ffffff;stroke-linejoin:miter;"/>
   </g>
   <g id="patch_56">
    <path clip-path="url(#p1f730ff1fa)" d="M 809.29316 529.493125 
L 820.48644 529.493125 
L 820.48644 529.052632 
L 809.29316 529.052632 
z
" style="fill:#48af71;stroke:#ffffff;stroke-linejoin:miter;"/>
   </g>
   <g id="patch_57">
    <path clip-path="url(#p1f730ff1fa)" d="M 823.28476 529.493125 
L 834.47804 529.493125 
L 834.47804 529.190286 
L 823.28476 529.190286 
z
" style="fill:#49af76;stroke:#ffffff;stroke-linejoin:miter;"/>
   </g>
   <g id="patch_58">
    <path clip-path="url(#p1f730ff1fa)" d="M 837.27636 529.493125 
L 848.46964 529.493125 
L 848.46964 528.943048 
L 837.27636 528.943048 
z
" style="fill:#49af7b;stroke:#ffffff;stroke-linejoin:miter;"/>
   </g>
   <g id="patch_59">
    <path clip-path="url(#p1f730ff1fa)" d="M 851.26796 529.493125 
L 862.46124 529.493125 
L 862.46124 528.912279 
L 851.26796 528.912279 
z
" style="fill:#49ae7f;stroke:#ffffff;stroke-linejoin:miter;"/>
   </g>
   <g id="patch_60">
    <path clip-path="url(#p1f730ff1fa)" d="M 865.25956 529.493125 
L 876.45284 529.493125 
L 876.45284 528.743855 
L 865.25956 528.743855 
z
" style="fill:#49ae83;stroke:#ffffff;stroke-linejoin:miter;"/>
   </g>
   <g id="patch_61">
    <path clip-path="url(#p1f730ff1fa)" d="M 879.25116 529.493125 
L 890.44444 529.493125 
L 890.44444 528.645068 
L 879.25116 528.645068 
z
" style="fill:#49ae87;stroke:#ffffff;stroke-linejoin:miter;"/>
   </g>
   <g id="patch_62">
    <path clip-path="url(#p1f730ff1fa)" d="M 893.24276 529.493125 
L 904.43604 529.493125 
L 904.43604 518.783097 
L 893.24276 518.783097 
z
" style="fill:#4aae8a;stroke:#ffffff;stroke-linejoin:miter;"/>
   </g>
   <g id="patch_63">
    <path clip-path="url(#p1f730ff1fa)" d="M 907.23436 529.493125 
L 918.42764 529.493125 
L 918.42764 529.143861 
L 907.23436 529.143861 
z
" style="fill:#4aad8d;stroke:#ffffff;stroke-linejoin:miter;"/>
   </g>
   <g id="patch_64">
    <path clip-path="url(#p1f730ff1fa)" d="M 921.22596 529.493125 
L 932.41924 529.493125 
L 932.41924 528.959243 
L 921.22596 528.959243 
z
" style="fill:#4aad8f;stroke:#ffffff;stroke-linejoin:miter;"/>
   </g>
   <g id="patch_65">
    <path clip-path="url(#p1f730ff1fa)" d="M 935.21756 529.493125 
L 946.41084 529.493125 
L 946.41084 529.217817 
L 935.21756 529.217817 
z
" style="fill:#4aad92;stroke:#ffffff;stroke-linejoin:miter;"/>
   </g>
   <g id="patch_66">
    <path clip-path="url(#p1f730ff1fa)" d="M 949.20916 529.493125 
L 960.40244 529.493125 
L 960.40244 529.218896 
L 949.20916 529.218896 
z
" style="fill:#4aad94;stroke:#ffffff;stroke-linejoin:miter;"/>
   </g>
   <g id="patch_67">
    <path clip-path="url(#p1f730ff1fa)" d="M 963.20076 529.493125 
L 974.39404 529.493125 
L 974.39404 528.978137 
L 963.20076 528.978137 
z
" style="fill:#4aac97;stroke:#ffffff;stroke-linejoin:miter;"/>
   </g>
   <g id="patch_68">
    <path clip-path="url(#p1f730ff1fa)" d="M 977.19236 529.493125 
L 988.38564 529.493125 
L 988.38564 529.201082 
L 977.19236 529.201082 
z
" style="fill:#4aac99;stroke:#ffffff;stroke-linejoin:miter;"/>
   </g>
   <g id="patch_69">
    <path clip-path="url(#p1f730ff1fa)" d="M 991.18396 529.493125 
L 1002.37724 529.493125 
L 1002.37724 528.741696 
L 991.18396 528.741696 
z
" style="fill:#4aac9b;stroke:#ffffff;stroke-linejoin:miter;"/>
   </g>
   <g id="patch_70">
    <path clip-path="url(#p1f730ff1fa)" d="M 1005.17556 529.493125 
L 1016.36884 529.493125 
L 1016.36884 528.845881 
L 1005.17556 528.845881 
z
" style="fill:#4bac9d;stroke:#ffffff;stroke-linejoin:miter;"/>
   </g>
   <g id="patch_71">
    <path clip-path="url(#p1f730ff1fa)" d="M 1019.16716 529.493125 
L 1030.36044 529.493125 
L 1030.36044 529.142782 
L 1019.16716 529.142782 
z
" style="fill:#4bac9f;stroke:#ffffff;stroke-linejoin:miter;"/>
   </g>
   <g id="patch_72">
    <path clip-path="url(#p1f730ff1fa)" d="M 1033.15876 529.493125 
L 1044.35204 529.493125 
L 1044.35204 527.551932 
L 1033.15876 527.551932 
z
" style="fill:#4baca1;stroke:#ffffff;stroke-linejoin:miter;"/>
   </g>
   <g id="patch_73">
    <path clip-path="url(#p1f730ff1fa)" d="M 1047.15036 529.493125 
L 1058.34364 529.493125 
L 1058.34364 528.920376 
L 1047.15036 528.920376 
z
" style="fill:#4baba2;stroke:#ffffff;stroke-linejoin:miter;"/>
   </g>
   <g id="patch_74">
    <path clip-path="url(#p1f730ff1fa)" d="M 1061.14196 529.493125 
L 1072.33524 529.493125 
L 1072.33524 528.323875 
L 1061.14196 528.323875 
z
" style="fill:#4baba4;stroke:#ffffff;stroke-linejoin:miter;"/>
   </g>
   <g id="patch_75">
    <path clip-path="url(#p1f730ff1fa)" d="M 1075.13356 529.493125 
L 1086.32684 529.493125 
L 1086.32684 529.091499 
L 1075.13356 529.091499 
z
" style="fill:#4baba6;stroke:#ffffff;stroke-linejoin:miter;"/>
   </g>
   <g id="patch_76">
    <path clip-path="url(#p1f730ff1fa)" d="M 1089.12516 529.493125 
L 1100.31844 529.493125 
L 1100.31844 526.164055 
L 1089.12516 526.164055 
z
" style="fill:#4baba8;stroke:#ffffff;stroke-linejoin:miter;"/>
   </g>
   <g id="patch_77">
    <path clip-path="url(#p1f730ff1fa)" d="M 1103.11676 529.493125 
L 1114.31004 529.493125 
L 1114.31004 527.892559 
L 1103.11676 527.892559 
z
" style="fill:#4baba9;stroke:#ffffff;stroke-linejoin:miter;"/>
   </g>
   <g id="patch_78">
    <path clip-path="url(#p1f730ff1fa)" d="M 1117.10836 529.493125 
L 1128.30164 529.493125 
L 1128.30164 522.335652 
L 1117.10836 522.335652 
z
" style="fill:#4cabab;stroke:#ffffff;stroke-linejoin:miter;"/>
   </g>
   <g id="patch_79">
    <path clip-path="url(#p1f730ff1fa)" d="M 1131.09996 529.493125 
L 1142.29324 529.493125 
L 1142.29324 529.332798 
L 1131.09996 529.332798 
z
" style="fill:#4cabad;stroke:#ffffff;stroke-linejoin:miter;"/>
   </g>
   <g id="patch_80">
    <path clip-path="url(#p1f730ff1fa)" d="M 1145.09156 529.493125 
L 1156.28484 529.493125 
L 1156.28484 529.228073 
L 1145.09156 529.228073 
z
" style="fill:#4cabaf;stroke:#ffffff;stroke-linejoin:miter;"/>
   </g>
   <g id="patch_81">
    <path clip-path="url(#p1f730ff1fa)" d="M 1159.08316 529.493125 
L 1170.27644 529.493125 
L 1170.27644 529.280976 
L 1159.08316 529.280976 
z
" style="fill:#4dabb2;stroke:#ffffff;stroke-linejoin:miter;"/>
   </g>
   <g id="patch_82">
    <path clip-path="url(#p1f730ff1fa)" d="M 1173.07476 529.493125 
L 1184.26804 529.493125 
L 1184.26804 529.200003 
L 1173.07476 529.200003 
z
" style="fill:#4dabb4;stroke:#ffffff;stroke-linejoin:miter;"/>
   </g>
   <g id="patch_83">
    <path clip-path="url(#p1f730ff1fa)" d="M 1187.06636 529.493125 
L 1198.25964 529.493125 
L 1198.25964 529.039136 
L 1187.06636 529.039136 
z
" style="fill:#4eabb6;stroke:#ffffff;stroke-linejoin:miter;"/>
   </g>
   <g id="patch_84">
    <path clip-path="url(#p1f730ff1fa)" d="M 1201.05796 529.493125 
L 1212.25124 529.493125 
L 1212.25124 529.285834 
L 1201.05796 529.285834 
z
" style="fill:#4eabb8;stroke:#ffffff;stroke-linejoin:miter;"/>
   </g>
   <g id="patch_85">
    <path clip-path="url(#p1f730ff1fa)" d="M 1215.04956 529.493125 
L 1226.24284 529.493125 
L 1226.24284 529.115251 
L 1215.04956 529.115251 
z
" style="fill:#4fabba;stroke:#ffffff;stroke-linejoin:miter;"/>
   </g>
   <g id="patch_86">
    <path clip-path="url(#p1f730ff1fa)" d="M 1229.04116 529.493125 
L 1240.23444 529.493125 
L 1240.23444 528.443175 
L 1229.04116 528.443175 
z
" style="fill:#4fabbd;stroke:#ffffff;stroke-linejoin:miter;"/>
   </g>
   <g id="patch_87">
    <path clip-path="url(#p1f730ff1fa)" d="M 1243.03276 529.493125 
L 1254.22604 529.493125 
L 1254.22604 528.772465 
L 1243.03276 528.772465 
z
" style="fill:#50acbf;stroke:#ffffff;stroke-linejoin:miter;"/>
   </g>
   <g id="patch_88">
    <path clip-path="url(#p1f730ff1fa)" d="M 1257.02436 529.493125 
L 1268.21764 529.493125 
L 1268.21764 529.300949 
L 1257.02436 529.300949 
z
" style="fill:#50acc2;stroke:#ffffff;stroke-linejoin:miter;"/>
   </g>
   <g id="patch_89">
    <path clip-path="url(#p1f730ff1fa)" d="M 1271.01596 529.493125 
L 1282.20924 529.493125 
L 1282.20924 528.372999 
L 1271.01596 528.372999 
z
" style="fill:#51acc5;stroke:#ffffff;stroke-linejoin:miter;"/>
   </g>
   <g id="patch_90">
    <path clip-path="url(#p1f730ff1fa)" d="M 1285.00756 529.493125 
L 1296.20084 529.493125 
L 1296.20084 528.498237 
L 1285.00756 528.498237 
z
" style="fill:#52acc8;stroke:#ffffff;stroke-linejoin:miter;"/>
   </g>
   <g id="patch_91">
    <path clip-path="url(#p1f730ff1fa)" d="M 1298.99916 529.493125 
L 1310.19244 529.493125 
L 1310.19244 529.082322 
L 1298.99916 529.082322 
z
" style="fill:#52accb;stroke:#ffffff;stroke-linejoin:miter;"/>
   </g>
   <g id="patch_92">
    <path clip-path="url(#p1f730ff1fa)" d="M 1312.99076 529.493125 
L 1324.18404 529.493125 
L 1324.18404 529.061809 
L 1312.99076 529.061809 
z
" style="fill:#53acce;stroke:#ffffff;stroke-linejoin:miter;"/>
   </g>
   <g id="patch_93">
    <path clip-path="url(#p1f730ff1fa)" d="M 1326.98236 529.493125 
L 1338.17564 529.493125 
L 1338.17564 528.509573 
L 1326.98236 528.509573 
z
" style="fill:#54acd2;stroke:#ffffff;stroke-linejoin:miter;"/>
   </g>
   <g id="patch_94">
    <path clip-path="url(#p1f730ff1fa)" d="M 1340.97396 529.493125 
L 1352.16724 529.493125 
L 1352.16724 529.265321 
L 1340.97396 529.265321 
z
" style="fill:#55acd6;stroke:#ffffff;stroke-linejoin:miter;"/>
   </g>
   <g id="patch_95">
    <path clip-path="url(#p1f730ff1fa)" d="M 1354.96556 529.493125 
L 1366.15884 529.493125 
L 1366.15884 528.794058 
L 1354.96556 528.794058 
z
" style="fill:#56acda;stroke:#ffffff;stroke-linejoin:miter;"/>
   </g>
   <g id="patch_96">
    <path clip-path="url(#p1f730ff1fa)" d="M 1368.95716 529.493125 
L 1380.15044 529.493125 
L 1380.15044 529.341975 
L 1368.95716 529.341975 
z
" style="fill:#57addf;stroke:#ffffff;stroke-linejoin:miter;"/>
   </g>
   <g id="patch_97">
    <path clip-path="url(#p1f730ff1fa)" d="M 1382.94876 529.493125 
L 1394.14204 529.493125 
L 1394.14204 526.639097 
L 1382.94876 526.639097 
z
" style="fill:#64ade1;stroke:#ffffff;stroke-linejoin:miter;"/>
   </g>
   <g id="patch_98">
    <path clip-path="url(#p1f730ff1fa)" d="M 1396.94036 529.493125 
L 1408.13364 529.493125 
L 1408.13364 528.839943 
L 1396.94036 528.839943 
z
" style="fill:#71aee3;stroke:#ffffff;stroke-linejoin:miter;"/>
   </g>
   <g id="patch_99">
    <path clip-path="url(#p1f730ff1fa)" d="M 1410.93196 529.493125 
L 1422.12524 529.493125 
L 1422.12524 528.60944 
L 1410.93196 528.60944 
z
" style="fill:#7baee4;stroke:#ffffff;stroke-linejoin:miter;"/>
   </g>
   <g id="patch_100">
    <path clip-path="url(#p1f730ff1fa)" d="M 1424.92356 529.493125 
L 1436.11684 529.493125 
L 1436.11684 529.32902 
L 1424.92356 529.32902 
z
" style="fill:#83aee6;stroke:#ffffff;stroke-linejoin:miter;"/>
   </g>
   <g id="patch_101">
    <path clip-path="url(#p1f730ff1fa)" d="M 1438.91516 529.493125 
L 1450.10844 529.493125 
L 1450.10844 529.351692 
L 1438.91516 529.351692 
z
" style="fill:#8baee7;stroke:#ffffff;stroke-linejoin:miter;"/>
   </g>
   <g id="patch_102">
    <path clip-path="url(#p1f730ff1fa)" d="M 1452.90676 529.493125 
L 1464.10004 529.493125 
L 1464.10004 529.411072 
L 1452.90676 529.411072 
z
" style="fill:#91aee8;stroke:#ffffff;stroke-linejoin:miter;"/>
   </g>
   <g id="patch_103">
    <path clip-path="url(#p1f730ff1fa)" d="M 1466.89836 529.493125 
L 1478.09164 529.493125 
L 1478.09164 529.408913 
L 1466.89836 529.408913 
z
" style="fill:#98ade9;stroke:#ffffff;stroke-linejoin:miter;"/>
   </g>
   <g id="patch_104">
    <path clip-path="url(#p1f730ff1fa)" d="M 1480.88996 529.493125 
L 1492.08324 529.493125 
L 1492.08324 529.319843 
L 1480.88996 529.319843 
z
" style="fill:#9dade9;stroke:#ffffff;stroke-linejoin:miter;"/>
   </g>
   <g id="patch_105">
    <path clip-path="url(#p1f730ff1fa)" d="M 1494.88156 529.493125 
L 1506.07484 529.493125 
L 1506.07484 529.393258 
L 1494.88156 529.393258 
z
" style="fill:#a3adea;stroke:#ffffff;stroke-linejoin:miter;"/>
   </g>
   <g id="patch_106">
    <path clip-path="url(#p1f730ff1fa)" d="M 1508.87316 529.493125 
L 1520.06644 529.493125 
L 1520.06644 529.323082 
L 1508.87316 529.323082 
z
" style="fill:#a8aceb;stroke:#ffffff;stroke-linejoin:miter;"/>
   </g>
   <g id="patch_107">
    <path clip-path="url(#p1f730ff1fa)" d="M 1522.86476 529.493125 
L 1534.05804 529.493125 
L 1534.05804 529.248587 
L 1522.86476 529.248587 
z
" style="fill:#adabeb;stroke:#ffffff;stroke-linejoin:miter;"/>
   </g>
   <g id="patch_108">
    <path clip-path="url(#p1f730ff1fa)" d="M 1536.85636 529.493125 
L 1548.04964 529.493125 
L 1548.04964 529.41917 
L 1536.85636 529.41917 
z
" style="fill:#b1aaeb;stroke:#ffffff;stroke-linejoin:miter;"/>
   </g>
   <g id="patch_109">
    <path clip-path="url(#p1f730ff1fa)" d="M 1550.84796 529.493125 
L 1562.04124 529.493125 
L 1562.04124 529.272339 
L 1550.84796 529.272339 
z
" style="fill:#b4a8eb;stroke:#ffffff;stroke-linejoin:miter;"/>
   </g>
   <g id="patch_110">
    <path clip-path="url(#p1f730ff1fa)" d="M 1564.83956 529.493125 
L 1576.03284 529.493125 
L 1576.03284 529.318763 
L 1564.83956 529.318763 
z
" style="fill:#b8a7eb;stroke:#ffffff;stroke-linejoin:miter;"/>
   </g>
   <g id="patch_111">
    <path clip-path="url(#p1f730ff1fa)" d="M 1578.83116 529.493125 
L 1590.02444 529.493125 
L 1590.02444 529.420789 
L 1578.83116 529.420789 
z
" style="fill:#bba5ea;stroke:#ffffff;stroke-linejoin:miter;"/>
   </g>
   <g id="patch_112">
    <path clip-path="url(#p1f730ff1fa)" d="M 1592.82276 529.493125 
L 1604.01604 529.493125 
L 1604.01604 529.408373 
L 1592.82276 529.408373 
z
" style="fill:#bfa4ea;stroke:#ffffff;stroke-linejoin:miter;"/>
   </g>
   <g id="patch_113">
    <path clip-path="url(#p1f730ff1fa)" d="M 1606.81436 529.493125 
L 1618.00764 529.493125 
L 1618.00764 528.326574 
L 1606.81436 528.326574 
z
" style="fill:#c2a2ea;stroke:#ffffff;stroke-linejoin:miter;"/>
   </g>
   <g id="patch_114">
    <path clip-path="url(#p1f730ff1fa)" d="M 1620.80596 529.493125 
L 1631.99924 529.493125 
L 1631.99924 529.300949 
L 1620.80596 529.300949 
z
" style="fill:#c5a0ea;stroke:#ffffff;stroke-linejoin:miter;"/>
   </g>
   <g id="patch_115">
    <path clip-path="url(#p1f730ff1fa)" d="M 1634.79756 529.493125 
L 1645.99084 529.493125 
L 1645.99084 529.090959 
L 1634.79756 529.090959 
z
" style="fill:#c99ee9;stroke:#ffffff;stroke-linejoin:miter;"/>
   </g>
   <g id="patch_116">
    <path clip-path="url(#p1f730ff1fa)" d="M 1648.78916 529.493125 
L 1659.98244 529.493125 
L 1659.98244 529.41755 
L 1648.78916 529.41755 
z
" style="fill:#cc9ce9;stroke:#ffffff;stroke-linejoin:miter;"/>
   </g>
   <g id="patch_117">
    <path clip-path="url(#p1f730ff1fa)" d="M 1662.78076 529.493125 
L 1673.97404 529.493125 
L 1673.97404 529.308507 
L 1662.78076 529.308507 
z
" style="fill:#cf9ae9;stroke:#ffffff;stroke-linejoin:miter;"/>
   </g>
   <g id="patch_118">
    <path clip-path="url(#p1f730ff1fa)" d="M 1676.77236 529.493125 
L 1687.96564 529.493125 
L 1687.96564 527.262589 
L 1676.77236 527.262589 
z
" style="fill:#d398e8;stroke:#ffffff;stroke-linejoin:miter;"/>
   </g>
   <g id="patch_119">
    <path clip-path="url(#p1f730ff1fa)" d="M 1690.76396 529.493125 
L 1701.95724 529.493125 
L 1701.95724 528.762209 
L 1690.76396 528.762209 
z
" style="fill:#d696e8;stroke:#ffffff;stroke-linejoin:miter;"/>
   </g>
   <g id="patch_120">
    <path clip-path="url(#p1f730ff1fa)" d="M 1704.75556 529.493125 
L 1715.94884 529.493125 
L 1715.94884 529.141702 
L 1704.75556 529.141702 
z
" style="fill:#da93e8;stroke:#ffffff;stroke-linejoin:miter;"/>
   </g>
   <g id="patch_121">
    <path clip-path="url(#p1f730ff1fa)" d="M 1718.74716 529.493125 
L 1729.94044 529.493125 
L 1729.94044 529.180569 
L 1718.74716 529.180569 
z
" style="fill:#dd90e7;stroke:#ffffff;stroke-linejoin:miter;"/>
   </g>
   <g id="patch_122">
    <path clip-path="url(#p1f730ff1fa)" d="M 1732.73876 529.493125 
L 1743.93204 529.493125 
L 1743.93204 529.29771 
L 1732.73876 529.29771 
z
" style="fill:#e18de7;stroke:#ffffff;stroke-linejoin:miter;"/>
   </g>
   <g id="patch_123">
    <path clip-path="url(#p1f730ff1fa)" d="M 1746.73036 529.493125 
L 1757.92364 529.493125 
L 1757.92364 529.29771 
L 1746.73036 529.29771 
z
" style="fill:#e589e6;stroke:#ffffff;stroke-linejoin:miter;"/>
   </g>
   <g id="patch_124">
    <path clip-path="url(#p1f730ff1fa)" d="M 1760.72196 529.493125 
L 1771.91524 529.493125 
L 1771.91524 529.219436 
L 1760.72196 529.219436 
z
" style="fill:#e689e3;stroke:#ffffff;stroke-linejoin:miter;"/>
   </g>
   <g id="patch_125">
    <path clip-path="url(#p1f730ff1fa)" d="M 1774.71356 529.493125 
L 1785.90684 529.493125 
L 1785.90684 529.102835 
L 1774.71356 529.102835 
z
" style="fill:#e78adf;stroke:#ffffff;stroke-linejoin:miter;"/>
   </g>
   <g id="patch_126">
    <path clip-path="url(#p1f730ff1fa)" d="M 1788.70516 529.493125 
L 1799.89844 529.493125 
L 1799.89844 529.286914 
L 1788.70516 529.286914 
z
" style="fill:#e78bdc;stroke:#ffffff;stroke-linejoin:miter;"/>
   </g>
   <g id="patch_127">
    <path clip-path="url(#p1f730ff1fa)" d="M 1802.69676 529.493125 
L 1813.89004 529.493125 
L 1813.89004 529.23887 
L 1802.69676 529.23887 
z
" style="fill:#e78cd8;stroke:#ffffff;stroke-linejoin:miter;"/>
   </g>
   <g id="patch_128">
    <path clip-path="url(#p1f730ff1fa)" d="M 1816.68836 529.493125 
L 1827.88164 529.493125 
L 1827.88164 529.068827 
L 1816.68836 529.068827 
z
" style="fill:#e78dd5;stroke:#ffffff;stroke-linejoin:miter;"/>
   </g>
   <g id="patch_129">
    <path clip-path="url(#p1f730ff1fa)" d="M 1830.67996 529.493125 
L 1841.87324 529.493125 
L 1841.87324 529.444541 
L 1830.67996 529.444541 
z
" style="fill:#e78dd2;stroke:#ffffff;stroke-linejoin:miter;"/>
   </g>
   <g id="patch_130">
    <path clip-path="url(#p1f730ff1fa)" d="M 1844.67156 529.493125 
L 1855.86484 529.493125 
L 1855.86484 529.430506 
L 1844.67156 529.430506 
z
" style="fill:#e88ecf;stroke:#ffffff;stroke-linejoin:miter;"/>
   </g>
   <g id="patch_131">
    <path clip-path="url(#p1f730ff1fa)" d="M 1858.66316 529.493125 
L 1869.85644 529.493125 
L 1869.85644 529.361949 
L 1858.66316 529.361949 
z
" style="fill:#e88fcc;stroke:#ffffff;stroke-linejoin:miter;"/>
   </g>
   <g id="patch_132">
    <path clip-path="url(#p1f730ff1fa)" d="M 1872.65476 529.493125 
L 1883.84804 529.493125 
L 1883.84804 529.26748 
L 1872.65476 529.26748 
z
" style="fill:#e88fc9;stroke:#ffffff;stroke-linejoin:miter;"/>
   </g>
   <g id="patch_133">
    <path clip-path="url(#p1f730ff1fa)" d="M 1886.64636 529.493125 
L 1897.83964 529.493125 
L 1897.83964 529.400816 
L 1886.64636 529.400816 
z
" style="fill:#e890c6;stroke:#ffffff;stroke-linejoin:miter;"/>
   </g>
   <g id="patch_134">
    <path clip-path="url(#p1f730ff1fa)" d="M 1900.63796 529.493125 
L 1911.83124 529.493125 
L 1911.83124 529.323622 
L 1900.63796 529.323622 
z
" style="fill:#e891c3;stroke:#ffffff;stroke-linejoin:miter;"/>
   </g>
   <g id="patch_135">
    <path clip-path="url(#p1f730ff1fa)" d="M 1914.62956 529.493125 
L 1925.82284 529.493125 
L 1925.82284 529.371126 
L 1914.62956 529.371126 
z
" style="fill:#e891c1;stroke:#ffffff;stroke-linejoin:miter;"/>
   </g>
   <g id="patch_136">
    <path clip-path="url(#p1f730ff1fa)" d="M 1928.62116 529.493125 
L 1939.81444 529.493125 
L 1939.81444 529.436444 
L 1928.62116 529.436444 
z
" style="fill:#e992be;stroke:#ffffff;stroke-linejoin:miter;"/>
   </g>
   <g id="patch_137">
    <path clip-path="url(#p1f730ff1fa)" d="M 1942.61276 529.493125 
L 1953.80604 529.493125 
L 1953.80604 529.385161 
L 1942.61276 529.385161 
z
" style="fill:#e992bb;stroke:#ffffff;stroke-linejoin:miter;"/>
   </g>
   <g id="patch_138">
    <path clip-path="url(#p1f730ff1fa)" d="M 1956.60436 529.493125 
L 1967.79764 529.493125 
L 1967.79764 529.426187 
L 1956.60436 529.426187 
z
" style="fill:#e993b9;stroke:#ffffff;stroke-linejoin:miter;"/>
   </g>
   <g id="patch_139">
    <path clip-path="url(#p1f730ff1fa)" d="M 1970.59596 529.493125 
L 1981.78924 529.493125 
L 1981.78924 528.949526 
L 1970.59596 528.949526 
z
" style="fill:#e993b6;stroke:#ffffff;stroke-linejoin:miter;"/>
   </g>
   <g id="patch_140">
    <path clip-path="url(#p1f730ff1fa)" d="M 1984.58756 529.493125 
L 1995.78084 529.493125 
L 1995.78084 529.339816 
L 1984.58756 529.339816 
z
" style="fill:#e993b3;stroke:#ffffff;stroke-linejoin:miter;"/>
   </g>
   <g id="patch_141">
    <path clip-path="url(#p1f730ff1fa)" d="M 1998.57916 529.493125 
L 2009.77244 529.493125 
L 2009.77244 529.444541 
L 1998.57916 529.444541 
z
" style="fill:#e994b0;stroke:#ffffff;stroke-linejoin:miter;"/>
   </g>
   <g id="patch_142">
    <path clip-path="url(#p1f730ff1fa)" d="M 2012.57076 529.493125 
L 2023.76404 529.493125 
L 2023.76404 529.384621 
L 2012.57076 529.384621 
z
" style="fill:#e994ae;stroke:#ffffff;stroke-linejoin:miter;"/>
   </g>
   <g id="patch_143">
    <path clip-path="url(#p1f730ff1fa)" d="M 2026.56236 529.493125 
L 2037.75564 529.493125 
L 2037.75564 529.38894 
L 2026.56236 529.38894 
z
" style="fill:#e995ab;stroke:#ffffff;stroke-linejoin:miter;"/>
   </g>
   <g id="patch_144">
    <path clip-path="url(#p1f730ff1fa)" d="M 2040.55396 529.493125 
L 2051.74724 529.493125 
L 2051.74724 528.417804 
L 2040.55396 528.417804 
z
" style="fill:#e995a6;stroke:#ffffff;stroke-linejoin:miter;"/>
   </g>
   <g id="patch_145">
    <path d="M 73.335 529.493125 
L 73.335 12.96 
" style="fill:none;stroke:#808080;stroke-linecap:square;stroke-linejoin:miter;stroke-width:1.25;"/>
   </g>
   <g id="patch_146">
    <path d="M 772.915 529.493125 
L 772.915 12.96 
" style="fill:none;"/>
   </g>
   <g id="patch_147">
    <path d="M 73.335 529.493125 
L 772.915 529.493125 
" style="fill:none;stroke:#808080;stroke-linecap:square;stroke-linejoin:miter;stroke-width:1.25;"/>
   </g>
   <g id="patch_148">
    <path d="M 73.335 12.96 
L 772.915 12.96 
" style="fill:none;"/>
   </g>
  </g>
 </g>
 <defs>
  <clipPath id="p1f730ff1fa">
   <rect height="516.533125" width="699.58" x="73.335" y="12.96"/>
  </clipPath>
 </defs>
</svg>
