<?xml version="1.0" encoding="utf-8" standalone="no"?>
<!DOCTYPE svg PUBLIC "-//W3C//DTD SVG 1.1//EN"
  "http://www.w3.org/Graphics/SVG/1.1/DTD/svg11.dtd">
<svg height="595.44pt" version="1.1" viewBox="0 0 842.4 595.44" width="842.4pt" xmlns="http://www.w3.org/2000/svg" xmlns:xlink="http://www.w3.org/1999/xlink">
 <metadata>
  <rdf:RDF xmlns:cc="http://creativecommons.org/ns#" xmlns:dc="http://purl.org/dc/elements/1.1/" xmlns:rdf="http://www.w3.org/1999/02/22-rdf-syntax-ns#">
   <cc:Work>
    <dc:type rdf:resource="http://purl.org/dc/dcmitype/StillImage"/>
    <dc:date>2021-10-07T08:42:33.415551</dc:date>
    <dc:format>image/svg+xml</dc:format>
    <dc:creator>
     <cc:Agent>
      <dc:title>Matplotlib v3.4.2, https://matplotlib.org/</dc:title>
     </cc:Agent>
    </dc:creator>
   </cc:Work>
  </rdf:RDF>
 </metadata>
 <defs>
  <style type="text/css">*{stroke-linecap:butt;stroke-linejoin:round;}</style>
 </defs>
 <g id="figure_1">
  <g id="patch_1">
   <path d="M 0 595.44 
L 842.4 595.44 
L 842.4 0 
L 0 0 
z
" style="fill:none;"/>
  </g>
  <g id="axes_1">
   <g id="patch_2">
    <path d="M 44.425 542.04 
L 831.6 542.04 
L 831.6 10.8 
L 44.425 10.8 
z
" style="fill:#ffffff;"/>
   </g>
   <g id="PolyCollection_1">
    <defs>
     <path d="M 178.891264 -77.547273 
L 172.350403 -77.547273 
L 170.200782 -80.084063 
L 167.110418 -82.620854 
L 162.937424 -85.157645 
L 157.638829 -87.694435 
L 151.301187 -90.231226 
L 144.14077 -92.768017 
L 136.468837 -95.304807 
L 128.63286 -97.841598 
L 120.956967 -100.378389 
L 113.70639 -102.915179 
L 107.088842 -105.45197 
L 101.285962 -107.988761 
L 96.491141 -110.525551 
L 92.926143 -113.062342 
L 90.820488 -115.599133 
L 90.358377 -118.135923 
L 91.616365 -120.672714 
L 94.521293 -123.209505 
L 98.849099 -125.746295 
L 104.266433 -128.283086 
L 110.398265 -130.819877 
L 116.895018 -133.356667 
L 123.475974 -135.893458 
L 129.938958 -138.430249 
L 136.142284 -140.967039 
L 141.975851 -143.50383 
L 147.339608 -146.040621 
L 152.139992 -148.577411 
L 156.30339 -151.114202 
L 159.796288 -153.650993 
L 162.638978 -156.187783 
L 164.903829 -158.724574 
L 166.697366 -161.261365 
L 168.133112 -163.798155 
L 169.305914 -166.334946 
L 170.276957 -168.871737 
L 171.073435 -171.408527 
L 171.700465 -173.945318 
L 172.158414 -176.482109 
L 172.457727 -179.018899 
L 172.625738 -181.55569 
L 172.704208 -184.092481 
L 172.740393 -186.629271 
L 172.776608 -189.166062 
L 172.842846 -191.702853 
L 172.954605 -194.239643 
L 173.115298 -196.776434 
L 173.320685 -199.313225 
L 173.562698 -201.850015 
L 173.831286 -204.386806 
L 174.114644 -206.923597 
L 174.399146 -209.460387 
L 174.670177 -211.997178 
L 174.914119 -214.533969 
L 175.120751 -217.070759 
L 175.284982 -219.60755 
L 175.40719 -222.144341 
L 175.49212 -224.681131 
L 175.546916 -227.217922 
L 175.579025 -229.754713 
L 175.594514 -232.291503 
L 175.597019 -234.828294 
L 175.587278 -237.365084 
L 175.563153 -239.901875 
L 175.520145 -242.438666 
L 175.452545 -244.975456 
L 175.355339 -247.512247 
L 175.226754 -250.049038 
L 175.070875 -252.585828 
L 174.899349 -255.122619 
L 174.731101 -257.65941 
L 174.589437 -260.1962 
L 174.496924 -262.732991 
L 174.469524 -265.269782 
L 174.512027 -267.806572 
L 174.616545 -270.343363 
L 174.764604 -272.880154 
L 174.93192 -275.416944 
L 175.093946 -277.953735 
L 175.230226 -280.490526 
L 175.32645 -283.027316 
L 175.37432 -285.564107 
L 175.370323 -288.100898 
L 175.314737 -290.637688 
L 175.211721 -293.174479 
L 175.070422 -295.71127 
L 174.906128 -298.24806 
L 174.740112 -300.784851 
L 174.597211 -303.321642 
L 174.501186 -305.858432 
L 174.469158 -308.395223 
L 174.507126 -310.932014 
L 174.608407 -313.468804 
L 174.755679 -316.005595 
L 174.925879 -318.542386 
L 175.096086 -321.079176 
L 175.248378 -323.615967 
L 175.372332 -326.152758 
L 175.464981 -328.689548 
L 175.776685 -328.689548 
L 175.776685 -328.689548 
L 175.869334 -326.152758 
L 175.993288 -323.615967 
L 176.14558 -321.079176 
L 176.315787 -318.542386 
L 176.485987 -316.005595 
L 176.63326 -313.468804 
L 176.73454 -310.932014 
L 176.772509 -308.395223 
L 176.74048 -305.858432 
L 176.644456 -303.321642 
L 176.501555 -300.784851 
L 176.335539 -298.24806 
L 176.171244 -295.71127 
L 176.029945 -293.174479 
L 175.926929 -290.637688 
L 175.871343 -288.100898 
L 175.867347 -285.564107 
L 175.915217 -283.027316 
L 176.01144 -280.490526 
L 176.147721 -277.953735 
L 176.309746 -275.416944 
L 176.477062 -272.880154 
L 176.625121 -270.343363 
L 176.72964 -267.806572 
L 176.772143 -265.269782 
L 176.744743 -262.732991 
L 176.65223 -260.1962 
L 176.510566 -257.65941 
L 176.342318 -255.122619 
L 176.170792 -252.585828 
L 176.014912 -250.049038 
L 175.886327 -247.512247 
L 175.789122 -244.975456 
L 175.721522 -242.438666 
L 175.678514 -239.901875 
L 175.654389 -237.365084 
L 175.644647 -234.828294 
L 175.647152 -232.291503 
L 175.662641 -229.754713 
L 175.69475 -227.217922 
L 175.749547 -224.681131 
L 175.834476 -222.144341 
L 175.956684 -219.60755 
L 176.120916 -217.070759 
L 176.327547 -214.533969 
L 176.57149 -211.997178 
L 176.842521 -209.460387 
L 177.127023 -206.923597 
L 177.410381 -204.386806 
L 177.678969 -201.850015 
L 177.920982 -199.313225 
L 178.126369 -196.776434 
L 178.287062 -194.239643 
L 178.398821 -191.702853 
L 178.465058 -189.166062 
L 178.501274 -186.629271 
L 178.537458 -184.092481 
L 178.615928 -181.55569 
L 178.78394 -179.018899 
L 179.083252 -176.482109 
L 179.541201 -173.945318 
L 180.168231 -171.408527 
L 180.964709 -168.871737 
L 181.935753 -166.334946 
L 183.108554 -163.798155 
L 184.544301 -161.261365 
L 186.337837 -158.724574 
L 188.602689 -156.187783 
L 191.445379 -153.650993 
L 194.938277 -151.114202 
L 199.101675 -148.577411 
L 203.902059 -146.040621 
L 209.265816 -143.50383 
L 215.099383 -140.967039 
L 221.302709 -138.430249 
L 227.765693 -135.893458 
L 234.346649 -133.356667 
L 240.843401 -130.819877 
L 246.975234 -128.283086 
L 252.392568 -125.746295 
L 256.720374 -123.209505 
L 259.625302 -120.672714 
L 260.88329 -118.135923 
L 260.421178 -115.599133 
L 258.315524 -113.062342 
L 254.750525 -110.525551 
L 249.955704 -107.988761 
L 244.152824 -105.45197 
L 237.535277 -102.915179 
L 230.2847 -100.378389 
L 222.608807 -97.841598 
L 214.77283 -95.304807 
L 207.100896 -92.768017 
L 199.94048 -90.231226 
L 193.602838 -87.694435 
L 188.304243 -85.157645 
L 184.131249 -82.620854 
L 181.040885 -80.084063 
L 178.891264 -77.547273 
z
" id="m9f8e72eee9" style="stroke:#3d3d3d;stroke-width:1.5;"/>
    </defs>
    <g clip-path="url(#pa91a9d4f8f)">
     <use style="fill:#3274a1;stroke:#3d3d3d;stroke-width:1.5;" x="0" xlink:href="#m9f8e72eee9" y="595.44"/>
    </g>
   </g>
   <g id="PolyCollection_2">
    <defs>
     <path d="M 452.067067 -93.02675 
L 423.957933 -93.02675 
L 358.598447 -96.12571 
L 335.314985 -99.22467 
L 349.017745 -102.32363 
L 345.690392 -105.42259 
L 338.564423 -108.52155 
L 333.055833 -111.620509 
L 349.756347 -114.719469 
L 352.657676 -117.818429 
L 369.706099 -120.917389 
L 372.557048 -124.016349 
L 382.342151 -127.115309 
L 383.972759 -130.214269 
L 393.76257 -133.313229 
L 396.213895 -136.412189 
L 405.975669 -139.511149 
L 408.322666 -142.610109 
L 414.111658 -145.709069 
L 415.796675 -148.808028 
L 421.528718 -151.906988 
L 423.038024 -155.005948 
L 426.106647 -158.104908 
L 426.952467 -161.203868 
L 429.314738 -164.302828 
L 430.017868 -167.401788 
L 431.85221 -170.500748 
L 432.371887 -173.599708 
L 433.497712 -176.698668 
L 433.785251 -179.797628 
L 434.409864 -182.896588 
L 434.603775 -185.995547 
L 435.226288 -189.094507 
L 435.50278 -192.193467 
L 436.335034 -195.292427 
L 436.572657 -198.391387 
L 436.840738 -201.490347 
L 436.911727 -204.589307 
L 437.036838 -207.688267 
L 437.100754 -210.787227 
L 437.316726 -213.886187 
L 437.376293 -216.985147 
L 437.442746 -220.084106 
L 437.480135 -223.183066 
L 437.599438 -226.282026 
L 437.633907 -229.380986 
L 437.669772 -232.479946 
L 437.674659 -235.578906 
L 437.669216 -238.677866 
L 437.698461 -241.776826 
L 437.829714 -244.875786 
L 437.853903 -247.974746 
L 437.822888 -251.073706 
L 437.829532 -254.172666 
L 437.886132 -257.271625 
L 437.898405 -260.370585 
L 437.890466 -263.469545 
L 437.895455 -266.568505 
L 437.919268 -269.667465 
L 437.925817 -272.766425 
L 437.925559 -275.865385 
L 437.932742 -278.964345 
L 437.957002 -282.063305 
L 437.971821 -285.162265 
L 438.004385 -288.261225 
L 438.007715 -291.360185 
L 437.991525 -294.459144 
L 437.990313 -297.558104 
L 437.998046 -300.657064 
L 438.000138 -303.756024 
L 438.000078 -306.854984 
L 438.002517 -309.953944 
L 438.010589 -313.052904 
L 438.012424 -316.151864 
L 438.012395 -319.250824 
L 438.010172 -322.349784 
L 438.001924 -325.448744 
L 438.002686 -328.547704 
L 438.01064 -331.646663 
L 438.012428 -334.745623 
L 438.012499 -337.844583 
L 438.0125 -340.943543 
L 438.0125 -344.042503 
L 438.0125 -347.141463 
L 438.0125 -350.240423 
L 438.0125 -353.339383 
L 438.0125 -356.438343 
L 438.0125 -359.537303 
L 438.0125 -362.636263 
L 438.0125 -365.735223 
L 438.0125 -368.834182 
L 438.0125 -371.933142 
L 438.0125 -375.032102 
L 438.0125 -378.131062 
L 438.0125 -381.230022 
L 438.012499 -384.328982 
L 438.012378 -387.427942 
L 438.009951 -390.526902 
L 438.00163 -393.625862 
L 438.003032 -396.724822 
L 438.010815 -399.823782 
L 438.014185 -399.823782 
L 438.014185 -399.823782 
L 438.021968 -396.724822 
L 438.02337 -393.625862 
L 438.015049 -390.526902 
L 438.012622 -387.427942 
L 438.012501 -384.328982 
L 438.0125 -381.230022 
L 438.0125 -378.131062 
L 438.0125 -375.032102 
L 438.0125 -371.933142 
L 438.0125 -368.834182 
L 438.0125 -365.735223 
L 438.0125 -362.636263 
L 438.0125 -359.537303 
L 438.0125 -356.438343 
L 438.0125 -353.339383 
L 438.0125 -350.240423 
L 438.0125 -347.141463 
L 438.0125 -344.042503 
L 438.0125 -340.943543 
L 438.012501 -337.844583 
L 438.012572 -334.745623 
L 438.01436 -331.646663 
L 438.022314 -328.547704 
L 438.023076 -325.448744 
L 438.014828 -322.349784 
L 438.012605 -319.250824 
L 438.012576 -316.151864 
L 438.014411 -313.052904 
L 438.022483 -309.953944 
L 438.024922 -306.854984 
L 438.024862 -303.756024 
L 438.026954 -300.657064 
L 438.034687 -297.558104 
L 438.033475 -294.459144 
L 438.017285 -291.360185 
L 438.020615 -288.261225 
L 438.053179 -285.162265 
L 438.067998 -282.063305 
L 438.092258 -278.964345 
L 438.099441 -275.865385 
L 438.099183 -272.766425 
L 438.105732 -269.667465 
L 438.129545 -266.568505 
L 438.134534 -263.469545 
L 438.126595 -260.370585 
L 438.138868 -257.271625 
L 438.195468 -254.172666 
L 438.202112 -251.073706 
L 438.171097 -247.974746 
L 438.195286 -244.875786 
L 438.326539 -241.776826 
L 438.355784 -238.677866 
L 438.350341 -235.578906 
L 438.355228 -232.479946 
L 438.391093 -229.380986 
L 438.425562 -226.282026 
L 438.544865 -223.183066 
L 438.582254 -220.084106 
L 438.648707 -216.985147 
L 438.708274 -213.886187 
L 438.924246 -210.787227 
L 438.988162 -207.688267 
L 439.113273 -204.589307 
L 439.184262 -201.490347 
L 439.452343 -198.391387 
L 439.689966 -195.292427 
L 440.52222 -192.193467 
L 440.798712 -189.094507 
L 441.421225 -185.995547 
L 441.615136 -182.896588 
L 442.239749 -179.797628 
L 442.527288 -176.698668 
L 443.653113 -173.599708 
L 444.17279 -170.500748 
L 446.007132 -167.401788 
L 446.710262 -164.302828 
L 449.072533 -161.203868 
L 449.918353 -158.104908 
L 452.986976 -155.005948 
L 454.496282 -151.906988 
L 460.228325 -148.808028 
L 461.913342 -145.709069 
L 467.702334 -142.610109 
L 470.049331 -139.511149 
L 479.811105 -136.412189 
L 482.26243 -133.313229 
L 492.052241 -130.214269 
L 493.682849 -127.115309 
L 503.467952 -124.016349 
L 506.318901 -120.917389 
L 523.367324 -117.818429 
L 526.268653 -114.719469 
L 542.969167 -111.620509 
L 537.460577 -108.52155 
L 530.334608 -105.42259 
L 527.007255 -102.32363 
L 540.710015 -99.22467 
L 517.426553 -96.12571 
L 452.067067 -93.02675 
z
" id="m60bcb2466e" style="stroke:#3d3d3d;stroke-width:1.5;"/>
    </defs>
    <g clip-path="url(#pa91a9d4f8f)">
     <use style="fill:#e1812c;stroke:#3d3d3d;stroke-width:1.5;" x="0" xlink:href="#m60bcb2466e" y="595.44"/>
    </g>
   </g>
   <g id="PolyCollection_3">
    <defs>
     <path d="M 705.537915 -93.211838 
L 695.270419 -93.211838 
L 660.211653 -97.931847 
L 636.877263 -102.651856 
L 629.510884 -107.371865 
L 611.715094 -112.091874 
L 595.681628 -116.811883 
L 610.759488 -121.531892 
L 633.284616 -126.251901 
L 639.700948 -130.97191 
L 643.20995 -135.691919 
L 655.741876 -140.411928 
L 667.549986 -145.131937 
L 671.822877 -149.851946 
L 672.86605 -154.571955 
L 680.264031 -159.291964 
L 687.275683 -164.011973 
L 690.744658 -168.731982 
L 692.259428 -173.451991 
L 693.635656 -178.172 
L 696.20626 -182.892009 
L 697.337799 -187.612018 
L 697.572276 -192.332027 
L 698.144144 -197.052036 
L 698.707448 -201.772045 
L 699.161309 -206.492054 
L 699.300582 -211.212063 
L 699.481551 -215.932072 
L 699.626027 -220.652081 
L 699.839448 -225.37209 
L 699.893746 -230.092099 
L 699.875737 -234.812107 
L 700.077643 -239.532116 
L 700.17252 -244.252125 
L 700.20393 -248.972134 
L 700.198681 -253.692143 
L 700.216895 -258.412152 
L 700.328982 -263.132161 
L 700.324413 -267.85217 
L 700.272396 -272.572179 
L 700.294355 -277.292188 
L 700.343527 -282.012197 
L 700.372981 -286.732206 
L 700.383232 -291.452215 
L 700.365592 -296.172224 
L 700.383526 -300.892233 
L 700.392954 -305.612242 
L 700.395634 -310.332251 
L 700.3949 -315.05226 
L 700.403398 -319.772269 
L 700.404165 -324.492278 
L 700.404165 -329.212287 
L 700.403398 -333.932296 
L 700.395059 -338.652305 
L 700.402146 -343.372314 
L 700.404158 -348.092323 
L 700.404167 -352.812332 
L 700.404167 -357.532341 
L 700.404167 -362.25235 
L 700.404163 -366.972359 
L 700.40281 -371.692368 
L 700.39446 -376.412377 
L 700.395081 -381.132386 
L 700.400658 -385.852395 
L 700.404137 -390.572404 
L 700.404167 -395.292413 
L 700.404167 -400.012422 
L 700.404167 -404.732431 
L 700.404167 -409.45244 
L 700.404167 -414.172449 
L 700.404041 -418.892458 
L 700.398143 -423.612467 
L 700.398782 -428.332476 
L 700.404077 -433.052485 
L 700.404167 -437.772494 
L 700.40414 -442.492503 
L 700.400772 -447.212512 
L 700.396189 -451.932521 
L 700.403816 -456.65253 
L 700.404166 -461.372539 
L 700.404167 -466.092548 
L 700.404167 -470.812557 
L 700.404167 -475.532566 
L 700.404167 -480.252575 
L 700.404167 -484.972584 
L 700.404167 -489.692593 
L 700.404167 -494.412602 
L 700.404167 -499.132611 
L 700.404167 -503.852619 
L 700.404167 -508.572628 
L 700.404167 -513.292637 
L 700.404167 -518.012646 
L 700.404167 -522.732655 
L 700.404167 -527.452664 
L 700.404167 -532.172673 
L 700.404167 -536.892682 
L 700.404167 -541.612691 
L 700.404163 -546.3327 
L 700.40287 -551.052709 
L 700.394787 -555.772718 
L 700.402897 -560.492727 
L 700.405436 -560.492727 
L 700.405436 -560.492727 
L 700.413546 -555.772718 
L 700.405464 -551.052709 
L 700.40417 -546.3327 
L 700.404167 -541.612691 
L 700.404167 -536.892682 
L 700.404167 -532.172673 
L 700.404167 -527.452664 
L 700.404167 -522.732655 
L 700.404167 -518.012646 
L 700.404167 -513.292637 
L 700.404167 -508.572628 
L 700.404167 -503.852619 
L 700.404167 -499.132611 
L 700.404167 -494.412602 
L 700.404167 -489.692593 
L 700.404167 -484.972584 
L 700.404167 -480.252575 
L 700.404167 -475.532566 
L 700.404167 -470.812557 
L 700.404167 -466.092548 
L 700.404167 -461.372539 
L 700.404518 -456.65253 
L 700.412145 -451.932521 
L 700.407562 -447.212512 
L 700.404194 -442.492503 
L 700.404167 -437.772494 
L 700.404257 -433.052485 
L 700.409551 -428.332476 
L 700.410191 -423.612467 
L 700.404293 -418.892458 
L 700.404167 -414.172449 
L 700.404167 -409.45244 
L 700.404167 -404.732431 
L 700.404167 -400.012422 
L 700.404167 -395.292413 
L 700.404196 -390.572404 
L 700.407675 -385.852395 
L 700.413253 -381.132386 
L 700.413873 -376.412377 
L 700.405524 -371.692368 
L 700.40417 -366.972359 
L 700.404167 -362.25235 
L 700.404167 -357.532341 
L 700.404167 -352.812332 
L 700.404175 -348.092323 
L 700.406187 -343.372314 
L 700.413275 -338.652305 
L 700.404935 -333.932296 
L 700.404168 -329.212287 
L 700.404168 -324.492278 
L 700.404935 -319.772269 
L 700.413433 -315.05226 
L 700.4127 -310.332251 
L 700.41538 -305.612242 
L 700.424808 -300.892233 
L 700.442742 -296.172224 
L 700.425101 -291.452215 
L 700.435352 -286.732206 
L 700.464807 -282.012197 
L 700.513978 -277.292188 
L 700.535937 -272.572179 
L 700.483921 -267.85217 
L 700.479351 -263.132161 
L 700.591438 -258.412152 
L 700.609653 -253.692143 
L 700.604404 -248.972134 
L 700.635814 -244.252125 
L 700.730691 -239.532116 
L 700.932597 -234.812107 
L 700.914587 -230.092099 
L 700.968885 -225.37209 
L 701.182306 -220.652081 
L 701.326782 -215.932072 
L 701.507751 -211.212063 
L 701.647024 -206.492054 
L 702.100885 -201.772045 
L 702.664189 -197.052036 
L 703.236058 -192.332027 
L 703.470534 -187.612018 
L 704.602073 -182.892009 
L 707.172677 -178.172 
L 708.548905 -173.451991 
L 710.063675 -168.731982 
L 713.532651 -164.011973 
L 720.544303 -159.291964 
L 727.942283 -154.571955 
L 728.985456 -149.851946 
L 733.258347 -145.131937 
L 745.066458 -140.411928 
L 757.598383 -135.691919 
L 761.107385 -130.97191 
L 767.523717 -126.251901 
L 790.048846 -121.531892 
L 805.126706 -116.811883 
L 789.093239 -112.091874 
L 771.297449 -107.371865 
L 763.93107 -102.651856 
L 740.59668 -97.931847 
L 705.537915 -93.211838 
z
" id="m4819441484" style="stroke:#3d3d3d;stroke-width:1.5;"/>
    </defs>
    <g clip-path="url(#pa91a9d4f8f)">
     <use style="fill:#3a923a;stroke:#3d3d3d;stroke-width:1.5;" x="0" xlink:href="#m4819441484" y="595.44"/>
    </g>
   </g>
   <g id="matplotlib.axis_1">
    <g id="xtick_1">
     <g id="line2d_1">
      <defs>
       <path d="M 0 0 
L 0 3.5 
" id="maefcaaead8" style="stroke:#000000;stroke-width:0.8;"/>
      </defs>
      <g>
       <use style="stroke:#000000;stroke-width:0.8;" x="175.620833" xlink:href="#maefcaaead8" y="542.04"/>
      </g>
     </g>
     <g id="text_1">
      <!-- Unknown -->
      <g transform="translate(152.411458 556.638438)scale(0.1 -0.1)">
       <defs>
        <path d="M 556 4666 
L 1191 4666 
L 1191 1831 
Q 1191 1081 1462 751 
Q 1734 422 2344 422 
Q 2950 422 3222 751 
Q 3494 1081 3494 1831 
L 3494 4666 
L 4128 4666 
L 4128 1753 
Q 4128 841 3676 375 
Q 3225 -91 2344 -91 
Q 1459 -91 1007 375 
Q 556 841 556 1753 
L 556 4666 
z
" id="DejaVuSans-55" transform="scale(0.015625)"/>
        <path d="M 3513 2113 
L 3513 0 
L 2938 0 
L 2938 2094 
Q 2938 2591 2744 2837 
Q 2550 3084 2163 3084 
Q 1697 3084 1428 2787 
Q 1159 2491 1159 1978 
L 1159 0 
L 581 0 
L 581 3500 
L 1159 3500 
L 1159 2956 
Q 1366 3272 1645 3428 
Q 1925 3584 2291 3584 
Q 2894 3584 3203 3211 
Q 3513 2838 3513 2113 
z
" id="DejaVuSans-6e" transform="scale(0.015625)"/>
        <path d="M 581 4863 
L 1159 4863 
L 1159 1991 
L 2875 3500 
L 3609 3500 
L 1753 1863 
L 3688 0 
L 2938 0 
L 1159 1709 
L 1159 0 
L 581 0 
L 581 4863 
z
" id="DejaVuSans-6b" transform="scale(0.015625)"/>
        <path d="M 1959 3097 
Q 1497 3097 1228 2736 
Q 959 2375 959 1747 
Q 959 1119 1226 758 
Q 1494 397 1959 397 
Q 2419 397 2687 759 
Q 2956 1122 2956 1747 
Q 2956 2369 2687 2733 
Q 2419 3097 1959 3097 
z
M 1959 3584 
Q 2709 3584 3137 3096 
Q 3566 2609 3566 1747 
Q 3566 888 3137 398 
Q 2709 -91 1959 -91 
Q 1206 -91 779 398 
Q 353 888 353 1747 
Q 353 2609 779 3096 
Q 1206 3584 1959 3584 
z
" id="DejaVuSans-6f" transform="scale(0.015625)"/>
        <path d="M 269 3500 
L 844 3500 
L 1563 769 
L 2278 3500 
L 2956 3500 
L 3675 769 
L 4391 3500 
L 4966 3500 
L 4050 0 
L 3372 0 
L 2619 2869 
L 1863 0 
L 1184 0 
L 269 3500 
z
" id="DejaVuSans-77" transform="scale(0.015625)"/>
       </defs>
       <use xlink:href="#DejaVuSans-55"/>
       <use x="73.193359" xlink:href="#DejaVuSans-6e"/>
       <use x="136.572266" xlink:href="#DejaVuSans-6b"/>
       <use x="194.482422" xlink:href="#DejaVuSans-6e"/>
       <use x="257.861328" xlink:href="#DejaVuSans-6f"/>
       <use x="319.042969" xlink:href="#DejaVuSans-77"/>
       <use x="400.830078" xlink:href="#DejaVuSans-6e"/>
      </g>
     </g>
    </g>
    <g id="xtick_2">
     <g id="line2d_2">
      <g>
       <use style="stroke:#000000;stroke-width:0.8;" x="438.0125" xlink:href="#maefcaaead8" y="542.04"/>
      </g>
     </g>
     <g id="text_2">
      <!-- Medium -->
      <g transform="translate(418.019531 556.638438)scale(0.1 -0.1)">
       <defs>
        <path d="M 628 4666 
L 1569 4666 
L 2759 1491 
L 3956 4666 
L 4897 4666 
L 4897 0 
L 4281 0 
L 4281 4097 
L 3078 897 
L 2444 897 
L 1241 4097 
L 1241 0 
L 628 0 
L 628 4666 
z
" id="DejaVuSans-4d" transform="scale(0.015625)"/>
        <path d="M 3597 1894 
L 3597 1613 
L 953 1613 
Q 991 1019 1311 708 
Q 1631 397 2203 397 
Q 2534 397 2845 478 
Q 3156 559 3463 722 
L 3463 178 
Q 3153 47 2828 -22 
Q 2503 -91 2169 -91 
Q 1331 -91 842 396 
Q 353 884 353 1716 
Q 353 2575 817 3079 
Q 1281 3584 2069 3584 
Q 2775 3584 3186 3129 
Q 3597 2675 3597 1894 
z
M 3022 2063 
Q 3016 2534 2758 2815 
Q 2500 3097 2075 3097 
Q 1594 3097 1305 2825 
Q 1016 2553 972 2059 
L 3022 2063 
z
" id="DejaVuSans-65" transform="scale(0.015625)"/>
        <path d="M 2906 2969 
L 2906 4863 
L 3481 4863 
L 3481 0 
L 2906 0 
L 2906 525 
Q 2725 213 2448 61 
Q 2172 -91 1784 -91 
Q 1150 -91 751 415 
Q 353 922 353 1747 
Q 353 2572 751 3078 
Q 1150 3584 1784 3584 
Q 2172 3584 2448 3432 
Q 2725 3281 2906 2969 
z
M 947 1747 
Q 947 1113 1208 752 
Q 1469 391 1925 391 
Q 2381 391 2643 752 
Q 2906 1113 2906 1747 
Q 2906 2381 2643 2742 
Q 2381 3103 1925 3103 
Q 1469 3103 1208 2742 
Q 947 2381 947 1747 
z
" id="DejaVuSans-64" transform="scale(0.015625)"/>
        <path d="M 603 3500 
L 1178 3500 
L 1178 0 
L 603 0 
L 603 3500 
z
M 603 4863 
L 1178 4863 
L 1178 4134 
L 603 4134 
L 603 4863 
z
" id="DejaVuSans-69" transform="scale(0.015625)"/>
        <path d="M 544 1381 
L 544 3500 
L 1119 3500 
L 1119 1403 
Q 1119 906 1312 657 
Q 1506 409 1894 409 
Q 2359 409 2629 706 
Q 2900 1003 2900 1516 
L 2900 3500 
L 3475 3500 
L 3475 0 
L 2900 0 
L 2900 538 
Q 2691 219 2414 64 
Q 2138 -91 1772 -91 
Q 1169 -91 856 284 
Q 544 659 544 1381 
z
M 1991 3584 
L 1991 3584 
z
" id="DejaVuSans-75" transform="scale(0.015625)"/>
        <path d="M 3328 2828 
Q 3544 3216 3844 3400 
Q 4144 3584 4550 3584 
Q 5097 3584 5394 3201 
Q 5691 2819 5691 2113 
L 5691 0 
L 5113 0 
L 5113 2094 
Q 5113 2597 4934 2840 
Q 4756 3084 4391 3084 
Q 3944 3084 3684 2787 
Q 3425 2491 3425 1978 
L 3425 0 
L 2847 0 
L 2847 2094 
Q 2847 2600 2669 2842 
Q 2491 3084 2119 3084 
Q 1678 3084 1418 2786 
Q 1159 2488 1159 1978 
L 1159 0 
L 581 0 
L 581 3500 
L 1159 3500 
L 1159 2956 
Q 1356 3278 1631 3431 
Q 1906 3584 2284 3584 
Q 2666 3584 2933 3390 
Q 3200 3197 3328 2828 
z
" id="DejaVuSans-6d" transform="scale(0.015625)"/>
       </defs>
       <use xlink:href="#DejaVuSans-4d"/>
       <use x="86.279297" xlink:href="#DejaVuSans-65"/>
       <use x="147.802734" xlink:href="#DejaVuSans-64"/>
       <use x="211.279297" xlink:href="#DejaVuSans-69"/>
       <use x="239.0625" xlink:href="#DejaVuSans-75"/>
       <use x="302.441406" xlink:href="#DejaVuSans-6d"/>
      </g>
     </g>
    </g>
    <g id="xtick_3">
     <g id="line2d_3">
      <g>
       <use style="stroke:#000000;stroke-width:0.8;" x="700.404167" xlink:href="#maefcaaead8" y="542.04"/>
      </g>
     </g>
     <g id="text_3">
      <!-- High -->
      <g transform="translate(688.911979 556.638438)scale(0.1 -0.1)">
       <defs>
        <path d="M 628 4666 
L 1259 4666 
L 1259 2753 
L 3553 2753 
L 3553 4666 
L 4184 4666 
L 4184 0 
L 3553 0 
L 3553 2222 
L 1259 2222 
L 1259 0 
L 628 0 
L 628 4666 
z
" id="DejaVuSans-48" transform="scale(0.015625)"/>
        <path d="M 2906 1791 
Q 2906 2416 2648 2759 
Q 2391 3103 1925 3103 
Q 1463 3103 1205 2759 
Q 947 2416 947 1791 
Q 947 1169 1205 825 
Q 1463 481 1925 481 
Q 2391 481 2648 825 
Q 2906 1169 2906 1791 
z
M 3481 434 
Q 3481 -459 3084 -895 
Q 2688 -1331 1869 -1331 
Q 1566 -1331 1297 -1286 
Q 1028 -1241 775 -1147 
L 775 -588 
Q 1028 -725 1275 -790 
Q 1522 -856 1778 -856 
Q 2344 -856 2625 -561 
Q 2906 -266 2906 331 
L 2906 616 
Q 2728 306 2450 153 
Q 2172 0 1784 0 
Q 1141 0 747 490 
Q 353 981 353 1791 
Q 353 2603 747 3093 
Q 1141 3584 1784 3584 
Q 2172 3584 2450 3431 
Q 2728 3278 2906 2969 
L 2906 3500 
L 3481 3500 
L 3481 434 
z
" id="DejaVuSans-67" transform="scale(0.015625)"/>
        <path d="M 3513 2113 
L 3513 0 
L 2938 0 
L 2938 2094 
Q 2938 2591 2744 2837 
Q 2550 3084 2163 3084 
Q 1697 3084 1428 2787 
Q 1159 2491 1159 1978 
L 1159 0 
L 581 0 
L 581 4863 
L 1159 4863 
L 1159 2956 
Q 1366 3272 1645 3428 
Q 1925 3584 2291 3584 
Q 2894 3584 3203 3211 
Q 3513 2838 3513 2113 
z
" id="DejaVuSans-68" transform="scale(0.015625)"/>
       </defs>
       <use xlink:href="#DejaVuSans-48"/>
       <use x="75.195312" xlink:href="#DejaVuSans-69"/>
       <use x="102.978516" xlink:href="#DejaVuSans-67"/>
       <use x="166.455078" xlink:href="#DejaVuSans-68"/>
      </g>
     </g>
    </g>
    <g id="text_4">
     <!-- Genome Quality (MIMAG) from GTDB -->
     <g transform="translate(345.792188 570.316562)scale(0.1 -0.1)">
      <defs>
       <path d="M 3809 666 
L 3809 1919 
L 2778 1919 
L 2778 2438 
L 4434 2438 
L 4434 434 
Q 4069 175 3628 42 
Q 3188 -91 2688 -91 
Q 1594 -91 976 548 
Q 359 1188 359 2328 
Q 359 3472 976 4111 
Q 1594 4750 2688 4750 
Q 3144 4750 3555 4637 
Q 3966 4525 4313 4306 
L 4313 3634 
Q 3963 3931 3569 4081 
Q 3175 4231 2741 4231 
Q 1884 4231 1454 3753 
Q 1025 3275 1025 2328 
Q 1025 1384 1454 906 
Q 1884 428 2741 428 
Q 3075 428 3337 486 
Q 3600 544 3809 666 
z
" id="DejaVuSans-47" transform="scale(0.015625)"/>
       <path id="DejaVuSans-20" transform="scale(0.015625)"/>
       <path d="M 2522 4238 
Q 1834 4238 1429 3725 
Q 1025 3213 1025 2328 
Q 1025 1447 1429 934 
Q 1834 422 2522 422 
Q 3209 422 3611 934 
Q 4013 1447 4013 2328 
Q 4013 3213 3611 3725 
Q 3209 4238 2522 4238 
z
M 3406 84 
L 4238 -825 
L 3475 -825 
L 2784 -78 
Q 2681 -84 2626 -87 
Q 2572 -91 2522 -91 
Q 1538 -91 948 567 
Q 359 1225 359 2328 
Q 359 3434 948 4092 
Q 1538 4750 2522 4750 
Q 3503 4750 4090 4092 
Q 4678 3434 4678 2328 
Q 4678 1516 4351 937 
Q 4025 359 3406 84 
z
" id="DejaVuSans-51" transform="scale(0.015625)"/>
       <path d="M 2194 1759 
Q 1497 1759 1228 1600 
Q 959 1441 959 1056 
Q 959 750 1161 570 
Q 1363 391 1709 391 
Q 2188 391 2477 730 
Q 2766 1069 2766 1631 
L 2766 1759 
L 2194 1759 
z
M 3341 1997 
L 3341 0 
L 2766 0 
L 2766 531 
Q 2569 213 2275 61 
Q 1981 -91 1556 -91 
Q 1019 -91 701 211 
Q 384 513 384 1019 
Q 384 1609 779 1909 
Q 1175 2209 1959 2209 
L 2766 2209 
L 2766 2266 
Q 2766 2663 2505 2880 
Q 2244 3097 1772 3097 
Q 1472 3097 1187 3025 
Q 903 2953 641 2809 
L 641 3341 
Q 956 3463 1253 3523 
Q 1550 3584 1831 3584 
Q 2591 3584 2966 3190 
Q 3341 2797 3341 1997 
z
" id="DejaVuSans-61" transform="scale(0.015625)"/>
       <path d="M 603 4863 
L 1178 4863 
L 1178 0 
L 603 0 
L 603 4863 
z
" id="DejaVuSans-6c" transform="scale(0.015625)"/>
       <path d="M 1172 4494 
L 1172 3500 
L 2356 3500 
L 2356 3053 
L 1172 3053 
L 1172 1153 
Q 1172 725 1289 603 
Q 1406 481 1766 481 
L 2356 481 
L 2356 0 
L 1766 0 
Q 1100 0 847 248 
Q 594 497 594 1153 
L 594 3053 
L 172 3053 
L 172 3500 
L 594 3500 
L 594 4494 
L 1172 4494 
z
" id="DejaVuSans-74" transform="scale(0.015625)"/>
       <path d="M 2059 -325 
Q 1816 -950 1584 -1140 
Q 1353 -1331 966 -1331 
L 506 -1331 
L 506 -850 
L 844 -850 
Q 1081 -850 1212 -737 
Q 1344 -625 1503 -206 
L 1606 56 
L 191 3500 
L 800 3500 
L 1894 763 
L 2988 3500 
L 3597 3500 
L 2059 -325 
z
" id="DejaVuSans-79" transform="scale(0.015625)"/>
       <path d="M 1984 4856 
Q 1566 4138 1362 3434 
Q 1159 2731 1159 2009 
Q 1159 1288 1364 580 
Q 1569 -128 1984 -844 
L 1484 -844 
Q 1016 -109 783 600 
Q 550 1309 550 2009 
Q 550 2706 781 3412 
Q 1013 4119 1484 4856 
L 1984 4856 
z
" id="DejaVuSans-28" transform="scale(0.015625)"/>
       <path d="M 628 4666 
L 1259 4666 
L 1259 0 
L 628 0 
L 628 4666 
z
" id="DejaVuSans-49" transform="scale(0.015625)"/>
       <path d="M 2188 4044 
L 1331 1722 
L 3047 1722 
L 2188 4044 
z
M 1831 4666 
L 2547 4666 
L 4325 0 
L 3669 0 
L 3244 1197 
L 1141 1197 
L 716 0 
L 50 0 
L 1831 4666 
z
" id="DejaVuSans-41" transform="scale(0.015625)"/>
       <path d="M 513 4856 
L 1013 4856 
Q 1481 4119 1714 3412 
Q 1947 2706 1947 2009 
Q 1947 1309 1714 600 
Q 1481 -109 1013 -844 
L 513 -844 
Q 928 -128 1133 580 
Q 1338 1288 1338 2009 
Q 1338 2731 1133 3434 
Q 928 4138 513 4856 
z
" id="DejaVuSans-29" transform="scale(0.015625)"/>
       <path d="M 2375 4863 
L 2375 4384 
L 1825 4384 
Q 1516 4384 1395 4259 
Q 1275 4134 1275 3809 
L 1275 3500 
L 2222 3500 
L 2222 3053 
L 1275 3053 
L 1275 0 
L 697 0 
L 697 3053 
L 147 3053 
L 147 3500 
L 697 3500 
L 697 3744 
Q 697 4328 969 4595 
Q 1241 4863 1831 4863 
L 2375 4863 
z
" id="DejaVuSans-66" transform="scale(0.015625)"/>
       <path d="M 2631 2963 
Q 2534 3019 2420 3045 
Q 2306 3072 2169 3072 
Q 1681 3072 1420 2755 
Q 1159 2438 1159 1844 
L 1159 0 
L 581 0 
L 581 3500 
L 1159 3500 
L 1159 2956 
Q 1341 3275 1631 3429 
Q 1922 3584 2338 3584 
Q 2397 3584 2469 3576 
Q 2541 3569 2628 3553 
L 2631 2963 
z
" id="DejaVuSans-72" transform="scale(0.015625)"/>
       <path d="M -19 4666 
L 3928 4666 
L 3928 4134 
L 2272 4134 
L 2272 0 
L 1638 0 
L 1638 4134 
L -19 4134 
L -19 4666 
z
" id="DejaVuSans-54" transform="scale(0.015625)"/>
       <path d="M 1259 4147 
L 1259 519 
L 2022 519 
Q 2988 519 3436 956 
Q 3884 1394 3884 2338 
Q 3884 3275 3436 3711 
Q 2988 4147 2022 4147 
L 1259 4147 
z
M 628 4666 
L 1925 4666 
Q 3281 4666 3915 4102 
Q 4550 3538 4550 2338 
Q 4550 1131 3912 565 
Q 3275 0 1925 0 
L 628 0 
L 628 4666 
z
" id="DejaVuSans-44" transform="scale(0.015625)"/>
       <path d="M 1259 2228 
L 1259 519 
L 2272 519 
Q 2781 519 3026 730 
Q 3272 941 3272 1375 
Q 3272 1813 3026 2020 
Q 2781 2228 2272 2228 
L 1259 2228 
z
M 1259 4147 
L 1259 2741 
L 2194 2741 
Q 2656 2741 2882 2914 
Q 3109 3088 3109 3444 
Q 3109 3797 2882 3972 
Q 2656 4147 2194 4147 
L 1259 4147 
z
M 628 4666 
L 2241 4666 
Q 2963 4666 3353 4366 
Q 3744 4066 3744 3513 
Q 3744 3084 3544 2831 
Q 3344 2578 2956 2516 
Q 3422 2416 3680 2098 
Q 3938 1781 3938 1306 
Q 3938 681 3513 340 
Q 3088 0 2303 0 
L 628 0 
L 628 4666 
z
" id="DejaVuSans-42" transform="scale(0.015625)"/>
      </defs>
      <use xlink:href="#DejaVuSans-47"/>
      <use x="77.490234" xlink:href="#DejaVuSans-65"/>
      <use x="139.013672" xlink:href="#DejaVuSans-6e"/>
      <use x="202.392578" xlink:href="#DejaVuSans-6f"/>
      <use x="263.574219" xlink:href="#DejaVuSans-6d"/>
      <use x="360.986328" xlink:href="#DejaVuSans-65"/>
      <use x="422.509766" xlink:href="#DejaVuSans-20"/>
      <use x="454.296875" xlink:href="#DejaVuSans-51"/>
      <use x="533.007812" xlink:href="#DejaVuSans-75"/>
      <use x="596.386719" xlink:href="#DejaVuSans-61"/>
      <use x="657.666016" xlink:href="#DejaVuSans-6c"/>
      <use x="685.449219" xlink:href="#DejaVuSans-69"/>
      <use x="713.232422" xlink:href="#DejaVuSans-74"/>
      <use x="752.441406" xlink:href="#DejaVuSans-79"/>
      <use x="811.621094" xlink:href="#DejaVuSans-20"/>
      <use x="843.408203" xlink:href="#DejaVuSans-28"/>
      <use x="882.421875" xlink:href="#DejaVuSans-4d"/>
      <use x="968.701172" xlink:href="#DejaVuSans-49"/>
      <use x="998.193359" xlink:href="#DejaVuSans-4d"/>
      <use x="1084.472656" xlink:href="#DejaVuSans-41"/>
      <use x="1151.130859" xlink:href="#DejaVuSans-47"/>
      <use x="1228.621094" xlink:href="#DejaVuSans-29"/>
      <use x="1267.634766" xlink:href="#DejaVuSans-20"/>
      <use x="1299.421875" xlink:href="#DejaVuSans-66"/>
      <use x="1334.626953" xlink:href="#DejaVuSans-72"/>
      <use x="1373.490234" xlink:href="#DejaVuSans-6f"/>
      <use x="1434.671875" xlink:href="#DejaVuSans-6d"/>
      <use x="1532.083984" xlink:href="#DejaVuSans-20"/>
      <use x="1563.871094" xlink:href="#DejaVuSans-47"/>
      <use x="1637.736328" xlink:href="#DejaVuSans-54"/>
      <use x="1698.820312" xlink:href="#DejaVuSans-44"/>
      <use x="1775.822266" xlink:href="#DejaVuSans-42"/>
     </g>
     <!-- (Note there are only 15 low quality genomes. Not shown) -->
     <g transform="translate(294.6125 581.514375)scale(0.1 -0.1)">
      <defs>
       <path d="M 628 4666 
L 1478 4666 
L 3547 763 
L 3547 4666 
L 4159 4666 
L 4159 0 
L 3309 0 
L 1241 3903 
L 1241 0 
L 628 0 
L 628 4666 
z
" id="DejaVuSans-4e" transform="scale(0.015625)"/>
       <path d="M 794 531 
L 1825 531 
L 1825 4091 
L 703 3866 
L 703 4441 
L 1819 4666 
L 2450 4666 
L 2450 531 
L 3481 531 
L 3481 0 
L 794 0 
L 794 531 
z
" id="DejaVuSans-31" transform="scale(0.015625)"/>
       <path d="M 691 4666 
L 3169 4666 
L 3169 4134 
L 1269 4134 
L 1269 2991 
Q 1406 3038 1543 3061 
Q 1681 3084 1819 3084 
Q 2600 3084 3056 2656 
Q 3513 2228 3513 1497 
Q 3513 744 3044 326 
Q 2575 -91 1722 -91 
Q 1428 -91 1123 -41 
Q 819 9 494 109 
L 494 744 
Q 775 591 1075 516 
Q 1375 441 1709 441 
Q 2250 441 2565 725 
Q 2881 1009 2881 1497 
Q 2881 1984 2565 2268 
Q 2250 2553 1709 2553 
Q 1456 2553 1204 2497 
Q 953 2441 691 2322 
L 691 4666 
z
" id="DejaVuSans-35" transform="scale(0.015625)"/>
       <path d="M 947 1747 
Q 947 1113 1208 752 
Q 1469 391 1925 391 
Q 2381 391 2643 752 
Q 2906 1113 2906 1747 
Q 2906 2381 2643 2742 
Q 2381 3103 1925 3103 
Q 1469 3103 1208 2742 
Q 947 2381 947 1747 
z
M 2906 525 
Q 2725 213 2448 61 
Q 2172 -91 1784 -91 
Q 1150 -91 751 415 
Q 353 922 353 1747 
Q 353 2572 751 3078 
Q 1150 3584 1784 3584 
Q 2172 3584 2448 3432 
Q 2725 3281 2906 2969 
L 2906 3500 
L 3481 3500 
L 3481 -1331 
L 2906 -1331 
L 2906 525 
z
" id="DejaVuSans-71" transform="scale(0.015625)"/>
       <path d="M 2834 3397 
L 2834 2853 
Q 2591 2978 2328 3040 
Q 2066 3103 1784 3103 
Q 1356 3103 1142 2972 
Q 928 2841 928 2578 
Q 928 2378 1081 2264 
Q 1234 2150 1697 2047 
L 1894 2003 
Q 2506 1872 2764 1633 
Q 3022 1394 3022 966 
Q 3022 478 2636 193 
Q 2250 -91 1575 -91 
Q 1294 -91 989 -36 
Q 684 19 347 128 
L 347 722 
Q 666 556 975 473 
Q 1284 391 1588 391 
Q 1994 391 2212 530 
Q 2431 669 2431 922 
Q 2431 1156 2273 1281 
Q 2116 1406 1581 1522 
L 1381 1569 
Q 847 1681 609 1914 
Q 372 2147 372 2553 
Q 372 3047 722 3315 
Q 1072 3584 1716 3584 
Q 2034 3584 2315 3537 
Q 2597 3491 2834 3397 
z
" id="DejaVuSans-73" transform="scale(0.015625)"/>
       <path d="M 684 794 
L 1344 794 
L 1344 0 
L 684 0 
L 684 794 
z
" id="DejaVuSans-2e" transform="scale(0.015625)"/>
      </defs>
      <use xlink:href="#DejaVuSans-28"/>
      <use x="39.013672" xlink:href="#DejaVuSans-4e"/>
      <use x="113.818359" xlink:href="#DejaVuSans-6f"/>
      <use x="175" xlink:href="#DejaVuSans-74"/>
      <use x="214.208984" xlink:href="#DejaVuSans-65"/>
      <use x="275.732422" xlink:href="#DejaVuSans-20"/>
      <use x="307.519531" xlink:href="#DejaVuSans-74"/>
      <use x="346.728516" xlink:href="#DejaVuSans-68"/>
      <use x="410.107422" xlink:href="#DejaVuSans-65"/>
      <use x="471.630859" xlink:href="#DejaVuSans-72"/>
      <use x="510.494141" xlink:href="#DejaVuSans-65"/>
      <use x="572.017578" xlink:href="#DejaVuSans-20"/>
      <use x="603.804688" xlink:href="#DejaVuSans-61"/>
      <use x="665.083984" xlink:href="#DejaVuSans-72"/>
      <use x="703.947266" xlink:href="#DejaVuSans-65"/>
      <use x="765.470703" xlink:href="#DejaVuSans-20"/>
      <use x="797.257812" xlink:href="#DejaVuSans-6f"/>
      <use x="858.439453" xlink:href="#DejaVuSans-6e"/>
      <use x="921.818359" xlink:href="#DejaVuSans-6c"/>
      <use x="949.601562" xlink:href="#DejaVuSans-79"/>
      <use x="1008.78125" xlink:href="#DejaVuSans-20"/>
      <use x="1040.568359" xlink:href="#DejaVuSans-31"/>
      <use x="1104.191406" xlink:href="#DejaVuSans-35"/>
      <use x="1167.814453" xlink:href="#DejaVuSans-20"/>
      <use x="1199.601562" xlink:href="#DejaVuSans-6c"/>
      <use x="1227.384766" xlink:href="#DejaVuSans-6f"/>
      <use x="1288.566406" xlink:href="#DejaVuSans-77"/>
      <use x="1370.353516" xlink:href="#DejaVuSans-20"/>
      <use x="1402.140625" xlink:href="#DejaVuSans-71"/>
      <use x="1465.617188" xlink:href="#DejaVuSans-75"/>
      <use x="1528.996094" xlink:href="#DejaVuSans-61"/>
      <use x="1590.275391" xlink:href="#DejaVuSans-6c"/>
      <use x="1618.058594" xlink:href="#DejaVuSans-69"/>
      <use x="1645.841797" xlink:href="#DejaVuSans-74"/>
      <use x="1685.050781" xlink:href="#DejaVuSans-79"/>
      <use x="1744.230469" xlink:href="#DejaVuSans-20"/>
      <use x="1776.017578" xlink:href="#DejaVuSans-67"/>
      <use x="1839.494141" xlink:href="#DejaVuSans-65"/>
      <use x="1901.017578" xlink:href="#DejaVuSans-6e"/>
      <use x="1964.396484" xlink:href="#DejaVuSans-6f"/>
      <use x="2025.578125" xlink:href="#DejaVuSans-6d"/>
      <use x="2122.990234" xlink:href="#DejaVuSans-65"/>
      <use x="2184.513672" xlink:href="#DejaVuSans-73"/>
      <use x="2236.613281" xlink:href="#DejaVuSans-2e"/>
      <use x="2268.400391" xlink:href="#DejaVuSans-20"/>
      <use x="2300.1875" xlink:href="#DejaVuSans-4e"/>
      <use x="2374.992188" xlink:href="#DejaVuSans-6f"/>
      <use x="2436.173828" xlink:href="#DejaVuSans-74"/>
      <use x="2475.382812" xlink:href="#DejaVuSans-20"/>
      <use x="2507.169922" xlink:href="#DejaVuSans-73"/>
      <use x="2559.269531" xlink:href="#DejaVuSans-68"/>
      <use x="2622.648438" xlink:href="#DejaVuSans-6f"/>
      <use x="2683.830078" xlink:href="#DejaVuSans-77"/>
      <use x="2765.617188" xlink:href="#DejaVuSans-6e"/>
      <use x="2828.996094" xlink:href="#DejaVuSans-29"/>
     </g>
    </g>
   </g>
   <g id="matplotlib.axis_2">
    <g id="ytick_1">
     <g id="line2d_4">
      <defs>
       <path d="M 0 0 
L -3.5 0 
" id="m4e7dd8ffb9" style="stroke:#000000;stroke-width:0.8;"/>
      </defs>
      <g>
       <use style="stroke:#000000;stroke-width:0.8;" x="44.425" xlink:href="#m4e7dd8ffb9" y="497.495381"/>
      </g>
     </g>
     <g id="text_5">
      <!-- 0 -->
      <g transform="translate(31.0625 501.294599)scale(0.1 -0.1)">
       <defs>
        <path d="M 2034 4250 
Q 1547 4250 1301 3770 
Q 1056 3291 1056 2328 
Q 1056 1369 1301 889 
Q 1547 409 2034 409 
Q 2525 409 2770 889 
Q 3016 1369 3016 2328 
Q 3016 3291 2770 3770 
Q 2525 4250 2034 4250 
z
M 2034 4750 
Q 2819 4750 3233 4129 
Q 3647 3509 3647 2328 
Q 3647 1150 3233 529 
Q 2819 -91 2034 -91 
Q 1250 -91 836 529 
Q 422 1150 422 2328 
Q 422 3509 836 4129 
Q 1250 4750 2034 4750 
z
" id="DejaVuSans-30" transform="scale(0.015625)"/>
       </defs>
       <use xlink:href="#DejaVuSans-30"/>
      </g>
     </g>
    </g>
    <g id="ytick_2">
     <g id="line2d_5">
      <g>
       <use style="stroke:#000000;stroke-width:0.8;" x="44.425" xlink:href="#m4e7dd8ffb9" y="435.628445"/>
      </g>
     </g>
     <g id="text_6">
      <!-- 10 -->
      <g transform="translate(24.7 439.427663)scale(0.1 -0.1)">
       <use xlink:href="#DejaVuSans-31"/>
       <use x="63.623047" xlink:href="#DejaVuSans-30"/>
      </g>
     </g>
    </g>
    <g id="ytick_3">
     <g id="line2d_6">
      <g>
       <use style="stroke:#000000;stroke-width:0.8;" x="44.425" xlink:href="#m4e7dd8ffb9" y="373.761509"/>
      </g>
     </g>
     <g id="text_7">
      <!-- 20 -->
      <g transform="translate(24.7 377.560727)scale(0.1 -0.1)">
       <defs>
        <path d="M 1228 531 
L 3431 531 
L 3431 0 
L 469 0 
L 469 531 
Q 828 903 1448 1529 
Q 2069 2156 2228 2338 
Q 2531 2678 2651 2914 
Q 2772 3150 2772 3378 
Q 2772 3750 2511 3984 
Q 2250 4219 1831 4219 
Q 1534 4219 1204 4116 
Q 875 4013 500 3803 
L 500 4441 
Q 881 4594 1212 4672 
Q 1544 4750 1819 4750 
Q 2544 4750 2975 4387 
Q 3406 4025 3406 3419 
Q 3406 3131 3298 2873 
Q 3191 2616 2906 2266 
Q 2828 2175 2409 1742 
Q 1991 1309 1228 531 
z
" id="DejaVuSans-32" transform="scale(0.015625)"/>
       </defs>
       <use xlink:href="#DejaVuSans-32"/>
       <use x="63.623047" xlink:href="#DejaVuSans-30"/>
      </g>
     </g>
    </g>
    <g id="ytick_4">
     <g id="line2d_7">
      <g>
       <use style="stroke:#000000;stroke-width:0.8;" x="44.425" xlink:href="#m4e7dd8ffb9" y="311.894573"/>
      </g>
     </g>
     <g id="text_8">
      <!-- 30 -->
      <g transform="translate(24.7 315.693791)scale(0.1 -0.1)">
       <defs>
        <path d="M 2597 2516 
Q 3050 2419 3304 2112 
Q 3559 1806 3559 1356 
Q 3559 666 3084 287 
Q 2609 -91 1734 -91 
Q 1441 -91 1130 -33 
Q 819 25 488 141 
L 488 750 
Q 750 597 1062 519 
Q 1375 441 1716 441 
Q 2309 441 2620 675 
Q 2931 909 2931 1356 
Q 2931 1769 2642 2001 
Q 2353 2234 1838 2234 
L 1294 2234 
L 1294 2753 
L 1863 2753 
Q 2328 2753 2575 2939 
Q 2822 3125 2822 3475 
Q 2822 3834 2567 4026 
Q 2313 4219 1838 4219 
Q 1578 4219 1281 4162 
Q 984 4106 628 3988 
L 628 4550 
Q 988 4650 1302 4700 
Q 1616 4750 1894 4750 
Q 2613 4750 3031 4423 
Q 3450 4097 3450 3541 
Q 3450 3153 3228 2886 
Q 3006 2619 2597 2516 
z
" id="DejaVuSans-33" transform="scale(0.015625)"/>
       </defs>
       <use xlink:href="#DejaVuSans-33"/>
       <use x="63.623047" xlink:href="#DejaVuSans-30"/>
      </g>
     </g>
    </g>
    <g id="ytick_5">
     <g id="line2d_8">
      <g>
       <use style="stroke:#000000;stroke-width:0.8;" x="44.425" xlink:href="#m4e7dd8ffb9" y="250.027637"/>
      </g>
     </g>
     <g id="text_9">
      <!-- 40 -->
      <g transform="translate(24.7 253.826855)scale(0.1 -0.1)">
       <defs>
        <path d="M 2419 4116 
L 825 1625 
L 2419 1625 
L 2419 4116 
z
M 2253 4666 
L 3047 4666 
L 3047 1625 
L 3713 1625 
L 3713 1100 
L 3047 1100 
L 3047 0 
L 2419 0 
L 2419 1100 
L 313 1100 
L 313 1709 
L 2253 4666 
z
" id="DejaVuSans-34" transform="scale(0.015625)"/>
       </defs>
       <use xlink:href="#DejaVuSans-34"/>
       <use x="63.623047" xlink:href="#DejaVuSans-30"/>
      </g>
     </g>
    </g>
    <g id="ytick_6">
     <g id="line2d_9">
      <g>
       <use style="stroke:#000000;stroke-width:0.8;" x="44.425" xlink:href="#m4e7dd8ffb9" y="188.1607"/>
      </g>
     </g>
     <g id="text_10">
      <!-- 50 -->
      <g transform="translate(24.7 191.959919)scale(0.1 -0.1)">
       <use xlink:href="#DejaVuSans-35"/>
       <use x="63.623047" xlink:href="#DejaVuSans-30"/>
      </g>
     </g>
    </g>
    <g id="ytick_7">
     <g id="line2d_10">
      <g>
       <use style="stroke:#000000;stroke-width:0.8;" x="44.425" xlink:href="#m4e7dd8ffb9" y="126.293764"/>
      </g>
     </g>
     <g id="text_11">
      <!-- 60 -->
      <g transform="translate(24.7 130.092983)scale(0.1 -0.1)">
       <defs>
        <path d="M 2113 2584 
Q 1688 2584 1439 2293 
Q 1191 2003 1191 1497 
Q 1191 994 1439 701 
Q 1688 409 2113 409 
Q 2538 409 2786 701 
Q 3034 994 3034 1497 
Q 3034 2003 2786 2293 
Q 2538 2584 2113 2584 
z
M 3366 4563 
L 3366 3988 
Q 3128 4100 2886 4159 
Q 2644 4219 2406 4219 
Q 1781 4219 1451 3797 
Q 1122 3375 1075 2522 
Q 1259 2794 1537 2939 
Q 1816 3084 2150 3084 
Q 2853 3084 3261 2657 
Q 3669 2231 3669 1497 
Q 3669 778 3244 343 
Q 2819 -91 2113 -91 
Q 1303 -91 875 529 
Q 447 1150 447 2328 
Q 447 3434 972 4092 
Q 1497 4750 2381 4750 
Q 2619 4750 2861 4703 
Q 3103 4656 3366 4563 
z
" id="DejaVuSans-36" transform="scale(0.015625)"/>
       </defs>
       <use xlink:href="#DejaVuSans-36"/>
       <use x="63.623047" xlink:href="#DejaVuSans-30"/>
      </g>
     </g>
    </g>
    <g id="ytick_8">
     <g id="line2d_11">
      <g>
       <use style="stroke:#000000;stroke-width:0.8;" x="44.425" xlink:href="#m4e7dd8ffb9" y="64.426828"/>
      </g>
     </g>
     <g id="text_12">
      <!-- 70 -->
      <g transform="translate(24.7 68.226047)scale(0.1 -0.1)">
       <defs>
        <path d="M 525 4666 
L 3525 4666 
L 3525 4397 
L 1831 0 
L 1172 0 
L 2766 4134 
L 525 4134 
L 525 4666 
z
" id="DejaVuSans-37" transform="scale(0.015625)"/>
       </defs>
       <use xlink:href="#DejaVuSans-37"/>
       <use x="63.623047" xlink:href="#DejaVuSans-30"/>
      </g>
     </g>
    </g>
    <g id="text_13">
     <!-- Total Predicted Prophages -->
     <g transform="translate(18.620312 340.937187)rotate(-90)scale(0.1 -0.1)">
      <defs>
       <path d="M 1259 4147 
L 1259 2394 
L 2053 2394 
Q 2494 2394 2734 2622 
Q 2975 2850 2975 3272 
Q 2975 3691 2734 3919 
Q 2494 4147 2053 4147 
L 1259 4147 
z
M 628 4666 
L 2053 4666 
Q 2838 4666 3239 4311 
Q 3641 3956 3641 3272 
Q 3641 2581 3239 2228 
Q 2838 1875 2053 1875 
L 1259 1875 
L 1259 0 
L 628 0 
L 628 4666 
z
" id="DejaVuSans-50" transform="scale(0.015625)"/>
       <path d="M 3122 3366 
L 3122 2828 
Q 2878 2963 2633 3030 
Q 2388 3097 2138 3097 
Q 1578 3097 1268 2742 
Q 959 2388 959 1747 
Q 959 1106 1268 751 
Q 1578 397 2138 397 
Q 2388 397 2633 464 
Q 2878 531 3122 666 
L 3122 134 
Q 2881 22 2623 -34 
Q 2366 -91 2075 -91 
Q 1284 -91 818 406 
Q 353 903 353 1747 
Q 353 2603 823 3093 
Q 1294 3584 2113 3584 
Q 2378 3584 2631 3529 
Q 2884 3475 3122 3366 
z
" id="DejaVuSans-63" transform="scale(0.015625)"/>
       <path d="M 1159 525 
L 1159 -1331 
L 581 -1331 
L 581 3500 
L 1159 3500 
L 1159 2969 
Q 1341 3281 1617 3432 
Q 1894 3584 2278 3584 
Q 2916 3584 3314 3078 
Q 3713 2572 3713 1747 
Q 3713 922 3314 415 
Q 2916 -91 2278 -91 
Q 1894 -91 1617 61 
Q 1341 213 1159 525 
z
M 3116 1747 
Q 3116 2381 2855 2742 
Q 2594 3103 2138 3103 
Q 1681 3103 1420 2742 
Q 1159 2381 1159 1747 
Q 1159 1113 1420 752 
Q 1681 391 2138 391 
Q 2594 391 2855 752 
Q 3116 1113 3116 1747 
z
" id="DejaVuSans-70" transform="scale(0.015625)"/>
      </defs>
      <use xlink:href="#DejaVuSans-54"/>
      <use x="44.083984" xlink:href="#DejaVuSans-6f"/>
      <use x="105.265625" xlink:href="#DejaVuSans-74"/>
      <use x="144.474609" xlink:href="#DejaVuSans-61"/>
      <use x="205.753906" xlink:href="#DejaVuSans-6c"/>
      <use x="233.537109" xlink:href="#DejaVuSans-20"/>
      <use x="265.324219" xlink:href="#DejaVuSans-50"/>
      <use x="323.876953" xlink:href="#DejaVuSans-72"/>
      <use x="362.740234" xlink:href="#DejaVuSans-65"/>
      <use x="424.263672" xlink:href="#DejaVuSans-64"/>
      <use x="487.740234" xlink:href="#DejaVuSans-69"/>
      <use x="515.523438" xlink:href="#DejaVuSans-63"/>
      <use x="570.503906" xlink:href="#DejaVuSans-74"/>
      <use x="609.712891" xlink:href="#DejaVuSans-65"/>
      <use x="671.236328" xlink:href="#DejaVuSans-64"/>
      <use x="734.712891" xlink:href="#DejaVuSans-20"/>
      <use x="766.5" xlink:href="#DejaVuSans-50"/>
      <use x="825.052734" xlink:href="#DejaVuSans-72"/>
      <use x="863.916016" xlink:href="#DejaVuSans-6f"/>
      <use x="925.097656" xlink:href="#DejaVuSans-70"/>
      <use x="988.574219" xlink:href="#DejaVuSans-68"/>
      <use x="1051.953125" xlink:href="#DejaVuSans-61"/>
      <use x="1113.232422" xlink:href="#DejaVuSans-67"/>
      <use x="1176.708984" xlink:href="#DejaVuSans-65"/>
      <use x="1238.232422" xlink:href="#DejaVuSans-73"/>
     </g>
    </g>
   </g>
   <g id="line2d_12">
    <path clip-path="url(#pa91a9d4f8f)" d="M 175.620833 497.495381 
L 175.620833 441.815138 
" style="fill:none;stroke:#3d3d3d;stroke-linecap:square;stroke-width:1.5;"/>
   </g>
   <g id="line2d_13">
    <path clip-path="url(#pa91a9d4f8f)" d="M 175.620833 485.121994 
L 175.620833 466.561913 
" style="fill:none;stroke:#3d3d3d;stroke-linecap:square;stroke-width:4.5;"/>
   </g>
   <g id="line2d_14">
    <path clip-path="url(#pa91a9d4f8f)" d="M 438.0125 497.495381 
L 438.0125 429.441751 
" style="fill:none;stroke:#3d3d3d;stroke-linecap:square;stroke-width:1.5;"/>
   </g>
   <g id="line2d_15">
    <path clip-path="url(#pa91a9d4f8f)" d="M 438.0125 491.308687 
L 438.0125 466.561913 
" style="fill:none;stroke:#3d3d3d;stroke-linecap:square;stroke-width:4.5;"/>
   </g>
   <g id="line2d_16">
    <path clip-path="url(#pa91a9d4f8f)" d="M 700.404167 497.495381 
L 700.404167 423.255057 
" style="fill:none;stroke:#3d3d3d;stroke-linecap:square;stroke-width:1.5;"/>
   </g>
   <g id="line2d_17">
    <path clip-path="url(#pa91a9d4f8f)" d="M 700.404167 485.121994 
L 700.404167 460.375219 
" style="fill:none;stroke:#3d3d3d;stroke-linecap:square;stroke-width:4.5;"/>
   </g>
   <g id="patch_3">
    <path d="M 44.425 542.04 
L 44.425 10.8 
" style="fill:none;stroke:#000000;stroke-linecap:square;stroke-linejoin:miter;stroke-width:0.8;"/>
   </g>
   <g id="patch_4">
    <path d="M 831.6 542.04 
L 831.6 10.8 
" style="fill:none;"/>
   </g>
   <g id="patch_5">
    <path d="M 44.425 542.04 
L 831.6 542.04 
" style="fill:none;stroke:#000000;stroke-linecap:square;stroke-linejoin:miter;stroke-width:0.8;"/>
   </g>
   <g id="patch_6">
    <path d="M 44.425 10.8 
L 831.6 10.8 
" style="fill:none;"/>
   </g>
   <g id="PathCollection_1">
    <defs>
     <path d="M 0 1.5 
C 0.397805 1.5 0.77937 1.341951 1.06066 1.06066 
C 1.341951 0.77937 1.5 0.397805 1.5 0 
C 1.5 -0.397805 1.341951 -0.77937 1.06066 -1.06066 
C 0.77937 -1.341951 0.397805 -1.5 0 -1.5 
C -0.397805 -1.5 -0.77937 -1.341951 -1.06066 -1.06066 
C -1.341951 -0.77937 -1.5 -0.397805 -1.5 0 
C -1.5 0.397805 -1.341951 0.77937 -1.06066 1.06066 
C -0.77937 1.341951 -0.397805 1.5 0 1.5 
z
" id="m156e26a9a5" style="stroke:#3d3d3d;"/>
    </defs>
    <g clip-path="url(#pa91a9d4f8f)">
     <use style="fill:#ffffff;stroke:#3d3d3d;" x="175.620833" xlink:href="#m156e26a9a5" y="478.9353"/>
    </g>
   </g>
   <g id="PathCollection_2">
    <g clip-path="url(#pa91a9d4f8f)">
     <use style="fill:#ffffff;stroke:#3d3d3d;" x="438.0125" xlink:href="#m156e26a9a5" y="478.9353"/>
    </g>
   </g>
   <g id="PathCollection_3">
    <g clip-path="url(#pa91a9d4f8f)">
     <use style="fill:#ffffff;stroke:#3d3d3d;" x="700.404167" xlink:href="#m156e26a9a5" y="472.748606"/>
    </g>
   </g>
  </g>
 </g>
 <defs>
  <clipPath id="pa91a9d4f8f">
   <rect height="531.24" width="787.175" x="44.425" y="10.8"/>
  </clipPath>
 </defs>
</svg>
