<?xml version="1.0" encoding="utf-8" standalone="no"?>
<!DOCTYPE svg PUBLIC "-//W3C//DTD SVG 1.1//EN"
  "http://www.w3.org/Graphics/SVG/1.1/DTD/svg11.dtd">
<!-- Created with matplotlib (https://matplotlib.org/) -->
<svg height="595.44pt" version="1.1" viewBox="0 0 842.4 595.44" width="842.4pt" xmlns="http://www.w3.org/2000/svg" xmlns:xlink="http://www.w3.org/1999/xlink">
 <metadata>
  <rdf:RDF xmlns:cc="http://creativecommons.org/ns#" xmlns:dc="http://purl.org/dc/elements/1.1/" xmlns:rdf="http://www.w3.org/1999/02/22-rdf-syntax-ns#">
   <cc:Work>
    <dc:type rdf:resource="http://purl.org/dc/dcmitype/StillImage"/>
    <dc:date>2021-05-04T15:32:31.057383</dc:date>
    <dc:format>image/svg+xml</dc:format>
    <dc:creator>
     <cc:Agent>
      <dc:title>Matplotlib v3.3.4, https://matplotlib.org/</dc:title>
     </cc:Agent>
    </dc:creator>
   </cc:Work>
  </rdf:RDF>
 </metadata>
 <defs>
  <style type="text/css">*{stroke-linecap:butt;stroke-linejoin:round;}</style>
 </defs>
 <g id="figure_1">
  <g id="patch_1">
   <path d="M 0 595.44 
L 842.4 595.44 
L 842.4 0 
L 0 0 
z
" style="fill:none;"/>
  </g>
  <g id="axes_1">
   <g id="patch_2">
    <path d="M 44.425 542.04 
L 831.6 542.04 
L 831.6 10.8 
L 44.425 10.8 
z
" style="fill:#ffffff;"/>
   </g>
   <g id="PolyCollection_1">
    <defs>
     <path d="M 178.891264 -77.547273 
L 172.350403 -77.547273 
L 170.200782 -80.084063 
L 167.110418 -82.620854 
L 162.937424 -85.157645 
L 157.638829 -87.694435 
L 151.301187 -90.231226 
L 144.14077 -92.768017 
L 136.468837 -95.304807 
L 128.63286 -97.841598 
L 120.956967 -100.378389 
L 113.70639 -102.915179 
L 107.088842 -105.45197 
L 101.285962 -107.988761 
L 96.491141 -110.525551 
L 92.926143 -113.062342 
L 90.820488 -115.599133 
L 90.358377 -118.135923 
L 91.616365 -120.672714 
L 94.521293 -123.209505 
L 98.849099 -125.746295 
L 104.266433 -128.283086 
L 110.398265 -130.819877 
L 116.895018 -133.356667 
L 123.475974 -135.893458 
L 129.938958 -138.430249 
L 136.142284 -140.967039 
L 141.975851 -143.50383 
L 147.339608 -146.040621 
L 152.139992 -148.577411 
L 156.30339 -151.114202 
L 159.796288 -153.650993 
L 162.638978 -156.187783 
L 164.903829 -158.724574 
L 166.697366 -161.261365 
L 168.133112 -163.798155 
L 169.305914 -166.334946 
L 170.276957 -168.871737 
L 171.073435 -171.408527 
L 171.700465 -173.945318 
L 172.158414 -176.482109 
L 172.457727 -179.018899 
L 172.625738 -181.55569 
L 172.704208 -184.092481 
L 172.740393 -186.629271 
L 172.776608 -189.166062 
L 172.842846 -191.702853 
L 172.954605 -194.239643 
L 173.115298 -196.776434 
L 173.320685 -199.313225 
L 173.562698 -201.850015 
L 173.831286 -204.386806 
L 174.114644 -206.923597 
L 174.399146 -209.460387 
L 174.670177 -211.997178 
L 174.914119 -214.533969 
L 175.120751 -217.070759 
L 175.284982 -219.60755 
L 175.40719 -222.144341 
L 175.49212 -224.681131 
L 175.546916 -227.217922 
L 175.579025 -229.754713 
L 175.594514 -232.291503 
L 175.597019 -234.828294 
L 175.587278 -237.365084 
L 175.563153 -239.901875 
L 175.520145 -242.438666 
L 175.452545 -244.975456 
L 175.355339 -247.512247 
L 175.226754 -250.049038 
L 175.070875 -252.585828 
L 174.899349 -255.122619 
L 174.731101 -257.65941 
L 174.589437 -260.1962 
L 174.496924 -262.732991 
L 174.469524 -265.269782 
L 174.512027 -267.806572 
L 174.616545 -270.343363 
L 174.764604 -272.880154 
L 174.93192 -275.416944 
L 175.093946 -277.953735 
L 175.230226 -280.490526 
L 175.32645 -283.027316 
L 175.37432 -285.564107 
L 175.370323 -288.100898 
L 175.314737 -290.637688 
L 175.211721 -293.174479 
L 175.070422 -295.71127 
L 174.906128 -298.24806 
L 174.740112 -300.784851 
L 174.597211 -303.321642 
L 174.501186 -305.858432 
L 174.469158 -308.395223 
L 174.507126 -310.932014 
L 174.608407 -313.468804 
L 174.755679 -316.005595 
L 174.925879 -318.542386 
L 175.096086 -321.079176 
L 175.248378 -323.615967 
L 175.372332 -326.152758 
L 175.464981 -328.689548 
L 175.776685 -328.689548 
L 175.776685 -328.689548 
L 175.869334 -326.152758 
L 175.993288 -323.615967 
L 176.14558 -321.079176 
L 176.315787 -318.542386 
L 176.485987 -316.005595 
L 176.63326 -313.468804 
L 176.73454 -310.932014 
L 176.772509 -308.395223 
L 176.74048 -305.858432 
L 176.644456 -303.321642 
L 176.501555 -300.784851 
L 176.335539 -298.24806 
L 176.171244 -295.71127 
L 176.029945 -293.174479 
L 175.926929 -290.637688 
L 175.871343 -288.100898 
L 175.867347 -285.564107 
L 175.915217 -283.027316 
L 176.01144 -280.490526 
L 176.147721 -277.953735 
L 176.309746 -275.416944 
L 176.477062 -272.880154 
L 176.625121 -270.343363 
L 176.72964 -267.806572 
L 176.772143 -265.269782 
L 176.744743 -262.732991 
L 176.65223 -260.1962 
L 176.510566 -257.65941 
L 176.342318 -255.122619 
L 176.170792 -252.585828 
L 176.014912 -250.049038 
L 175.886327 -247.512247 
L 175.789122 -244.975456 
L 175.721522 -242.438666 
L 175.678514 -239.901875 
L 175.654389 -237.365084 
L 175.644647 -234.828294 
L 175.647152 -232.291503 
L 175.662641 -229.754713 
L 175.69475 -227.217922 
L 175.749547 -224.681131 
L 175.834476 -222.144341 
L 175.956684 -219.60755 
L 176.120916 -217.070759 
L 176.327547 -214.533969 
L 176.57149 -211.997178 
L 176.842521 -209.460387 
L 177.127023 -206.923597 
L 177.410381 -204.386806 
L 177.678969 -201.850015 
L 177.920982 -199.313225 
L 178.126369 -196.776434 
L 178.287062 -194.239643 
L 178.398821 -191.702853 
L 178.465058 -189.166062 
L 178.501274 -186.629271 
L 178.537458 -184.092481 
L 178.615928 -181.55569 
L 178.78394 -179.018899 
L 179.083252 -176.482109 
L 179.541201 -173.945318 
L 180.168231 -171.408527 
L 180.964709 -168.871737 
L 181.935753 -166.334946 
L 183.108554 -163.798155 
L 184.544301 -161.261365 
L 186.337837 -158.724574 
L 188.602689 -156.187783 
L 191.445379 -153.650993 
L 194.938277 -151.114202 
L 199.101675 -148.577411 
L 203.902059 -146.040621 
L 209.265816 -143.50383 
L 215.099383 -140.967039 
L 221.302709 -138.430249 
L 227.765693 -135.893458 
L 234.346649 -133.356667 
L 240.843401 -130.819877 
L 246.975234 -128.283086 
L 252.392568 -125.746295 
L 256.720374 -123.209505 
L 259.625302 -120.672714 
L 260.88329 -118.135923 
L 260.421178 -115.599133 
L 258.315524 -113.062342 
L 254.750525 -110.525551 
L 249.955704 -107.988761 
L 244.152824 -105.45197 
L 237.535277 -102.915179 
L 230.2847 -100.378389 
L 222.608807 -97.841598 
L 214.77283 -95.304807 
L 207.100896 -92.768017 
L 199.94048 -90.231226 
L 193.602838 -87.694435 
L 188.304243 -85.157645 
L 184.131249 -82.620854 
L 181.040885 -80.084063 
L 178.891264 -77.547273 
z
" id="me8c9cff131" style="stroke:#3d3d3d;stroke-width:1.5;"/>
    </defs>
    <g clip-path="url(#p27545967fc)">
     <use style="fill:#3274a1;stroke:#3d3d3d;stroke-width:1.5;" x="0" xlink:href="#me8c9cff131" y="595.44"/>
    </g>
   </g>
   <g id="PolyCollection_2">
    <defs>
     <path d="M 452.067067 -93.02675 
L 423.957933 -93.02675 
L 358.598447 -96.12571 
L 335.314985 -99.22467 
L 349.017745 -102.32363 
L 345.690392 -105.42259 
L 338.564423 -108.52155 
L 333.055833 -111.620509 
L 349.756347 -114.719469 
L 352.657676 -117.818429 
L 369.706099 -120.917389 
L 372.557048 -124.016349 
L 382.342151 -127.115309 
L 383.972759 -130.214269 
L 393.76257 -133.313229 
L 396.213895 -136.412189 
L 405.975669 -139.511149 
L 408.322666 -142.610109 
L 414.111658 -145.709069 
L 415.796675 -148.808028 
L 421.528718 -151.906988 
L 423.038024 -155.005948 
L 426.106647 -158.104908 
L 426.952467 -161.203868 
L 429.314738 -164.302828 
L 430.017868 -167.401788 
L 431.85221 -170.500748 
L 432.371887 -173.599708 
L 433.497712 -176.698668 
L 433.785251 -179.797628 
L 434.409864 -182.896588 
L 434.603775 -185.995547 
L 435.226288 -189.094507 
L 435.50278 -192.193467 
L 436.335034 -195.292427 
L 436.572657 -198.391387 
L 436.840738 -201.490347 
L 436.911727 -204.589307 
L 437.036838 -207.688267 
L 437.100754 -210.787227 
L 437.316726 -213.886187 
L 437.376293 -216.985147 
L 437.442746 -220.084106 
L 437.480135 -223.183066 
L 437.599438 -226.282026 
L 437.633907 -229.380986 
L 437.669772 -232.479946 
L 437.674659 -235.578906 
L 437.669216 -238.677866 
L 437.698461 -241.776826 
L 437.829714 -244.875786 
L 437.853903 -247.974746 
L 437.822888 -251.073706 
L 437.829532 -254.172666 
L 437.886132 -257.271625 
L 437.898405 -260.370585 
L 437.890466 -263.469545 
L 437.895455 -266.568505 
L 437.919268 -269.667465 
L 437.925817 -272.766425 
L 437.925559 -275.865385 
L 437.932742 -278.964345 
L 437.957002 -282.063305 
L 437.971821 -285.162265 
L 438.004385 -288.261225 
L 438.007715 -291.360185 
L 437.991525 -294.459144 
L 437.990313 -297.558104 
L 437.998046 -300.657064 
L 438.000138 -303.756024 
L 438.000078 -306.854984 
L 438.002517 -309.953944 
L 438.010589 -313.052904 
L 438.012424 -316.151864 
L 438.012395 -319.250824 
L 438.010172 -322.349784 
L 438.001924 -325.448744 
L 438.002686 -328.547704 
L 438.01064 -331.646663 
L 438.012428 -334.745623 
L 438.012499 -337.844583 
L 438.0125 -340.943543 
L 438.0125 -344.042503 
L 438.0125 -347.141463 
L 438.0125 -350.240423 
L 438.0125 -353.339383 
L 438.0125 -356.438343 
L 438.0125 -359.537303 
L 438.0125 -362.636263 
L 438.0125 -365.735223 
L 438.0125 -368.834182 
L 438.0125 -371.933142 
L 438.0125 -375.032102 
L 438.0125 -378.131062 
L 438.0125 -381.230022 
L 438.012499 -384.328982 
L 438.012378 -387.427942 
L 438.009951 -390.526902 
L 438.00163 -393.625862 
L 438.003032 -396.724822 
L 438.010815 -399.823782 
L 438.014185 -399.823782 
L 438.014185 -399.823782 
L 438.021968 -396.724822 
L 438.02337 -393.625862 
L 438.015049 -390.526902 
L 438.012622 -387.427942 
L 438.012501 -384.328982 
L 438.0125 -381.230022 
L 438.0125 -378.131062 
L 438.0125 -375.032102 
L 438.0125 -371.933142 
L 438.0125 -368.834182 
L 438.0125 -365.735223 
L 438.0125 -362.636263 
L 438.0125 -359.537303 
L 438.0125 -356.438343 
L 438.0125 -353.339383 
L 438.0125 -350.240423 
L 438.0125 -347.141463 
L 438.0125 -344.042503 
L 438.0125 -340.943543 
L 438.012501 -337.844583 
L 438.012572 -334.745623 
L 438.01436 -331.646663 
L 438.022314 -328.547704 
L 438.023076 -325.448744 
L 438.014828 -322.349784 
L 438.012605 -319.250824 
L 438.012576 -316.151864 
L 438.014411 -313.052904 
L 438.022483 -309.953944 
L 438.024922 -306.854984 
L 438.024862 -303.756024 
L 438.026954 -300.657064 
L 438.034687 -297.558104 
L 438.033475 -294.459144 
L 438.017285 -291.360185 
L 438.020615 -288.261225 
L 438.053179 -285.162265 
L 438.067998 -282.063305 
L 438.092258 -278.964345 
L 438.099441 -275.865385 
L 438.099183 -272.766425 
L 438.105732 -269.667465 
L 438.129545 -266.568505 
L 438.134534 -263.469545 
L 438.126595 -260.370585 
L 438.138868 -257.271625 
L 438.195468 -254.172666 
L 438.202112 -251.073706 
L 438.171097 -247.974746 
L 438.195286 -244.875786 
L 438.326539 -241.776826 
L 438.355784 -238.677866 
L 438.350341 -235.578906 
L 438.355228 -232.479946 
L 438.391093 -229.380986 
L 438.425562 -226.282026 
L 438.544865 -223.183066 
L 438.582254 -220.084106 
L 438.648707 -216.985147 
L 438.708274 -213.886187 
L 438.924246 -210.787227 
L 438.988162 -207.688267 
L 439.113273 -204.589307 
L 439.184262 -201.490347 
L 439.452343 -198.391387 
L 439.689966 -195.292427 
L 440.52222 -192.193467 
L 440.798712 -189.094507 
L 441.421225 -185.995547 
L 441.615136 -182.896588 
L 442.239749 -179.797628 
L 442.527288 -176.698668 
L 443.653113 -173.599708 
L 444.17279 -170.500748 
L 446.007132 -167.401788 
L 446.710262 -164.302828 
L 449.072533 -161.203868 
L 449.918353 -158.104908 
L 452.986976 -155.005948 
L 454.496282 -151.906988 
L 460.228325 -148.808028 
L 461.913342 -145.709069 
L 467.702334 -142.610109 
L 470.049331 -139.511149 
L 479.811105 -136.412189 
L 482.26243 -133.313229 
L 492.052241 -130.214269 
L 493.682849 -127.115309 
L 503.467952 -124.016349 
L 506.318901 -120.917389 
L 523.367324 -117.818429 
L 526.268653 -114.719469 
L 542.969167 -111.620509 
L 537.460577 -108.52155 
L 530.334608 -105.42259 
L 527.007255 -102.32363 
L 540.710015 -99.22467 
L 517.426553 -96.12571 
L 452.067067 -93.02675 
z
" id="m71ec2e91ad" style="stroke:#3d3d3d;stroke-width:1.5;"/>
    </defs>
    <g clip-path="url(#p27545967fc)">
     <use style="fill:#e1812c;stroke:#3d3d3d;stroke-width:1.5;" x="0" xlink:href="#m71ec2e91ad" y="595.44"/>
    </g>
   </g>
   <g id="PolyCollection_3">
    <defs>
     <path d="M 705.537915 -93.211838 
L 695.270419 -93.211838 
L 660.211653 -97.931847 
L 636.877263 -102.651856 
L 629.510884 -107.371865 
L 611.715094 -112.091874 
L 595.681628 -116.811883 
L 610.759488 -121.531892 
L 633.284616 -126.251901 
L 639.700948 -130.97191 
L 643.20995 -135.691919 
L 655.741876 -140.411928 
L 667.549986 -145.131937 
L 671.822877 -149.851946 
L 672.86605 -154.571955 
L 680.264031 -159.291964 
L 687.275683 -164.011973 
L 690.744658 -168.731982 
L 692.259428 -173.451991 
L 693.635656 -178.172 
L 696.20626 -182.892009 
L 697.337799 -187.612018 
L 697.572276 -192.332027 
L 698.144144 -197.052036 
L 698.707448 -201.772045 
L 699.161309 -206.492054 
L 699.300582 -211.212063 
L 699.481551 -215.932072 
L 699.626027 -220.652081 
L 699.839448 -225.37209 
L 699.893746 -230.092099 
L 699.875737 -234.812107 
L 700.077643 -239.532116 
L 700.17252 -244.252125 
L 700.20393 -248.972134 
L 700.198681 -253.692143 
L 700.216895 -258.412152 
L 700.328982 -263.132161 
L 700.324413 -267.85217 
L 700.272396 -272.572179 
L 700.294355 -277.292188 
L 700.343527 -282.012197 
L 700.372981 -286.732206 
L 700.383232 -291.452215 
L 700.365592 -296.172224 
L 700.383526 -300.892233 
L 700.392954 -305.612242 
L 700.395634 -310.332251 
L 700.3949 -315.05226 
L 700.403398 -319.772269 
L 700.404165 -324.492278 
L 700.404165 -329.212287 
L 700.403398 -333.932296 
L 700.395059 -338.652305 
L 700.402146 -343.372314 
L 700.404158 -348.092323 
L 700.404167 -352.812332 
L 700.404167 -357.532341 
L 700.404167 -362.25235 
L 700.404163 -366.972359 
L 700.40281 -371.692368 
L 700.39446 -376.412377 
L 700.395081 -381.132386 
L 700.400658 -385.852395 
L 700.404137 -390.572404 
L 700.404167 -395.292413 
L 700.404167 -400.012422 
L 700.404167 -404.732431 
L 700.404167 -409.45244 
L 700.404167 -414.172449 
L 700.404041 -418.892458 
L 700.398143 -423.612467 
L 700.398782 -428.332476 
L 700.404077 -433.052485 
L 700.404167 -437.772494 
L 700.40414 -442.492503 
L 700.400772 -447.212512 
L 700.396189 -451.932521 
L 700.403816 -456.65253 
L 700.404166 -461.372539 
L 700.404167 -466.092548 
L 700.404167 -470.812557 
L 700.404167 -475.532566 
L 700.404167 -480.252575 
L 700.404167 -484.972584 
L 700.404167 -489.692593 
L 700.404167 -494.412602 
L 700.404167 -499.132611 
L 700.404167 -503.852619 
L 700.404167 -508.572628 
L 700.404167 -513.292637 
L 700.404167 -518.012646 
L 700.404167 -522.732655 
L 700.404167 -527.452664 
L 700.404167 -532.172673 
L 700.404167 -536.892682 
L 700.404167 -541.612691 
L 700.404163 -546.3327 
L 700.40287 -551.052709 
L 700.394787 -555.772718 
L 700.402897 -560.492727 
L 700.405436 -560.492727 
L 700.405436 -560.492727 
L 700.413546 -555.772718 
L 700.405464 -551.052709 
L 700.40417 -546.3327 
L 700.404167 -541.612691 
L 700.404167 -536.892682 
L 700.404167 -532.172673 
L 700.404167 -527.452664 
L 700.404167 -522.732655 
L 700.404167 -518.012646 
L 700.404167 -513.292637 
L 700.404167 -508.572628 
L 700.404167 -503.852619 
L 700.404167 -499.132611 
L 700.404167 -494.412602 
L 700.404167 -489.692593 
L 700.404167 -484.972584 
L 700.404167 -480.252575 
L 700.404167 -475.532566 
L 700.404167 -470.812557 
L 700.404167 -466.092548 
L 700.404167 -461.372539 
L 700.404518 -456.65253 
L 700.412145 -451.932521 
L 700.407562 -447.212512 
L 700.404194 -442.492503 
L 700.404167 -437.772494 
L 700.404257 -433.052485 
L 700.409551 -428.332476 
L 700.410191 -423.612467 
L 700.404293 -418.892458 
L 700.404167 -414.172449 
L 700.404167 -409.45244 
L 700.404167 -404.732431 
L 700.404167 -400.012422 
L 700.404167 -395.292413 
L 700.404196 -390.572404 
L 700.407675 -385.852395 
L 700.413253 -381.132386 
L 700.413873 -376.412377 
L 700.405524 -371.692368 
L 700.40417 -366.972359 
L 700.404167 -362.25235 
L 700.404167 -357.532341 
L 700.404167 -352.812332 
L 700.404175 -348.092323 
L 700.406187 -343.372314 
L 700.413275 -338.652305 
L 700.404935 -333.932296 
L 700.404168 -329.212287 
L 700.404168 -324.492278 
L 700.404935 -319.772269 
L 700.413433 -315.05226 
L 700.4127 -310.332251 
L 700.41538 -305.612242 
L 700.424808 -300.892233 
L 700.442742 -296.172224 
L 700.425101 -291.452215 
L 700.435352 -286.732206 
L 700.464807 -282.012197 
L 700.513978 -277.292188 
L 700.535937 -272.572179 
L 700.483921 -267.85217 
L 700.479351 -263.132161 
L 700.591438 -258.412152 
L 700.609653 -253.692143 
L 700.604404 -248.972134 
L 700.635814 -244.252125 
L 700.730691 -239.532116 
L 700.932597 -234.812107 
L 700.914587 -230.092099 
L 700.968885 -225.37209 
L 701.182306 -220.652081 
L 701.326782 -215.932072 
L 701.507751 -211.212063 
L 701.647024 -206.492054 
L 702.100885 -201.772045 
L 702.664189 -197.052036 
L 703.236058 -192.332027 
L 703.470534 -187.612018 
L 704.602073 -182.892009 
L 707.172677 -178.172 
L 708.548905 -173.451991 
L 710.063675 -168.731982 
L 713.532651 -164.011973 
L 720.544303 -159.291964 
L 727.942283 -154.571955 
L 728.985456 -149.851946 
L 733.258347 -145.131937 
L 745.066458 -140.411928 
L 757.598383 -135.691919 
L 761.107385 -130.97191 
L 767.523717 -126.251901 
L 790.048846 -121.531892 
L 805.126706 -116.811883 
L 789.093239 -112.091874 
L 771.297449 -107.371865 
L 763.93107 -102.651856 
L 740.59668 -97.931847 
L 705.537915 -93.211838 
z
" id="mc446f033bb" style="stroke:#3d3d3d;stroke-width:1.5;"/>
    </defs>
    <g clip-path="url(#p27545967fc)">
     <use style="fill:#3a923a;stroke:#3d3d3d;stroke-width:1.5;" x="0" xlink:href="#mc446f033bb" y="595.44"/>
    </g>
   </g>
   <g id="matplotlib.axis_1">
    <g id="xtick_1">
     <g id="line2d_1">
      <defs>
       <path d="M 0 0 
L 0 3.5 
" id="md9c994dc35" style="stroke:#000000;stroke-width:0.8;"/>
      </defs>
      <g>
       <use style="stroke:#000000;stroke-width:0.8;" x="175.620833" xlink:href="#md9c994dc35" y="542.04"/>
      </g>
     </g>
     <g id="text_1">
      <!-- Unknown -->
      <g transform="translate(152.411458 556.638438)scale(0.1 -0.1)">
       <defs>
        <path d="M 8.6875 72.90625 
L 18.609375 72.90625 
L 18.609375 28.609375 
Q 18.609375 16.890625 22.84375 11.734375 
Q 27.09375 6.59375 36.625 6.59375 
Q 46.09375 6.59375 50.34375 11.734375 
Q 54.59375 16.890625 54.59375 28.609375 
L 54.59375 72.90625 
L 64.5 72.90625 
L 64.5 27.390625 
Q 64.5 13.140625 57.4375 5.859375 
Q 50.390625 -1.421875 36.625 -1.421875 
Q 22.796875 -1.421875 15.734375 5.859375 
Q 8.6875 13.140625 8.6875 27.390625 
z
" id="DejaVuSans-85"/>
        <path d="M 54.890625 33.015625 
L 54.890625 0 
L 45.90625 0 
L 45.90625 32.71875 
Q 45.90625 40.484375 42.875 44.328125 
Q 39.84375 48.1875 33.796875 48.1875 
Q 26.515625 48.1875 22.3125 43.546875 
Q 18.109375 38.921875 18.109375 30.90625 
L 18.109375 0 
L 9.078125 0 
L 9.078125 54.6875 
L 18.109375 54.6875 
L 18.109375 46.1875 
Q 21.34375 51.125 25.703125 53.5625 
Q 30.078125 56 35.796875 56 
Q 45.21875 56 50.046875 50.171875 
Q 54.890625 44.34375 54.890625 33.015625 
z
" id="DejaVuSans-110"/>
        <path d="M 9.078125 75.984375 
L 18.109375 75.984375 
L 18.109375 31.109375 
L 44.921875 54.6875 
L 56.390625 54.6875 
L 27.390625 29.109375 
L 57.625 0 
L 45.90625 0 
L 18.109375 26.703125 
L 18.109375 0 
L 9.078125 0 
z
" id="DejaVuSans-107"/>
        <path d="M 30.609375 48.390625 
Q 23.390625 48.390625 19.1875 42.75 
Q 14.984375 37.109375 14.984375 27.296875 
Q 14.984375 17.484375 19.15625 11.84375 
Q 23.34375 6.203125 30.609375 6.203125 
Q 37.796875 6.203125 41.984375 11.859375 
Q 46.1875 17.53125 46.1875 27.296875 
Q 46.1875 37.015625 41.984375 42.703125 
Q 37.796875 48.390625 30.609375 48.390625 
z
M 30.609375 56 
Q 42.328125 56 49.015625 48.375 
Q 55.71875 40.765625 55.71875 27.296875 
Q 55.71875 13.875 49.015625 6.21875 
Q 42.328125 -1.421875 30.609375 -1.421875 
Q 18.84375 -1.421875 12.171875 6.21875 
Q 5.515625 13.875 5.515625 27.296875 
Q 5.515625 40.765625 12.171875 48.375 
Q 18.84375 56 30.609375 56 
z
" id="DejaVuSans-111"/>
        <path d="M 4.203125 54.6875 
L 13.1875 54.6875 
L 24.421875 12.015625 
L 35.59375 54.6875 
L 46.1875 54.6875 
L 57.421875 12.015625 
L 68.609375 54.6875 
L 77.59375 54.6875 
L 63.28125 0 
L 52.6875 0 
L 40.921875 44.828125 
L 29.109375 0 
L 18.5 0 
z
" id="DejaVuSans-119"/>
       </defs>
       <use xlink:href="#DejaVuSans-85"/>
       <use x="73.193359" xlink:href="#DejaVuSans-110"/>
       <use x="136.572266" xlink:href="#DejaVuSans-107"/>
       <use x="194.482422" xlink:href="#DejaVuSans-110"/>
       <use x="257.861328" xlink:href="#DejaVuSans-111"/>
       <use x="319.042969" xlink:href="#DejaVuSans-119"/>
       <use x="400.830078" xlink:href="#DejaVuSans-110"/>
      </g>
     </g>
    </g>
    <g id="xtick_2">
     <g id="line2d_2">
      <g>
       <use style="stroke:#000000;stroke-width:0.8;" x="438.0125" xlink:href="#md9c994dc35" y="542.04"/>
      </g>
     </g>
     <g id="text_2">
      <!-- Medium -->
      <g transform="translate(418.019531 556.638438)scale(0.1 -0.1)">
       <defs>
        <path d="M 9.8125 72.90625 
L 24.515625 72.90625 
L 43.109375 23.296875 
L 61.8125 72.90625 
L 76.515625 72.90625 
L 76.515625 0 
L 66.890625 0 
L 66.890625 64.015625 
L 48.09375 14.015625 
L 38.1875 14.015625 
L 19.390625 64.015625 
L 19.390625 0 
L 9.8125 0 
z
" id="DejaVuSans-77"/>
        <path d="M 56.203125 29.59375 
L 56.203125 25.203125 
L 14.890625 25.203125 
Q 15.484375 15.921875 20.484375 11.0625 
Q 25.484375 6.203125 34.421875 6.203125 
Q 39.59375 6.203125 44.453125 7.46875 
Q 49.3125 8.734375 54.109375 11.28125 
L 54.109375 2.78125 
Q 49.265625 0.734375 44.1875 -0.34375 
Q 39.109375 -1.421875 33.890625 -1.421875 
Q 20.796875 -1.421875 13.15625 6.1875 
Q 5.515625 13.8125 5.515625 26.8125 
Q 5.515625 40.234375 12.765625 48.109375 
Q 20.015625 56 32.328125 56 
Q 43.359375 56 49.78125 48.890625 
Q 56.203125 41.796875 56.203125 29.59375 
z
M 47.21875 32.234375 
Q 47.125 39.59375 43.09375 43.984375 
Q 39.0625 48.390625 32.421875 48.390625 
Q 24.90625 48.390625 20.390625 44.140625 
Q 15.875 39.890625 15.1875 32.171875 
z
" id="DejaVuSans-101"/>
        <path d="M 45.40625 46.390625 
L 45.40625 75.984375 
L 54.390625 75.984375 
L 54.390625 0 
L 45.40625 0 
L 45.40625 8.203125 
Q 42.578125 3.328125 38.25 0.953125 
Q 33.9375 -1.421875 27.875 -1.421875 
Q 17.96875 -1.421875 11.734375 6.484375 
Q 5.515625 14.40625 5.515625 27.296875 
Q 5.515625 40.1875 11.734375 48.09375 
Q 17.96875 56 27.875 56 
Q 33.9375 56 38.25 53.625 
Q 42.578125 51.265625 45.40625 46.390625 
z
M 14.796875 27.296875 
Q 14.796875 17.390625 18.875 11.75 
Q 22.953125 6.109375 30.078125 6.109375 
Q 37.203125 6.109375 41.296875 11.75 
Q 45.40625 17.390625 45.40625 27.296875 
Q 45.40625 37.203125 41.296875 42.84375 
Q 37.203125 48.484375 30.078125 48.484375 
Q 22.953125 48.484375 18.875 42.84375 
Q 14.796875 37.203125 14.796875 27.296875 
z
" id="DejaVuSans-100"/>
        <path d="M 9.421875 54.6875 
L 18.40625 54.6875 
L 18.40625 0 
L 9.421875 0 
z
M 9.421875 75.984375 
L 18.40625 75.984375 
L 18.40625 64.59375 
L 9.421875 64.59375 
z
" id="DejaVuSans-105"/>
        <path d="M 8.5 21.578125 
L 8.5 54.6875 
L 17.484375 54.6875 
L 17.484375 21.921875 
Q 17.484375 14.15625 20.5 10.265625 
Q 23.53125 6.390625 29.59375 6.390625 
Q 36.859375 6.390625 41.078125 11.03125 
Q 45.3125 15.671875 45.3125 23.6875 
L 45.3125 54.6875 
L 54.296875 54.6875 
L 54.296875 0 
L 45.3125 0 
L 45.3125 8.40625 
Q 42.046875 3.421875 37.71875 1 
Q 33.40625 -1.421875 27.6875 -1.421875 
Q 18.265625 -1.421875 13.375 4.4375 
Q 8.5 10.296875 8.5 21.578125 
z
M 31.109375 56 
z
" id="DejaVuSans-117"/>
        <path d="M 52 44.1875 
Q 55.375 50.25 60.0625 53.125 
Q 64.75 56 71.09375 56 
Q 79.640625 56 84.28125 50.015625 
Q 88.921875 44.046875 88.921875 33.015625 
L 88.921875 0 
L 79.890625 0 
L 79.890625 32.71875 
Q 79.890625 40.578125 77.09375 44.375 
Q 74.3125 48.1875 68.609375 48.1875 
Q 61.625 48.1875 57.5625 43.546875 
Q 53.515625 38.921875 53.515625 30.90625 
L 53.515625 0 
L 44.484375 0 
L 44.484375 32.71875 
Q 44.484375 40.625 41.703125 44.40625 
Q 38.921875 48.1875 33.109375 48.1875 
Q 26.21875 48.1875 22.15625 43.53125 
Q 18.109375 38.875 18.109375 30.90625 
L 18.109375 0 
L 9.078125 0 
L 9.078125 54.6875 
L 18.109375 54.6875 
L 18.109375 46.1875 
Q 21.1875 51.21875 25.484375 53.609375 
Q 29.78125 56 35.6875 56 
Q 41.65625 56 45.828125 52.96875 
Q 50 49.953125 52 44.1875 
z
" id="DejaVuSans-109"/>
       </defs>
       <use xlink:href="#DejaVuSans-77"/>
       <use x="86.279297" xlink:href="#DejaVuSans-101"/>
       <use x="147.802734" xlink:href="#DejaVuSans-100"/>
       <use x="211.279297" xlink:href="#DejaVuSans-105"/>
       <use x="239.0625" xlink:href="#DejaVuSans-117"/>
       <use x="302.441406" xlink:href="#DejaVuSans-109"/>
      </g>
     </g>
    </g>
    <g id="xtick_3">
     <g id="line2d_3">
      <g>
       <use style="stroke:#000000;stroke-width:0.8;" x="700.404167" xlink:href="#md9c994dc35" y="542.04"/>
      </g>
     </g>
     <g id="text_3">
      <!-- High -->
      <g transform="translate(688.911979 556.638438)scale(0.1 -0.1)">
       <defs>
        <path d="M 9.8125 72.90625 
L 19.671875 72.90625 
L 19.671875 43.015625 
L 55.515625 43.015625 
L 55.515625 72.90625 
L 65.375 72.90625 
L 65.375 0 
L 55.515625 0 
L 55.515625 34.71875 
L 19.671875 34.71875 
L 19.671875 0 
L 9.8125 0 
z
" id="DejaVuSans-72"/>
        <path d="M 45.40625 27.984375 
Q 45.40625 37.75 41.375 43.109375 
Q 37.359375 48.484375 30.078125 48.484375 
Q 22.859375 48.484375 18.828125 43.109375 
Q 14.796875 37.75 14.796875 27.984375 
Q 14.796875 18.265625 18.828125 12.890625 
Q 22.859375 7.515625 30.078125 7.515625 
Q 37.359375 7.515625 41.375 12.890625 
Q 45.40625 18.265625 45.40625 27.984375 
z
M 54.390625 6.78125 
Q 54.390625 -7.171875 48.1875 -13.984375 
Q 42 -20.796875 29.203125 -20.796875 
Q 24.46875 -20.796875 20.265625 -20.09375 
Q 16.0625 -19.390625 12.109375 -17.921875 
L 12.109375 -9.1875 
Q 16.0625 -11.328125 19.921875 -12.34375 
Q 23.78125 -13.375 27.78125 -13.375 
Q 36.625 -13.375 41.015625 -8.765625 
Q 45.40625 -4.15625 45.40625 5.171875 
L 45.40625 9.625 
Q 42.625 4.78125 38.28125 2.390625 
Q 33.9375 0 27.875 0 
Q 17.828125 0 11.671875 7.65625 
Q 5.515625 15.328125 5.515625 27.984375 
Q 5.515625 40.671875 11.671875 48.328125 
Q 17.828125 56 27.875 56 
Q 33.9375 56 38.28125 53.609375 
Q 42.625 51.21875 45.40625 46.390625 
L 45.40625 54.6875 
L 54.390625 54.6875 
z
" id="DejaVuSans-103"/>
        <path d="M 54.890625 33.015625 
L 54.890625 0 
L 45.90625 0 
L 45.90625 32.71875 
Q 45.90625 40.484375 42.875 44.328125 
Q 39.84375 48.1875 33.796875 48.1875 
Q 26.515625 48.1875 22.3125 43.546875 
Q 18.109375 38.921875 18.109375 30.90625 
L 18.109375 0 
L 9.078125 0 
L 9.078125 75.984375 
L 18.109375 75.984375 
L 18.109375 46.1875 
Q 21.34375 51.125 25.703125 53.5625 
Q 30.078125 56 35.796875 56 
Q 45.21875 56 50.046875 50.171875 
Q 54.890625 44.34375 54.890625 33.015625 
z
" id="DejaVuSans-104"/>
       </defs>
       <use xlink:href="#DejaVuSans-72"/>
       <use x="75.195312" xlink:href="#DejaVuSans-105"/>
       <use x="102.978516" xlink:href="#DejaVuSans-103"/>
       <use x="166.455078" xlink:href="#DejaVuSans-104"/>
      </g>
     </g>
    </g>
    <g id="text_4">
     <!-- Genome Quality (MIMAG) from GTDB -->
     <g transform="translate(345.792188 570.316562)scale(0.1 -0.1)">
      <defs>
       <path d="M 59.515625 10.40625 
L 59.515625 29.984375 
L 43.40625 29.984375 
L 43.40625 38.09375 
L 69.28125 38.09375 
L 69.28125 6.78125 
Q 63.578125 2.734375 56.6875 0.65625 
Q 49.8125 -1.421875 42 -1.421875 
Q 24.90625 -1.421875 15.25 8.5625 
Q 5.609375 18.5625 5.609375 36.375 
Q 5.609375 54.25 15.25 64.234375 
Q 24.90625 74.21875 42 74.21875 
Q 49.125 74.21875 55.546875 72.453125 
Q 61.96875 70.703125 67.390625 67.28125 
L 67.390625 56.78125 
Q 61.921875 61.421875 55.765625 63.765625 
Q 49.609375 66.109375 42.828125 66.109375 
Q 29.4375 66.109375 22.71875 58.640625 
Q 16.015625 51.171875 16.015625 36.375 
Q 16.015625 21.625 22.71875 14.15625 
Q 29.4375 6.6875 42.828125 6.6875 
Q 48.046875 6.6875 52.140625 7.59375 
Q 56.25 8.5 59.515625 10.40625 
z
" id="DejaVuSans-71"/>
       <path id="DejaVuSans-32"/>
       <path d="M 39.40625 66.21875 
Q 28.65625 66.21875 22.328125 58.203125 
Q 16.015625 50.203125 16.015625 36.375 
Q 16.015625 22.609375 22.328125 14.59375 
Q 28.65625 6.59375 39.40625 6.59375 
Q 50.140625 6.59375 56.421875 14.59375 
Q 62.703125 22.609375 62.703125 36.375 
Q 62.703125 50.203125 56.421875 58.203125 
Q 50.140625 66.21875 39.40625 66.21875 
z
M 53.21875 1.3125 
L 66.21875 -12.890625 
L 54.296875 -12.890625 
L 43.5 -1.21875 
Q 41.890625 -1.3125 41.03125 -1.359375 
Q 40.1875 -1.421875 39.40625 -1.421875 
Q 24.03125 -1.421875 14.8125 8.859375 
Q 5.609375 19.140625 5.609375 36.375 
Q 5.609375 53.65625 14.8125 63.9375 
Q 24.03125 74.21875 39.40625 74.21875 
Q 54.734375 74.21875 63.90625 63.9375 
Q 73.09375 53.65625 73.09375 36.375 
Q 73.09375 23.6875 67.984375 14.640625 
Q 62.890625 5.609375 53.21875 1.3125 
z
" id="DejaVuSans-81"/>
       <path d="M 34.28125 27.484375 
Q 23.390625 27.484375 19.1875 25 
Q 14.984375 22.515625 14.984375 16.5 
Q 14.984375 11.71875 18.140625 8.90625 
Q 21.296875 6.109375 26.703125 6.109375 
Q 34.1875 6.109375 38.703125 11.40625 
Q 43.21875 16.703125 43.21875 25.484375 
L 43.21875 27.484375 
z
M 52.203125 31.203125 
L 52.203125 0 
L 43.21875 0 
L 43.21875 8.296875 
Q 40.140625 3.328125 35.546875 0.953125 
Q 30.953125 -1.421875 24.3125 -1.421875 
Q 15.921875 -1.421875 10.953125 3.296875 
Q 6 8.015625 6 15.921875 
Q 6 25.140625 12.171875 29.828125 
Q 18.359375 34.515625 30.609375 34.515625 
L 43.21875 34.515625 
L 43.21875 35.40625 
Q 43.21875 41.609375 39.140625 45 
Q 35.0625 48.390625 27.6875 48.390625 
Q 23 48.390625 18.546875 47.265625 
Q 14.109375 46.140625 10.015625 43.890625 
L 10.015625 52.203125 
Q 14.9375 54.109375 19.578125 55.046875 
Q 24.21875 56 28.609375 56 
Q 40.484375 56 46.34375 49.84375 
Q 52.203125 43.703125 52.203125 31.203125 
z
" id="DejaVuSans-97"/>
       <path d="M 9.421875 75.984375 
L 18.40625 75.984375 
L 18.40625 0 
L 9.421875 0 
z
" id="DejaVuSans-108"/>
       <path d="M 18.3125 70.21875 
L 18.3125 54.6875 
L 36.8125 54.6875 
L 36.8125 47.703125 
L 18.3125 47.703125 
L 18.3125 18.015625 
Q 18.3125 11.328125 20.140625 9.421875 
Q 21.96875 7.515625 27.59375 7.515625 
L 36.8125 7.515625 
L 36.8125 0 
L 27.59375 0 
Q 17.1875 0 13.234375 3.875 
Q 9.28125 7.765625 9.28125 18.015625 
L 9.28125 47.703125 
L 2.6875 47.703125 
L 2.6875 54.6875 
L 9.28125 54.6875 
L 9.28125 70.21875 
z
" id="DejaVuSans-116"/>
       <path d="M 32.171875 -5.078125 
Q 28.375 -14.84375 24.75 -17.8125 
Q 21.140625 -20.796875 15.09375 -20.796875 
L 7.90625 -20.796875 
L 7.90625 -13.28125 
L 13.1875 -13.28125 
Q 16.890625 -13.28125 18.9375 -11.515625 
Q 21 -9.765625 23.484375 -3.21875 
L 25.09375 0.875 
L 2.984375 54.6875 
L 12.5 54.6875 
L 29.59375 11.921875 
L 46.6875 54.6875 
L 56.203125 54.6875 
z
" id="DejaVuSans-121"/>
       <path d="M 31 75.875 
Q 24.46875 64.65625 21.28125 53.65625 
Q 18.109375 42.671875 18.109375 31.390625 
Q 18.109375 20.125 21.3125 9.0625 
Q 24.515625 -2 31 -13.1875 
L 23.1875 -13.1875 
Q 15.875 -1.703125 12.234375 9.375 
Q 8.59375 20.453125 8.59375 31.390625 
Q 8.59375 42.28125 12.203125 53.3125 
Q 15.828125 64.359375 23.1875 75.875 
z
" id="DejaVuSans-40"/>
       <path d="M 9.8125 72.90625 
L 19.671875 72.90625 
L 19.671875 0 
L 9.8125 0 
z
" id="DejaVuSans-73"/>
       <path d="M 34.1875 63.1875 
L 20.796875 26.90625 
L 47.609375 26.90625 
z
M 28.609375 72.90625 
L 39.796875 72.90625 
L 67.578125 0 
L 57.328125 0 
L 50.6875 18.703125 
L 17.828125 18.703125 
L 11.1875 0 
L 0.78125 0 
z
" id="DejaVuSans-65"/>
       <path d="M 8.015625 75.875 
L 15.828125 75.875 
Q 23.140625 64.359375 26.78125 53.3125 
Q 30.421875 42.28125 30.421875 31.390625 
Q 30.421875 20.453125 26.78125 9.375 
Q 23.140625 -1.703125 15.828125 -13.1875 
L 8.015625 -13.1875 
Q 14.5 -2 17.703125 9.0625 
Q 20.90625 20.125 20.90625 31.390625 
Q 20.90625 42.671875 17.703125 53.65625 
Q 14.5 64.65625 8.015625 75.875 
z
" id="DejaVuSans-41"/>
       <path d="M 37.109375 75.984375 
L 37.109375 68.5 
L 28.515625 68.5 
Q 23.6875 68.5 21.796875 66.546875 
Q 19.921875 64.59375 19.921875 59.515625 
L 19.921875 54.6875 
L 34.71875 54.6875 
L 34.71875 47.703125 
L 19.921875 47.703125 
L 19.921875 0 
L 10.890625 0 
L 10.890625 47.703125 
L 2.296875 47.703125 
L 2.296875 54.6875 
L 10.890625 54.6875 
L 10.890625 58.5 
Q 10.890625 67.625 15.140625 71.796875 
Q 19.390625 75.984375 28.609375 75.984375 
z
" id="DejaVuSans-102"/>
       <path d="M 41.109375 46.296875 
Q 39.59375 47.171875 37.8125 47.578125 
Q 36.03125 48 33.890625 48 
Q 26.265625 48 22.1875 43.046875 
Q 18.109375 38.09375 18.109375 28.8125 
L 18.109375 0 
L 9.078125 0 
L 9.078125 54.6875 
L 18.109375 54.6875 
L 18.109375 46.1875 
Q 20.953125 51.171875 25.484375 53.578125 
Q 30.03125 56 36.53125 56 
Q 37.453125 56 38.578125 55.875 
Q 39.703125 55.765625 41.0625 55.515625 
z
" id="DejaVuSans-114"/>
       <path d="M -0.296875 72.90625 
L 61.375 72.90625 
L 61.375 64.59375 
L 35.5 64.59375 
L 35.5 0 
L 25.59375 0 
L 25.59375 64.59375 
L -0.296875 64.59375 
z
" id="DejaVuSans-84"/>
       <path d="M 19.671875 64.796875 
L 19.671875 8.109375 
L 31.59375 8.109375 
Q 46.6875 8.109375 53.6875 14.9375 
Q 60.6875 21.78125 60.6875 36.53125 
Q 60.6875 51.171875 53.6875 57.984375 
Q 46.6875 64.796875 31.59375 64.796875 
z
M 9.8125 72.90625 
L 30.078125 72.90625 
Q 51.265625 72.90625 61.171875 64.09375 
Q 71.09375 55.28125 71.09375 36.53125 
Q 71.09375 17.671875 61.125 8.828125 
Q 51.171875 0 30.078125 0 
L 9.8125 0 
z
" id="DejaVuSans-68"/>
       <path d="M 19.671875 34.8125 
L 19.671875 8.109375 
L 35.5 8.109375 
Q 43.453125 8.109375 47.28125 11.40625 
Q 51.125 14.703125 51.125 21.484375 
Q 51.125 28.328125 47.28125 31.5625 
Q 43.453125 34.8125 35.5 34.8125 
z
M 19.671875 64.796875 
L 19.671875 42.828125 
L 34.28125 42.828125 
Q 41.5 42.828125 45.03125 45.53125 
Q 48.578125 48.25 48.578125 53.8125 
Q 48.578125 59.328125 45.03125 62.0625 
Q 41.5 64.796875 34.28125 64.796875 
z
M 9.8125 72.90625 
L 35.015625 72.90625 
Q 46.296875 72.90625 52.390625 68.21875 
Q 58.5 63.53125 58.5 54.890625 
Q 58.5 48.1875 55.375 44.234375 
Q 52.25 40.28125 46.1875 39.3125 
Q 53.46875 37.75 57.5 32.78125 
Q 61.53125 27.828125 61.53125 20.40625 
Q 61.53125 10.640625 54.890625 5.3125 
Q 48.25 0 35.984375 0 
L 9.8125 0 
z
" id="DejaVuSans-66"/>
      </defs>
      <use xlink:href="#DejaVuSans-71"/>
      <use x="77.490234" xlink:href="#DejaVuSans-101"/>
      <use x="139.013672" xlink:href="#DejaVuSans-110"/>
      <use x="202.392578" xlink:href="#DejaVuSans-111"/>
      <use x="263.574219" xlink:href="#DejaVuSans-109"/>
      <use x="360.986328" xlink:href="#DejaVuSans-101"/>
      <use x="422.509766" xlink:href="#DejaVuSans-32"/>
      <use x="454.296875" xlink:href="#DejaVuSans-81"/>
      <use x="533.007812" xlink:href="#DejaVuSans-117"/>
      <use x="596.386719" xlink:href="#DejaVuSans-97"/>
      <use x="657.666016" xlink:href="#DejaVuSans-108"/>
      <use x="685.449219" xlink:href="#DejaVuSans-105"/>
      <use x="713.232422" xlink:href="#DejaVuSans-116"/>
      <use x="752.441406" xlink:href="#DejaVuSans-121"/>
      <use x="811.621094" xlink:href="#DejaVuSans-32"/>
      <use x="843.408203" xlink:href="#DejaVuSans-40"/>
      <use x="882.421875" xlink:href="#DejaVuSans-77"/>
      <use x="968.701172" xlink:href="#DejaVuSans-73"/>
      <use x="998.193359" xlink:href="#DejaVuSans-77"/>
      <use x="1084.472656" xlink:href="#DejaVuSans-65"/>
      <use x="1151.130859" xlink:href="#DejaVuSans-71"/>
      <use x="1228.621094" xlink:href="#DejaVuSans-41"/>
      <use x="1267.634766" xlink:href="#DejaVuSans-32"/>
      <use x="1299.421875" xlink:href="#DejaVuSans-102"/>
      <use x="1334.626953" xlink:href="#DejaVuSans-114"/>
      <use x="1373.490234" xlink:href="#DejaVuSans-111"/>
      <use x="1434.671875" xlink:href="#DejaVuSans-109"/>
      <use x="1532.083984" xlink:href="#DejaVuSans-32"/>
      <use x="1563.871094" xlink:href="#DejaVuSans-71"/>
      <use x="1637.736328" xlink:href="#DejaVuSans-84"/>
      <use x="1698.820312" xlink:href="#DejaVuSans-68"/>
      <use x="1775.822266" xlink:href="#DejaVuSans-66"/>
     </g>
     <!-- (Note there are only 15 low quality genomes. Not shown) -->
     <g transform="translate(294.6125 581.514375)scale(0.1 -0.1)">
      <defs>
       <path d="M 9.8125 72.90625 
L 23.09375 72.90625 
L 55.421875 11.921875 
L 55.421875 72.90625 
L 64.984375 72.90625 
L 64.984375 0 
L 51.703125 0 
L 19.390625 60.984375 
L 19.390625 0 
L 9.8125 0 
z
" id="DejaVuSans-78"/>
       <path d="M 12.40625 8.296875 
L 28.515625 8.296875 
L 28.515625 63.921875 
L 10.984375 60.40625 
L 10.984375 69.390625 
L 28.421875 72.90625 
L 38.28125 72.90625 
L 38.28125 8.296875 
L 54.390625 8.296875 
L 54.390625 0 
L 12.40625 0 
z
" id="DejaVuSans-49"/>
       <path d="M 10.796875 72.90625 
L 49.515625 72.90625 
L 49.515625 64.59375 
L 19.828125 64.59375 
L 19.828125 46.734375 
Q 21.96875 47.46875 24.109375 47.828125 
Q 26.265625 48.1875 28.421875 48.1875 
Q 40.625 48.1875 47.75 41.5 
Q 54.890625 34.8125 54.890625 23.390625 
Q 54.890625 11.625 47.5625 5.09375 
Q 40.234375 -1.421875 26.90625 -1.421875 
Q 22.3125 -1.421875 17.546875 -0.640625 
Q 12.796875 0.140625 7.71875 1.703125 
L 7.71875 11.625 
Q 12.109375 9.234375 16.796875 8.0625 
Q 21.484375 6.890625 26.703125 6.890625 
Q 35.15625 6.890625 40.078125 11.328125 
Q 45.015625 15.765625 45.015625 23.390625 
Q 45.015625 31 40.078125 35.4375 
Q 35.15625 39.890625 26.703125 39.890625 
Q 22.75 39.890625 18.8125 39.015625 
Q 14.890625 38.140625 10.796875 36.28125 
z
" id="DejaVuSans-53"/>
       <path d="M 14.796875 27.296875 
Q 14.796875 17.390625 18.875 11.75 
Q 22.953125 6.109375 30.078125 6.109375 
Q 37.203125 6.109375 41.296875 11.75 
Q 45.40625 17.390625 45.40625 27.296875 
Q 45.40625 37.203125 41.296875 42.84375 
Q 37.203125 48.484375 30.078125 48.484375 
Q 22.953125 48.484375 18.875 42.84375 
Q 14.796875 37.203125 14.796875 27.296875 
z
M 45.40625 8.203125 
Q 42.578125 3.328125 38.25 0.953125 
Q 33.9375 -1.421875 27.875 -1.421875 
Q 17.96875 -1.421875 11.734375 6.484375 
Q 5.515625 14.40625 5.515625 27.296875 
Q 5.515625 40.1875 11.734375 48.09375 
Q 17.96875 56 27.875 56 
Q 33.9375 56 38.25 53.625 
Q 42.578125 51.265625 45.40625 46.390625 
L 45.40625 54.6875 
L 54.390625 54.6875 
L 54.390625 -20.796875 
L 45.40625 -20.796875 
z
" id="DejaVuSans-113"/>
       <path d="M 44.28125 53.078125 
L 44.28125 44.578125 
Q 40.484375 46.53125 36.375 47.5 
Q 32.28125 48.484375 27.875 48.484375 
Q 21.1875 48.484375 17.84375 46.4375 
Q 14.5 44.390625 14.5 40.28125 
Q 14.5 37.15625 16.890625 35.375 
Q 19.28125 33.59375 26.515625 31.984375 
L 29.59375 31.296875 
Q 39.15625 29.25 43.1875 25.515625 
Q 47.21875 21.78125 47.21875 15.09375 
Q 47.21875 7.46875 41.1875 3.015625 
Q 35.15625 -1.421875 24.609375 -1.421875 
Q 20.21875 -1.421875 15.453125 -0.5625 
Q 10.6875 0.296875 5.421875 2 
L 5.421875 11.28125 
Q 10.40625 8.6875 15.234375 7.390625 
Q 20.0625 6.109375 24.8125 6.109375 
Q 31.15625 6.109375 34.5625 8.28125 
Q 37.984375 10.453125 37.984375 14.40625 
Q 37.984375 18.0625 35.515625 20.015625 
Q 33.0625 21.96875 24.703125 23.78125 
L 21.578125 24.515625 
Q 13.234375 26.265625 9.515625 29.90625 
Q 5.8125 33.546875 5.8125 39.890625 
Q 5.8125 47.609375 11.28125 51.796875 
Q 16.75 56 26.8125 56 
Q 31.78125 56 36.171875 55.265625 
Q 40.578125 54.546875 44.28125 53.078125 
z
" id="DejaVuSans-115"/>
       <path d="M 10.6875 12.40625 
L 21 12.40625 
L 21 0 
L 10.6875 0 
z
" id="DejaVuSans-46"/>
      </defs>
      <use xlink:href="#DejaVuSans-40"/>
      <use x="39.013672" xlink:href="#DejaVuSans-78"/>
      <use x="113.818359" xlink:href="#DejaVuSans-111"/>
      <use x="175" xlink:href="#DejaVuSans-116"/>
      <use x="214.208984" xlink:href="#DejaVuSans-101"/>
      <use x="275.732422" xlink:href="#DejaVuSans-32"/>
      <use x="307.519531" xlink:href="#DejaVuSans-116"/>
      <use x="346.728516" xlink:href="#DejaVuSans-104"/>
      <use x="410.107422" xlink:href="#DejaVuSans-101"/>
      <use x="471.630859" xlink:href="#DejaVuSans-114"/>
      <use x="510.494141" xlink:href="#DejaVuSans-101"/>
      <use x="572.017578" xlink:href="#DejaVuSans-32"/>
      <use x="603.804688" xlink:href="#DejaVuSans-97"/>
      <use x="665.083984" xlink:href="#DejaVuSans-114"/>
      <use x="703.947266" xlink:href="#DejaVuSans-101"/>
      <use x="765.470703" xlink:href="#DejaVuSans-32"/>
      <use x="797.257812" xlink:href="#DejaVuSans-111"/>
      <use x="858.439453" xlink:href="#DejaVuSans-110"/>
      <use x="921.818359" xlink:href="#DejaVuSans-108"/>
      <use x="949.601562" xlink:href="#DejaVuSans-121"/>
      <use x="1008.78125" xlink:href="#DejaVuSans-32"/>
      <use x="1040.568359" xlink:href="#DejaVuSans-49"/>
      <use x="1104.191406" xlink:href="#DejaVuSans-53"/>
      <use x="1167.814453" xlink:href="#DejaVuSans-32"/>
      <use x="1199.601562" xlink:href="#DejaVuSans-108"/>
      <use x="1227.384766" xlink:href="#DejaVuSans-111"/>
      <use x="1288.566406" xlink:href="#DejaVuSans-119"/>
      <use x="1370.353516" xlink:href="#DejaVuSans-32"/>
      <use x="1402.140625" xlink:href="#DejaVuSans-113"/>
      <use x="1465.617188" xlink:href="#DejaVuSans-117"/>
      <use x="1528.996094" xlink:href="#DejaVuSans-97"/>
      <use x="1590.275391" xlink:href="#DejaVuSans-108"/>
      <use x="1618.058594" xlink:href="#DejaVuSans-105"/>
      <use x="1645.841797" xlink:href="#DejaVuSans-116"/>
      <use x="1685.050781" xlink:href="#DejaVuSans-121"/>
      <use x="1744.230469" xlink:href="#DejaVuSans-32"/>
      <use x="1776.017578" xlink:href="#DejaVuSans-103"/>
      <use x="1839.494141" xlink:href="#DejaVuSans-101"/>
      <use x="1901.017578" xlink:href="#DejaVuSans-110"/>
      <use x="1964.396484" xlink:href="#DejaVuSans-111"/>
      <use x="2025.578125" xlink:href="#DejaVuSans-109"/>
      <use x="2122.990234" xlink:href="#DejaVuSans-101"/>
      <use x="2184.513672" xlink:href="#DejaVuSans-115"/>
      <use x="2236.613281" xlink:href="#DejaVuSans-46"/>
      <use x="2268.400391" xlink:href="#DejaVuSans-32"/>
      <use x="2300.1875" xlink:href="#DejaVuSans-78"/>
      <use x="2374.992188" xlink:href="#DejaVuSans-111"/>
      <use x="2436.173828" xlink:href="#DejaVuSans-116"/>
      <use x="2475.382812" xlink:href="#DejaVuSans-32"/>
      <use x="2507.169922" xlink:href="#DejaVuSans-115"/>
      <use x="2559.269531" xlink:href="#DejaVuSans-104"/>
      <use x="2622.648438" xlink:href="#DejaVuSans-111"/>
      <use x="2683.830078" xlink:href="#DejaVuSans-119"/>
      <use x="2765.617188" xlink:href="#DejaVuSans-110"/>
      <use x="2828.996094" xlink:href="#DejaVuSans-41"/>
     </g>
    </g>
   </g>
   <g id="matplotlib.axis_2">
    <g id="ytick_1">
     <g id="line2d_4">
      <defs>
       <path d="M 0 0 
L -3.5 0 
" id="m59e52cb64a" style="stroke:#000000;stroke-width:0.8;"/>
      </defs>
      <g>
       <use style="stroke:#000000;stroke-width:0.8;" x="44.425" xlink:href="#m59e52cb64a" y="497.495381"/>
      </g>
     </g>
     <g id="text_5">
      <!-- 0 -->
      <g transform="translate(31.0625 501.294599)scale(0.1 -0.1)">
       <defs>
        <path d="M 31.78125 66.40625 
Q 24.171875 66.40625 20.328125 58.90625 
Q 16.5 51.421875 16.5 36.375 
Q 16.5 21.390625 20.328125 13.890625 
Q 24.171875 6.390625 31.78125 6.390625 
Q 39.453125 6.390625 43.28125 13.890625 
Q 47.125 21.390625 47.125 36.375 
Q 47.125 51.421875 43.28125 58.90625 
Q 39.453125 66.40625 31.78125 66.40625 
z
M 31.78125 74.21875 
Q 44.046875 74.21875 50.515625 64.515625 
Q 56.984375 54.828125 56.984375 36.375 
Q 56.984375 17.96875 50.515625 8.265625 
Q 44.046875 -1.421875 31.78125 -1.421875 
Q 19.53125 -1.421875 13.0625 8.265625 
Q 6.59375 17.96875 6.59375 36.375 
Q 6.59375 54.828125 13.0625 64.515625 
Q 19.53125 74.21875 31.78125 74.21875 
z
" id="DejaVuSans-48"/>
       </defs>
       <use xlink:href="#DejaVuSans-48"/>
      </g>
     </g>
    </g>
    <g id="ytick_2">
     <g id="line2d_5">
      <g>
       <use style="stroke:#000000;stroke-width:0.8;" x="44.425" xlink:href="#m59e52cb64a" y="435.628445"/>
      </g>
     </g>
     <g id="text_6">
      <!-- 10 -->
      <g transform="translate(24.7 439.427663)scale(0.1 -0.1)">
       <use xlink:href="#DejaVuSans-49"/>
       <use x="63.623047" xlink:href="#DejaVuSans-48"/>
      </g>
     </g>
    </g>
    <g id="ytick_3">
     <g id="line2d_6">
      <g>
       <use style="stroke:#000000;stroke-width:0.8;" x="44.425" xlink:href="#m59e52cb64a" y="373.761509"/>
      </g>
     </g>
     <g id="text_7">
      <!-- 20 -->
      <g transform="translate(24.7 377.560727)scale(0.1 -0.1)">
       <defs>
        <path d="M 19.1875 8.296875 
L 53.609375 8.296875 
L 53.609375 0 
L 7.328125 0 
L 7.328125 8.296875 
Q 12.9375 14.109375 22.625 23.890625 
Q 32.328125 33.6875 34.8125 36.53125 
Q 39.546875 41.84375 41.421875 45.53125 
Q 43.3125 49.21875 43.3125 52.78125 
Q 43.3125 58.59375 39.234375 62.25 
Q 35.15625 65.921875 28.609375 65.921875 
Q 23.96875 65.921875 18.8125 64.3125 
Q 13.671875 62.703125 7.8125 59.421875 
L 7.8125 69.390625 
Q 13.765625 71.78125 18.9375 73 
Q 24.125 74.21875 28.421875 74.21875 
Q 39.75 74.21875 46.484375 68.546875 
Q 53.21875 62.890625 53.21875 53.421875 
Q 53.21875 48.921875 51.53125 44.890625 
Q 49.859375 40.875 45.40625 35.40625 
Q 44.1875 33.984375 37.640625 27.21875 
Q 31.109375 20.453125 19.1875 8.296875 
z
" id="DejaVuSans-50"/>
       </defs>
       <use xlink:href="#DejaVuSans-50"/>
       <use x="63.623047" xlink:href="#DejaVuSans-48"/>
      </g>
     </g>
    </g>
    <g id="ytick_4">
     <g id="line2d_7">
      <g>
       <use style="stroke:#000000;stroke-width:0.8;" x="44.425" xlink:href="#m59e52cb64a" y="311.894573"/>
      </g>
     </g>
     <g id="text_8">
      <!-- 30 -->
      <g transform="translate(24.7 315.693791)scale(0.1 -0.1)">
       <defs>
        <path d="M 40.578125 39.3125 
Q 47.65625 37.796875 51.625 33 
Q 55.609375 28.21875 55.609375 21.1875 
Q 55.609375 10.40625 48.1875 4.484375 
Q 40.765625 -1.421875 27.09375 -1.421875 
Q 22.515625 -1.421875 17.65625 -0.515625 
Q 12.796875 0.390625 7.625 2.203125 
L 7.625 11.71875 
Q 11.71875 9.328125 16.59375 8.109375 
Q 21.484375 6.890625 26.8125 6.890625 
Q 36.078125 6.890625 40.9375 10.546875 
Q 45.796875 14.203125 45.796875 21.1875 
Q 45.796875 27.640625 41.28125 31.265625 
Q 36.765625 34.90625 28.71875 34.90625 
L 20.21875 34.90625 
L 20.21875 43.015625 
L 29.109375 43.015625 
Q 36.375 43.015625 40.234375 45.921875 
Q 44.09375 48.828125 44.09375 54.296875 
Q 44.09375 59.90625 40.109375 62.90625 
Q 36.140625 65.921875 28.71875 65.921875 
Q 24.65625 65.921875 20.015625 65.03125 
Q 15.375 64.15625 9.8125 62.3125 
L 9.8125 71.09375 
Q 15.4375 72.65625 20.34375 73.4375 
Q 25.25 74.21875 29.59375 74.21875 
Q 40.828125 74.21875 47.359375 69.109375 
Q 53.90625 64.015625 53.90625 55.328125 
Q 53.90625 49.265625 50.4375 45.09375 
Q 46.96875 40.921875 40.578125 39.3125 
z
" id="DejaVuSans-51"/>
       </defs>
       <use xlink:href="#DejaVuSans-51"/>
       <use x="63.623047" xlink:href="#DejaVuSans-48"/>
      </g>
     </g>
    </g>
    <g id="ytick_5">
     <g id="line2d_8">
      <g>
       <use style="stroke:#000000;stroke-width:0.8;" x="44.425" xlink:href="#m59e52cb64a" y="250.027637"/>
      </g>
     </g>
     <g id="text_9">
      <!-- 40 -->
      <g transform="translate(24.7 253.826855)scale(0.1 -0.1)">
       <defs>
        <path d="M 37.796875 64.3125 
L 12.890625 25.390625 
L 37.796875 25.390625 
z
M 35.203125 72.90625 
L 47.609375 72.90625 
L 47.609375 25.390625 
L 58.015625 25.390625 
L 58.015625 17.1875 
L 47.609375 17.1875 
L 47.609375 0 
L 37.796875 0 
L 37.796875 17.1875 
L 4.890625 17.1875 
L 4.890625 26.703125 
z
" id="DejaVuSans-52"/>
       </defs>
       <use xlink:href="#DejaVuSans-52"/>
       <use x="63.623047" xlink:href="#DejaVuSans-48"/>
      </g>
     </g>
    </g>
    <g id="ytick_6">
     <g id="line2d_9">
      <g>
       <use style="stroke:#000000;stroke-width:0.8;" x="44.425" xlink:href="#m59e52cb64a" y="188.1607"/>
      </g>
     </g>
     <g id="text_10">
      <!-- 50 -->
      <g transform="translate(24.7 191.959919)scale(0.1 -0.1)">
       <use xlink:href="#DejaVuSans-53"/>
       <use x="63.623047" xlink:href="#DejaVuSans-48"/>
      </g>
     </g>
    </g>
    <g id="ytick_7">
     <g id="line2d_10">
      <g>
       <use style="stroke:#000000;stroke-width:0.8;" x="44.425" xlink:href="#m59e52cb64a" y="126.293764"/>
      </g>
     </g>
     <g id="text_11">
      <!-- 60 -->
      <g transform="translate(24.7 130.092983)scale(0.1 -0.1)">
       <defs>
        <path d="M 33.015625 40.375 
Q 26.375 40.375 22.484375 35.828125 
Q 18.609375 31.296875 18.609375 23.390625 
Q 18.609375 15.53125 22.484375 10.953125 
Q 26.375 6.390625 33.015625 6.390625 
Q 39.65625 6.390625 43.53125 10.953125 
Q 47.40625 15.53125 47.40625 23.390625 
Q 47.40625 31.296875 43.53125 35.828125 
Q 39.65625 40.375 33.015625 40.375 
z
M 52.59375 71.296875 
L 52.59375 62.3125 
Q 48.875 64.0625 45.09375 64.984375 
Q 41.3125 65.921875 37.59375 65.921875 
Q 27.828125 65.921875 22.671875 59.328125 
Q 17.53125 52.734375 16.796875 39.40625 
Q 19.671875 43.65625 24.015625 45.921875 
Q 28.375 48.1875 33.59375 48.1875 
Q 44.578125 48.1875 50.953125 41.515625 
Q 57.328125 34.859375 57.328125 23.390625 
Q 57.328125 12.15625 50.6875 5.359375 
Q 44.046875 -1.421875 33.015625 -1.421875 
Q 20.359375 -1.421875 13.671875 8.265625 
Q 6.984375 17.96875 6.984375 36.375 
Q 6.984375 53.65625 15.1875 63.9375 
Q 23.390625 74.21875 37.203125 74.21875 
Q 40.921875 74.21875 44.703125 73.484375 
Q 48.484375 72.75 52.59375 71.296875 
z
" id="DejaVuSans-54"/>
       </defs>
       <use xlink:href="#DejaVuSans-54"/>
       <use x="63.623047" xlink:href="#DejaVuSans-48"/>
      </g>
     </g>
    </g>
    <g id="ytick_8">
     <g id="line2d_11">
      <g>
       <use style="stroke:#000000;stroke-width:0.8;" x="44.425" xlink:href="#m59e52cb64a" y="64.426828"/>
      </g>
     </g>
     <g id="text_12">
      <!-- 70 -->
      <g transform="translate(24.7 68.226047)scale(0.1 -0.1)">
       <defs>
        <path d="M 8.203125 72.90625 
L 55.078125 72.90625 
L 55.078125 68.703125 
L 28.609375 0 
L 18.3125 0 
L 43.21875 64.59375 
L 8.203125 64.59375 
z
" id="DejaVuSans-55"/>
       </defs>
       <use xlink:href="#DejaVuSans-55"/>
       <use x="63.623047" xlink:href="#DejaVuSans-48"/>
      </g>
     </g>
    </g>
    <g id="text_13">
     <!-- Total Predicted Prophages -->
     <g transform="translate(18.620312 340.937187)rotate(-90)scale(0.1 -0.1)">
      <defs>
       <path d="M 19.671875 64.796875 
L 19.671875 37.40625 
L 32.078125 37.40625 
Q 38.96875 37.40625 42.71875 40.96875 
Q 46.484375 44.53125 46.484375 51.125 
Q 46.484375 57.671875 42.71875 61.234375 
Q 38.96875 64.796875 32.078125 64.796875 
z
M 9.8125 72.90625 
L 32.078125 72.90625 
Q 44.34375 72.90625 50.609375 67.359375 
Q 56.890625 61.8125 56.890625 51.125 
Q 56.890625 40.328125 50.609375 34.8125 
Q 44.34375 29.296875 32.078125 29.296875 
L 19.671875 29.296875 
L 19.671875 0 
L 9.8125 0 
z
" id="DejaVuSans-80"/>
       <path d="M 48.78125 52.59375 
L 48.78125 44.1875 
Q 44.96875 46.296875 41.140625 47.34375 
Q 37.3125 48.390625 33.40625 48.390625 
Q 24.65625 48.390625 19.8125 42.84375 
Q 14.984375 37.3125 14.984375 27.296875 
Q 14.984375 17.28125 19.8125 11.734375 
Q 24.65625 6.203125 33.40625 6.203125 
Q 37.3125 6.203125 41.140625 7.25 
Q 44.96875 8.296875 48.78125 10.40625 
L 48.78125 2.09375 
Q 45.015625 0.34375 40.984375 -0.53125 
Q 36.96875 -1.421875 32.421875 -1.421875 
Q 20.0625 -1.421875 12.78125 6.34375 
Q 5.515625 14.109375 5.515625 27.296875 
Q 5.515625 40.671875 12.859375 48.328125 
Q 20.21875 56 33.015625 56 
Q 37.15625 56 41.109375 55.140625 
Q 45.0625 54.296875 48.78125 52.59375 
z
" id="DejaVuSans-99"/>
       <path d="M 18.109375 8.203125 
L 18.109375 -20.796875 
L 9.078125 -20.796875 
L 9.078125 54.6875 
L 18.109375 54.6875 
L 18.109375 46.390625 
Q 20.953125 51.265625 25.265625 53.625 
Q 29.59375 56 35.59375 56 
Q 45.5625 56 51.78125 48.09375 
Q 58.015625 40.1875 58.015625 27.296875 
Q 58.015625 14.40625 51.78125 6.484375 
Q 45.5625 -1.421875 35.59375 -1.421875 
Q 29.59375 -1.421875 25.265625 0.953125 
Q 20.953125 3.328125 18.109375 8.203125 
z
M 48.6875 27.296875 
Q 48.6875 37.203125 44.609375 42.84375 
Q 40.53125 48.484375 33.40625 48.484375 
Q 26.265625 48.484375 22.1875 42.84375 
Q 18.109375 37.203125 18.109375 27.296875 
Q 18.109375 17.390625 22.1875 11.75 
Q 26.265625 6.109375 33.40625 6.109375 
Q 40.53125 6.109375 44.609375 11.75 
Q 48.6875 17.390625 48.6875 27.296875 
z
" id="DejaVuSans-112"/>
      </defs>
      <use xlink:href="#DejaVuSans-84"/>
      <use x="44.083984" xlink:href="#DejaVuSans-111"/>
      <use x="105.265625" xlink:href="#DejaVuSans-116"/>
      <use x="144.474609" xlink:href="#DejaVuSans-97"/>
      <use x="205.753906" xlink:href="#DejaVuSans-108"/>
      <use x="233.537109" xlink:href="#DejaVuSans-32"/>
      <use x="265.324219" xlink:href="#DejaVuSans-80"/>
      <use x="323.876953" xlink:href="#DejaVuSans-114"/>
      <use x="362.740234" xlink:href="#DejaVuSans-101"/>
      <use x="424.263672" xlink:href="#DejaVuSans-100"/>
      <use x="487.740234" xlink:href="#DejaVuSans-105"/>
      <use x="515.523438" xlink:href="#DejaVuSans-99"/>
      <use x="570.503906" xlink:href="#DejaVuSans-116"/>
      <use x="609.712891" xlink:href="#DejaVuSans-101"/>
      <use x="671.236328" xlink:href="#DejaVuSans-100"/>
      <use x="734.712891" xlink:href="#DejaVuSans-32"/>
      <use x="766.5" xlink:href="#DejaVuSans-80"/>
      <use x="825.052734" xlink:href="#DejaVuSans-114"/>
      <use x="863.916016" xlink:href="#DejaVuSans-111"/>
      <use x="925.097656" xlink:href="#DejaVuSans-112"/>
      <use x="988.574219" xlink:href="#DejaVuSans-104"/>
      <use x="1051.953125" xlink:href="#DejaVuSans-97"/>
      <use x="1113.232422" xlink:href="#DejaVuSans-103"/>
      <use x="1176.708984" xlink:href="#DejaVuSans-101"/>
      <use x="1238.232422" xlink:href="#DejaVuSans-115"/>
     </g>
    </g>
   </g>
   <g id="line2d_12">
    <path clip-path="url(#p27545967fc)" d="M 175.620833 497.495381 
L 175.620833 441.815138 
" style="fill:none;stroke:#3d3d3d;stroke-linecap:square;stroke-width:1.5;"/>
   </g>
   <g id="line2d_13">
    <path clip-path="url(#p27545967fc)" d="M 175.620833 485.121994 
L 175.620833 466.561913 
" style="fill:none;stroke:#3d3d3d;stroke-linecap:square;stroke-width:4.5;"/>
   </g>
   <g id="line2d_14">
    <path clip-path="url(#p27545967fc)" d="M 438.0125 497.495381 
L 438.0125 429.441751 
" style="fill:none;stroke:#3d3d3d;stroke-linecap:square;stroke-width:1.5;"/>
   </g>
   <g id="line2d_15">
    <path clip-path="url(#p27545967fc)" d="M 438.0125 491.308687 
L 438.0125 466.561913 
" style="fill:none;stroke:#3d3d3d;stroke-linecap:square;stroke-width:4.5;"/>
   </g>
   <g id="line2d_16">
    <path clip-path="url(#p27545967fc)" d="M 700.404167 497.495381 
L 700.404167 423.255057 
" style="fill:none;stroke:#3d3d3d;stroke-linecap:square;stroke-width:1.5;"/>
   </g>
   <g id="line2d_17">
    <path clip-path="url(#p27545967fc)" d="M 700.404167 485.121994 
L 700.404167 460.375219 
" style="fill:none;stroke:#3d3d3d;stroke-linecap:square;stroke-width:4.5;"/>
   </g>
   <g id="patch_3">
    <path d="M 44.425 542.04 
L 44.425 10.8 
" style="fill:none;stroke:#000000;stroke-linecap:square;stroke-linejoin:miter;stroke-width:0.8;"/>
   </g>
   <g id="patch_4">
    <path d="M 831.6 542.04 
L 831.6 10.8 
" style="fill:none;"/>
   </g>
   <g id="patch_5">
    <path d="M 44.425 542.04 
L 831.6 542.04 
" style="fill:none;stroke:#000000;stroke-linecap:square;stroke-linejoin:miter;stroke-width:0.8;"/>
   </g>
   <g id="patch_6">
    <path d="M 44.425 10.8 
L 831.6 10.8 
" style="fill:none;"/>
   </g>
   <g id="PathCollection_1">
    <defs>
     <path d="M 0 1.5 
C 0.397805 1.5 0.77937 1.341951 1.06066 1.06066 
C 1.341951 0.77937 1.5 0.397805 1.5 0 
C 1.5 -0.397805 1.341951 -0.77937 1.06066 -1.06066 
C 0.77937 -1.341951 0.397805 -1.5 0 -1.5 
C -0.397805 -1.5 -0.77937 -1.341951 -1.06066 -1.06066 
C -1.341951 -0.77937 -1.5 -0.397805 -1.5 0 
C -1.5 0.397805 -1.341951 0.77937 -1.06066 1.06066 
C -0.77937 1.341951 -0.397805 1.5 0 1.5 
z
" id="mc51e416ce4" style="stroke:#3d3d3d;"/>
    </defs>
    <g clip-path="url(#p27545967fc)">
     <use style="fill:#ffffff;stroke:#3d3d3d;" x="175.620833" xlink:href="#mc51e416ce4" y="478.9353"/>
    </g>
   </g>
   <g id="PathCollection_2">
    <g clip-path="url(#p27545967fc)">
     <use style="fill:#ffffff;stroke:#3d3d3d;" x="438.0125" xlink:href="#mc51e416ce4" y="478.9353"/>
    </g>
   </g>
   <g id="PathCollection_3">
    <g clip-path="url(#p27545967fc)">
     <use style="fill:#ffffff;stroke:#3d3d3d;" x="700.404167" xlink:href="#mc51e416ce4" y="472.748606"/>
    </g>
   </g>
  </g>
 </g>
 <defs>
  <clipPath id="p27545967fc">
   <rect height="531.24" width="787.175" x="44.425" y="10.8"/>
  </clipPath>
 </defs>
</svg>
