<?xml version="1.0" encoding="utf-8" standalone="no"?>
<!DOCTYPE svg PUBLIC "-//W3C//DTD SVG 1.1//EN"
  "http://www.w3.org/Graphics/SVG/1.1/DTD/svg11.dtd">
<!-- Created with matplotlib (https://matplotlib.org/) -->
<svg height="576pt" version="1.1" viewBox="0 0 792 576" width="792pt" xmlns="http://www.w3.org/2000/svg" xmlns:xlink="http://www.w3.org/1999/xlink">
 <metadata>
  <rdf:RDF xmlns:cc="http://creativecommons.org/ns#" xmlns:dc="http://purl.org/dc/elements/1.1/" xmlns:rdf="http://www.w3.org/1999/02/22-rdf-syntax-ns#">
   <cc:Work>
    <dc:type rdf:resource="http://purl.org/dc/dcmitype/StillImage"/>
    <dc:date>2021-05-14T13:49:46.869336</dc:date>
    <dc:format>image/svg+xml</dc:format>
    <dc:creator>
     <cc:Agent>
      <dc:title>Matplotlib v3.3.4, https://matplotlib.org/</dc:title>
     </cc:Agent>
    </dc:creator>
   </cc:Work>
  </rdf:RDF>
 </metadata>
 <defs>
  <style type="text/css">*{stroke-linecap:butt;stroke-linejoin:round;}</style>
 </defs>
 <g id="figure_1">
  <g id="patch_1">
   <path d="M 0 576 
L 792 576 
L 792 0 
L 0 0 
z
" style="fill:none;"/>
  </g>
  <g id="axes_1">
   <g id="patch_2">
    <path d="M 54.05 464.120157 
L 781.2 464.120157 
L 781.2 10.8 
L 54.05 10.8 
z
" style="fill:#ffffff;"/>
   </g>
   <g id="PathCollection_1">
    <defs>
     <path d="M 0 3 
C 0.795609 3 1.55874 2.683901 2.12132 2.12132 
C 2.683901 1.55874 3 0.795609 3 0 
C 3 -0.795609 2.683901 -1.55874 2.12132 -2.12132 
C 1.55874 -2.683901 0.795609 -3 0 -3 
C -0.795609 -3 -1.55874 -2.683901 -2.12132 -2.12132 
C -2.683901 -1.55874 -3 -0.795609 -3 0 
C -3 0.795609 -2.683901 1.55874 -2.12132 2.12132 
C -1.55874 2.683901 -0.795609 3 0 3 
z
" id="ma075d07897" style="stroke:#ffffff;stroke-width:0.48;"/>
    </defs>
    <g clip-path="url(#p612860eb3d)">
     <use style="fill:#1f77b4;stroke:#ffffff;stroke-width:0.48;" x="87.102273" xlink:href="#ma075d07897" y="31.405462"/>
     <use style="fill:#1f77b4;stroke:#ffffff;stroke-width:0.48;" x="112.527098" xlink:href="#ma075d07897" y="276.089688"/>
     <use style="fill:#1f77b4;stroke:#ffffff;stroke-width:0.48;" x="137.951923" xlink:href="#ma075d07897" y="355.692465"/>
     <use style="fill:#1f77b4;stroke:#ffffff;stroke-width:0.48;" x="163.376748" xlink:href="#ma075d07897" y="366.38006"/>
     <use style="fill:#1f77b4;stroke:#ffffff;stroke-width:0.48;" x="188.801573" xlink:href="#ma075d07897" y="400.118438"/>
     <use style="fill:#1f77b4;stroke:#ffffff;stroke-width:0.48;" x="214.226399" xlink:href="#ma075d07897" y="406.968824"/>
     <use style="fill:#1f77b4;stroke:#ffffff;stroke-width:0.48;" x="239.651224" xlink:href="#ma075d07897" y="414.406851"/>
     <use style="fill:#1f77b4;stroke:#ffffff;stroke-width:0.48;" x="265.076049" xlink:href="#ma075d07897" y="418.478394"/>
     <use style="fill:#1f77b4;stroke:#ffffff;stroke-width:0.48;" x="290.500874" xlink:href="#ma075d07897" y="420.558134"/>
     <use style="fill:#1f77b4;stroke:#ffffff;stroke-width:0.48;" x="315.925699" xlink:href="#ma075d07897" y="420.885934"/>
     <use style="fill:#1f77b4;stroke:#ffffff;stroke-width:0.48;" x="341.350524" xlink:href="#ma075d07897" y="424.382173"/>
     <use style="fill:#1f77b4;stroke:#ffffff;stroke-width:0.48;" x="366.77535" xlink:href="#ma075d07897" y="431.831237"/>
     <use style="fill:#1f77b4;stroke:#ffffff;stroke-width:0.48;" x="392.200175" xlink:href="#ma075d07897" y="431.910042"/>
     <use style="fill:#1f77b4;stroke:#ffffff;stroke-width:0.48;" x="417.625" xlink:href="#ma075d07897" y="431.93604"/>
     <use style="fill:#1f77b4;stroke:#ffffff;stroke-width:0.48;" x="443.049825" xlink:href="#ma075d07897" y="432.710718"/>
     <use style="fill:#1f77b4;stroke:#ffffff;stroke-width:0.48;" x="468.47465" xlink:href="#ma075d07897" y="434.625022"/>
     <use style="fill:#1f77b4;stroke:#ffffff;stroke-width:0.48;" x="493.899476" xlink:href="#ma075d07897" y="435.389781"/>
     <use style="fill:#1f77b4;stroke:#ffffff;stroke-width:0.48;" x="519.324301" xlink:href="#ma075d07897" y="435.869354"/>
     <use style="fill:#1f77b4;stroke:#ffffff;stroke-width:0.48;" x="544.749126" xlink:href="#ma075d07897" y="436.795998"/>
     <use style="fill:#1f77b4;stroke:#ffffff;stroke-width:0.48;" x="570.173951" xlink:href="#ma075d07897" y="436.907224"/>
     <use style="fill:#1f77b4;stroke:#ffffff;stroke-width:0.48;" x="595.598776" xlink:href="#ma075d07897" y="437.33727"/>
     <use style="fill:#1f77b4;stroke:#ffffff;stroke-width:0.48;" x="621.023601" xlink:href="#ma075d07897" y="438.161549"/>
     <use style="fill:#1f77b4;stroke:#ffffff;stroke-width:0.48;" x="646.448427" xlink:href="#ma075d07897" y="438.224303"/>
     <use style="fill:#1f77b4;stroke:#ffffff;stroke-width:0.48;" x="671.873252" xlink:href="#ma075d07897" y="438.387446"/>
     <use style="fill:#1f77b4;stroke:#ffffff;stroke-width:0.48;" x="697.298077" xlink:href="#ma075d07897" y="440.493553"/>
     <use style="fill:#1f77b4;stroke:#ffffff;stroke-width:0.48;" x="722.722902" xlink:href="#ma075d07897" y="442.935656"/>
     <use style="fill:#1f77b4;stroke:#ffffff;stroke-width:0.48;" x="748.147727" xlink:href="#ma075d07897" y="443.514695"/>
    </g>
   </g>
   <g id="matplotlib.axis_1">
    <g id="xtick_1">
     <g id="line2d_1">
      <defs>
       <path d="M 0 0 
L 0 3.5 
" id="m319b8d158c" style="stroke:#000000;stroke-width:0.8;"/>
      </defs>
      <g>
       <use style="stroke:#000000;stroke-width:0.8;" x="87.102273" xlink:href="#m319b8d158c" y="464.120157"/>
      </g>
     </g>
     <g id="text_1">
      <!-- isolation date -->
      <g transform="translate(37.622476 524.5023)rotate(-45)scale(0.1 -0.1)">
       <defs>
        <path d="M 9.421875 54.6875 
L 18.40625 54.6875 
L 18.40625 0 
L 9.421875 0 
z
M 9.421875 75.984375 
L 18.40625 75.984375 
L 18.40625 64.59375 
L 9.421875 64.59375 
z
" id="DejaVuSans-105"/>
        <path d="M 44.28125 53.078125 
L 44.28125 44.578125 
Q 40.484375 46.53125 36.375 47.5 
Q 32.28125 48.484375 27.875 48.484375 
Q 21.1875 48.484375 17.84375 46.4375 
Q 14.5 44.390625 14.5 40.28125 
Q 14.5 37.15625 16.890625 35.375 
Q 19.28125 33.59375 26.515625 31.984375 
L 29.59375 31.296875 
Q 39.15625 29.25 43.1875 25.515625 
Q 47.21875 21.78125 47.21875 15.09375 
Q 47.21875 7.46875 41.1875 3.015625 
Q 35.15625 -1.421875 24.609375 -1.421875 
Q 20.21875 -1.421875 15.453125 -0.5625 
Q 10.6875 0.296875 5.421875 2 
L 5.421875 11.28125 
Q 10.40625 8.6875 15.234375 7.390625 
Q 20.0625 6.109375 24.8125 6.109375 
Q 31.15625 6.109375 34.5625 8.28125 
Q 37.984375 10.453125 37.984375 14.40625 
Q 37.984375 18.0625 35.515625 20.015625 
Q 33.0625 21.96875 24.703125 23.78125 
L 21.578125 24.515625 
Q 13.234375 26.265625 9.515625 29.90625 
Q 5.8125 33.546875 5.8125 39.890625 
Q 5.8125 47.609375 11.28125 51.796875 
Q 16.75 56 26.8125 56 
Q 31.78125 56 36.171875 55.265625 
Q 40.578125 54.546875 44.28125 53.078125 
z
" id="DejaVuSans-115"/>
        <path d="M 30.609375 48.390625 
Q 23.390625 48.390625 19.1875 42.75 
Q 14.984375 37.109375 14.984375 27.296875 
Q 14.984375 17.484375 19.15625 11.84375 
Q 23.34375 6.203125 30.609375 6.203125 
Q 37.796875 6.203125 41.984375 11.859375 
Q 46.1875 17.53125 46.1875 27.296875 
Q 46.1875 37.015625 41.984375 42.703125 
Q 37.796875 48.390625 30.609375 48.390625 
z
M 30.609375 56 
Q 42.328125 56 49.015625 48.375 
Q 55.71875 40.765625 55.71875 27.296875 
Q 55.71875 13.875 49.015625 6.21875 
Q 42.328125 -1.421875 30.609375 -1.421875 
Q 18.84375 -1.421875 12.171875 6.21875 
Q 5.515625 13.875 5.515625 27.296875 
Q 5.515625 40.765625 12.171875 48.375 
Q 18.84375 56 30.609375 56 
z
" id="DejaVuSans-111"/>
        <path d="M 9.421875 75.984375 
L 18.40625 75.984375 
L 18.40625 0 
L 9.421875 0 
z
" id="DejaVuSans-108"/>
        <path d="M 34.28125 27.484375 
Q 23.390625 27.484375 19.1875 25 
Q 14.984375 22.515625 14.984375 16.5 
Q 14.984375 11.71875 18.140625 8.90625 
Q 21.296875 6.109375 26.703125 6.109375 
Q 34.1875 6.109375 38.703125 11.40625 
Q 43.21875 16.703125 43.21875 25.484375 
L 43.21875 27.484375 
z
M 52.203125 31.203125 
L 52.203125 0 
L 43.21875 0 
L 43.21875 8.296875 
Q 40.140625 3.328125 35.546875 0.953125 
Q 30.953125 -1.421875 24.3125 -1.421875 
Q 15.921875 -1.421875 10.953125 3.296875 
Q 6 8.015625 6 15.921875 
Q 6 25.140625 12.171875 29.828125 
Q 18.359375 34.515625 30.609375 34.515625 
L 43.21875 34.515625 
L 43.21875 35.40625 
Q 43.21875 41.609375 39.140625 45 
Q 35.0625 48.390625 27.6875 48.390625 
Q 23 48.390625 18.546875 47.265625 
Q 14.109375 46.140625 10.015625 43.890625 
L 10.015625 52.203125 
Q 14.9375 54.109375 19.578125 55.046875 
Q 24.21875 56 28.609375 56 
Q 40.484375 56 46.34375 49.84375 
Q 52.203125 43.703125 52.203125 31.203125 
z
" id="DejaVuSans-97"/>
        <path d="M 18.3125 70.21875 
L 18.3125 54.6875 
L 36.8125 54.6875 
L 36.8125 47.703125 
L 18.3125 47.703125 
L 18.3125 18.015625 
Q 18.3125 11.328125 20.140625 9.421875 
Q 21.96875 7.515625 27.59375 7.515625 
L 36.8125 7.515625 
L 36.8125 0 
L 27.59375 0 
Q 17.1875 0 13.234375 3.875 
Q 9.28125 7.765625 9.28125 18.015625 
L 9.28125 47.703125 
L 2.6875 47.703125 
L 2.6875 54.6875 
L 9.28125 54.6875 
L 9.28125 70.21875 
z
" id="DejaVuSans-116"/>
        <path d="M 54.890625 33.015625 
L 54.890625 0 
L 45.90625 0 
L 45.90625 32.71875 
Q 45.90625 40.484375 42.875 44.328125 
Q 39.84375 48.1875 33.796875 48.1875 
Q 26.515625 48.1875 22.3125 43.546875 
Q 18.109375 38.921875 18.109375 30.90625 
L 18.109375 0 
L 9.078125 0 
L 9.078125 54.6875 
L 18.109375 54.6875 
L 18.109375 46.1875 
Q 21.34375 51.125 25.703125 53.5625 
Q 30.078125 56 35.796875 56 
Q 45.21875 56 50.046875 50.171875 
Q 54.890625 44.34375 54.890625 33.015625 
z
" id="DejaVuSans-110"/>
        <path id="DejaVuSans-32"/>
        <path d="M 45.40625 46.390625 
L 45.40625 75.984375 
L 54.390625 75.984375 
L 54.390625 0 
L 45.40625 0 
L 45.40625 8.203125 
Q 42.578125 3.328125 38.25 0.953125 
Q 33.9375 -1.421875 27.875 -1.421875 
Q 17.96875 -1.421875 11.734375 6.484375 
Q 5.515625 14.40625 5.515625 27.296875 
Q 5.515625 40.1875 11.734375 48.09375 
Q 17.96875 56 27.875 56 
Q 33.9375 56 38.25 53.625 
Q 42.578125 51.265625 45.40625 46.390625 
z
M 14.796875 27.296875 
Q 14.796875 17.390625 18.875 11.75 
Q 22.953125 6.109375 30.078125 6.109375 
Q 37.203125 6.109375 41.296875 11.75 
Q 45.40625 17.390625 45.40625 27.296875 
Q 45.40625 37.203125 41.296875 42.84375 
Q 37.203125 48.484375 30.078125 48.484375 
Q 22.953125 48.484375 18.875 42.84375 
Q 14.796875 37.203125 14.796875 27.296875 
z
" id="DejaVuSans-100"/>
        <path d="M 56.203125 29.59375 
L 56.203125 25.203125 
L 14.890625 25.203125 
Q 15.484375 15.921875 20.484375 11.0625 
Q 25.484375 6.203125 34.421875 6.203125 
Q 39.59375 6.203125 44.453125 7.46875 
Q 49.3125 8.734375 54.109375 11.28125 
L 54.109375 2.78125 
Q 49.265625 0.734375 44.1875 -0.34375 
Q 39.109375 -1.421875 33.890625 -1.421875 
Q 20.796875 -1.421875 13.15625 6.1875 
Q 5.515625 13.8125 5.515625 26.8125 
Q 5.515625 40.234375 12.765625 48.109375 
Q 20.015625 56 32.328125 56 
Q 43.359375 56 49.78125 48.890625 
Q 56.203125 41.796875 56.203125 29.59375 
z
M 47.21875 32.234375 
Q 47.125 39.59375 43.09375 43.984375 
Q 39.0625 48.390625 32.421875 48.390625 
Q 24.90625 48.390625 20.390625 44.140625 
Q 15.875 39.890625 15.1875 32.171875 
z
" id="DejaVuSans-101"/>
       </defs>
       <use xlink:href="#DejaVuSans-105"/>
       <use x="27.783203" xlink:href="#DejaVuSans-115"/>
       <use x="79.882812" xlink:href="#DejaVuSans-111"/>
       <use x="141.064453" xlink:href="#DejaVuSans-108"/>
       <use x="168.847656" xlink:href="#DejaVuSans-97"/>
       <use x="230.126953" xlink:href="#DejaVuSans-116"/>
       <use x="269.335938" xlink:href="#DejaVuSans-105"/>
       <use x="297.119141" xlink:href="#DejaVuSans-111"/>
       <use x="358.300781" xlink:href="#DejaVuSans-110"/>
       <use x="421.679688" xlink:href="#DejaVuSans-32"/>
       <use x="453.466797" xlink:href="#DejaVuSans-100"/>
       <use x="516.943359" xlink:href="#DejaVuSans-97"/>
       <use x="578.222656" xlink:href="#DejaVuSans-116"/>
       <use x="617.431641" xlink:href="#DejaVuSans-101"/>
      </g>
     </g>
    </g>
    <g id="xtick_2">
     <g id="line2d_2">
      <g>
       <use style="stroke:#000000;stroke-width:0.8;" x="112.527098" xlink:href="#m319b8d158c" y="464.120157"/>
      </g>
     </g>
     <g id="text_2">
      <!-- isolation country -->
      <g transform="translate(51.951249 535.598352)rotate(-45)scale(0.1 -0.1)">
       <defs>
        <path d="M 48.78125 52.59375 
L 48.78125 44.1875 
Q 44.96875 46.296875 41.140625 47.34375 
Q 37.3125 48.390625 33.40625 48.390625 
Q 24.65625 48.390625 19.8125 42.84375 
Q 14.984375 37.3125 14.984375 27.296875 
Q 14.984375 17.28125 19.8125 11.734375 
Q 24.65625 6.203125 33.40625 6.203125 
Q 37.3125 6.203125 41.140625 7.25 
Q 44.96875 8.296875 48.78125 10.40625 
L 48.78125 2.09375 
Q 45.015625 0.34375 40.984375 -0.53125 
Q 36.96875 -1.421875 32.421875 -1.421875 
Q 20.0625 -1.421875 12.78125 6.34375 
Q 5.515625 14.109375 5.515625 27.296875 
Q 5.515625 40.671875 12.859375 48.328125 
Q 20.21875 56 33.015625 56 
Q 37.15625 56 41.109375 55.140625 
Q 45.0625 54.296875 48.78125 52.59375 
z
" id="DejaVuSans-99"/>
        <path d="M 8.5 21.578125 
L 8.5 54.6875 
L 17.484375 54.6875 
L 17.484375 21.921875 
Q 17.484375 14.15625 20.5 10.265625 
Q 23.53125 6.390625 29.59375 6.390625 
Q 36.859375 6.390625 41.078125 11.03125 
Q 45.3125 15.671875 45.3125 23.6875 
L 45.3125 54.6875 
L 54.296875 54.6875 
L 54.296875 0 
L 45.3125 0 
L 45.3125 8.40625 
Q 42.046875 3.421875 37.71875 1 
Q 33.40625 -1.421875 27.6875 -1.421875 
Q 18.265625 -1.421875 13.375 4.4375 
Q 8.5 10.296875 8.5 21.578125 
z
M 31.109375 56 
z
" id="DejaVuSans-117"/>
        <path d="M 41.109375 46.296875 
Q 39.59375 47.171875 37.8125 47.578125 
Q 36.03125 48 33.890625 48 
Q 26.265625 48 22.1875 43.046875 
Q 18.109375 38.09375 18.109375 28.8125 
L 18.109375 0 
L 9.078125 0 
L 9.078125 54.6875 
L 18.109375 54.6875 
L 18.109375 46.1875 
Q 20.953125 51.171875 25.484375 53.578125 
Q 30.03125 56 36.53125 56 
Q 37.453125 56 38.578125 55.875 
Q 39.703125 55.765625 41.0625 55.515625 
z
" id="DejaVuSans-114"/>
        <path d="M 32.171875 -5.078125 
Q 28.375 -14.84375 24.75 -17.8125 
Q 21.140625 -20.796875 15.09375 -20.796875 
L 7.90625 -20.796875 
L 7.90625 -13.28125 
L 13.1875 -13.28125 
Q 16.890625 -13.28125 18.9375 -11.515625 
Q 21 -9.765625 23.484375 -3.21875 
L 25.09375 0.875 
L 2.984375 54.6875 
L 12.5 54.6875 
L 29.59375 11.921875 
L 46.6875 54.6875 
L 56.203125 54.6875 
z
" id="DejaVuSans-121"/>
       </defs>
       <use xlink:href="#DejaVuSans-105"/>
       <use x="27.783203" xlink:href="#DejaVuSans-115"/>
       <use x="79.882812" xlink:href="#DejaVuSans-111"/>
       <use x="141.064453" xlink:href="#DejaVuSans-108"/>
       <use x="168.847656" xlink:href="#DejaVuSans-97"/>
       <use x="230.126953" xlink:href="#DejaVuSans-116"/>
       <use x="269.335938" xlink:href="#DejaVuSans-105"/>
       <use x="297.119141" xlink:href="#DejaVuSans-111"/>
       <use x="358.300781" xlink:href="#DejaVuSans-110"/>
       <use x="421.679688" xlink:href="#DejaVuSans-32"/>
       <use x="453.466797" xlink:href="#DejaVuSans-99"/>
       <use x="508.447266" xlink:href="#DejaVuSans-111"/>
       <use x="569.628906" xlink:href="#DejaVuSans-117"/>
       <use x="633.007812" xlink:href="#DejaVuSans-110"/>
       <use x="696.386719" xlink:href="#DejaVuSans-116"/>
       <use x="735.595703" xlink:href="#DejaVuSans-114"/>
       <use x="776.708984" xlink:href="#DejaVuSans-121"/>
      </g>
     </g>
    </g>
    <g id="xtick_3">
     <g id="line2d_3">
      <g>
       <use style="stroke:#000000;stroke-width:0.8;" x="137.951923" xlink:href="#m319b8d158c" y="464.120157"/>
      </g>
     </g>
     <g id="text_3">
      <!-- host name -->
      <g transform="translate(98.917419 514.057007)rotate(-45)scale(0.1 -0.1)">
       <defs>
        <path d="M 54.890625 33.015625 
L 54.890625 0 
L 45.90625 0 
L 45.90625 32.71875 
Q 45.90625 40.484375 42.875 44.328125 
Q 39.84375 48.1875 33.796875 48.1875 
Q 26.515625 48.1875 22.3125 43.546875 
Q 18.109375 38.921875 18.109375 30.90625 
L 18.109375 0 
L 9.078125 0 
L 9.078125 75.984375 
L 18.109375 75.984375 
L 18.109375 46.1875 
Q 21.34375 51.125 25.703125 53.5625 
Q 30.078125 56 35.796875 56 
Q 45.21875 56 50.046875 50.171875 
Q 54.890625 44.34375 54.890625 33.015625 
z
" id="DejaVuSans-104"/>
        <path d="M 52 44.1875 
Q 55.375 50.25 60.0625 53.125 
Q 64.75 56 71.09375 56 
Q 79.640625 56 84.28125 50.015625 
Q 88.921875 44.046875 88.921875 33.015625 
L 88.921875 0 
L 79.890625 0 
L 79.890625 32.71875 
Q 79.890625 40.578125 77.09375 44.375 
Q 74.3125 48.1875 68.609375 48.1875 
Q 61.625 48.1875 57.5625 43.546875 
Q 53.515625 38.921875 53.515625 30.90625 
L 53.515625 0 
L 44.484375 0 
L 44.484375 32.71875 
Q 44.484375 40.625 41.703125 44.40625 
Q 38.921875 48.1875 33.109375 48.1875 
Q 26.21875 48.1875 22.15625 43.53125 
Q 18.109375 38.875 18.109375 30.90625 
L 18.109375 0 
L 9.078125 0 
L 9.078125 54.6875 
L 18.109375 54.6875 
L 18.109375 46.1875 
Q 21.1875 51.21875 25.484375 53.609375 
Q 29.78125 56 35.6875 56 
Q 41.65625 56 45.828125 52.96875 
Q 50 49.953125 52 44.1875 
z
" id="DejaVuSans-109"/>
       </defs>
       <use xlink:href="#DejaVuSans-104"/>
       <use x="63.378906" xlink:href="#DejaVuSans-111"/>
       <use x="124.560547" xlink:href="#DejaVuSans-115"/>
       <use x="176.660156" xlink:href="#DejaVuSans-116"/>
       <use x="215.869141" xlink:href="#DejaVuSans-32"/>
       <use x="247.65625" xlink:href="#DejaVuSans-110"/>
       <use x="311.035156" xlink:href="#DejaVuSans-97"/>
       <use x="372.314453" xlink:href="#DejaVuSans-109"/>
       <use x="469.726562" xlink:href="#DejaVuSans-101"/>
      </g>
     </g>
    </g>
    <g id="xtick_4">
     <g id="line2d_4">
      <g>
       <use style="stroke:#000000;stroke-width:0.8;" x="163.376748" xlink:href="#m319b8d158c" y="464.120157"/>
      </g>
     </g>
     <g id="text_4">
      <!-- Category -->
      <g transform="translate(129.604665 508.794585)rotate(-45)scale(0.1 -0.1)">
       <defs>
        <path d="M 64.40625 67.28125 
L 64.40625 56.890625 
Q 59.421875 61.53125 53.78125 63.8125 
Q 48.140625 66.109375 41.796875 66.109375 
Q 29.296875 66.109375 22.65625 58.46875 
Q 16.015625 50.828125 16.015625 36.375 
Q 16.015625 21.96875 22.65625 14.328125 
Q 29.296875 6.6875 41.796875 6.6875 
Q 48.140625 6.6875 53.78125 8.984375 
Q 59.421875 11.28125 64.40625 15.921875 
L 64.40625 5.609375 
Q 59.234375 2.09375 53.4375 0.328125 
Q 47.65625 -1.421875 41.21875 -1.421875 
Q 24.65625 -1.421875 15.125 8.703125 
Q 5.609375 18.84375 5.609375 36.375 
Q 5.609375 53.953125 15.125 64.078125 
Q 24.65625 74.21875 41.21875 74.21875 
Q 47.75 74.21875 53.53125 72.484375 
Q 59.328125 70.75 64.40625 67.28125 
z
" id="DejaVuSans-67"/>
        <path d="M 45.40625 27.984375 
Q 45.40625 37.75 41.375 43.109375 
Q 37.359375 48.484375 30.078125 48.484375 
Q 22.859375 48.484375 18.828125 43.109375 
Q 14.796875 37.75 14.796875 27.984375 
Q 14.796875 18.265625 18.828125 12.890625 
Q 22.859375 7.515625 30.078125 7.515625 
Q 37.359375 7.515625 41.375 12.890625 
Q 45.40625 18.265625 45.40625 27.984375 
z
M 54.390625 6.78125 
Q 54.390625 -7.171875 48.1875 -13.984375 
Q 42 -20.796875 29.203125 -20.796875 
Q 24.46875 -20.796875 20.265625 -20.09375 
Q 16.0625 -19.390625 12.109375 -17.921875 
L 12.109375 -9.1875 
Q 16.0625 -11.328125 19.921875 -12.34375 
Q 23.78125 -13.375 27.78125 -13.375 
Q 36.625 -13.375 41.015625 -8.765625 
Q 45.40625 -4.15625 45.40625 5.171875 
L 45.40625 9.625 
Q 42.625 4.78125 38.28125 2.390625 
Q 33.9375 0 27.875 0 
Q 17.828125 0 11.671875 7.65625 
Q 5.515625 15.328125 5.515625 27.984375 
Q 5.515625 40.671875 11.671875 48.328125 
Q 17.828125 56 27.875 56 
Q 33.9375 56 38.28125 53.609375 
Q 42.625 51.21875 45.40625 46.390625 
L 45.40625 54.6875 
L 54.390625 54.6875 
z
" id="DejaVuSans-103"/>
       </defs>
       <use xlink:href="#DejaVuSans-67"/>
       <use x="69.824219" xlink:href="#DejaVuSans-97"/>
       <use x="131.103516" xlink:href="#DejaVuSans-116"/>
       <use x="170.3125" xlink:href="#DejaVuSans-101"/>
       <use x="231.835938" xlink:href="#DejaVuSans-103"/>
       <use x="295.3125" xlink:href="#DejaVuSans-111"/>
       <use x="356.494141" xlink:href="#DejaVuSans-114"/>
       <use x="397.607422" xlink:href="#DejaVuSans-121"/>
      </g>
     </g>
    </g>
    <g id="xtick_5">
     <g id="line2d_5">
      <g>
       <use style="stroke:#000000;stroke-width:0.8;" x="188.801573" xlink:href="#m319b8d158c" y="464.120157"/>
      </g>
     </g>
     <g id="text_5">
      <!-- host health -->
      <g transform="translate(147.436932 516.387144)rotate(-45)scale(0.1 -0.1)">
       <use xlink:href="#DejaVuSans-104"/>
       <use x="63.378906" xlink:href="#DejaVuSans-111"/>
       <use x="124.560547" xlink:href="#DejaVuSans-115"/>
       <use x="176.660156" xlink:href="#DejaVuSans-116"/>
       <use x="215.869141" xlink:href="#DejaVuSans-32"/>
       <use x="247.65625" xlink:href="#DejaVuSans-104"/>
       <use x="311.035156" xlink:href="#DejaVuSans-101"/>
       <use x="372.558594" xlink:href="#DejaVuSans-97"/>
       <use x="433.837891" xlink:href="#DejaVuSans-108"/>
       <use x="461.621094" xlink:href="#DejaVuSans-116"/>
       <use x="500.830078" xlink:href="#DejaVuSans-104"/>
      </g>
     </g>
    </g>
    <g id="xtick_6">
     <g id="line2d_6">
      <g>
       <use style="stroke:#000000;stroke-width:0.8;" x="214.226399" xlink:href="#m319b8d158c" y="464.120157"/>
      </g>
     </g>
     <g id="text_6">
      <!-- other clinical -->
      <g transform="translate(167.22258 522.026321)rotate(-45)scale(0.1 -0.1)">
       <use xlink:href="#DejaVuSans-111"/>
       <use x="61.181641" xlink:href="#DejaVuSans-116"/>
       <use x="100.390625" xlink:href="#DejaVuSans-104"/>
       <use x="163.769531" xlink:href="#DejaVuSans-101"/>
       <use x="225.292969" xlink:href="#DejaVuSans-114"/>
       <use x="266.40625" xlink:href="#DejaVuSans-32"/>
       <use x="298.193359" xlink:href="#DejaVuSans-99"/>
       <use x="353.173828" xlink:href="#DejaVuSans-108"/>
       <use x="380.957031" xlink:href="#DejaVuSans-105"/>
       <use x="408.740234" xlink:href="#DejaVuSans-110"/>
       <use x="472.119141" xlink:href="#DejaVuSans-105"/>
       <use x="499.902344" xlink:href="#DejaVuSans-99"/>
       <use x="554.882812" xlink:href="#DejaVuSans-97"/>
       <use x="616.162109" xlink:href="#DejaVuSans-108"/>
      </g>
     </g>
    </g>
    <g id="xtick_7">
     <g id="line2d_7">
      <g>
       <use style="stroke:#000000;stroke-width:0.8;" x="239.651224" xlink:href="#m319b8d158c" y="464.120157"/>
      </g>
     </g>
     <g id="text_7">
      <!-- depth -->
      <g transform="translate(217.598331 497.075395)rotate(-45)scale(0.1 -0.1)">
       <defs>
        <path d="M 18.109375 8.203125 
L 18.109375 -20.796875 
L 9.078125 -20.796875 
L 9.078125 54.6875 
L 18.109375 54.6875 
L 18.109375 46.390625 
Q 20.953125 51.265625 25.265625 53.625 
Q 29.59375 56 35.59375 56 
Q 45.5625 56 51.78125 48.09375 
Q 58.015625 40.1875 58.015625 27.296875 
Q 58.015625 14.40625 51.78125 6.484375 
Q 45.5625 -1.421875 35.59375 -1.421875 
Q 29.59375 -1.421875 25.265625 0.953125 
Q 20.953125 3.328125 18.109375 8.203125 
z
M 48.6875 27.296875 
Q 48.6875 37.203125 44.609375 42.84375 
Q 40.53125 48.484375 33.40625 48.484375 
Q 26.265625 48.484375 22.1875 42.84375 
Q 18.109375 37.203125 18.109375 27.296875 
Q 18.109375 17.390625 22.1875 11.75 
Q 26.265625 6.109375 33.40625 6.109375 
Q 40.53125 6.109375 44.609375 11.75 
Q 48.6875 17.390625 48.6875 27.296875 
z
" id="DejaVuSans-112"/>
       </defs>
       <use xlink:href="#DejaVuSans-100"/>
       <use x="63.476562" xlink:href="#DejaVuSans-101"/>
       <use x="125" xlink:href="#DejaVuSans-112"/>
       <use x="188.476562" xlink:href="#DejaVuSans-116"/>
       <use x="227.685547" xlink:href="#DejaVuSans-104"/>
      </g>
     </g>
    </g>
    <g id="xtick_8">
     <g id="line2d_8">
      <g>
       <use style="stroke:#000000;stroke-width:0.8;" x="265.076049" xlink:href="#m319b8d158c" y="464.120157"/>
      </g>
     </g>
     <g id="text_8">
      <!-- Biome -->
      <g transform="translate(241.224453 498.874098)rotate(-45)scale(0.1 -0.1)">
       <defs>
        <path d="M 19.671875 34.8125 
L 19.671875 8.109375 
L 35.5 8.109375 
Q 43.453125 8.109375 47.28125 11.40625 
Q 51.125 14.703125 51.125 21.484375 
Q 51.125 28.328125 47.28125 31.5625 
Q 43.453125 34.8125 35.5 34.8125 
z
M 19.671875 64.796875 
L 19.671875 42.828125 
L 34.28125 42.828125 
Q 41.5 42.828125 45.03125 45.53125 
Q 48.578125 48.25 48.578125 53.8125 
Q 48.578125 59.328125 45.03125 62.0625 
Q 41.5 64.796875 34.28125 64.796875 
z
M 9.8125 72.90625 
L 35.015625 72.90625 
Q 46.296875 72.90625 52.390625 68.21875 
Q 58.5 63.53125 58.5 54.890625 
Q 58.5 48.1875 55.375 44.234375 
Q 52.25 40.28125 46.1875 39.3125 
Q 53.46875 37.75 57.5 32.78125 
Q 61.53125 27.828125 61.53125 20.40625 
Q 61.53125 10.640625 54.890625 5.3125 
Q 48.25 0 35.984375 0 
L 9.8125 0 
z
" id="DejaVuSans-66"/>
       </defs>
       <use xlink:href="#DejaVuSans-66"/>
       <use x="68.603516" xlink:href="#DejaVuSans-105"/>
       <use x="96.386719" xlink:href="#DejaVuSans-111"/>
       <use x="157.568359" xlink:href="#DejaVuSans-109"/>
       <use x="254.980469" xlink:href="#DejaVuSans-101"/>
      </g>
     </g>
    </g>
    <g id="xtick_9">
     <g id="line2d_9">
      <g>
       <use style="stroke:#000000;stroke-width:0.8;" x="290.500874" xlink:href="#m319b8d158c" y="464.120157"/>
      </g>
     </g>
     <g id="text_9">
      <!-- optimal temperature -->
      <g transform="translate(215.602798 549.920579)rotate(-45)scale(0.1 -0.1)">
       <use xlink:href="#DejaVuSans-111"/>
       <use x="61.181641" xlink:href="#DejaVuSans-112"/>
       <use x="124.658203" xlink:href="#DejaVuSans-116"/>
       <use x="163.867188" xlink:href="#DejaVuSans-105"/>
       <use x="191.650391" xlink:href="#DejaVuSans-109"/>
       <use x="289.0625" xlink:href="#DejaVuSans-97"/>
       <use x="350.341797" xlink:href="#DejaVuSans-108"/>
       <use x="378.125" xlink:href="#DejaVuSans-32"/>
       <use x="409.912109" xlink:href="#DejaVuSans-116"/>
       <use x="449.121094" xlink:href="#DejaVuSans-101"/>
       <use x="510.644531" xlink:href="#DejaVuSans-109"/>
       <use x="608.056641" xlink:href="#DejaVuSans-112"/>
       <use x="671.533203" xlink:href="#DejaVuSans-101"/>
       <use x="733.056641" xlink:href="#DejaVuSans-114"/>
       <use x="774.169922" xlink:href="#DejaVuSans-97"/>
       <use x="835.449219" xlink:href="#DejaVuSans-116"/>
       <use x="874.658203" xlink:href="#DejaVuSans-117"/>
       <use x="938.037109" xlink:href="#DejaVuSans-114"/>
       <use x="976.900391" xlink:href="#DejaVuSans-101"/>
      </g>
     </g>
    </g>
    <g id="xtick_10">
     <g id="line2d_10">
      <g>
       <use style="stroke:#000000;stroke-width:0.8;" x="315.925699" xlink:href="#m319b8d158c" y="464.120157"/>
      </g>
     </g>
     <g id="text_10">
      <!-- other environmental -->
      <g transform="translate(242.042984 548.905218)rotate(-45)scale(0.1 -0.1)">
       <defs>
        <path d="M 2.984375 54.6875 
L 12.5 54.6875 
L 29.59375 8.796875 
L 46.6875 54.6875 
L 56.203125 54.6875 
L 35.6875 0 
L 23.484375 0 
z
" id="DejaVuSans-118"/>
       </defs>
       <use xlink:href="#DejaVuSans-111"/>
       <use x="61.181641" xlink:href="#DejaVuSans-116"/>
       <use x="100.390625" xlink:href="#DejaVuSans-104"/>
       <use x="163.769531" xlink:href="#DejaVuSans-101"/>
       <use x="225.292969" xlink:href="#DejaVuSans-114"/>
       <use x="266.40625" xlink:href="#DejaVuSans-32"/>
       <use x="298.193359" xlink:href="#DejaVuSans-101"/>
       <use x="359.716797" xlink:href="#DejaVuSans-110"/>
       <use x="423.095703" xlink:href="#DejaVuSans-118"/>
       <use x="482.275391" xlink:href="#DejaVuSans-105"/>
       <use x="510.058594" xlink:href="#DejaVuSans-114"/>
       <use x="548.921875" xlink:href="#DejaVuSans-111"/>
       <use x="610.103516" xlink:href="#DejaVuSans-110"/>
       <use x="673.482422" xlink:href="#DejaVuSans-109"/>
       <use x="770.894531" xlink:href="#DejaVuSans-101"/>
       <use x="832.417969" xlink:href="#DejaVuSans-110"/>
       <use x="895.796875" xlink:href="#DejaVuSans-116"/>
       <use x="935.005859" xlink:href="#DejaVuSans-97"/>
       <use x="996.285156" xlink:href="#DejaVuSans-108"/>
      </g>
     </g>
    </g>
    <g id="xtick_11">
     <g id="line2d_11">
      <g>
       <use style="stroke:#000000;stroke-width:0.8;" x="341.350524" xlink:href="#m319b8d158c" y="464.120157"/>
      </g>
     </g>
     <g id="text_11">
      <!-- host age -->
      <g transform="translate(309.195948 507.177079)rotate(-45)scale(0.1 -0.1)">
       <use xlink:href="#DejaVuSans-104"/>
       <use x="63.378906" xlink:href="#DejaVuSans-111"/>
       <use x="124.560547" xlink:href="#DejaVuSans-115"/>
       <use x="176.660156" xlink:href="#DejaVuSans-116"/>
       <use x="215.869141" xlink:href="#DejaVuSans-32"/>
       <use x="247.65625" xlink:href="#DejaVuSans-97"/>
       <use x="308.935547" xlink:href="#DejaVuSans-103"/>
       <use x="372.412109" xlink:href="#DejaVuSans-101"/>
      </g>
     </g>
    </g>
    <g id="xtick_12">
     <g id="line2d_12">
      <g>
       <use style="stroke:#000000;stroke-width:0.8;" x="366.77535" xlink:href="#m319b8d158c" y="464.120157"/>
      </g>
     </g>
     <g id="text_12">
      <!-- cell shape -->
      <g transform="translate(329.551702 512.24615)rotate(-45)scale(0.1 -0.1)">
       <use xlink:href="#DejaVuSans-99"/>
       <use x="54.980469" xlink:href="#DejaVuSans-101"/>
       <use x="116.503906" xlink:href="#DejaVuSans-108"/>
       <use x="144.287109" xlink:href="#DejaVuSans-108"/>
       <use x="172.070312" xlink:href="#DejaVuSans-32"/>
       <use x="203.857422" xlink:href="#DejaVuSans-115"/>
       <use x="255.957031" xlink:href="#DejaVuSans-104"/>
       <use x="319.335938" xlink:href="#DejaVuSans-97"/>
       <use x="380.615234" xlink:href="#DejaVuSans-112"/>
       <use x="444.091797" xlink:href="#DejaVuSans-101"/>
      </g>
     </g>
    </g>
    <g id="xtick_13">
     <g id="line2d_13">
      <g>
       <use style="stroke:#000000;stroke-width:0.8;" x="392.200175" xlink:href="#m319b8d158c" y="464.120157"/>
      </g>
     </g>
     <g id="text_13">
      <!-- gram stain -->
      <g transform="translate(352.630921 514.591756)rotate(-45)scale(0.1 -0.1)">
       <use xlink:href="#DejaVuSans-103"/>
       <use x="63.476562" xlink:href="#DejaVuSans-114"/>
       <use x="104.589844" xlink:href="#DejaVuSans-97"/>
       <use x="165.869141" xlink:href="#DejaVuSans-109"/>
       <use x="263.28125" xlink:href="#DejaVuSans-32"/>
       <use x="295.068359" xlink:href="#DejaVuSans-115"/>
       <use x="347.167969" xlink:href="#DejaVuSans-116"/>
       <use x="386.376953" xlink:href="#DejaVuSans-97"/>
       <use x="447.65625" xlink:href="#DejaVuSans-105"/>
       <use x="475.439453" xlink:href="#DejaVuSans-110"/>
      </g>
     </g>
    </g>
    <g id="xtick_14">
     <g id="line2d_14">
      <g>
       <use style="stroke:#000000;stroke-width:0.8;" x="417.625" xlink:href="#m319b8d158c" y="464.120157"/>
      </g>
     </g>
     <g id="text_14">
      <!-- habitat -->
      <g transform="translate(391.009059 501.638444)rotate(-45)scale(0.1 -0.1)">
       <defs>
        <path d="M 48.6875 27.296875 
Q 48.6875 37.203125 44.609375 42.84375 
Q 40.53125 48.484375 33.40625 48.484375 
Q 26.265625 48.484375 22.1875 42.84375 
Q 18.109375 37.203125 18.109375 27.296875 
Q 18.109375 17.390625 22.1875 11.75 
Q 26.265625 6.109375 33.40625 6.109375 
Q 40.53125 6.109375 44.609375 11.75 
Q 48.6875 17.390625 48.6875 27.296875 
z
M 18.109375 46.390625 
Q 20.953125 51.265625 25.265625 53.625 
Q 29.59375 56 35.59375 56 
Q 45.5625 56 51.78125 48.09375 
Q 58.015625 40.1875 58.015625 27.296875 
Q 58.015625 14.40625 51.78125 6.484375 
Q 45.5625 -1.421875 35.59375 -1.421875 
Q 29.59375 -1.421875 25.265625 0.953125 
Q 20.953125 3.328125 18.109375 8.203125 
L 18.109375 0 
L 9.078125 0 
L 9.078125 75.984375 
L 18.109375 75.984375 
z
" id="DejaVuSans-98"/>
       </defs>
       <use xlink:href="#DejaVuSans-104"/>
       <use x="63.378906" xlink:href="#DejaVuSans-97"/>
       <use x="124.658203" xlink:href="#DejaVuSans-98"/>
       <use x="188.134766" xlink:href="#DejaVuSans-105"/>
       <use x="215.917969" xlink:href="#DejaVuSans-116"/>
       <use x="255.126953" xlink:href="#DejaVuSans-97"/>
       <use x="316.40625" xlink:href="#DejaVuSans-116"/>
      </g>
     </g>
    </g>
    <g id="xtick_15">
     <g id="line2d_15">
      <g>
       <use style="stroke:#000000;stroke-width:0.8;" x="443.049825" xlink:href="#m319b8d158c" y="464.120157"/>
      </g>
     </g>
     <g id="text_15">
      <!-- disease -->
      <g transform="translate(414.723569 503.348758)rotate(-45)scale(0.1 -0.1)">
       <use xlink:href="#DejaVuSans-100"/>
       <use x="63.476562" xlink:href="#DejaVuSans-105"/>
       <use x="91.259766" xlink:href="#DejaVuSans-115"/>
       <use x="143.359375" xlink:href="#DejaVuSans-101"/>
       <use x="204.882812" xlink:href="#DejaVuSans-97"/>
       <use x="266.162109" xlink:href="#DejaVuSans-115"/>
       <use x="318.261719" xlink:href="#DejaVuSans-101"/>
      </g>
     </g>
    </g>
    <g id="xtick_16">
     <g id="line2d_16">
      <g>
       <use style="stroke:#000000;stroke-width:0.8;" x="468.47465" xlink:href="#m319b8d158c" y="464.120157"/>
      </g>
     </g>
     <g id="text_16">
      <!-- oxygen requirement -->
      <g transform="translate(395.335502 548.161651)rotate(-45)scale(0.1 -0.1)">
       <defs>
        <path d="M 54.890625 54.6875 
L 35.109375 28.078125 
L 55.90625 0 
L 45.3125 0 
L 29.390625 21.484375 
L 13.484375 0 
L 2.875 0 
L 24.125 28.609375 
L 4.6875 54.6875 
L 15.28125 54.6875 
L 29.78125 35.203125 
L 44.28125 54.6875 
z
" id="DejaVuSans-120"/>
        <path d="M 14.796875 27.296875 
Q 14.796875 17.390625 18.875 11.75 
Q 22.953125 6.109375 30.078125 6.109375 
Q 37.203125 6.109375 41.296875 11.75 
Q 45.40625 17.390625 45.40625 27.296875 
Q 45.40625 37.203125 41.296875 42.84375 
Q 37.203125 48.484375 30.078125 48.484375 
Q 22.953125 48.484375 18.875 42.84375 
Q 14.796875 37.203125 14.796875 27.296875 
z
M 45.40625 8.203125 
Q 42.578125 3.328125 38.25 0.953125 
Q 33.9375 -1.421875 27.875 -1.421875 
Q 17.96875 -1.421875 11.734375 6.484375 
Q 5.515625 14.40625 5.515625 27.296875 
Q 5.515625 40.1875 11.734375 48.09375 
Q 17.96875 56 27.875 56 
Q 33.9375 56 38.25 53.625 
Q 42.578125 51.265625 45.40625 46.390625 
L 45.40625 54.6875 
L 54.390625 54.6875 
L 54.390625 -20.796875 
L 45.40625 -20.796875 
z
" id="DejaVuSans-113"/>
       </defs>
       <use xlink:href="#DejaVuSans-111"/>
       <use x="58.056641" xlink:href="#DejaVuSans-120"/>
       <use x="117.236328" xlink:href="#DejaVuSans-121"/>
       <use x="176.416016" xlink:href="#DejaVuSans-103"/>
       <use x="239.892578" xlink:href="#DejaVuSans-101"/>
       <use x="301.416016" xlink:href="#DejaVuSans-110"/>
       <use x="364.794922" xlink:href="#DejaVuSans-32"/>
       <use x="396.582031" xlink:href="#DejaVuSans-114"/>
       <use x="435.445312" xlink:href="#DejaVuSans-101"/>
       <use x="496.96875" xlink:href="#DejaVuSans-113"/>
       <use x="560.445312" xlink:href="#DejaVuSans-117"/>
       <use x="623.824219" xlink:href="#DejaVuSans-105"/>
       <use x="651.607422" xlink:href="#DejaVuSans-114"/>
       <use x="690.470703" xlink:href="#DejaVuSans-101"/>
       <use x="751.994141" xlink:href="#DejaVuSans-109"/>
       <use x="849.40625" xlink:href="#DejaVuSans-101"/>
       <use x="910.929688" xlink:href="#DejaVuSans-110"/>
       <use x="974.308594" xlink:href="#DejaVuSans-116"/>
      </g>
     </g>
    </g>
    <g id="xtick_17">
     <g id="line2d_17">
      <g>
       <use style="stroke:#000000;stroke-width:0.8;" x="493.899476" xlink:href="#m319b8d158c" y="464.120157"/>
      </g>
     </g>
     <g id="text_17">
      <!-- host gender -->
      <g transform="translate(449.850038 519.07194)rotate(-45)scale(0.1 -0.1)">
       <use xlink:href="#DejaVuSans-104"/>
       <use x="63.378906" xlink:href="#DejaVuSans-111"/>
       <use x="124.560547" xlink:href="#DejaVuSans-115"/>
       <use x="176.660156" xlink:href="#DejaVuSans-116"/>
       <use x="215.869141" xlink:href="#DejaVuSans-32"/>
       <use x="247.65625" xlink:href="#DejaVuSans-103"/>
       <use x="311.132812" xlink:href="#DejaVuSans-101"/>
       <use x="372.65625" xlink:href="#DejaVuSans-110"/>
       <use x="436.035156" xlink:href="#DejaVuSans-100"/>
       <use x="499.511719" xlink:href="#DejaVuSans-101"/>
       <use x="561.035156" xlink:href="#DejaVuSans-114"/>
      </g>
     </g>
    </g>
    <g id="xtick_18">
     <g id="line2d_18">
      <g>
       <use style="stroke:#000000;stroke-width:0.8;" x="519.324301" xlink:href="#m319b8d158c" y="464.120157"/>
      </g>
     </g>
     <g id="text_18">
      <!-- motility -->
      <g transform="translate(491.016828 503.329976)rotate(-45)scale(0.1 -0.1)">
       <use xlink:href="#DejaVuSans-109"/>
       <use x="97.412109" xlink:href="#DejaVuSans-111"/>
       <use x="158.59375" xlink:href="#DejaVuSans-116"/>
       <use x="197.802734" xlink:href="#DejaVuSans-105"/>
       <use x="225.585938" xlink:href="#DejaVuSans-108"/>
       <use x="253.369141" xlink:href="#DejaVuSans-105"/>
       <use x="281.152344" xlink:href="#DejaVuSans-116"/>
       <use x="320.361328" xlink:href="#DejaVuSans-121"/>
      </g>
     </g>
    </g>
    <g id="xtick_19">
     <g id="line2d_19">
      <g>
       <use style="stroke:#000000;stroke-width:0.8;" x="544.749126" xlink:href="#m319b8d158c" y="464.120157"/>
      </g>
     </g>
     <g id="text_19">
      <!-- latitude -->
      <g transform="translate(516.151076 503.620552)rotate(-45)scale(0.1 -0.1)">
       <use xlink:href="#DejaVuSans-108"/>
       <use x="27.783203" xlink:href="#DejaVuSans-97"/>
       <use x="89.0625" xlink:href="#DejaVuSans-116"/>
       <use x="128.271484" xlink:href="#DejaVuSans-105"/>
       <use x="156.054688" xlink:href="#DejaVuSans-116"/>
       <use x="195.263672" xlink:href="#DejaVuSans-117"/>
       <use x="258.642578" xlink:href="#DejaVuSans-100"/>
       <use x="322.119141" xlink:href="#DejaVuSans-101"/>
      </g>
     </g>
    </g>
    <g id="xtick_20">
     <g id="line2d_20">
      <g>
       <use style="stroke:#000000;stroke-width:0.8;" x="570.173951" xlink:href="#m319b8d158c" y="464.120157"/>
      </g>
     </g>
     <g id="text_20">
      <!-- longitude -->
      <g transform="translate(535.384297 509.812156)rotate(-45)scale(0.1 -0.1)">
       <use xlink:href="#DejaVuSans-108"/>
       <use x="27.783203" xlink:href="#DejaVuSans-111"/>
       <use x="88.964844" xlink:href="#DejaVuSans-110"/>
       <use x="152.34375" xlink:href="#DejaVuSans-103"/>
       <use x="215.820312" xlink:href="#DejaVuSans-105"/>
       <use x="243.603516" xlink:href="#DejaVuSans-116"/>
       <use x="282.8125" xlink:href="#DejaVuSans-117"/>
       <use x="346.191406" xlink:href="#DejaVuSans-100"/>
       <use x="409.667969" xlink:href="#DejaVuSans-101"/>
      </g>
     </g>
    </g>
    <g id="xtick_21">
     <g id="line2d_21">
      <g>
       <use style="stroke:#000000;stroke-width:0.8;" x="595.598776" xlink:href="#m319b8d158c" y="464.120157"/>
      </g>
     </g>
     <g id="text_21">
      <!-- body sample site -->
      <g transform="translate(533.663956 536.957323)rotate(-45)scale(0.1 -0.1)">
       <use xlink:href="#DejaVuSans-98"/>
       <use x="63.476562" xlink:href="#DejaVuSans-111"/>
       <use x="124.658203" xlink:href="#DejaVuSans-100"/>
       <use x="188.134766" xlink:href="#DejaVuSans-121"/>
       <use x="247.314453" xlink:href="#DejaVuSans-32"/>
       <use x="279.101562" xlink:href="#DejaVuSans-115"/>
       <use x="331.201172" xlink:href="#DejaVuSans-97"/>
       <use x="392.480469" xlink:href="#DejaVuSans-109"/>
       <use x="489.892578" xlink:href="#DejaVuSans-112"/>
       <use x="553.369141" xlink:href="#DejaVuSans-108"/>
       <use x="581.152344" xlink:href="#DejaVuSans-101"/>
       <use x="642.675781" xlink:href="#DejaVuSans-32"/>
       <use x="674.462891" xlink:href="#DejaVuSans-115"/>
       <use x="726.5625" xlink:href="#DejaVuSans-105"/>
       <use x="754.345703" xlink:href="#DejaVuSans-116"/>
       <use x="793.554688" xlink:href="#DejaVuSans-101"/>
      </g>
     </g>
    </g>
    <g id="xtick_22">
     <g id="line2d_22">
      <g>
       <use style="stroke:#000000;stroke-width:0.8;" x="621.023601" xlink:href="#m319b8d158c" y="464.120157"/>
      </g>
     </g>
     <g id="text_22">
      <!-- altitude -->
      <g transform="translate(592.425552 503.620552)rotate(-45)scale(0.1 -0.1)">
       <use xlink:href="#DejaVuSans-97"/>
       <use x="61.279297" xlink:href="#DejaVuSans-108"/>
       <use x="89.0625" xlink:href="#DejaVuSans-116"/>
       <use x="128.271484" xlink:href="#DejaVuSans-105"/>
       <use x="156.054688" xlink:href="#DejaVuSans-116"/>
       <use x="195.263672" xlink:href="#DejaVuSans-117"/>
       <use x="258.642578" xlink:href="#DejaVuSans-100"/>
       <use x="322.119141" xlink:href="#DejaVuSans-101"/>
      </g>
     </g>
    </g>
    <g id="xtick_23">
     <g id="line2d_23">
      <g>
       <use style="stroke:#000000;stroke-width:0.8;" x="646.448427" xlink:href="#m319b8d158c" y="464.120157"/>
      </g>
     </g>
     <g id="text_23">
      <!-- sporulation -->
      <g transform="translate(605.248408 516.222521)rotate(-45)scale(0.1 -0.1)">
       <use xlink:href="#DejaVuSans-115"/>
       <use x="52.099609" xlink:href="#DejaVuSans-112"/>
       <use x="115.576172" xlink:href="#DejaVuSans-111"/>
       <use x="176.757812" xlink:href="#DejaVuSans-114"/>
       <use x="217.871094" xlink:href="#DejaVuSans-117"/>
       <use x="281.25" xlink:href="#DejaVuSans-108"/>
       <use x="309.033203" xlink:href="#DejaVuSans-97"/>
       <use x="370.3125" xlink:href="#DejaVuSans-116"/>
       <use x="409.521484" xlink:href="#DejaVuSans-105"/>
       <use x="437.304688" xlink:href="#DejaVuSans-111"/>
       <use x="498.486328" xlink:href="#DejaVuSans-110"/>
      </g>
     </g>
    </g>
    <g id="xtick_24">
     <g id="line2d_24">
      <g>
       <use style="stroke:#000000;stroke-width:0.8;" x="671.873252" xlink:href="#m319b8d158c" y="464.120157"/>
      </g>
     </g>
     <g id="text_24">
      <!-- temperature range -->
      <g transform="translate(603.151311 543.744443)rotate(-45)scale(0.1 -0.1)">
       <use xlink:href="#DejaVuSans-116"/>
       <use x="39.208984" xlink:href="#DejaVuSans-101"/>
       <use x="100.732422" xlink:href="#DejaVuSans-109"/>
       <use x="198.144531" xlink:href="#DejaVuSans-112"/>
       <use x="261.621094" xlink:href="#DejaVuSans-101"/>
       <use x="323.144531" xlink:href="#DejaVuSans-114"/>
       <use x="364.257812" xlink:href="#DejaVuSans-97"/>
       <use x="425.537109" xlink:href="#DejaVuSans-116"/>
       <use x="464.746094" xlink:href="#DejaVuSans-117"/>
       <use x="528.125" xlink:href="#DejaVuSans-114"/>
       <use x="566.988281" xlink:href="#DejaVuSans-101"/>
       <use x="628.511719" xlink:href="#DejaVuSans-32"/>
       <use x="660.298828" xlink:href="#DejaVuSans-114"/>
       <use x="701.412109" xlink:href="#DejaVuSans-97"/>
       <use x="762.691406" xlink:href="#DejaVuSans-110"/>
       <use x="826.070312" xlink:href="#DejaVuSans-103"/>
       <use x="889.546875" xlink:href="#DejaVuSans-101"/>
      </g>
     </g>
    </g>
    <g id="xtick_25">
     <g id="line2d_25">
      <g>
       <use style="stroke:#000000;stroke-width:0.8;" x="697.298077" xlink:href="#m319b8d158c" y="464.120157"/>
      </g>
     </g>
     <g id="text_25">
      <!-- salinity -->
      <g transform="translate(670.478843 501.841737)rotate(-45)scale(0.1 -0.1)">
       <use xlink:href="#DejaVuSans-115"/>
       <use x="52.099609" xlink:href="#DejaVuSans-97"/>
       <use x="113.378906" xlink:href="#DejaVuSans-108"/>
       <use x="141.162109" xlink:href="#DejaVuSans-105"/>
       <use x="168.945312" xlink:href="#DejaVuSans-110"/>
       <use x="232.324219" xlink:href="#DejaVuSans-105"/>
       <use x="260.107422" xlink:href="#DejaVuSans-116"/>
       <use x="299.316406" xlink:href="#DejaVuSans-121"/>
      </g>
     </g>
    </g>
    <g id="xtick_26">
     <g id="line2d_26">
      <g>
       <use style="stroke:#000000;stroke-width:0.8;" x="722.722902" xlink:href="#m319b8d158c" y="464.120157"/>
      </g>
     </g>
     <g id="text_26">
      <!-- isolation site -->
      <g transform="translate(676.417352 521.328053)rotate(-45)scale(0.1 -0.1)">
       <use xlink:href="#DejaVuSans-105"/>
       <use x="27.783203" xlink:href="#DejaVuSans-115"/>
       <use x="79.882812" xlink:href="#DejaVuSans-111"/>
       <use x="141.064453" xlink:href="#DejaVuSans-108"/>
       <use x="168.847656" xlink:href="#DejaVuSans-97"/>
       <use x="230.126953" xlink:href="#DejaVuSans-116"/>
       <use x="269.335938" xlink:href="#DejaVuSans-105"/>
       <use x="297.119141" xlink:href="#DejaVuSans-111"/>
       <use x="358.300781" xlink:href="#DejaVuSans-110"/>
       <use x="421.679688" xlink:href="#DejaVuSans-32"/>
       <use x="453.466797" xlink:href="#DejaVuSans-115"/>
       <use x="505.566406" xlink:href="#DejaVuSans-105"/>
       <use x="533.349609" xlink:href="#DejaVuSans-116"/>
       <use x="572.558594" xlink:href="#DejaVuSans-101"/>
      </g>
     </g>
    </g>
    <g id="xtick_27">
     <g id="line2d_27">
      <g>
       <use style="stroke:#000000;stroke-width:0.8;" x="748.147727" xlink:href="#m319b8d158c" y="464.120157"/>
      </g>
     </g>
     <g id="text_27">
      <!-- body sample subsite -->
      <g transform="translate(673.55901 549.611219)rotate(-45)scale(0.1 -0.1)">
       <use xlink:href="#DejaVuSans-98"/>
       <use x="63.476562" xlink:href="#DejaVuSans-111"/>
       <use x="124.658203" xlink:href="#DejaVuSans-100"/>
       <use x="188.134766" xlink:href="#DejaVuSans-121"/>
       <use x="247.314453" xlink:href="#DejaVuSans-32"/>
       <use x="279.101562" xlink:href="#DejaVuSans-115"/>
       <use x="331.201172" xlink:href="#DejaVuSans-97"/>
       <use x="392.480469" xlink:href="#DejaVuSans-109"/>
       <use x="489.892578" xlink:href="#DejaVuSans-112"/>
       <use x="553.369141" xlink:href="#DejaVuSans-108"/>
       <use x="581.152344" xlink:href="#DejaVuSans-101"/>
       <use x="642.675781" xlink:href="#DejaVuSans-32"/>
       <use x="674.462891" xlink:href="#DejaVuSans-115"/>
       <use x="726.5625" xlink:href="#DejaVuSans-117"/>
       <use x="789.941406" xlink:href="#DejaVuSans-98"/>
       <use x="853.417969" xlink:href="#DejaVuSans-115"/>
       <use x="905.517578" xlink:href="#DejaVuSans-105"/>
       <use x="933.300781" xlink:href="#DejaVuSans-116"/>
       <use x="972.509766" xlink:href="#DejaVuSans-101"/>
      </g>
     </g>
    </g>
    <g id="text_28">
     <!-- What we are using to predict how many prophages there are -->
     <g transform="translate(265.229687 562.989577)scale(0.1 -0.1)">
      <defs>
       <path d="M 3.328125 72.90625 
L 13.28125 72.90625 
L 28.609375 11.28125 
L 43.890625 72.90625 
L 54.984375 72.90625 
L 70.3125 11.28125 
L 85.59375 72.90625 
L 95.609375 72.90625 
L 77.296875 0 
L 64.890625 0 
L 49.515625 63.28125 
L 33.984375 0 
L 21.578125 0 
z
" id="DejaVuSans-87"/>
       <path d="M 4.203125 54.6875 
L 13.1875 54.6875 
L 24.421875 12.015625 
L 35.59375 54.6875 
L 46.1875 54.6875 
L 57.421875 12.015625 
L 68.609375 54.6875 
L 77.59375 54.6875 
L 63.28125 0 
L 52.6875 0 
L 40.921875 44.828125 
L 29.109375 0 
L 18.5 0 
z
" id="DejaVuSans-119"/>
      </defs>
      <use xlink:href="#DejaVuSans-87"/>
      <use x="98.876953" xlink:href="#DejaVuSans-104"/>
      <use x="162.255859" xlink:href="#DejaVuSans-97"/>
      <use x="223.535156" xlink:href="#DejaVuSans-116"/>
      <use x="262.744141" xlink:href="#DejaVuSans-32"/>
      <use x="294.53125" xlink:href="#DejaVuSans-119"/>
      <use x="376.318359" xlink:href="#DejaVuSans-101"/>
      <use x="437.841797" xlink:href="#DejaVuSans-32"/>
      <use x="469.628906" xlink:href="#DejaVuSans-97"/>
      <use x="530.908203" xlink:href="#DejaVuSans-114"/>
      <use x="569.771484" xlink:href="#DejaVuSans-101"/>
      <use x="631.294922" xlink:href="#DejaVuSans-32"/>
      <use x="663.082031" xlink:href="#DejaVuSans-117"/>
      <use x="726.460938" xlink:href="#DejaVuSans-115"/>
      <use x="778.560547" xlink:href="#DejaVuSans-105"/>
      <use x="806.34375" xlink:href="#DejaVuSans-110"/>
      <use x="869.722656" xlink:href="#DejaVuSans-103"/>
      <use x="933.199219" xlink:href="#DejaVuSans-32"/>
      <use x="964.986328" xlink:href="#DejaVuSans-116"/>
      <use x="1004.195312" xlink:href="#DejaVuSans-111"/>
      <use x="1065.376953" xlink:href="#DejaVuSans-32"/>
      <use x="1097.164062" xlink:href="#DejaVuSans-112"/>
      <use x="1160.640625" xlink:href="#DejaVuSans-114"/>
      <use x="1199.503906" xlink:href="#DejaVuSans-101"/>
      <use x="1261.027344" xlink:href="#DejaVuSans-100"/>
      <use x="1324.503906" xlink:href="#DejaVuSans-105"/>
      <use x="1352.287109" xlink:href="#DejaVuSans-99"/>
      <use x="1407.267578" xlink:href="#DejaVuSans-116"/>
      <use x="1446.476562" xlink:href="#DejaVuSans-32"/>
      <use x="1478.263672" xlink:href="#DejaVuSans-104"/>
      <use x="1541.642578" xlink:href="#DejaVuSans-111"/>
      <use x="1602.824219" xlink:href="#DejaVuSans-119"/>
      <use x="1684.611328" xlink:href="#DejaVuSans-32"/>
      <use x="1716.398438" xlink:href="#DejaVuSans-109"/>
      <use x="1813.810547" xlink:href="#DejaVuSans-97"/>
      <use x="1875.089844" xlink:href="#DejaVuSans-110"/>
      <use x="1938.46875" xlink:href="#DejaVuSans-121"/>
      <use x="1997.648438" xlink:href="#DejaVuSans-32"/>
      <use x="2029.435547" xlink:href="#DejaVuSans-112"/>
      <use x="2092.912109" xlink:href="#DejaVuSans-114"/>
      <use x="2131.775391" xlink:href="#DejaVuSans-111"/>
      <use x="2192.957031" xlink:href="#DejaVuSans-112"/>
      <use x="2256.433594" xlink:href="#DejaVuSans-104"/>
      <use x="2319.8125" xlink:href="#DejaVuSans-97"/>
      <use x="2381.091797" xlink:href="#DejaVuSans-103"/>
      <use x="2444.568359" xlink:href="#DejaVuSans-101"/>
      <use x="2506.091797" xlink:href="#DejaVuSans-115"/>
      <use x="2558.191406" xlink:href="#DejaVuSans-32"/>
      <use x="2589.978516" xlink:href="#DejaVuSans-116"/>
      <use x="2629.1875" xlink:href="#DejaVuSans-104"/>
      <use x="2692.566406" xlink:href="#DejaVuSans-101"/>
      <use x="2754.089844" xlink:href="#DejaVuSans-114"/>
      <use x="2792.953125" xlink:href="#DejaVuSans-101"/>
      <use x="2854.476562" xlink:href="#DejaVuSans-32"/>
      <use x="2886.263672" xlink:href="#DejaVuSans-97"/>
      <use x="2947.542969" xlink:href="#DejaVuSans-114"/>
      <use x="2986.40625" xlink:href="#DejaVuSans-101"/>
     </g>
    </g>
   </g>
   <g id="matplotlib.axis_2">
    <g id="ytick_1">
     <g id="line2d_28">
      <defs>
       <path d="M 0 0 
L -3.5 0 
" id="mf3de1b54e0" style="stroke:#000000;stroke-width:0.8;"/>
      </defs>
      <g>
       <use style="stroke:#000000;stroke-width:0.8;" x="54.05" xlink:href="#mf3de1b54e0" y="443.514695"/>
      </g>
     </g>
     <g id="text_29">
      <!-- 0.00 -->
      <g transform="translate(24.784375 447.313914)scale(0.1 -0.1)">
       <defs>
        <path d="M 31.78125 66.40625 
Q 24.171875 66.40625 20.328125 58.90625 
Q 16.5 51.421875 16.5 36.375 
Q 16.5 21.390625 20.328125 13.890625 
Q 24.171875 6.390625 31.78125 6.390625 
Q 39.453125 6.390625 43.28125 13.890625 
Q 47.125 21.390625 47.125 36.375 
Q 47.125 51.421875 43.28125 58.90625 
Q 39.453125 66.40625 31.78125 66.40625 
z
M 31.78125 74.21875 
Q 44.046875 74.21875 50.515625 64.515625 
Q 56.984375 54.828125 56.984375 36.375 
Q 56.984375 17.96875 50.515625 8.265625 
Q 44.046875 -1.421875 31.78125 -1.421875 
Q 19.53125 -1.421875 13.0625 8.265625 
Q 6.59375 17.96875 6.59375 36.375 
Q 6.59375 54.828125 13.0625 64.515625 
Q 19.53125 74.21875 31.78125 74.21875 
z
" id="DejaVuSans-48"/>
        <path d="M 10.6875 12.40625 
L 21 12.40625 
L 21 0 
L 10.6875 0 
z
" id="DejaVuSans-46"/>
       </defs>
       <use xlink:href="#DejaVuSans-48"/>
       <use x="63.623047" xlink:href="#DejaVuSans-46"/>
       <use x="95.410156" xlink:href="#DejaVuSans-48"/>
       <use x="159.033203" xlink:href="#DejaVuSans-48"/>
      </g>
     </g>
    </g>
    <g id="ytick_2">
     <g id="line2d_29">
      <g>
       <use style="stroke:#000000;stroke-width:0.8;" x="54.05" xlink:href="#mf3de1b54e0" y="390.889672"/>
      </g>
     </g>
     <g id="text_30">
      <!-- 0.05 -->
      <g transform="translate(24.784375 394.688891)scale(0.1 -0.1)">
       <defs>
        <path d="M 10.796875 72.90625 
L 49.515625 72.90625 
L 49.515625 64.59375 
L 19.828125 64.59375 
L 19.828125 46.734375 
Q 21.96875 47.46875 24.109375 47.828125 
Q 26.265625 48.1875 28.421875 48.1875 
Q 40.625 48.1875 47.75 41.5 
Q 54.890625 34.8125 54.890625 23.390625 
Q 54.890625 11.625 47.5625 5.09375 
Q 40.234375 -1.421875 26.90625 -1.421875 
Q 22.3125 -1.421875 17.546875 -0.640625 
Q 12.796875 0.140625 7.71875 1.703125 
L 7.71875 11.625 
Q 12.109375 9.234375 16.796875 8.0625 
Q 21.484375 6.890625 26.703125 6.890625 
Q 35.15625 6.890625 40.078125 11.328125 
Q 45.015625 15.765625 45.015625 23.390625 
Q 45.015625 31 40.078125 35.4375 
Q 35.15625 39.890625 26.703125 39.890625 
Q 22.75 39.890625 18.8125 39.015625 
Q 14.890625 38.140625 10.796875 36.28125 
z
" id="DejaVuSans-53"/>
       </defs>
       <use xlink:href="#DejaVuSans-48"/>
       <use x="63.623047" xlink:href="#DejaVuSans-46"/>
       <use x="95.410156" xlink:href="#DejaVuSans-48"/>
       <use x="159.033203" xlink:href="#DejaVuSans-53"/>
      </g>
     </g>
    </g>
    <g id="ytick_3">
     <g id="line2d_30">
      <g>
       <use style="stroke:#000000;stroke-width:0.8;" x="54.05" xlink:href="#mf3de1b54e0" y="338.264649"/>
      </g>
     </g>
     <g id="text_31">
      <!-- 0.10 -->
      <g transform="translate(24.784375 342.063868)scale(0.1 -0.1)">
       <defs>
        <path d="M 12.40625 8.296875 
L 28.515625 8.296875 
L 28.515625 63.921875 
L 10.984375 60.40625 
L 10.984375 69.390625 
L 28.421875 72.90625 
L 38.28125 72.90625 
L 38.28125 8.296875 
L 54.390625 8.296875 
L 54.390625 0 
L 12.40625 0 
z
" id="DejaVuSans-49"/>
       </defs>
       <use xlink:href="#DejaVuSans-48"/>
       <use x="63.623047" xlink:href="#DejaVuSans-46"/>
       <use x="95.410156" xlink:href="#DejaVuSans-49"/>
       <use x="159.033203" xlink:href="#DejaVuSans-48"/>
      </g>
     </g>
    </g>
    <g id="ytick_4">
     <g id="line2d_31">
      <g>
       <use style="stroke:#000000;stroke-width:0.8;" x="54.05" xlink:href="#mf3de1b54e0" y="285.639626"/>
      </g>
     </g>
     <g id="text_32">
      <!-- 0.15 -->
      <g transform="translate(24.784375 289.438845)scale(0.1 -0.1)">
       <use xlink:href="#DejaVuSans-48"/>
       <use x="63.623047" xlink:href="#DejaVuSans-46"/>
       <use x="95.410156" xlink:href="#DejaVuSans-49"/>
       <use x="159.033203" xlink:href="#DejaVuSans-53"/>
      </g>
     </g>
    </g>
    <g id="ytick_5">
     <g id="line2d_32">
      <g>
       <use style="stroke:#000000;stroke-width:0.8;" x="54.05" xlink:href="#mf3de1b54e0" y="233.014603"/>
      </g>
     </g>
     <g id="text_33">
      <!-- 0.20 -->
      <g transform="translate(24.784375 236.813822)scale(0.1 -0.1)">
       <defs>
        <path d="M 19.1875 8.296875 
L 53.609375 8.296875 
L 53.609375 0 
L 7.328125 0 
L 7.328125 8.296875 
Q 12.9375 14.109375 22.625 23.890625 
Q 32.328125 33.6875 34.8125 36.53125 
Q 39.546875 41.84375 41.421875 45.53125 
Q 43.3125 49.21875 43.3125 52.78125 
Q 43.3125 58.59375 39.234375 62.25 
Q 35.15625 65.921875 28.609375 65.921875 
Q 23.96875 65.921875 18.8125 64.3125 
Q 13.671875 62.703125 7.8125 59.421875 
L 7.8125 69.390625 
Q 13.765625 71.78125 18.9375 73 
Q 24.125 74.21875 28.421875 74.21875 
Q 39.75 74.21875 46.484375 68.546875 
Q 53.21875 62.890625 53.21875 53.421875 
Q 53.21875 48.921875 51.53125 44.890625 
Q 49.859375 40.875 45.40625 35.40625 
Q 44.1875 33.984375 37.640625 27.21875 
Q 31.109375 20.453125 19.1875 8.296875 
z
" id="DejaVuSans-50"/>
       </defs>
       <use xlink:href="#DejaVuSans-48"/>
       <use x="63.623047" xlink:href="#DejaVuSans-46"/>
       <use x="95.410156" xlink:href="#DejaVuSans-50"/>
       <use x="159.033203" xlink:href="#DejaVuSans-48"/>
      </g>
     </g>
    </g>
    <g id="ytick_6">
     <g id="line2d_33">
      <g>
       <use style="stroke:#000000;stroke-width:0.8;" x="54.05" xlink:href="#mf3de1b54e0" y="180.38958"/>
      </g>
     </g>
     <g id="text_34">
      <!-- 0.25 -->
      <g transform="translate(24.784375 184.188799)scale(0.1 -0.1)">
       <use xlink:href="#DejaVuSans-48"/>
       <use x="63.623047" xlink:href="#DejaVuSans-46"/>
       <use x="95.410156" xlink:href="#DejaVuSans-50"/>
       <use x="159.033203" xlink:href="#DejaVuSans-53"/>
      </g>
     </g>
    </g>
    <g id="ytick_7">
     <g id="line2d_34">
      <g>
       <use style="stroke:#000000;stroke-width:0.8;" x="54.05" xlink:href="#mf3de1b54e0" y="127.764557"/>
      </g>
     </g>
     <g id="text_35">
      <!-- 0.30 -->
      <g transform="translate(24.784375 131.563776)scale(0.1 -0.1)">
       <defs>
        <path d="M 40.578125 39.3125 
Q 47.65625 37.796875 51.625 33 
Q 55.609375 28.21875 55.609375 21.1875 
Q 55.609375 10.40625 48.1875 4.484375 
Q 40.765625 -1.421875 27.09375 -1.421875 
Q 22.515625 -1.421875 17.65625 -0.515625 
Q 12.796875 0.390625 7.625 2.203125 
L 7.625 11.71875 
Q 11.71875 9.328125 16.59375 8.109375 
Q 21.484375 6.890625 26.8125 6.890625 
Q 36.078125 6.890625 40.9375 10.546875 
Q 45.796875 14.203125 45.796875 21.1875 
Q 45.796875 27.640625 41.28125 31.265625 
Q 36.765625 34.90625 28.71875 34.90625 
L 20.21875 34.90625 
L 20.21875 43.015625 
L 29.109375 43.015625 
Q 36.375 43.015625 40.234375 45.921875 
Q 44.09375 48.828125 44.09375 54.296875 
Q 44.09375 59.90625 40.109375 62.90625 
Q 36.140625 65.921875 28.71875 65.921875 
Q 24.65625 65.921875 20.015625 65.03125 
Q 15.375 64.15625 9.8125 62.3125 
L 9.8125 71.09375 
Q 15.4375 72.65625 20.34375 73.4375 
Q 25.25 74.21875 29.59375 74.21875 
Q 40.828125 74.21875 47.359375 69.109375 
Q 53.90625 64.015625 53.90625 55.328125 
Q 53.90625 49.265625 50.4375 45.09375 
Q 46.96875 40.921875 40.578125 39.3125 
z
" id="DejaVuSans-51"/>
       </defs>
       <use xlink:href="#DejaVuSans-48"/>
       <use x="63.623047" xlink:href="#DejaVuSans-46"/>
       <use x="95.410156" xlink:href="#DejaVuSans-51"/>
       <use x="159.033203" xlink:href="#DejaVuSans-48"/>
      </g>
     </g>
    </g>
    <g id="ytick_8">
     <g id="line2d_35">
      <g>
       <use style="stroke:#000000;stroke-width:0.8;" x="54.05" xlink:href="#mf3de1b54e0" y="75.139534"/>
      </g>
     </g>
     <g id="text_36">
      <!-- 0.35 -->
      <g transform="translate(24.784375 78.938753)scale(0.1 -0.1)">
       <use xlink:href="#DejaVuSans-48"/>
       <use x="63.623047" xlink:href="#DejaVuSans-46"/>
       <use x="95.410156" xlink:href="#DejaVuSans-51"/>
       <use x="159.033203" xlink:href="#DejaVuSans-53"/>
      </g>
     </g>
    </g>
    <g id="ytick_9">
     <g id="line2d_36">
      <g>
       <use style="stroke:#000000;stroke-width:0.8;" x="54.05" xlink:href="#mf3de1b54e0" y="22.514511"/>
      </g>
     </g>
     <g id="text_37">
      <!-- 0.40 -->
      <g transform="translate(24.784375 26.313729)scale(0.1 -0.1)">
       <defs>
        <path d="M 37.796875 64.3125 
L 12.890625 25.390625 
L 37.796875 25.390625 
z
M 35.203125 72.90625 
L 47.609375 72.90625 
L 47.609375 25.390625 
L 58.015625 25.390625 
L 58.015625 17.1875 
L 47.609375 17.1875 
L 47.609375 0 
L 37.796875 0 
L 37.796875 17.1875 
L 4.890625 17.1875 
L 4.890625 26.703125 
z
" id="DejaVuSans-52"/>
       </defs>
       <use xlink:href="#DejaVuSans-48"/>
       <use x="63.623047" xlink:href="#DejaVuSans-46"/>
       <use x="95.410156" xlink:href="#DejaVuSans-52"/>
       <use x="159.033203" xlink:href="#DejaVuSans-48"/>
      </g>
     </g>
    </g>
    <g id="text_38">
     <!-- The importance of the thing we are using -->
     <g transform="translate(18.704687 341.090547)rotate(-90)scale(0.1 -0.1)">
      <defs>
       <path d="M -0.296875 72.90625 
L 61.375 72.90625 
L 61.375 64.59375 
L 35.5 64.59375 
L 35.5 0 
L 25.59375 0 
L 25.59375 64.59375 
L -0.296875 64.59375 
z
" id="DejaVuSans-84"/>
       <path d="M 37.109375 75.984375 
L 37.109375 68.5 
L 28.515625 68.5 
Q 23.6875 68.5 21.796875 66.546875 
Q 19.921875 64.59375 19.921875 59.515625 
L 19.921875 54.6875 
L 34.71875 54.6875 
L 34.71875 47.703125 
L 19.921875 47.703125 
L 19.921875 0 
L 10.890625 0 
L 10.890625 47.703125 
L 2.296875 47.703125 
L 2.296875 54.6875 
L 10.890625 54.6875 
L 10.890625 58.5 
Q 10.890625 67.625 15.140625 71.796875 
Q 19.390625 75.984375 28.609375 75.984375 
z
" id="DejaVuSans-102"/>
      </defs>
      <use xlink:href="#DejaVuSans-84"/>
      <use x="61.083984" xlink:href="#DejaVuSans-104"/>
      <use x="124.462891" xlink:href="#DejaVuSans-101"/>
      <use x="185.986328" xlink:href="#DejaVuSans-32"/>
      <use x="217.773438" xlink:href="#DejaVuSans-105"/>
      <use x="245.556641" xlink:href="#DejaVuSans-109"/>
      <use x="342.96875" xlink:href="#DejaVuSans-112"/>
      <use x="406.445312" xlink:href="#DejaVuSans-111"/>
      <use x="467.626953" xlink:href="#DejaVuSans-114"/>
      <use x="508.740234" xlink:href="#DejaVuSans-116"/>
      <use x="547.949219" xlink:href="#DejaVuSans-97"/>
      <use x="609.228516" xlink:href="#DejaVuSans-110"/>
      <use x="672.607422" xlink:href="#DejaVuSans-99"/>
      <use x="727.587891" xlink:href="#DejaVuSans-101"/>
      <use x="789.111328" xlink:href="#DejaVuSans-32"/>
      <use x="820.898438" xlink:href="#DejaVuSans-111"/>
      <use x="882.080078" xlink:href="#DejaVuSans-102"/>
      <use x="917.285156" xlink:href="#DejaVuSans-32"/>
      <use x="949.072266" xlink:href="#DejaVuSans-116"/>
      <use x="988.28125" xlink:href="#DejaVuSans-104"/>
      <use x="1051.660156" xlink:href="#DejaVuSans-101"/>
      <use x="1113.183594" xlink:href="#DejaVuSans-32"/>
      <use x="1144.970703" xlink:href="#DejaVuSans-116"/>
      <use x="1184.179688" xlink:href="#DejaVuSans-104"/>
      <use x="1247.558594" xlink:href="#DejaVuSans-105"/>
      <use x="1275.341797" xlink:href="#DejaVuSans-110"/>
      <use x="1338.720703" xlink:href="#DejaVuSans-103"/>
      <use x="1402.197266" xlink:href="#DejaVuSans-32"/>
      <use x="1433.984375" xlink:href="#DejaVuSans-119"/>
      <use x="1515.771484" xlink:href="#DejaVuSans-101"/>
      <use x="1577.294922" xlink:href="#DejaVuSans-32"/>
      <use x="1609.082031" xlink:href="#DejaVuSans-97"/>
      <use x="1670.361328" xlink:href="#DejaVuSans-114"/>
      <use x="1709.224609" xlink:href="#DejaVuSans-101"/>
      <use x="1770.748047" xlink:href="#DejaVuSans-32"/>
      <use x="1802.535156" xlink:href="#DejaVuSans-117"/>
      <use x="1865.914062" xlink:href="#DejaVuSans-115"/>
      <use x="1918.013672" xlink:href="#DejaVuSans-105"/>
      <use x="1945.796875" xlink:href="#DejaVuSans-110"/>
      <use x="2009.175781" xlink:href="#DejaVuSans-103"/>
     </g>
    </g>
   </g>
   <g id="patch_3">
    <path d="M 54.05 464.120157 
L 54.05 10.8 
" style="fill:none;stroke:#000000;stroke-linecap:square;stroke-linejoin:miter;stroke-width:0.8;"/>
   </g>
   <g id="patch_4">
    <path d="M 781.2 464.120157 
L 781.2 10.8 
" style="fill:none;stroke:#000000;stroke-linecap:square;stroke-linejoin:miter;stroke-width:0.8;"/>
   </g>
   <g id="patch_5">
    <path d="M 54.05 464.120157 
L 781.2 464.120157 
" style="fill:none;stroke:#000000;stroke-linecap:square;stroke-linejoin:miter;stroke-width:0.8;"/>
   </g>
   <g id="patch_6">
    <path d="M 54.05 10.8 
L 781.2 10.8 
" style="fill:none;stroke:#000000;stroke-linecap:square;stroke-linejoin:miter;stroke-width:0.8;"/>
   </g>
  </g>
 </g>
 <defs>
  <clipPath id="p612860eb3d">
   <rect height="453.320157" width="727.15" x="54.05" y="10.8"/>
  </clipPath>
 </defs>
</svg>
