<?xml version="1.0" encoding="utf-8" standalone="no"?>
<!DOCTYPE svg PUBLIC "-//W3C//DTD SVG 1.1//EN"
  "http://www.w3.org/Graphics/SVG/1.1/DTD/svg11.dtd">
<!-- Created with matplotlib (https://matplotlib.org/) -->
<svg height="576pt" version="1.1" viewBox="0 0 792 576" width="792pt" xmlns="http://www.w3.org/2000/svg" xmlns:xlink="http://www.w3.org/1999/xlink">
 <metadata>
  <rdf:RDF xmlns:cc="http://creativecommons.org/ns#" xmlns:dc="http://purl.org/dc/elements/1.1/" xmlns:rdf="http://www.w3.org/1999/02/22-rdf-syntax-ns#">
   <cc:Work>
    <dc:type rdf:resource="http://purl.org/dc/dcmitype/StillImage"/>
    <dc:date>2021-04-08T10:37:16.441452</dc:date>
    <dc:format>image/svg+xml</dc:format>
    <dc:creator>
     <cc:Agent>
      <dc:title>Matplotlib v3.3.4, https://matplotlib.org/</dc:title>
     </cc:Agent>
    </dc:creator>
   </cc:Work>
  </rdf:RDF>
 </metadata>
 <defs>
  <style type="text/css">*{stroke-linecap:butt;stroke-linejoin:round;}</style>
 </defs>
 <g id="figure_1">
  <g id="patch_1">
   <path d="M 0 576 
L 792 576 
L 792 0 
L 0 0 
z
" style="fill:none;"/>
  </g>
  <g id="axes_1">
   <g id="patch_2">
    <path d="M 99 504 
L 712.8 504 
L 712.8 69.12 
L 99 69.12 
z
" style="fill:#ffffff;"/>
   </g>
   <g id="PathCollection_1">
    <defs>
     <path d="M 0 3 
C 0.795609 3 1.55874 2.683901 2.12132 2.12132 
C 2.683901 1.55874 3 0.795609 3 0 
C 3 -0.795609 2.683901 -1.55874 2.12132 -2.12132 
C 1.55874 -2.683901 0.795609 -3 0 -3 
C -0.795609 -3 -1.55874 -2.683901 -2.12132 -2.12132 
C -2.683901 -1.55874 -3 -0.795609 -3 0 
C -3 0.795609 -2.683901 1.55874 -2.12132 2.12132 
C -1.55874 2.683901 -0.795609 3 0 3 
z
" id="m304d601dae" style="stroke:#ffffff;stroke-width:0.48;"/>
    </defs>
    <g clip-path="url(#p6846d74961)">
     <use style="fill:#1f77b4;stroke:#ffffff;stroke-width:0.48;" x="126.9" xlink:href="#m304d601dae" y="88.887273"/>
     <use style="fill:#1f77b4;stroke:#ffffff;stroke-width:0.48;" x="147.566667" xlink:href="#m304d601dae" y="188.384714"/>
     <use style="fill:#1f77b4;stroke:#ffffff;stroke-width:0.48;" x="168.233333" xlink:href="#m304d601dae" y="217.161525"/>
     <use style="fill:#1f77b4;stroke:#ffffff;stroke-width:0.48;" x="188.9" xlink:href="#m304d601dae" y="361.213029"/>
     <use style="fill:#1f77b4;stroke:#ffffff;stroke-width:0.48;" x="209.566667" xlink:href="#m304d601dae" y="380.955823"/>
     <use style="fill:#1f77b4;stroke:#ffffff;stroke-width:0.48;" x="230.233333" xlink:href="#m304d601dae" y="416.380162"/>
     <use style="fill:#1f77b4;stroke:#ffffff;stroke-width:0.48;" x="250.9" xlink:href="#m304d601dae" y="436.309183"/>
     <use style="fill:#1f77b4;stroke:#ffffff;stroke-width:0.48;" x="271.566667" xlink:href="#m304d601dae" y="444.059403"/>
     <use style="fill:#1f77b4;stroke:#ffffff;stroke-width:0.48;" x="292.233333" xlink:href="#m304d601dae" y="447.69535"/>
     <use style="fill:#1f77b4;stroke:#ffffff;stroke-width:0.48;" x="312.9" xlink:href="#m304d601dae" y="452.339876"/>
     <use style="fill:#1f77b4;stroke:#ffffff;stroke-width:0.48;" x="333.566667" xlink:href="#m304d601dae" y="452.685275"/>
     <use style="fill:#1f77b4;stroke:#ffffff;stroke-width:0.48;" x="354.233333" xlink:href="#m304d601dae" y="460.008595"/>
     <use style="fill:#1f77b4;stroke:#ffffff;stroke-width:0.48;" x="374.9" xlink:href="#m304d601dae" y="467.648364"/>
     <use style="fill:#1f77b4;stroke:#ffffff;stroke-width:0.48;" x="395.566667" xlink:href="#m304d601dae" y="468.030501"/>
     <use style="fill:#1f77b4;stroke:#ffffff;stroke-width:0.48;" x="416.233333" xlink:href="#m304d601dae" y="468.127391"/>
     <use style="fill:#1f77b4;stroke:#ffffff;stroke-width:0.48;" x="436.9" xlink:href="#m304d601dae" y="469.264135"/>
     <use style="fill:#1f77b4;stroke:#ffffff;stroke-width:0.48;" x="457.566667" xlink:href="#m304d601dae" y="470.25802"/>
     <use style="fill:#1f77b4;stroke:#ffffff;stroke-width:0.48;" x="478.233333" xlink:href="#m304d601dae" y="473.1454"/>
     <use style="fill:#1f77b4;stroke:#ffffff;stroke-width:0.48;" x="498.9" xlink:href="#m304d601dae" y="474.547795"/>
     <use style="fill:#1f77b4;stroke:#ffffff;stroke-width:0.48;" x="519.566667" xlink:href="#m304d601dae" y="474.572149"/>
     <use style="fill:#1f77b4;stroke:#ffffff;stroke-width:0.48;" x="540.233333" xlink:href="#m304d601dae" y="476.773883"/>
     <use style="fill:#1f77b4;stroke:#ffffff;stroke-width:0.48;" x="560.9" xlink:href="#m304d601dae" y="477.580069"/>
     <use style="fill:#1f77b4;stroke:#ffffff;stroke-width:0.48;" x="581.566667" xlink:href="#m304d601dae" y="478.311629"/>
     <use style="fill:#1f77b4;stroke:#ffffff;stroke-width:0.48;" x="602.233333" xlink:href="#m304d601dae" y="480.788056"/>
     <use style="fill:#1f77b4;stroke:#ffffff;stroke-width:0.48;" x="622.9" xlink:href="#m304d601dae" y="483.671648"/>
     <use style="fill:#1f77b4;stroke:#ffffff;stroke-width:0.48;" x="643.566667" xlink:href="#m304d601dae" y="483.916806"/>
     <use style="fill:#1f77b4;stroke:#ffffff;stroke-width:0.48;" x="664.233333" xlink:href="#m304d601dae" y="483.949263"/>
     <use style="fill:#1f77b4;stroke:#ffffff;stroke-width:0.48;" x="684.9" xlink:href="#m304d601dae" y="484.232727"/>
    </g>
   </g>
   <g id="matplotlib.axis_1">
    <g id="xtick_1">
     <g id="line2d_1">
      <defs>
       <path d="M 0 0 
L 0 3.5 
" id="mc5bee63385" style="stroke:#000000;stroke-width:0.8;"/>
      </defs>
      <g>
       <use style="stroke:#000000;stroke-width:0.8;" x="126.9" xlink:href="#mc5bee63385" y="504"/>
      </g>
     </g>
     <g id="text_1">
      <!-- years_ago -->
      <g transform="translate(89.08857 552.320448)rotate(-45)scale(0.1 -0.1)">
       <defs>
        <path d="M 32.171875 -5.078125 
Q 28.375 -14.84375 24.75 -17.8125 
Q 21.140625 -20.796875 15.09375 -20.796875 
L 7.90625 -20.796875 
L 7.90625 -13.28125 
L 13.1875 -13.28125 
Q 16.890625 -13.28125 18.9375 -11.515625 
Q 21 -9.765625 23.484375 -3.21875 
L 25.09375 0.875 
L 2.984375 54.6875 
L 12.5 54.6875 
L 29.59375 11.921875 
L 46.6875 54.6875 
L 56.203125 54.6875 
z
" id="DejaVuSans-121"/>
        <path d="M 56.203125 29.59375 
L 56.203125 25.203125 
L 14.890625 25.203125 
Q 15.484375 15.921875 20.484375 11.0625 
Q 25.484375 6.203125 34.421875 6.203125 
Q 39.59375 6.203125 44.453125 7.46875 
Q 49.3125 8.734375 54.109375 11.28125 
L 54.109375 2.78125 
Q 49.265625 0.734375 44.1875 -0.34375 
Q 39.109375 -1.421875 33.890625 -1.421875 
Q 20.796875 -1.421875 13.15625 6.1875 
Q 5.515625 13.8125 5.515625 26.8125 
Q 5.515625 40.234375 12.765625 48.109375 
Q 20.015625 56 32.328125 56 
Q 43.359375 56 49.78125 48.890625 
Q 56.203125 41.796875 56.203125 29.59375 
z
M 47.21875 32.234375 
Q 47.125 39.59375 43.09375 43.984375 
Q 39.0625 48.390625 32.421875 48.390625 
Q 24.90625 48.390625 20.390625 44.140625 
Q 15.875 39.890625 15.1875 32.171875 
z
" id="DejaVuSans-101"/>
        <path d="M 34.28125 27.484375 
Q 23.390625 27.484375 19.1875 25 
Q 14.984375 22.515625 14.984375 16.5 
Q 14.984375 11.71875 18.140625 8.90625 
Q 21.296875 6.109375 26.703125 6.109375 
Q 34.1875 6.109375 38.703125 11.40625 
Q 43.21875 16.703125 43.21875 25.484375 
L 43.21875 27.484375 
z
M 52.203125 31.203125 
L 52.203125 0 
L 43.21875 0 
L 43.21875 8.296875 
Q 40.140625 3.328125 35.546875 0.953125 
Q 30.953125 -1.421875 24.3125 -1.421875 
Q 15.921875 -1.421875 10.953125 3.296875 
Q 6 8.015625 6 15.921875 
Q 6 25.140625 12.171875 29.828125 
Q 18.359375 34.515625 30.609375 34.515625 
L 43.21875 34.515625 
L 43.21875 35.40625 
Q 43.21875 41.609375 39.140625 45 
Q 35.0625 48.390625 27.6875 48.390625 
Q 23 48.390625 18.546875 47.265625 
Q 14.109375 46.140625 10.015625 43.890625 
L 10.015625 52.203125 
Q 14.9375 54.109375 19.578125 55.046875 
Q 24.21875 56 28.609375 56 
Q 40.484375 56 46.34375 49.84375 
Q 52.203125 43.703125 52.203125 31.203125 
z
" id="DejaVuSans-97"/>
        <path d="M 41.109375 46.296875 
Q 39.59375 47.171875 37.8125 47.578125 
Q 36.03125 48 33.890625 48 
Q 26.265625 48 22.1875 43.046875 
Q 18.109375 38.09375 18.109375 28.8125 
L 18.109375 0 
L 9.078125 0 
L 9.078125 54.6875 
L 18.109375 54.6875 
L 18.109375 46.1875 
Q 20.953125 51.171875 25.484375 53.578125 
Q 30.03125 56 36.53125 56 
Q 37.453125 56 38.578125 55.875 
Q 39.703125 55.765625 41.0625 55.515625 
z
" id="DejaVuSans-114"/>
        <path d="M 44.28125 53.078125 
L 44.28125 44.578125 
Q 40.484375 46.53125 36.375 47.5 
Q 32.28125 48.484375 27.875 48.484375 
Q 21.1875 48.484375 17.84375 46.4375 
Q 14.5 44.390625 14.5 40.28125 
Q 14.5 37.15625 16.890625 35.375 
Q 19.28125 33.59375 26.515625 31.984375 
L 29.59375 31.296875 
Q 39.15625 29.25 43.1875 25.515625 
Q 47.21875 21.78125 47.21875 15.09375 
Q 47.21875 7.46875 41.1875 3.015625 
Q 35.15625 -1.421875 24.609375 -1.421875 
Q 20.21875 -1.421875 15.453125 -0.5625 
Q 10.6875 0.296875 5.421875 2 
L 5.421875 11.28125 
Q 10.40625 8.6875 15.234375 7.390625 
Q 20.0625 6.109375 24.8125 6.109375 
Q 31.15625 6.109375 34.5625 8.28125 
Q 37.984375 10.453125 37.984375 14.40625 
Q 37.984375 18.0625 35.515625 20.015625 
Q 33.0625 21.96875 24.703125 23.78125 
L 21.578125 24.515625 
Q 13.234375 26.265625 9.515625 29.90625 
Q 5.8125 33.546875 5.8125 39.890625 
Q 5.8125 47.609375 11.28125 51.796875 
Q 16.75 56 26.8125 56 
Q 31.78125 56 36.171875 55.265625 
Q 40.578125 54.546875 44.28125 53.078125 
z
" id="DejaVuSans-115"/>
        <path d="M 50.984375 -16.609375 
L 50.984375 -23.578125 
L -0.984375 -23.578125 
L -0.984375 -16.609375 
z
" id="DejaVuSans-95"/>
        <path d="M 45.40625 27.984375 
Q 45.40625 37.75 41.375 43.109375 
Q 37.359375 48.484375 30.078125 48.484375 
Q 22.859375 48.484375 18.828125 43.109375 
Q 14.796875 37.75 14.796875 27.984375 
Q 14.796875 18.265625 18.828125 12.890625 
Q 22.859375 7.515625 30.078125 7.515625 
Q 37.359375 7.515625 41.375 12.890625 
Q 45.40625 18.265625 45.40625 27.984375 
z
M 54.390625 6.78125 
Q 54.390625 -7.171875 48.1875 -13.984375 
Q 42 -20.796875 29.203125 -20.796875 
Q 24.46875 -20.796875 20.265625 -20.09375 
Q 16.0625 -19.390625 12.109375 -17.921875 
L 12.109375 -9.1875 
Q 16.0625 -11.328125 19.921875 -12.34375 
Q 23.78125 -13.375 27.78125 -13.375 
Q 36.625 -13.375 41.015625 -8.765625 
Q 45.40625 -4.15625 45.40625 5.171875 
L 45.40625 9.625 
Q 42.625 4.78125 38.28125 2.390625 
Q 33.9375 0 27.875 0 
Q 17.828125 0 11.671875 7.65625 
Q 5.515625 15.328125 5.515625 27.984375 
Q 5.515625 40.671875 11.671875 48.328125 
Q 17.828125 56 27.875 56 
Q 33.9375 56 38.28125 53.609375 
Q 42.625 51.21875 45.40625 46.390625 
L 45.40625 54.6875 
L 54.390625 54.6875 
z
" id="DejaVuSans-103"/>
        <path d="M 30.609375 48.390625 
Q 23.390625 48.390625 19.1875 42.75 
Q 14.984375 37.109375 14.984375 27.296875 
Q 14.984375 17.484375 19.15625 11.84375 
Q 23.34375 6.203125 30.609375 6.203125 
Q 37.796875 6.203125 41.984375 11.859375 
Q 46.1875 17.53125 46.1875 27.296875 
Q 46.1875 37.015625 41.984375 42.703125 
Q 37.796875 48.390625 30.609375 48.390625 
z
M 30.609375 56 
Q 42.328125 56 49.015625 48.375 
Q 55.71875 40.765625 55.71875 27.296875 
Q 55.71875 13.875 49.015625 6.21875 
Q 42.328125 -1.421875 30.609375 -1.421875 
Q 18.84375 -1.421875 12.171875 6.21875 
Q 5.515625 13.875 5.515625 27.296875 
Q 5.515625 40.765625 12.171875 48.375 
Q 18.84375 56 30.609375 56 
z
" id="DejaVuSans-111"/>
       </defs>
       <use xlink:href="#DejaVuSans-121"/>
       <use x="59.179688" xlink:href="#DejaVuSans-101"/>
       <use x="120.703125" xlink:href="#DejaVuSans-97"/>
       <use x="181.982422" xlink:href="#DejaVuSans-114"/>
       <use x="223.095703" xlink:href="#DejaVuSans-115"/>
       <use x="275.195312" xlink:href="#DejaVuSans-95"/>
       <use x="325.195312" xlink:href="#DejaVuSans-97"/>
       <use x="386.474609" xlink:href="#DejaVuSans-103"/>
       <use x="449.951172" xlink:href="#DejaVuSans-111"/>
      </g>
     </g>
    </g>
    <g id="xtick_2">
     <g id="line2d_2">
      <g>
       <use style="stroke:#000000;stroke-width:0.8;" x="147.566667" xlink:href="#mc5bee63385" y="504"/>
      </g>
     </g>
     <g id="text_2">
      <!-- isolation_source -->
      <g transform="translate(89.069048 573.2033)rotate(-45)scale(0.1 -0.1)">
       <defs>
        <path d="M 9.421875 54.6875 
L 18.40625 54.6875 
L 18.40625 0 
L 9.421875 0 
z
M 9.421875 75.984375 
L 18.40625 75.984375 
L 18.40625 64.59375 
L 9.421875 64.59375 
z
" id="DejaVuSans-105"/>
        <path d="M 9.421875 75.984375 
L 18.40625 75.984375 
L 18.40625 0 
L 9.421875 0 
z
" id="DejaVuSans-108"/>
        <path d="M 18.3125 70.21875 
L 18.3125 54.6875 
L 36.8125 54.6875 
L 36.8125 47.703125 
L 18.3125 47.703125 
L 18.3125 18.015625 
Q 18.3125 11.328125 20.140625 9.421875 
Q 21.96875 7.515625 27.59375 7.515625 
L 36.8125 7.515625 
L 36.8125 0 
L 27.59375 0 
Q 17.1875 0 13.234375 3.875 
Q 9.28125 7.765625 9.28125 18.015625 
L 9.28125 47.703125 
L 2.6875 47.703125 
L 2.6875 54.6875 
L 9.28125 54.6875 
L 9.28125 70.21875 
z
" id="DejaVuSans-116"/>
        <path d="M 54.890625 33.015625 
L 54.890625 0 
L 45.90625 0 
L 45.90625 32.71875 
Q 45.90625 40.484375 42.875 44.328125 
Q 39.84375 48.1875 33.796875 48.1875 
Q 26.515625 48.1875 22.3125 43.546875 
Q 18.109375 38.921875 18.109375 30.90625 
L 18.109375 0 
L 9.078125 0 
L 9.078125 54.6875 
L 18.109375 54.6875 
L 18.109375 46.1875 
Q 21.34375 51.125 25.703125 53.5625 
Q 30.078125 56 35.796875 56 
Q 45.21875 56 50.046875 50.171875 
Q 54.890625 44.34375 54.890625 33.015625 
z
" id="DejaVuSans-110"/>
        <path d="M 8.5 21.578125 
L 8.5 54.6875 
L 17.484375 54.6875 
L 17.484375 21.921875 
Q 17.484375 14.15625 20.5 10.265625 
Q 23.53125 6.390625 29.59375 6.390625 
Q 36.859375 6.390625 41.078125 11.03125 
Q 45.3125 15.671875 45.3125 23.6875 
L 45.3125 54.6875 
L 54.296875 54.6875 
L 54.296875 0 
L 45.3125 0 
L 45.3125 8.40625 
Q 42.046875 3.421875 37.71875 1 
Q 33.40625 -1.421875 27.6875 -1.421875 
Q 18.265625 -1.421875 13.375 4.4375 
Q 8.5 10.296875 8.5 21.578125 
z
M 31.109375 56 
z
" id="DejaVuSans-117"/>
        <path d="M 48.78125 52.59375 
L 48.78125 44.1875 
Q 44.96875 46.296875 41.140625 47.34375 
Q 37.3125 48.390625 33.40625 48.390625 
Q 24.65625 48.390625 19.8125 42.84375 
Q 14.984375 37.3125 14.984375 27.296875 
Q 14.984375 17.28125 19.8125 11.734375 
Q 24.65625 6.203125 33.40625 6.203125 
Q 37.3125 6.203125 41.140625 7.25 
Q 44.96875 8.296875 48.78125 10.40625 
L 48.78125 2.09375 
Q 45.015625 0.34375 40.984375 -0.53125 
Q 36.96875 -1.421875 32.421875 -1.421875 
Q 20.0625 -1.421875 12.78125 6.34375 
Q 5.515625 14.109375 5.515625 27.296875 
Q 5.515625 40.671875 12.859375 48.328125 
Q 20.21875 56 33.015625 56 
Q 37.15625 56 41.109375 55.140625 
Q 45.0625 54.296875 48.78125 52.59375 
z
" id="DejaVuSans-99"/>
       </defs>
       <use xlink:href="#DejaVuSans-105"/>
       <use x="27.783203" xlink:href="#DejaVuSans-115"/>
       <use x="79.882812" xlink:href="#DejaVuSans-111"/>
       <use x="141.064453" xlink:href="#DejaVuSans-108"/>
       <use x="168.847656" xlink:href="#DejaVuSans-97"/>
       <use x="230.126953" xlink:href="#DejaVuSans-116"/>
       <use x="269.335938" xlink:href="#DejaVuSans-105"/>
       <use x="297.119141" xlink:href="#DejaVuSans-111"/>
       <use x="358.300781" xlink:href="#DejaVuSans-110"/>
       <use x="421.679688" xlink:href="#DejaVuSans-95"/>
       <use x="471.679688" xlink:href="#DejaVuSans-115"/>
       <use x="523.779297" xlink:href="#DejaVuSans-111"/>
       <use x="584.960938" xlink:href="#DejaVuSans-117"/>
       <use x="648.339844" xlink:href="#DejaVuSans-114"/>
       <use x="687.203125" xlink:href="#DejaVuSans-99"/>
       <use x="742.183594" xlink:href="#DejaVuSans-101"/>
      </g>
     </g>
    </g>
    <g id="xtick_3">
     <g id="line2d_3">
      <g>
       <use style="stroke:#000000;stroke-width:0.8;" x="168.233333" xlink:href="#mc5bee63385" y="504"/>
      </g>
     </g>
     <g id="text_3">
      <!-- geographic_location -->
      <g transform="translate(95.255494 587.683521)rotate(-45)scale(0.1 -0.1)">
       <defs>
        <path d="M 18.109375 8.203125 
L 18.109375 -20.796875 
L 9.078125 -20.796875 
L 9.078125 54.6875 
L 18.109375 54.6875 
L 18.109375 46.390625 
Q 20.953125 51.265625 25.265625 53.625 
Q 29.59375 56 35.59375 56 
Q 45.5625 56 51.78125 48.09375 
Q 58.015625 40.1875 58.015625 27.296875 
Q 58.015625 14.40625 51.78125 6.484375 
Q 45.5625 -1.421875 35.59375 -1.421875 
Q 29.59375 -1.421875 25.265625 0.953125 
Q 20.953125 3.328125 18.109375 8.203125 
z
M 48.6875 27.296875 
Q 48.6875 37.203125 44.609375 42.84375 
Q 40.53125 48.484375 33.40625 48.484375 
Q 26.265625 48.484375 22.1875 42.84375 
Q 18.109375 37.203125 18.109375 27.296875 
Q 18.109375 17.390625 22.1875 11.75 
Q 26.265625 6.109375 33.40625 6.109375 
Q 40.53125 6.109375 44.609375 11.75 
Q 48.6875 17.390625 48.6875 27.296875 
z
" id="DejaVuSans-112"/>
        <path d="M 54.890625 33.015625 
L 54.890625 0 
L 45.90625 0 
L 45.90625 32.71875 
Q 45.90625 40.484375 42.875 44.328125 
Q 39.84375 48.1875 33.796875 48.1875 
Q 26.515625 48.1875 22.3125 43.546875 
Q 18.109375 38.921875 18.109375 30.90625 
L 18.109375 0 
L 9.078125 0 
L 9.078125 75.984375 
L 18.109375 75.984375 
L 18.109375 46.1875 
Q 21.34375 51.125 25.703125 53.5625 
Q 30.078125 56 35.796875 56 
Q 45.21875 56 50.046875 50.171875 
Q 54.890625 44.34375 54.890625 33.015625 
z
" id="DejaVuSans-104"/>
       </defs>
       <use xlink:href="#DejaVuSans-103"/>
       <use x="63.476562" xlink:href="#DejaVuSans-101"/>
       <use x="125" xlink:href="#DejaVuSans-111"/>
       <use x="186.181641" xlink:href="#DejaVuSans-103"/>
       <use x="249.658203" xlink:href="#DejaVuSans-114"/>
       <use x="290.771484" xlink:href="#DejaVuSans-97"/>
       <use x="352.050781" xlink:href="#DejaVuSans-112"/>
       <use x="415.527344" xlink:href="#DejaVuSans-104"/>
       <use x="478.90625" xlink:href="#DejaVuSans-105"/>
       <use x="506.689453" xlink:href="#DejaVuSans-99"/>
       <use x="561.669922" xlink:href="#DejaVuSans-95"/>
       <use x="611.669922" xlink:href="#DejaVuSans-108"/>
       <use x="639.453125" xlink:href="#DejaVuSans-111"/>
       <use x="700.634766" xlink:href="#DejaVuSans-99"/>
       <use x="755.615234" xlink:href="#DejaVuSans-97"/>
       <use x="816.894531" xlink:href="#DejaVuSans-116"/>
       <use x="856.103516" xlink:href="#DejaVuSans-105"/>
       <use x="883.886719" xlink:href="#DejaVuSans-111"/>
       <use x="945.068359" xlink:href="#DejaVuSans-110"/>
      </g>
     </g>
    </g>
    <g id="xtick_4">
     <g id="line2d_4">
      <g>
       <use style="stroke:#000000;stroke-width:0.8;" x="188.9" xlink:href="#mc5bee63385" y="504"/>
      </g>
     </g>
     <g id="text_4">
      <!-- isolation_country -->
      <g transform="translate(126.839227 576.766455)rotate(-45)scale(0.1 -0.1)">
       <use xlink:href="#DejaVuSans-105"/>
       <use x="27.783203" xlink:href="#DejaVuSans-115"/>
       <use x="79.882812" xlink:href="#DejaVuSans-111"/>
       <use x="141.064453" xlink:href="#DejaVuSans-108"/>
       <use x="168.847656" xlink:href="#DejaVuSans-97"/>
       <use x="230.126953" xlink:href="#DejaVuSans-116"/>
       <use x="269.335938" xlink:href="#DejaVuSans-105"/>
       <use x="297.119141" xlink:href="#DejaVuSans-111"/>
       <use x="358.300781" xlink:href="#DejaVuSans-110"/>
       <use x="421.679688" xlink:href="#DejaVuSans-95"/>
       <use x="471.679688" xlink:href="#DejaVuSans-99"/>
       <use x="526.660156" xlink:href="#DejaVuSans-111"/>
       <use x="587.841797" xlink:href="#DejaVuSans-117"/>
       <use x="651.220703" xlink:href="#DejaVuSans-110"/>
       <use x="714.599609" xlink:href="#DejaVuSans-116"/>
       <use x="753.808594" xlink:href="#DejaVuSans-114"/>
       <use x="794.921875" xlink:href="#DejaVuSans-121"/>
      </g>
     </g>
    </g>
    <g id="xtick_5">
     <g id="line2d_5">
      <g>
       <use style="stroke:#000000;stroke-width:0.8;" x="209.566667" xlink:href="#mc5bee63385" y="504"/>
      </g>
     </g>
     <g id="text_5">
      <!-- host_name -->
      <g transform="translate(169.047238 555.22511)rotate(-45)scale(0.1 -0.1)">
       <defs>
        <path d="M 52 44.1875 
Q 55.375 50.25 60.0625 53.125 
Q 64.75 56 71.09375 56 
Q 79.640625 56 84.28125 50.015625 
Q 88.921875 44.046875 88.921875 33.015625 
L 88.921875 0 
L 79.890625 0 
L 79.890625 32.71875 
Q 79.890625 40.578125 77.09375 44.375 
Q 74.3125 48.1875 68.609375 48.1875 
Q 61.625 48.1875 57.5625 43.546875 
Q 53.515625 38.921875 53.515625 30.90625 
L 53.515625 0 
L 44.484375 0 
L 44.484375 32.71875 
Q 44.484375 40.625 41.703125 44.40625 
Q 38.921875 48.1875 33.109375 48.1875 
Q 26.21875 48.1875 22.15625 43.53125 
Q 18.109375 38.875 18.109375 30.90625 
L 18.109375 0 
L 9.078125 0 
L 9.078125 54.6875 
L 18.109375 54.6875 
L 18.109375 46.1875 
Q 21.1875 51.21875 25.484375 53.609375 
Q 29.78125 56 35.6875 56 
Q 41.65625 56 45.828125 52.96875 
Q 50 49.953125 52 44.1875 
z
" id="DejaVuSans-109"/>
       </defs>
       <use xlink:href="#DejaVuSans-104"/>
       <use x="63.378906" xlink:href="#DejaVuSans-111"/>
       <use x="124.560547" xlink:href="#DejaVuSans-115"/>
       <use x="176.660156" xlink:href="#DejaVuSans-116"/>
       <use x="215.869141" xlink:href="#DejaVuSans-95"/>
       <use x="265.869141" xlink:href="#DejaVuSans-110"/>
       <use x="329.248047" xlink:href="#DejaVuSans-97"/>
       <use x="390.527344" xlink:href="#DejaVuSans-109"/>
       <use x="487.939453" xlink:href="#DejaVuSans-101"/>
      </g>
     </g>
    </g>
    <g id="xtick_6">
     <g id="line2d_6">
      <g>
       <use style="stroke:#000000;stroke-width:0.8;" x="230.233333" xlink:href="#mc5bee63385" y="504"/>
      </g>
     </g>
     <g id="text_6">
      <!-- isolation_comments -->
      <g transform="translate(157.936084 587.00293)rotate(-45)scale(0.1 -0.1)">
       <use xlink:href="#DejaVuSans-105"/>
       <use x="27.783203" xlink:href="#DejaVuSans-115"/>
       <use x="79.882812" xlink:href="#DejaVuSans-111"/>
       <use x="141.064453" xlink:href="#DejaVuSans-108"/>
       <use x="168.847656" xlink:href="#DejaVuSans-97"/>
       <use x="230.126953" xlink:href="#DejaVuSans-116"/>
       <use x="269.335938" xlink:href="#DejaVuSans-105"/>
       <use x="297.119141" xlink:href="#DejaVuSans-111"/>
       <use x="358.300781" xlink:href="#DejaVuSans-110"/>
       <use x="421.679688" xlink:href="#DejaVuSans-95"/>
       <use x="471.679688" xlink:href="#DejaVuSans-99"/>
       <use x="526.660156" xlink:href="#DejaVuSans-111"/>
       <use x="587.841797" xlink:href="#DejaVuSans-109"/>
       <use x="685.253906" xlink:href="#DejaVuSans-109"/>
       <use x="782.666016" xlink:href="#DejaVuSans-101"/>
       <use x="844.189453" xlink:href="#DejaVuSans-110"/>
       <use x="907.568359" xlink:href="#DejaVuSans-116"/>
       <use x="946.777344" xlink:href="#DejaVuSans-115"/>
      </g>
     </g>
    </g>
    <g id="xtick_7">
     <g id="line2d_7">
      <g>
       <use style="stroke:#000000;stroke-width:0.8;" x="250.9" xlink:href="#mc5bee63385" y="504"/>
      </g>
     </g>
     <g id="text_7">
      <!-- host_health -->
      <g transform="translate(208.050434 557.555248)rotate(-45)scale(0.1 -0.1)">
       <use xlink:href="#DejaVuSans-104"/>
       <use x="63.378906" xlink:href="#DejaVuSans-111"/>
       <use x="124.560547" xlink:href="#DejaVuSans-115"/>
       <use x="176.660156" xlink:href="#DejaVuSans-116"/>
       <use x="215.869141" xlink:href="#DejaVuSans-95"/>
       <use x="265.869141" xlink:href="#DejaVuSans-104"/>
       <use x="329.248047" xlink:href="#DejaVuSans-101"/>
       <use x="390.771484" xlink:href="#DejaVuSans-97"/>
       <use x="452.050781" xlink:href="#DejaVuSans-108"/>
       <use x="479.833984" xlink:href="#DejaVuSans-116"/>
       <use x="519.042969" xlink:href="#DejaVuSans-104"/>
      </g>
     </g>
    </g>
    <g id="xtick_8">
     <g id="line2d_8">
      <g>
       <use style="stroke:#000000;stroke-width:0.8;" x="271.566667" xlink:href="#mc5bee63385" y="504"/>
      </g>
     </g>
     <g id="text_8">
      <!-- other_environmental -->
      <g transform="translate(196.199027 590.073321)rotate(-45)scale(0.1 -0.1)">
       <defs>
        <path d="M 2.984375 54.6875 
L 12.5 54.6875 
L 29.59375 8.796875 
L 46.6875 54.6875 
L 56.203125 54.6875 
L 35.6875 0 
L 23.484375 0 
z
" id="DejaVuSans-118"/>
       </defs>
       <use xlink:href="#DejaVuSans-111"/>
       <use x="61.181641" xlink:href="#DejaVuSans-116"/>
       <use x="100.390625" xlink:href="#DejaVuSans-104"/>
       <use x="163.769531" xlink:href="#DejaVuSans-101"/>
       <use x="225.292969" xlink:href="#DejaVuSans-114"/>
       <use x="266.40625" xlink:href="#DejaVuSans-95"/>
       <use x="316.40625" xlink:href="#DejaVuSans-101"/>
       <use x="377.929688" xlink:href="#DejaVuSans-110"/>
       <use x="441.308594" xlink:href="#DejaVuSans-118"/>
       <use x="500.488281" xlink:href="#DejaVuSans-105"/>
       <use x="528.271484" xlink:href="#DejaVuSans-114"/>
       <use x="567.134766" xlink:href="#DejaVuSans-111"/>
       <use x="628.316406" xlink:href="#DejaVuSans-110"/>
       <use x="691.695312" xlink:href="#DejaVuSans-109"/>
       <use x="789.107422" xlink:href="#DejaVuSans-101"/>
       <use x="850.630859" xlink:href="#DejaVuSans-110"/>
       <use x="914.009766" xlink:href="#DejaVuSans-116"/>
       <use x="953.21875" xlink:href="#DejaVuSans-97"/>
       <use x="1014.498047" xlink:href="#DejaVuSans-108"/>
      </g>
     </g>
    </g>
    <g id="xtick_9">
     <g id="line2d_9">
      <g>
       <use style="stroke:#000000;stroke-width:0.8;" x="292.233333" xlink:href="#mc5bee63385" y="504"/>
      </g>
     </g>
     <g id="text_9">
      <!-- other_clinical -->
      <g transform="translate(243.744591 563.194424)rotate(-45)scale(0.1 -0.1)">
       <use xlink:href="#DejaVuSans-111"/>
       <use x="61.181641" xlink:href="#DejaVuSans-116"/>
       <use x="100.390625" xlink:href="#DejaVuSans-104"/>
       <use x="163.769531" xlink:href="#DejaVuSans-101"/>
       <use x="225.292969" xlink:href="#DejaVuSans-114"/>
       <use x="266.40625" xlink:href="#DejaVuSans-95"/>
       <use x="316.40625" xlink:href="#DejaVuSans-99"/>
       <use x="371.386719" xlink:href="#DejaVuSans-108"/>
       <use x="399.169922" xlink:href="#DejaVuSans-105"/>
       <use x="426.953125" xlink:href="#DejaVuSans-110"/>
       <use x="490.332031" xlink:href="#DejaVuSans-105"/>
       <use x="518.115234" xlink:href="#DejaVuSans-99"/>
       <use x="573.095703" xlink:href="#DejaVuSans-97"/>
       <use x="634.375" xlink:href="#DejaVuSans-108"/>
      </g>
     </g>
    </g>
    <g id="xtick_10">
     <g id="line2d_10">
      <g>
       <use style="stroke:#000000;stroke-width:0.8;" x="312.9" xlink:href="#mc5bee63385" y="504"/>
      </g>
     </g>
     <g id="text_10">
      <!-- depth -->
      <g transform="translate(290.847107 536.955238)rotate(-45)scale(0.1 -0.1)">
       <defs>
        <path d="M 45.40625 46.390625 
L 45.40625 75.984375 
L 54.390625 75.984375 
L 54.390625 0 
L 45.40625 0 
L 45.40625 8.203125 
Q 42.578125 3.328125 38.25 0.953125 
Q 33.9375 -1.421875 27.875 -1.421875 
Q 17.96875 -1.421875 11.734375 6.484375 
Q 5.515625 14.40625 5.515625 27.296875 
Q 5.515625 40.1875 11.734375 48.09375 
Q 17.96875 56 27.875 56 
Q 33.9375 56 38.25 53.625 
Q 42.578125 51.265625 45.40625 46.390625 
z
M 14.796875 27.296875 
Q 14.796875 17.390625 18.875 11.75 
Q 22.953125 6.109375 30.078125 6.109375 
Q 37.203125 6.109375 41.296875 11.75 
Q 45.40625 17.390625 45.40625 27.296875 
Q 45.40625 37.203125 41.296875 42.84375 
Q 37.203125 48.484375 30.078125 48.484375 
Q 22.953125 48.484375 18.875 42.84375 
Q 14.796875 37.203125 14.796875 27.296875 
z
" id="DejaVuSans-100"/>
       </defs>
       <use xlink:href="#DejaVuSans-100"/>
       <use x="63.476562" xlink:href="#DejaVuSans-101"/>
       <use x="125" xlink:href="#DejaVuSans-112"/>
       <use x="188.476562" xlink:href="#DejaVuSans-116"/>
       <use x="227.685547" xlink:href="#DejaVuSans-104"/>
      </g>
     </g>
    </g>
    <g id="xtick_11">
     <g id="line2d_11">
      <g>
       <use style="stroke:#000000;stroke-width:0.8;" x="333.566667" xlink:href="#mc5bee63385" y="504"/>
      </g>
     </g>
     <g id="text_11">
      <!-- optimal_temperature -->
      <g transform="translate(257.183666 591.088682)rotate(-45)scale(0.1 -0.1)">
       <use xlink:href="#DejaVuSans-111"/>
       <use x="61.181641" xlink:href="#DejaVuSans-112"/>
       <use x="124.658203" xlink:href="#DejaVuSans-116"/>
       <use x="163.867188" xlink:href="#DejaVuSans-105"/>
       <use x="191.650391" xlink:href="#DejaVuSans-109"/>
       <use x="289.0625" xlink:href="#DejaVuSans-97"/>
       <use x="350.341797" xlink:href="#DejaVuSans-108"/>
       <use x="378.125" xlink:href="#DejaVuSans-95"/>
       <use x="428.125" xlink:href="#DejaVuSans-116"/>
       <use x="467.333984" xlink:href="#DejaVuSans-101"/>
       <use x="528.857422" xlink:href="#DejaVuSans-109"/>
       <use x="626.269531" xlink:href="#DejaVuSans-112"/>
       <use x="689.746094" xlink:href="#DejaVuSans-101"/>
       <use x="751.269531" xlink:href="#DejaVuSans-114"/>
       <use x="792.382812" xlink:href="#DejaVuSans-97"/>
       <use x="853.662109" xlink:href="#DejaVuSans-116"/>
       <use x="892.871094" xlink:href="#DejaVuSans-117"/>
       <use x="956.25" xlink:href="#DejaVuSans-114"/>
       <use x="995.113281" xlink:href="#DejaVuSans-101"/>
      </g>
     </g>
    </g>
    <g id="xtick_12">
     <g id="line2d_12">
      <g>
       <use style="stroke:#000000;stroke-width:0.8;" x="354.233333" xlink:href="#mc5bee63385" y="504"/>
      </g>
     </g>
     <g id="text_12">
      <!-- host_age -->
      <g transform="translate(320.593833 548.345182)rotate(-45)scale(0.1 -0.1)">
       <use xlink:href="#DejaVuSans-104"/>
       <use x="63.378906" xlink:href="#DejaVuSans-111"/>
       <use x="124.560547" xlink:href="#DejaVuSans-115"/>
       <use x="176.660156" xlink:href="#DejaVuSans-116"/>
       <use x="215.869141" xlink:href="#DejaVuSans-95"/>
       <use x="265.869141" xlink:href="#DejaVuSans-97"/>
       <use x="327.148438" xlink:href="#DejaVuSans-103"/>
       <use x="390.625" xlink:href="#DejaVuSans-101"/>
      </g>
     </g>
    </g>
    <g id="xtick_13">
     <g id="line2d_13">
      <g>
       <use style="stroke:#000000;stroke-width:0.8;" x="374.9" xlink:href="#mc5bee63385" y="504"/>
      </g>
     </g>
     <g id="text_13">
      <!-- habitat -->
      <g transform="translate(348.284059 541.518287)rotate(-45)scale(0.1 -0.1)">
       <defs>
        <path d="M 48.6875 27.296875 
Q 48.6875 37.203125 44.609375 42.84375 
Q 40.53125 48.484375 33.40625 48.484375 
Q 26.265625 48.484375 22.1875 42.84375 
Q 18.109375 37.203125 18.109375 27.296875 
Q 18.109375 17.390625 22.1875 11.75 
Q 26.265625 6.109375 33.40625 6.109375 
Q 40.53125 6.109375 44.609375 11.75 
Q 48.6875 17.390625 48.6875 27.296875 
z
M 18.109375 46.390625 
Q 20.953125 51.265625 25.265625 53.625 
Q 29.59375 56 35.59375 56 
Q 45.5625 56 51.78125 48.09375 
Q 58.015625 40.1875 58.015625 27.296875 
Q 58.015625 14.40625 51.78125 6.484375 
Q 45.5625 -1.421875 35.59375 -1.421875 
Q 29.59375 -1.421875 25.265625 0.953125 
Q 20.953125 3.328125 18.109375 8.203125 
L 18.109375 0 
L 9.078125 0 
L 9.078125 75.984375 
L 18.109375 75.984375 
z
" id="DejaVuSans-98"/>
       </defs>
       <use xlink:href="#DejaVuSans-104"/>
       <use x="63.378906" xlink:href="#DejaVuSans-97"/>
       <use x="124.658203" xlink:href="#DejaVuSans-98"/>
       <use x="188.134766" xlink:href="#DejaVuSans-105"/>
       <use x="215.917969" xlink:href="#DejaVuSans-116"/>
       <use x="255.126953" xlink:href="#DejaVuSans-97"/>
       <use x="316.40625" xlink:href="#DejaVuSans-116"/>
      </g>
     </g>
    </g>
    <g id="xtick_14">
     <g id="line2d_14">
      <g>
       <use style="stroke:#000000;stroke-width:0.8;" x="395.566667" xlink:href="#mc5bee63385" y="504"/>
      </g>
     </g>
     <g id="text_14">
      <!-- gram_stain -->
      <g transform="translate(354.512489 555.759859)rotate(-45)scale(0.1 -0.1)">
       <use xlink:href="#DejaVuSans-103"/>
       <use x="63.476562" xlink:href="#DejaVuSans-114"/>
       <use x="104.589844" xlink:href="#DejaVuSans-97"/>
       <use x="165.869141" xlink:href="#DejaVuSans-109"/>
       <use x="263.28125" xlink:href="#DejaVuSans-95"/>
       <use x="313.28125" xlink:href="#DejaVuSans-115"/>
       <use x="365.380859" xlink:href="#DejaVuSans-116"/>
       <use x="404.589844" xlink:href="#DejaVuSans-97"/>
       <use x="465.869141" xlink:href="#DejaVuSans-105"/>
       <use x="493.652344" xlink:href="#DejaVuSans-110"/>
      </g>
     </g>
    </g>
    <g id="xtick_15">
     <g id="line2d_15">
      <g>
       <use style="stroke:#000000;stroke-width:0.8;" x="416.233333" xlink:href="#mc5bee63385" y="504"/>
      </g>
     </g>
     <g id="text_15">
      <!-- cell_shape -->
      <g transform="translate(377.524761 553.414253)rotate(-45)scale(0.1 -0.1)">
       <use xlink:href="#DejaVuSans-99"/>
       <use x="54.980469" xlink:href="#DejaVuSans-101"/>
       <use x="116.503906" xlink:href="#DejaVuSans-108"/>
       <use x="144.287109" xlink:href="#DejaVuSans-108"/>
       <use x="172.070312" xlink:href="#DejaVuSans-95"/>
       <use x="222.070312" xlink:href="#DejaVuSans-115"/>
       <use x="274.169922" xlink:href="#DejaVuSans-104"/>
       <use x="337.548828" xlink:href="#DejaVuSans-97"/>
       <use x="398.828125" xlink:href="#DejaVuSans-112"/>
       <use x="462.304688" xlink:href="#DejaVuSans-101"/>
      </g>
     </g>
    </g>
    <g id="xtick_16">
     <g id="line2d_16">
      <g>
       <use style="stroke:#000000;stroke-width:0.8;" x="436.9" xlink:href="#mc5bee63385" y="504"/>
      </g>
     </g>
     <g id="text_16">
      <!-- disease -->
      <g transform="translate(408.573744 543.228601)rotate(-45)scale(0.1 -0.1)">
       <use xlink:href="#DejaVuSans-100"/>
       <use x="63.476562" xlink:href="#DejaVuSans-105"/>
       <use x="91.259766" xlink:href="#DejaVuSans-115"/>
       <use x="143.359375" xlink:href="#DejaVuSans-101"/>
       <use x="204.882812" xlink:href="#DejaVuSans-97"/>
       <use x="266.162109" xlink:href="#DejaVuSans-115"/>
       <use x="318.261719" xlink:href="#DejaVuSans-101"/>
      </g>
     </g>
    </g>
    <g id="xtick_17">
     <g id="line2d_17">
      <g>
       <use style="stroke:#000000;stroke-width:0.8;" x="457.566667" xlink:href="#mc5bee63385" y="504"/>
      </g>
     </g>
     <g id="text_17">
      <!-- oxygen_requirement -->
      <g transform="translate(382.942594 589.329754)rotate(-45)scale(0.1 -0.1)">
       <defs>
        <path d="M 54.890625 54.6875 
L 35.109375 28.078125 
L 55.90625 0 
L 45.3125 0 
L 29.390625 21.484375 
L 13.484375 0 
L 2.875 0 
L 24.125 28.609375 
L 4.6875 54.6875 
L 15.28125 54.6875 
L 29.78125 35.203125 
L 44.28125 54.6875 
z
" id="DejaVuSans-120"/>
        <path d="M 14.796875 27.296875 
Q 14.796875 17.390625 18.875 11.75 
Q 22.953125 6.109375 30.078125 6.109375 
Q 37.203125 6.109375 41.296875 11.75 
Q 45.40625 17.390625 45.40625 27.296875 
Q 45.40625 37.203125 41.296875 42.84375 
Q 37.203125 48.484375 30.078125 48.484375 
Q 22.953125 48.484375 18.875 42.84375 
Q 14.796875 37.203125 14.796875 27.296875 
z
M 45.40625 8.203125 
Q 42.578125 3.328125 38.25 0.953125 
Q 33.9375 -1.421875 27.875 -1.421875 
Q 17.96875 -1.421875 11.734375 6.484375 
Q 5.515625 14.40625 5.515625 27.296875 
Q 5.515625 40.1875 11.734375 48.09375 
Q 17.96875 56 27.875 56 
Q 33.9375 56 38.25 53.625 
Q 42.578125 51.265625 45.40625 46.390625 
L 45.40625 54.6875 
L 54.390625 54.6875 
L 54.390625 -20.796875 
L 45.40625 -20.796875 
z
" id="DejaVuSans-113"/>
       </defs>
       <use xlink:href="#DejaVuSans-111"/>
       <use x="58.056641" xlink:href="#DejaVuSans-120"/>
       <use x="117.236328" xlink:href="#DejaVuSans-121"/>
       <use x="176.416016" xlink:href="#DejaVuSans-103"/>
       <use x="239.892578" xlink:href="#DejaVuSans-101"/>
       <use x="301.416016" xlink:href="#DejaVuSans-110"/>
       <use x="364.794922" xlink:href="#DejaVuSans-95"/>
       <use x="414.794922" xlink:href="#DejaVuSans-114"/>
       <use x="453.658203" xlink:href="#DejaVuSans-101"/>
       <use x="515.181641" xlink:href="#DejaVuSans-113"/>
       <use x="578.658203" xlink:href="#DejaVuSans-117"/>
       <use x="642.037109" xlink:href="#DejaVuSans-105"/>
       <use x="669.820312" xlink:href="#DejaVuSans-114"/>
       <use x="708.683594" xlink:href="#DejaVuSans-101"/>
       <use x="770.207031" xlink:href="#DejaVuSans-109"/>
       <use x="867.619141" xlink:href="#DejaVuSans-101"/>
       <use x="929.142578" xlink:href="#DejaVuSans-110"/>
       <use x="992.521484" xlink:href="#DejaVuSans-116"/>
      </g>
     </g>
    </g>
    <g id="xtick_18">
     <g id="line2d_18">
      <g>
       <use style="stroke:#000000;stroke-width:0.8;" x="478.233333" xlink:href="#mc5bee63385" y="504"/>
      </g>
     </g>
     <g id="text_18">
      <!-- motility -->
      <g transform="translate(449.92586 543.209819)rotate(-45)scale(0.1 -0.1)">
       <use xlink:href="#DejaVuSans-109"/>
       <use x="97.412109" xlink:href="#DejaVuSans-111"/>
       <use x="158.59375" xlink:href="#DejaVuSans-116"/>
       <use x="197.802734" xlink:href="#DejaVuSans-105"/>
       <use x="225.585938" xlink:href="#DejaVuSans-108"/>
       <use x="253.369141" xlink:href="#DejaVuSans-105"/>
       <use x="281.152344" xlink:href="#DejaVuSans-116"/>
       <use x="320.361328" xlink:href="#DejaVuSans-121"/>
      </g>
     </g>
    </g>
    <g id="xtick_19">
     <g id="line2d_19">
      <g>
       <use style="stroke:#000000;stroke-width:0.8;" x="498.9" xlink:href="#mc5bee63385" y="504"/>
      </g>
     </g>
     <g id="text_19">
      <!-- altitude -->
      <g transform="translate(470.30195 543.500395)rotate(-45)scale(0.1 -0.1)">
       <use xlink:href="#DejaVuSans-97"/>
       <use x="61.279297" xlink:href="#DejaVuSans-108"/>
       <use x="89.0625" xlink:href="#DejaVuSans-116"/>
       <use x="128.271484" xlink:href="#DejaVuSans-105"/>
       <use x="156.054688" xlink:href="#DejaVuSans-116"/>
       <use x="195.263672" xlink:href="#DejaVuSans-117"/>
       <use x="258.642578" xlink:href="#DejaVuSans-100"/>
       <use x="322.119141" xlink:href="#DejaVuSans-101"/>
      </g>
     </g>
    </g>
    <g id="xtick_20">
     <g id="line2d_20">
      <g>
       <use style="stroke:#000000;stroke-width:0.8;" x="519.566667" xlink:href="#mc5bee63385" y="504"/>
      </g>
     </g>
     <g id="text_20">
      <!-- host_gender -->
      <g transform="translate(474.032305 560.240044)rotate(-45)scale(0.1 -0.1)">
       <use xlink:href="#DejaVuSans-104"/>
       <use x="63.378906" xlink:href="#DejaVuSans-111"/>
       <use x="124.560547" xlink:href="#DejaVuSans-115"/>
       <use x="176.660156" xlink:href="#DejaVuSans-116"/>
       <use x="215.869141" xlink:href="#DejaVuSans-95"/>
       <use x="265.869141" xlink:href="#DejaVuSans-103"/>
       <use x="329.345703" xlink:href="#DejaVuSans-101"/>
       <use x="390.869141" xlink:href="#DejaVuSans-110"/>
       <use x="454.248047" xlink:href="#DejaVuSans-100"/>
       <use x="517.724609" xlink:href="#DejaVuSans-101"/>
       <use x="579.248047" xlink:href="#DejaVuSans-114"/>
      </g>
     </g>
    </g>
    <g id="xtick_21">
     <g id="line2d_21">
      <g>
       <use style="stroke:#000000;stroke-width:0.8;" x="540.233333" xlink:href="#mc5bee63385" y="504"/>
      </g>
     </g>
     <g id="text_21">
      <!-- temperature_range -->
      <g transform="translate(470.026469 584.715882)rotate(-45)scale(0.1 -0.1)">
       <use xlink:href="#DejaVuSans-116"/>
       <use x="39.208984" xlink:href="#DejaVuSans-101"/>
       <use x="100.732422" xlink:href="#DejaVuSans-109"/>
       <use x="198.144531" xlink:href="#DejaVuSans-112"/>
       <use x="261.621094" xlink:href="#DejaVuSans-101"/>
       <use x="323.144531" xlink:href="#DejaVuSans-114"/>
       <use x="364.257812" xlink:href="#DejaVuSans-97"/>
       <use x="425.537109" xlink:href="#DejaVuSans-116"/>
       <use x="464.746094" xlink:href="#DejaVuSans-117"/>
       <use x="528.125" xlink:href="#DejaVuSans-114"/>
       <use x="566.988281" xlink:href="#DejaVuSans-101"/>
       <use x="628.511719" xlink:href="#DejaVuSans-95"/>
       <use x="678.511719" xlink:href="#DejaVuSans-114"/>
       <use x="719.625" xlink:href="#DejaVuSans-97"/>
       <use x="780.904297" xlink:href="#DejaVuSans-110"/>
       <use x="844.283203" xlink:href="#DejaVuSans-103"/>
       <use x="907.759766" xlink:href="#DejaVuSans-101"/>
      </g>
     </g>
    </g>
    <g id="xtick_22">
     <g id="line2d_22">
      <g>
       <use style="stroke:#000000;stroke-width:0.8;" x="560.9" xlink:href="#mc5bee63385" y="504"/>
      </g>
     </g>
     <g id="text_22">
      <!-- body_sample_site -->
      <g transform="translate(496.191996 579.413686)rotate(-45)scale(0.1 -0.1)">
       <use xlink:href="#DejaVuSans-98"/>
       <use x="63.476562" xlink:href="#DejaVuSans-111"/>
       <use x="124.658203" xlink:href="#DejaVuSans-100"/>
       <use x="188.134766" xlink:href="#DejaVuSans-121"/>
       <use x="247.314453" xlink:href="#DejaVuSans-95"/>
       <use x="297.314453" xlink:href="#DejaVuSans-115"/>
       <use x="349.414062" xlink:href="#DejaVuSans-97"/>
       <use x="410.693359" xlink:href="#DejaVuSans-109"/>
       <use x="508.105469" xlink:href="#DejaVuSans-112"/>
       <use x="571.582031" xlink:href="#DejaVuSans-108"/>
       <use x="599.365234" xlink:href="#DejaVuSans-101"/>
       <use x="660.888672" xlink:href="#DejaVuSans-95"/>
       <use x="710.888672" xlink:href="#DejaVuSans-115"/>
       <use x="762.988281" xlink:href="#DejaVuSans-105"/>
       <use x="790.771484" xlink:href="#DejaVuSans-116"/>
       <use x="829.980469" xlink:href="#DejaVuSans-101"/>
      </g>
     </g>
    </g>
    <g id="xtick_23">
     <g id="line2d_23">
      <g>
       <use style="stroke:#000000;stroke-width:0.8;" x="581.566667" xlink:href="#mc5bee63385" y="504"/>
      </g>
     </g>
     <g id="text_23">
      <!-- sporulation -->
      <g transform="translate(540.366648 556.102364)rotate(-45)scale(0.1 -0.1)">
       <use xlink:href="#DejaVuSans-115"/>
       <use x="52.099609" xlink:href="#DejaVuSans-112"/>
       <use x="115.576172" xlink:href="#DejaVuSans-111"/>
       <use x="176.757812" xlink:href="#DejaVuSans-114"/>
       <use x="217.871094" xlink:href="#DejaVuSans-117"/>
       <use x="281.25" xlink:href="#DejaVuSans-108"/>
       <use x="309.033203" xlink:href="#DejaVuSans-97"/>
       <use x="370.3125" xlink:href="#DejaVuSans-116"/>
       <use x="409.521484" xlink:href="#DejaVuSans-105"/>
       <use x="437.304688" xlink:href="#DejaVuSans-111"/>
       <use x="498.486328" xlink:href="#DejaVuSans-110"/>
      </g>
     </g>
    </g>
    <g id="xtick_24">
     <g id="line2d_24">
      <g>
       <use style="stroke:#000000;stroke-width:0.8;" x="602.233333" xlink:href="#mc5bee63385" y="504"/>
      </g>
     </g>
     <g id="text_24">
      <!-- salinity -->
      <g transform="translate(575.414099 541.72158)rotate(-45)scale(0.1 -0.1)">
       <use xlink:href="#DejaVuSans-115"/>
       <use x="52.099609" xlink:href="#DejaVuSans-97"/>
       <use x="113.378906" xlink:href="#DejaVuSans-108"/>
       <use x="141.162109" xlink:href="#DejaVuSans-105"/>
       <use x="168.945312" xlink:href="#DejaVuSans-110"/>
       <use x="232.324219" xlink:href="#DejaVuSans-105"/>
       <use x="260.107422" xlink:href="#DejaVuSans-116"/>
       <use x="299.316406" xlink:href="#DejaVuSans-121"/>
      </g>
     </g>
    </g>
    <g id="xtick_25">
     <g id="line2d_25">
      <g>
       <use style="stroke:#000000;stroke-width:0.8;" x="622.9" xlink:href="#mc5bee63385" y="504"/>
      </g>
     </g>
     <g id="text_25">
      <!-- isolation_site -->
      <g transform="translate(575.109525 562.496156)rotate(-45)scale(0.1 -0.1)">
       <use xlink:href="#DejaVuSans-105"/>
       <use x="27.783203" xlink:href="#DejaVuSans-115"/>
       <use x="79.882812" xlink:href="#DejaVuSans-111"/>
       <use x="141.064453" xlink:href="#DejaVuSans-108"/>
       <use x="168.847656" xlink:href="#DejaVuSans-97"/>
       <use x="230.126953" xlink:href="#DejaVuSans-116"/>
       <use x="269.335938" xlink:href="#DejaVuSans-105"/>
       <use x="297.119141" xlink:href="#DejaVuSans-111"/>
       <use x="358.300781" xlink:href="#DejaVuSans-110"/>
       <use x="421.679688" xlink:href="#DejaVuSans-95"/>
       <use x="471.679688" xlink:href="#DejaVuSans-115"/>
       <use x="523.779297" xlink:href="#DejaVuSans-105"/>
       <use x="551.5625" xlink:href="#DejaVuSans-116"/>
       <use x="590.771484" xlink:href="#DejaVuSans-101"/>
      </g>
     </g>
    </g>
    <g id="xtick_26">
     <g id="line2d_26">
      <g>
       <use style="stroke:#000000;stroke-width:0.8;" x="643.566667" xlink:href="#mc5bee63385" y="504"/>
      </g>
     </g>
     <g id="text_26">
      <!-- latitude -->
      <g transform="translate(614.968617 543.500395)rotate(-45)scale(0.1 -0.1)">
       <use xlink:href="#DejaVuSans-108"/>
       <use x="27.783203" xlink:href="#DejaVuSans-97"/>
       <use x="89.0625" xlink:href="#DejaVuSans-116"/>
       <use x="128.271484" xlink:href="#DejaVuSans-105"/>
       <use x="156.054688" xlink:href="#DejaVuSans-116"/>
       <use x="195.263672" xlink:href="#DejaVuSans-117"/>
       <use x="258.642578" xlink:href="#DejaVuSans-100"/>
       <use x="322.119141" xlink:href="#DejaVuSans-101"/>
      </g>
     </g>
    </g>
    <g id="xtick_27">
     <g id="line2d_27">
      <g>
       <use style="stroke:#000000;stroke-width:0.8;" x="664.233333" xlink:href="#mc5bee63385" y="504"/>
      </g>
     </g>
     <g id="text_27">
      <!-- longitude -->
      <g transform="translate(629.44368 549.691999)rotate(-45)scale(0.1 -0.1)">
       <use xlink:href="#DejaVuSans-108"/>
       <use x="27.783203" xlink:href="#DejaVuSans-111"/>
       <use x="88.964844" xlink:href="#DejaVuSans-110"/>
       <use x="152.34375" xlink:href="#DejaVuSans-103"/>
       <use x="215.820312" xlink:href="#DejaVuSans-105"/>
       <use x="243.603516" xlink:href="#DejaVuSans-116"/>
       <use x="282.8125" xlink:href="#DejaVuSans-117"/>
       <use x="346.191406" xlink:href="#DejaVuSans-100"/>
       <use x="409.667969" xlink:href="#DejaVuSans-101"/>
      </g>
     </g>
    </g>
    <g id="xtick_28">
     <g id="line2d_28">
      <g>
       <use style="stroke:#000000;stroke-width:0.8;" x="684.9" xlink:href="#mc5bee63385" y="504"/>
      </g>
     </g>
     <g id="text_28">
      <!-- body_sample_subsite -->
      <g transform="translate(607.538099 592.067583)rotate(-45)scale(0.1 -0.1)">
       <use xlink:href="#DejaVuSans-98"/>
       <use x="63.476562" xlink:href="#DejaVuSans-111"/>
       <use x="124.658203" xlink:href="#DejaVuSans-100"/>
       <use x="188.134766" xlink:href="#DejaVuSans-121"/>
       <use x="247.314453" xlink:href="#DejaVuSans-95"/>
       <use x="297.314453" xlink:href="#DejaVuSans-115"/>
       <use x="349.414062" xlink:href="#DejaVuSans-97"/>
       <use x="410.693359" xlink:href="#DejaVuSans-109"/>
       <use x="508.105469" xlink:href="#DejaVuSans-112"/>
       <use x="571.582031" xlink:href="#DejaVuSans-108"/>
       <use x="599.365234" xlink:href="#DejaVuSans-101"/>
       <use x="660.888672" xlink:href="#DejaVuSans-95"/>
       <use x="710.888672" xlink:href="#DejaVuSans-115"/>
       <use x="762.988281" xlink:href="#DejaVuSans-117"/>
       <use x="826.367188" xlink:href="#DejaVuSans-98"/>
       <use x="889.84375" xlink:href="#DejaVuSans-115"/>
       <use x="941.943359" xlink:href="#DejaVuSans-105"/>
       <use x="969.726562" xlink:href="#DejaVuSans-116"/>
       <use x="1008.935547" xlink:href="#DejaVuSans-101"/>
      </g>
     </g>
    </g>
    <g id="text_29">
     <!-- feature -->
     <g transform="translate(387.850781 605.333245)scale(0.1 -0.1)">
      <defs>
       <path d="M 37.109375 75.984375 
L 37.109375 68.5 
L 28.515625 68.5 
Q 23.6875 68.5 21.796875 66.546875 
Q 19.921875 64.59375 19.921875 59.515625 
L 19.921875 54.6875 
L 34.71875 54.6875 
L 34.71875 47.703125 
L 19.921875 47.703125 
L 19.921875 0 
L 10.890625 0 
L 10.890625 47.703125 
L 2.296875 47.703125 
L 2.296875 54.6875 
L 10.890625 54.6875 
L 10.890625 58.5 
Q 10.890625 67.625 15.140625 71.796875 
Q 19.390625 75.984375 28.609375 75.984375 
z
" id="DejaVuSans-102"/>
      </defs>
      <use xlink:href="#DejaVuSans-102"/>
      <use x="35.205078" xlink:href="#DejaVuSans-101"/>
      <use x="96.728516" xlink:href="#DejaVuSans-97"/>
      <use x="158.007812" xlink:href="#DejaVuSans-116"/>
      <use x="197.216797" xlink:href="#DejaVuSans-117"/>
      <use x="260.595703" xlink:href="#DejaVuSans-114"/>
      <use x="299.458984" xlink:href="#DejaVuSans-101"/>
     </g>
    </g>
   </g>
   <g id="matplotlib.axis_2">
    <g id="ytick_1">
     <g id="line2d_29">
      <defs>
       <path d="M 0 0 
L -3.5 0 
" id="md5b1bd7a2a" style="stroke:#000000;stroke-width:0.8;"/>
      </defs>
      <g>
       <use style="stroke:#000000;stroke-width:0.8;" x="99" xlink:href="#md5b1bd7a2a" y="484.232727"/>
      </g>
     </g>
     <g id="text_30">
      <!-- 0.00 -->
      <g transform="translate(69.734375 488.031946)scale(0.1 -0.1)">
       <defs>
        <path d="M 31.78125 66.40625 
Q 24.171875 66.40625 20.328125 58.90625 
Q 16.5 51.421875 16.5 36.375 
Q 16.5 21.390625 20.328125 13.890625 
Q 24.171875 6.390625 31.78125 6.390625 
Q 39.453125 6.390625 43.28125 13.890625 
Q 47.125 21.390625 47.125 36.375 
Q 47.125 51.421875 43.28125 58.90625 
Q 39.453125 66.40625 31.78125 66.40625 
z
M 31.78125 74.21875 
Q 44.046875 74.21875 50.515625 64.515625 
Q 56.984375 54.828125 56.984375 36.375 
Q 56.984375 17.96875 50.515625 8.265625 
Q 44.046875 -1.421875 31.78125 -1.421875 
Q 19.53125 -1.421875 13.0625 8.265625 
Q 6.59375 17.96875 6.59375 36.375 
Q 6.59375 54.828125 13.0625 64.515625 
Q 19.53125 74.21875 31.78125 74.21875 
z
" id="DejaVuSans-48"/>
        <path d="M 10.6875 12.40625 
L 21 12.40625 
L 21 0 
L 10.6875 0 
z
" id="DejaVuSans-46"/>
       </defs>
       <use xlink:href="#DejaVuSans-48"/>
       <use x="63.623047" xlink:href="#DejaVuSans-46"/>
       <use x="95.410156" xlink:href="#DejaVuSans-48"/>
       <use x="159.033203" xlink:href="#DejaVuSans-48"/>
      </g>
     </g>
    </g>
    <g id="ytick_2">
     <g id="line2d_30">
      <g>
       <use style="stroke:#000000;stroke-width:0.8;" x="99" xlink:href="#md5b1bd7a2a" y="404.351811"/>
      </g>
     </g>
     <g id="text_31">
      <!-- 0.05 -->
      <g transform="translate(69.734375 408.15103)scale(0.1 -0.1)">
       <defs>
        <path d="M 10.796875 72.90625 
L 49.515625 72.90625 
L 49.515625 64.59375 
L 19.828125 64.59375 
L 19.828125 46.734375 
Q 21.96875 47.46875 24.109375 47.828125 
Q 26.265625 48.1875 28.421875 48.1875 
Q 40.625 48.1875 47.75 41.5 
Q 54.890625 34.8125 54.890625 23.390625 
Q 54.890625 11.625 47.5625 5.09375 
Q 40.234375 -1.421875 26.90625 -1.421875 
Q 22.3125 -1.421875 17.546875 -0.640625 
Q 12.796875 0.140625 7.71875 1.703125 
L 7.71875 11.625 
Q 12.109375 9.234375 16.796875 8.0625 
Q 21.484375 6.890625 26.703125 6.890625 
Q 35.15625 6.890625 40.078125 11.328125 
Q 45.015625 15.765625 45.015625 23.390625 
Q 45.015625 31 40.078125 35.4375 
Q 35.15625 39.890625 26.703125 39.890625 
Q 22.75 39.890625 18.8125 39.015625 
Q 14.890625 38.140625 10.796875 36.28125 
z
" id="DejaVuSans-53"/>
       </defs>
       <use xlink:href="#DejaVuSans-48"/>
       <use x="63.623047" xlink:href="#DejaVuSans-46"/>
       <use x="95.410156" xlink:href="#DejaVuSans-48"/>
       <use x="159.033203" xlink:href="#DejaVuSans-53"/>
      </g>
     </g>
    </g>
    <g id="ytick_3">
     <g id="line2d_31">
      <g>
       <use style="stroke:#000000;stroke-width:0.8;" x="99" xlink:href="#md5b1bd7a2a" y="324.470895"/>
      </g>
     </g>
     <g id="text_32">
      <!-- 0.10 -->
      <g transform="translate(69.734375 328.270114)scale(0.1 -0.1)">
       <defs>
        <path d="M 12.40625 8.296875 
L 28.515625 8.296875 
L 28.515625 63.921875 
L 10.984375 60.40625 
L 10.984375 69.390625 
L 28.421875 72.90625 
L 38.28125 72.90625 
L 38.28125 8.296875 
L 54.390625 8.296875 
L 54.390625 0 
L 12.40625 0 
z
" id="DejaVuSans-49"/>
       </defs>
       <use xlink:href="#DejaVuSans-48"/>
       <use x="63.623047" xlink:href="#DejaVuSans-46"/>
       <use x="95.410156" xlink:href="#DejaVuSans-49"/>
       <use x="159.033203" xlink:href="#DejaVuSans-48"/>
      </g>
     </g>
    </g>
    <g id="ytick_4">
     <g id="line2d_32">
      <g>
       <use style="stroke:#000000;stroke-width:0.8;" x="99" xlink:href="#md5b1bd7a2a" y="244.589979"/>
      </g>
     </g>
     <g id="text_33">
      <!-- 0.15 -->
      <g transform="translate(69.734375 248.389198)scale(0.1 -0.1)">
       <use xlink:href="#DejaVuSans-48"/>
       <use x="63.623047" xlink:href="#DejaVuSans-46"/>
       <use x="95.410156" xlink:href="#DejaVuSans-49"/>
       <use x="159.033203" xlink:href="#DejaVuSans-53"/>
      </g>
     </g>
    </g>
    <g id="ytick_5">
     <g id="line2d_33">
      <g>
       <use style="stroke:#000000;stroke-width:0.8;" x="99" xlink:href="#md5b1bd7a2a" y="164.709063"/>
      </g>
     </g>
     <g id="text_34">
      <!-- 0.20 -->
      <g transform="translate(69.734375 168.508282)scale(0.1 -0.1)">
       <defs>
        <path d="M 19.1875 8.296875 
L 53.609375 8.296875 
L 53.609375 0 
L 7.328125 0 
L 7.328125 8.296875 
Q 12.9375 14.109375 22.625 23.890625 
Q 32.328125 33.6875 34.8125 36.53125 
Q 39.546875 41.84375 41.421875 45.53125 
Q 43.3125 49.21875 43.3125 52.78125 
Q 43.3125 58.59375 39.234375 62.25 
Q 35.15625 65.921875 28.609375 65.921875 
Q 23.96875 65.921875 18.8125 64.3125 
Q 13.671875 62.703125 7.8125 59.421875 
L 7.8125 69.390625 
Q 13.765625 71.78125 18.9375 73 
Q 24.125 74.21875 28.421875 74.21875 
Q 39.75 74.21875 46.484375 68.546875 
Q 53.21875 62.890625 53.21875 53.421875 
Q 53.21875 48.921875 51.53125 44.890625 
Q 49.859375 40.875 45.40625 35.40625 
Q 44.1875 33.984375 37.640625 27.21875 
Q 31.109375 20.453125 19.1875 8.296875 
z
" id="DejaVuSans-50"/>
       </defs>
       <use xlink:href="#DejaVuSans-48"/>
       <use x="63.623047" xlink:href="#DejaVuSans-46"/>
       <use x="95.410156" xlink:href="#DejaVuSans-50"/>
       <use x="159.033203" xlink:href="#DejaVuSans-48"/>
      </g>
     </g>
    </g>
    <g id="ytick_6">
     <g id="line2d_34">
      <g>
       <use style="stroke:#000000;stroke-width:0.8;" x="99" xlink:href="#md5b1bd7a2a" y="84.828147"/>
      </g>
     </g>
     <g id="text_35">
      <!-- 0.25 -->
      <g transform="translate(69.734375 88.627366)scale(0.1 -0.1)">
       <use xlink:href="#DejaVuSans-48"/>
       <use x="63.623047" xlink:href="#DejaVuSans-46"/>
       <use x="95.410156" xlink:href="#DejaVuSans-50"/>
       <use x="159.033203" xlink:href="#DejaVuSans-53"/>
      </g>
     </g>
    </g>
    <g id="text_36">
     <!-- importance -->
     <g transform="translate(63.654687 315.127187)rotate(-90)scale(0.1 -0.1)">
      <use xlink:href="#DejaVuSans-105"/>
      <use x="27.783203" xlink:href="#DejaVuSans-109"/>
      <use x="125.195312" xlink:href="#DejaVuSans-112"/>
      <use x="188.671875" xlink:href="#DejaVuSans-111"/>
      <use x="249.853516" xlink:href="#DejaVuSans-114"/>
      <use x="290.966797" xlink:href="#DejaVuSans-116"/>
      <use x="330.175781" xlink:href="#DejaVuSans-97"/>
      <use x="391.455078" xlink:href="#DejaVuSans-110"/>
      <use x="454.833984" xlink:href="#DejaVuSans-99"/>
      <use x="509.814453" xlink:href="#DejaVuSans-101"/>
     </g>
    </g>
   </g>
   <g id="patch_3">
    <path d="M 99 504 
L 99 69.12 
" style="fill:none;stroke:#000000;stroke-linecap:square;stroke-linejoin:miter;stroke-width:0.8;"/>
   </g>
   <g id="patch_4">
    <path d="M 712.8 504 
L 712.8 69.12 
" style="fill:none;stroke:#000000;stroke-linecap:square;stroke-linejoin:miter;stroke-width:0.8;"/>
   </g>
   <g id="patch_5">
    <path d="M 99 504 
L 712.8 504 
" style="fill:none;stroke:#000000;stroke-linecap:square;stroke-linejoin:miter;stroke-width:0.8;"/>
   </g>
   <g id="patch_6">
    <path d="M 99 69.12 
L 712.8 69.12 
" style="fill:none;stroke:#000000;stroke-linecap:square;stroke-linejoin:miter;stroke-width:0.8;"/>
   </g>
  </g>
 </g>
 <defs>
  <clipPath id="p6846d74961">
   <rect height="434.88" width="613.8" x="99" y="69.12"/>
  </clipPath>
 </defs>
</svg>
